<?xml version="1.0" standalone="no"?>
<!DOCTYPE svg PUBLIC "-//W3C//DTD SVG 20010904//EN"
 "http://www.w3.org/TR/2001/REC-SVG-20010904/DTD/svg10.dtd">
<svg version="1.0" xmlns="http://www.w3.org/2000/svg"
 width="300.000000pt" height="331.000000pt" viewBox="0 0 300.000000 331.000000"
 preserveAspectRatio="xMidYMid meet">
<metadata>
Created by potrace 1.10, written by Peter Selinger 2001-2011
</metadata>
<g transform="translate(0.000000,331.000000) scale(0.100000,-0.100000)"
fill="#000000" stroke="none">
<path d="M1993 2303 c-17 -12 -23 -25 -23 -54 0 -21 5 -41 10 -44 6 -3 10 -13 10 -22 0 -24 49 -83 68 -83 23 0 72 46 72 68 0 26 -36 45 -59 31 -10 -7 -26 -9 -35 -6 -24 9 -16 41 12 45 24 4 28 19 9 42 -27 34 -41 39 -64 23z"/>
<path d="M691 2107 c-8 -8 -5 -16 15 -32 l25 -20 -19 -46 c-11 -26 -26 -50 -33 -54 -7 -5 -10 -4 -5 3 11 18 -9 22 -32 6 -35 -24 -26 -37 43 -65 52 -22 65 -24 69 -12 3 8 1 11 -4 8 -6 -3 -10 1 -10 9 0 10 6 13 17 9 11 -4 14 -3 9 5 -4 7 -13 12 -20 12 -30 0 -36 25 -18 73 l18 46 32 -21 c25 -15 36 -18 44 -10 7 7 10 13 7 14 -2 2 -32 22 -65 45 -46 31 -64 39 -73 30z m-5 -182 c10 -8 15 -14 9 -14 -5 0 -19 6 -29 14 -11 8 -15 15 -10 15 6 0 19 -7 30 -15z"/>
<path d="M1296 841 c-4 -6 -4 -48 0 -94 5 -45 7 -85 6 -89 -4 -15 14 -8 28 12 21 29 33 25 28 -10 -3 -20 0 -30 8 -30 20 0 22 11 14 75 -4 33 -6 61 -5 63 1 1 10 -14 20 -34 10 -21 30 -56 45 -80 26 -42 27 -42 43 -23 10 10 17 24 17 29 0 17 10 11 37 -20 30 -36 38 -37 58 -7 17 27 32 203 16 193 -5 -3 -12 0 -15 6 -3 7 -3 2 0 -11 5 -18 3 -23 -8 -18 -12 4 -14 -9 -12 -79 2 -46 -1 -86 -7 -89 -5 -4 -20 6 -33 22 -20 23 -25 39 -25 90 0 46 4 65 16 71 13 8 12 10 -6 15 -14 3 -21 0 -21 -9 0 -8 -6 -14 -14 -14 -8 0 -16 -12 -18 -27 l-4 -28 -14 28 c-14 30 -37 36 -46 12 -9 -23 -21 -18 -33 15 -18 53 -31 35 -24 -37 7 -79 -11 -82 -20 -3 -7 58 -20 89 -31 71z m154 -91 c15 -21 20 -41 18 -67 l-3 -38 -33 57 c-31 53 -34 78 -12 78 5 0 18 -13 30 -30z"/>
</g>
</svg>
