<?xml version="1.0" standalone="no"?>
<!DOCTYPE svg PUBLIC "-//W3C//DTD SVG 20010904//EN"
 "http://www.w3.org/TR/2001/REC-SVG-20010904/DTD/svg10.dtd">
<svg version="1.0" xmlns="http://www.w3.org/2000/svg"
 width="900.000000pt" height="765.000000pt" viewBox="0 0 900.000000 765.000000"
 preserveAspectRatio="xMidYMid meet">
<metadata>
Created by potrace 1.10, written by Peter Selinger 2001-2011
</metadata>
<g transform="translate(0.000000,765.000000) scale(0.100000,-0.100000)"
fill="#000000" stroke="none">
<path d="M4713 7502 c-19 -14 -22 -23 -17 -53 10 -62 94 -106 94 -50 0 11 -4 22 -9 26 -6 3 -13 26 -17 50 -7 49 -17 54 -51 27z"/>
<path d="M4644 7364 c-3 -11 -19 -28 -35 -38 -31 -18 -39 -53 -14 -62 8 -4 15 -14 15 -24 0 -45 75 -50 105 -7 34 49 8 84 -31 42 -14 -15 -28 -25 -31 -21 -3 3 6 15 20 27 33 25 33 36 2 74 -23 28 -25 29 -31 9z"/>
<path d="M4345 7247 c-5 -12 0 -28 14 -47 11 -16 21 -42 21 -57 0 -27 1 -27 25 12 31 51 31 52 -4 60 -15 3 -33 16 -39 28 -9 20 -10 21 -17 4z"/>
<path d="M4455 7245 c-3 -8 -7 -22 -10 -30 -2 -8 0 -17 5 -20 16 -10 12 -35 -5 -35 -22 0 -18 -28 5 -42 11 -7 20 -20 20 -30 0 -22 40 -35 51 -17 5 8 9 39 9 70 0 47 -4 60 -28 87 -32 36 -41 39 -47 17z"/>
<path d="M4272 7167 l-22 -23 30 -29 c17 -16 28 -37 27 -49 -1 -12 5 -22 15 -24 14 -3 16 6 16 65 -1 86 -23 106 -66 60z"/>
<path d="M4110 7145 c0 -8 5 -15 10 -15 6 0 10 -5 10 -10 0 -11 1 -13 48 -70 16 -19 34 -45 41 -57 12 -24 45 -31 56 -13 4 6 -2 31 -12 56 -14 35 -27 49 -60 65 -23 11 -45 29 -48 40 -7 22 -45 26 -45 4z"/>
<path d="M4013 7043 c-23 -8 -13 -28 33 -61 36 -27 48 -31 60 -22 12 10 14 8 14 -13 0 -17 -7 -28 -20 -32 -26 -8 -26 -25 0 -25 11 0 23 -7 26 -15 4 -8 12 -15 19 -15 16 0 25 63 16 115 l-6 40 -44 -3 c-32 -3 -48 1 -64 16 -12 11 -28 17 -34 15z"/>
<path d="M4197 6914 c-4 -4 -7 -11 -7 -15 0 -9 69 -93 80 -97 13 -5 22 49 10 63 -6 8 -10 22 -8 32 2 14 -4 19 -32 21 -20 2 -39 0 -43 -4z"/>
<path d="M4284 6785 c-4 -8 -17 -15 -30 -15 -28 0 -32 -18 -6 -27 9 -3 25 -13 34 -21 10 -8 24 -12 33 -9 15 6 17 2 19 -37 1 -11 6 -21 13 -23 18 -6 29 105 12 122 -23 21 -69 28 -75 10z"/>
<path d="M4361 6609 c-25 -27 -26 -38 -6 -45 8 -4 18 -25 22 -48 l7 -41 7 35 c4 19 4 39 -2 45 -15 15 -10 25 11 25 13 0 20 -7 20 -18 0 -30 24 -53 60 -61 27 -5 36 -12 38 -31 2 -14 7 -29 12 -35 4 -5 10 -22 14 -37 8 -36 32 -36 41 -1 5 21 1 31 -17 44 -24 19 -26 17 27 34 10 3 15 17 15 39 0 40 -12 52 -30 31 -13 -16 -38 -19 -64 -9 -9 3 -19 23 -22 44 -6 35 -9 38 -38 37 -17 -1 -41 2 -53 6 -16 6 -27 2 -42 -14z"/>
<path d="M4285 6480 c-4 -13 -15 -20 -31 -20 -20 0 -24 -4 -19 -19 4 -14 -1 -20 -25 -24 -42 -9 -38 -33 8 -41 63 -10 64 -9 60 32 -3 32 0 37 19 40 12 2 30 -6 42 -19 l21 -23 0 30 c0 16 -7 37 -14 47 -18 23 -53 22 -61 -3z"/>
<path d="M4638 6465 c-12 -12 6 -57 26 -65 26 -10 43 -28 47 -54 4 -21 34 -44 45 -33 4 3 8 27 10 52 5 52 -19 85 -60 85 -14 0 -28 5 -31 10 -7 11 -28 13 -37 5z"/>
<path d="M4882 6430 c-8 -14 -23 -20 -46 -20 -38 0 -49 -10 -40 -34 4 -10 18 -16 40 -16 43 0 46 -25 8 -64 -15 -14 -25 -26 -23 -27 2 -1 23 -3 47 -5 l42 -4 0 45 c0 24 5 47 10 50 6 3 10 2 10 -4 0 -6 13 -25 30 -44 20 -23 27 -40 23 -55 -7 -26 18 -30 38 -6 10 13 10 20 0 36 -9 15 -9 23 -1 33 6 8 10 24 8 37 -2 18 -10 24 -33 25 -16 2 -34 3 -40 4 -5 1 -17 0 -25 -2 -10 -3 -16 5 -18 26 -5 40 -15 49 -30 25z"/>
<path d="M5247 6433 c-16 -15 -6 -44 18 -53 33 -12 43 -39 22 -55 -21 -15 -22 -45 -3 -45 7 0 31 19 52 42 l37 42 -43 38 c-40 36 -68 46 -83 31z"/>
<path d="M4123 6360 c-4 -16 -9 -18 -19 -9 -14 11 -54 3 -54 -11 0 -13 38 -32 50 -25 5 3 20 3 34 -1 22 -5 23 -8 13 -26 -10 -16 -9 -22 8 -34 18 -13 21 -13 32 2 6 9 10 21 8 27 -2 7 -9 31 -15 55 -8 32 -16 42 -31 42 -13 0 -23 -8 -26 -20z"/>
<path d="M5070 6349 c1 -28 22 -59 40 -59 6 0 23 -9 36 -19 14 -11 33 -17 45 -14 17 5 20 12 17 52 -3 43 -5 46 -33 47 -16 1 -47 5 -67 9 -35 7 -38 6 -38 -16z"/>
<path d="M4257 6353 c-13 -12 -7 -33 8 -33 8 0 15 9 15 20 0 20 -11 26 -23 13z"/>
<path d="M3998 6273 c-47 -20 -48 -38 -3 -53 19 -6 41 -21 49 -32 16 -22 52 -21 49 2 -4 35 -32 95 -45 97 -7 1 -30 -6 -50 -14z"/>
<path d="M5345 6266 c-25 -20 -28 -26 -16 -40 10 -12 11 -19 2 -29 -14 -17 -4 -27 26 -27 15 0 27 8 33 23 6 12 16 30 22 40 10 12 10 22 2 35 -16 25 -35 25 -69 -2z"/>
<path d="M3907 6212 c-22 -24 -21 -42 2 -42 24 0 45 25 37 45 -7 20 -19 19 -39 -3z"/>
<path d="M3802 6157 c-35 -26 -46 -29 -61 -20 -14 9 -21 8 -33 -3 -7 -8 -28 -18 -46 -23 -27 -8 -34 -7 -42 10 -6 10 -16 19 -23 19 -27 0 -67 -26 -67 -42 0 -21 -7 -20 103 -23 71 -3 91 -7 102 -21 18 -26 47 -2 39 32 -5 21 -3 24 21 24 15 0 34 8 41 18 9 12 16 14 24 6 7 -7 5 -16 -10 -29 -22 -20 -27 -55 -7 -55 6 0 20 12 30 25 16 22 17 30 5 61 -19 53 -28 56 -76 21z"/>
<path d="M3952 6144 c2 -15 9 -29 16 -32 10 -3 13 4 10 24 -2 15 -9 29 -16 32 -10 3 -13 -4 -10 -24z"/>
<path d="M5390 6167 c0 -13 43 -87 50 -87 6 0 10 -6 10 -14 0 -7 11 -21 25 -30 24 -16 26 -16 32 1 4 10 13 24 20 32 20 19 12 45 -14 49 -12 2 -27 10 -33 18 -7 8 -21 14 -31 14 -10 0 -21 5 -24 10 -6 9 -35 15 -35 7z"/>
<path d="M5820 6117 c0 -12 9 -28 21 -35 14 -9 18 -19 14 -32 -9 -27 3 -60 21 -60 17 0 84 -64 84 -80 0 -5 -10 -10 -22 -10 -13 0 -29 -4 -37 -9 -10 -6 -5 -13 19 -25 18 -9 39 -16 46 -16 8 0 16 -12 20 -27 12 -56 13 -57 39 -29 29 32 49 30 53 -5 2 -13 9 -30 15 -38 9 -11 9 -15 0 -18 -16 -6 -17 -49 -2 -59 6 -3 9 -19 7 -35 -4 -23 -1 -29 13 -29 10 0 21 9 24 20 11 34 35 24 35 -13 0 -40 8 -51 27 -35 11 9 17 9 24 -3 14 -23 11 -29 -21 -40 -35 -13 -37 -20 -9 -37 18 -11 25 -10 54 12 36 28 45 25 45 -15 0 -15 3 -34 6 -43 7 -18 49 -22 59 -6 12 20 35 10 35 -15 0 -15 6 -25 14 -25 24 0 41 -29 29 -49 -9 -14 -8 -22 5 -34 14 -15 18 -14 44 15 33 38 34 44 8 58 -11 6 -20 20 -20 32 0 24 -26 47 -55 48 -14 0 -25 10 -32 30 -9 25 -17 30 -44 30 -24 0 -40 8 -56 27 -13 14 -23 30 -23 34 0 5 -18 20 -40 34 -22 14 -40 31 -40 39 0 8 -7 16 -15 20 -10 3 -13 14 -9 33 4 22 -2 37 -25 67 -17 21 -33 46 -36 56 -4 11 -19 19 -46 23 -43 6 -62 17 -41 24 13 5 17 43 4 43 -5 0 -14 11 -20 25 -8 16 -23 28 -43 32 -34 6 -48 28 -30 46 21 21 12 51 -24 75 -46 29 -75 29 -75 -1z"/>
<path d="M5732 6110 c-20 -9 -21 -12 -11 -32 7 -13 19 -28 28 -34 12 -9 13 -15 3 -26 -13 -16 -7 -28 14 -28 19 0 31 110 13 121 -17 10 -18 10 -47 -1z"/>
<path d="M5580 6095 c0 -8 9 -24 20 -35 28 -28 26 -50 -5 -50 -14 0 -25 -4 -25 -10 0 -5 18 -10 40 -10 37 0 41 3 60 42 11 23 20 43 20 45 0 1 -13 9 -30 18 -38 20 -80 20 -80 0z"/>
<path d="M3500 6046 c0 -8 -12 -21 -27 -28 -38 -18 -44 -58 -10 -58 14 0 31 9 40 23 l15 22 7 -27 c8 -30 9 -31 43 -22 29 8 28 15 -8 50 -16 16 -30 35 -30 42 0 17 -30 15 -30 -2z"/>
<path d="M3434 5915 c-4 -8 -14 -15 -24 -15 -19 0 -53 -43 -43 -54 14 -14 43 -4 62 21 22 26 36 25 36 -4 0 -25 22 -27 35 -3 10 18 8 26 -11 46 -26 27 -47 31 -55 9z"/>
<path d="M3297 5833 c-4 -3 -7 -14 -7 -23 0 -20 -31 -50 -51 -50 -27 0 -89 -50 -89 -72 0 -15 -5 -19 -17 -15 -47 13 -48 12 -45 -12 3 -16 -4 -30 -19 -41 -32 -25 -19 -48 28 -48 61 0 76 13 69 59 -5 34 -4 39 14 39 13 0 22 9 26 27 7 25 8 25 21 7 8 -10 11 -29 8 -41 -5 -20 10 -41 21 -30 3 3 7 29 8 59 l3 53 54 8 c30 4 60 9 66 12 18 6 5 33 -20 41 -12 4 -27 13 -35 20 -15 15 -25 17 -35 7z"/>
<path d="M3057 5533 c-4 -3 -7 -26 -7 -50 0 -32 -7 -54 -26 -79 -24 -31 -25 -34 -9 -40 10 -4 26 -2 37 5 21 13 38 7 38 -15 0 -22 17 -16 24 9 10 38 7 47 -20 57 -34 13 -28 40 13 54 44 15 48 22 21 39 -31 20 -63 29 -71 20z"/>
<path d="M6550 5360 c0 -19 7 -33 20 -40 28 -15 25 -39 -7 -51 -27 -10 -28 -11 -8 -25 19 -14 22 -13 51 20 17 20 35 36 39 36 4 0 4 -25 0 -55 l-6 -55 30 0 c35 0 50 -18 28 -35 -10 -7 -17 -30 -19 -60 -3 -43 -6 -50 -28 -55 -43 -10 -30 -35 19 -38 42 -3 43 -4 37 -33 -5 -24 -2 -29 14 -29 14 0 20 -7 20 -24 0 -29 -37 -42 -60 -21 -22 20 -30 19 -30 -3 0 -27 20 -42 57 -42 33 0 33 0 33 -50 0 -27 4 -50 9 -50 5 0 17 -3 26 -6 12 -5 16 -2 14 12 -2 10 0 25 5 33 6 9 3 18 -9 27 -12 9 -16 20 -11 38 3 14 2 27 -4 31 -5 3 -7 19 -4 35 5 21 0 37 -20 63 -30 40 -31 44 -10 85 9 20 13 40 8 54 -4 13 -6 43 -5 68 2 41 -2 50 -42 93 -25 26 -52 47 -61 47 -8 0 -22 14 -31 30 -21 41 -55 41 -55 0z"/>
<path d="M2937 5297 c-30 -24 -38 -38 -35 -57 3 -27 24 -36 48 -20 13 9 13 11 0 19 -8 6 -11 13 -7 17 3 4 13 1 21 -5 19 -16 68 -6 91 18 15 18 14 20 -13 40 -41 29 -60 26 -105 -12z m83 -18 c0 -5 -7 -9 -15 -9 -15 0 -20 12 -9 23 8 8 24 -1 24 -14z"/>
<path d="M2820 5195 c-23 -28 -8 -49 35 -50 22 -1 48 -5 58 -9 14 -7 17 -3 17 16 0 43 -83 76 -110 43z"/>
<path d="M2740 5110 c-14 -17 -25 -35 -24 -40 3 -27 5 -30 24 -30 15 0 20 7 20 26 0 21 4 25 23 22 16 -2 23 -11 25 -30 4 -33 12 -35 35 -8 17 20 17 22 -3 50 -12 17 -27 30 -35 30 -7 0 -19 2 -27 5 -7 3 -24 -8 -38 -25z"/>
<path d="M2573 5021 c-25 -51 -15 -81 27 -81 32 0 42 23 14 34 -8 3 -12 11 -8 17 5 9 11 7 20 -5 14 -20 36 -16 74 14 24 18 24 19 5 25 -11 4 -32 13 -47 21 -44 24 -64 18 -85 -25z"/>
<path d="M2421 4915 c2 -40 -2 -59 -14 -73 -9 -10 -17 -24 -17 -32 0 -7 -7 -18 -16 -25 -24 -17 -9 -55 21 -55 31 0 43 20 22 35 -21 15 -21 21 -1 29 10 4 21 0 28 -10 10 -13 16 -14 39 -3 29 13 37 39 12 39 -8 0 -25 10 -36 21 l-21 21 28 24 c16 13 37 23 46 24 9 0 19 4 23 9 6 11 -32 26 -58 22 -9 -1 -20 5 -23 13 -3 9 -13 16 -21 16 -11 0 -14 -12 -12 -55z"/>
<path d="M6703 4733 c-13 -9 -23 -19 -23 -24 0 -16 50 -10 57 7 9 24 -10 34 -34 17z"/>
<path d="M6800 4701 c-13 -26 -13 -31 4 -31 22 0 30 -19 11 -27 -10 -3 -21 0 -27 8 -7 10 -8 8 -3 -8 3 -12 1 -24 -5 -28 -5 -3 -10 -19 -10 -36 0 -34 24 -40 40 -9 6 11 17 20 24 20 7 0 18 18 25 41 10 34 10 44 -4 65 -19 29 -41 31 -55 5z"/>
<path d="M2334 4666 c-18 -17 -37 -41 -43 -53 -11 -22 -10 -23 24 -23 32 0 36 3 30 20 -3 11 -2 20 3 20 6 0 12 -5 14 -11 3 -9 15 -9 43 -3 30 7 41 15 43 32 2 14 -3 24 -15 28 -10 3 -26 10 -35 15 -25 13 -29 11 -64 -25z"/>
<path d="M2222 4581 c-8 -5 -12 -23 -10 -47 2 -32 7 -40 27 -42 15 -2 28 3 33 12 6 10 23 16 48 16 40 0 53 13 24 24 -9 3 -26 6 -39 6 -14 0 -29 9 -35 20 -11 21 -27 25 -48 11z"/>
<path d="M6920 4535 c0 -9 -6 -26 -14 -38 -8 -12 -17 -32 -21 -44 -6 -20 -3 -23 24 -23 31 0 43 21 21 35 -6 4 -3 16 10 32 25 33 26 53 0 53 -11 0 -20 -7 -20 -15z"/>
<path d="M7011 4507 c-6 -16 -11 -37 -11 -48 0 -11 -7 -33 -15 -49 -9 -17 -12 -31 -8 -31 12 -3 45 -5 81 -7 27 -2 32 -6 32 -27 0 -20 -5 -24 -22 -22 -29 3 -36 -28 -10 -42 27 -14 82 5 82 28 0 9 5 22 11 28 14 14 -9 73 -29 73 -17 0 -72 54 -72 72 0 8 -6 23 -14 34 -14 18 -15 18 -25 -9z"/>
<path d="M2132 4458 c-34 -44 -42 -78 -18 -78 21 0 46 28 46 52 0 20 1 20 18 5 26 -23 62 -22 62 2 0 10 -8 21 -17 24 -10 4 -27 13 -38 21 -20 15 -23 13 -53 -26z"/>
<path d="M2026 4331 c-4 -5 -3 -16 0 -25 4 -10 0 -18 -10 -22 -21 -8 -20 -23 3 -54 17 -21 22 -23 45 -12 19 8 26 19 26 40 0 20 8 32 30 46 17 9 28 22 25 27 -8 12 -112 12 -119 0z"/>
<path d="M7072 4228 c-19 -19 -14 -37 14 -44 33 -8 53 10 38 34 -14 22 -36 26 -52 10z"/>
<path d="M7010 4171 c0 -37 2 -40 33 -43 26 -2 31 -7 29 -23 -2 -11 -12 -28 -23 -38 -10 -10 -19 -25 -19 -34 0 -13 -3 -14 -12 -5 -16 16 -38 15 -38 -1 0 -19 45 -38 58 -25 6 6 15 7 21 4 16 -10 13 -46 -4 -52 -8 -4 -15 -12 -15 -19 0 -7 7 -15 15 -19 21 -8 19 -24 -5 -31 -13 -4 -20 -15 -20 -31 0 -13 -4 -24 -10 -24 -5 0 -10 9 -10 20 0 11 -7 20 -15 20 -24 0 -18 -39 9 -51 56 -26 116 55 100 137 -5 26 -2 40 11 54 10 11 15 26 12 35 -10 24 -27 17 -27 -11 0 -15 -5 -24 -12 -22 -19 7 -20 24 -3 41 8 9 15 22 15 31 0 8 5 18 10 21 6 4 5 16 -4 33 -10 19 -22 26 -42 27 -24 0 -29 4 -27 23 2 14 -3 22 -12 22 -11 0 -15 -11 -15 -39z"/>
<path d="M2130 4181 c-34 -6 -35 -7 -38 -58 -2 -34 1 -53 8 -53 15 0 60 50 60 66 0 7 10 14 22 16 13 2 24 11 26 21 4 18 -11 20 -78 8z"/>
<path d="M2171 4071 c-16 -10 -28 -106 -14 -114 6 -4 21 5 33 18 23 25 23 25 4 40 -18 14 -17 14 14 15 25 0 32 4 32 19 0 28 -40 40 -69 22z"/>
<path d="M2189 3948 c0 -2 -2 -28 -5 -59 -4 -47 -1 -58 16 -74 18 -16 23 -17 30 -5 13 20 13 80 0 80 -5 0 -10 5 -10 11 0 8 5 7 16 -2 14 -11 18 -10 30 6 25 34 17 45 -31 45 -25 0 -45 -1 -46 -2z"/>
<path d="M7098 3775 c-8 -18 -8 -28 0 -38 7 -8 9 -17 5 -20 -12 -13 -30 -7 -56 19 -25 24 -27 25 -33 8 -3 -11 -10 -27 -15 -36 -11 -22 -6 -24 61 -32 l55 -7 23 48 c29 63 29 83 -3 83 -17 0 -29 -8 -37 -25z"/>
<path d="M2150 3776 c0 -7 7 -26 15 -42 15 -30 8 -49 -24 -59 -25 -8 -42 -61 -29 -91 6 -13 16 -24 23 -24 15 0 35 40 32 65 -1 14 5 21 21 23 15 2 22 -2 22 -12 0 -16 21 -22 33 -10 10 10 -4 34 -20 34 -13 0 -15 10 -10 55 5 47 3 57 -13 65 -27 14 -50 12 -50 -4z"/>
<path d="M7184 3675 c-11 -17 -25 -25 -45 -25 -16 0 -29 -4 -29 -8 0 -15 24 -32 46 -32 13 0 26 -4 29 -10 14 -23 33 -8 38 31 9 69 -9 90 -39 44z"/>
<path d="M7230 3573 c-14 -14 -24 -33 -22 -44 4 -23 -33 -27 -42 -4 -7 20 -35 19 -43 0 -9 -26 26 -55 67 -55 56 0 83 27 86 84 3 53 -7 57 -46 19z"/>
<path d="M2202 3567 c-19 -20 -21 -26 -8 -36 7 -6 12 -20 9 -31 -3 -12 3 -23 16 -32 12 -7 21 -23 21 -36 0 -27 22 -73 44 -91 14 -12 16 -9 16 17 0 29 21 62 41 62 5 0 9 4 9 9 0 6 -19 11 -42 13 -39 3 -43 5 -49 38 -4 20 -3 40 3 47 5 6 8 22 6 35 -4 32 -38 34 -66 5z"/>
<path d="M7068 3452 c-34 -21 -35 -29 -3 -44 29 -13 32 -23 9 -32 -20 -8 -52 19 -66 53 -6 17 -12 21 -19 14 -15 -15 -2 -70 23 -92 19 -19 19 -19 -14 -55 -18 -20 -41 -36 -50 -36 -24 0 -23 -17 2 -25 11 -3 20 -10 20 -14 0 -4 6 -15 13 -25 12 -16 16 -17 35 -5 18 11 22 23 22 63 0 44 4 52 45 92 40 40 43 47 32 66 -9 16 -9 22 1 25 18 7 14 33 -5 33 -10 0 -30 -8 -45 -18z"/>
<path d="M2324 3339 c-4 -7 1 -16 10 -21 16 -9 16 -11 0 -22 -26 -20 -11 -48 23 -44 23 2 29 9 31 33 2 16 8 33 14 36 6 4 7 12 4 18 -9 14 -73 14 -82 0z"/>
<path d="M2420 3250 c-6 -11 -17 -20 -25 -20 -17 0 -20 -26 -5 -35 6 -4 8 -15 5 -26 -4 -10 1 -29 9 -41 9 -12 16 -36 16 -52 0 -17 9 -40 21 -53 20 -20 20 -23 5 -29 -21 -8 -20 -20 4 -54 14 -19 16 -30 8 -32 -21 -7 0 -38 27 -38 20 0 25 5 25 23 0 14 -8 28 -20 33 -14 7 -17 13 -10 24 8 12 13 13 30 3 27 -17 59 -18 42 -1 -7 7 -12 20 -12 31 0 15 -5 17 -29 12 -40 -8 -47 8 -22 51 22 37 27 64 11 64 -5 0 -13 -8 -19 -17 -7 -14 -13 -15 -22 -6 -13 13 -4 99 12 108 16 11 10 54 -10 65 -26 14 -29 13 -41 -10z m30 -35 c0 -8 -7 -15 -15 -15 -8 0 -15 7 -15 15 0 8 7 15 15 15 8 0 15 -7 15 -15z"/>
<path d="M6939 3163 c-1 -5 -2 -17 -3 -28 -1 -15 -10 -21 -34 -25 -34 -5 -37 -12 -18 -42 15 -25 53 -22 67 5 7 12 16 24 20 27 5 4 12 20 15 38 6 29 4 32 -20 32 -14 0 -27 -3 -27 -7z"/>
<path d="M6968 3018 c-9 -7 -18 -22 -20 -32 -4 -27 -28 -33 -28 -7 0 28 -19 36 -35 15 -19 -26 -14 -36 26 -56 20 -9 41 -23 48 -32 14 -16 7 -36 -12 -36 -14 0 -47 -35 -47 -49 0 -5 16 -11 36 -13 32 -4 39 -1 55 26 23 37 24 65 4 72 -8 4 -15 14 -15 24 0 10 7 23 15 30 19 15 20 70 2 70 -7 0 -20 -6 -29 -12z"/>
<path d="M6862 2861 c4 -13 18 -16 19 -4 0 4 -5 9 -11 12 -7 2 -11 -2 -8 -8z"/>
<path d="M2500 2841 c-22 -6 -25 -12 -25 -57 0 -27 3 -68 8 -91 6 -36 4 -45 -19 -73 l-27 -31 24 -27 c13 -15 27 -31 30 -36 10 -12 42 53 35 71 -4 9 -1 22 6 30 10 12 8 18 -11 32 -20 15 -21 20 -10 46 6 17 11 45 10 62 -1 27 3 34 24 39 17 4 25 12 23 23 -4 18 -31 23 -68 12z"/>
<path d="M6845 2774 c-16 -9 -46 -20 -65 -23 -46 -8 -45 -29 4 -54 l39 -21 15 22 c8 12 20 22 28 22 17 0 37 37 30 56 -7 18 -14 18 -51 -2z"/>
<path d="M2572 2745 c-34 -33 -36 -36 -19 -49 9 -7 17 -18 17 -24 0 -6 4 -13 9 -17 10 -6 41 49 41 72 0 7 7 16 15 19 8 4 15 12 15 20 0 25 -40 15 -78 -21z"/>
<path d="M2686 2675 c-3 -8 -17 -15 -31 -15 -22 0 -25 -4 -25 -32 1 -20 11 -45 25 -63 l24 -29 10 24 c7 20 6 28 -9 41 -22 19 -16 29 16 29 23 0 41 31 29 50 -9 15 -32 12 -39 -5z"/>
<path d="M6761 2631 l-24 -18 21 -23 c18 -20 24 -21 37 -10 17 14 17 61 0 66 -5 2 -21 -5 -34 -15z"/>
<path d="M6684 2596 c-7 -18 32 -58 53 -54 27 5 26 27 -1 38 -14 5 -26 14 -26 20 0 15 -20 12 -26 -4z"/>
<path d="M2753 2552 c-39 -19 -43 -51 -12 -97 11 -16 24 -40 29 -52 5 -13 15 -23 21 -23 8 0 7 -5 -2 -16 -12 -15 -11 -19 9 -32 30 -20 28 -50 -4 -62 -22 -9 -25 -15 -20 -38 4 -15 20 -39 36 -53 17 -14 30 -28 30 -31 0 -3 -13 -20 -30 -38 -31 -34 -32 -57 -1 -40 22 11 31 4 31 -25 0 -13 7 -28 15 -35 19 -16 19 -60 0 -86 -21 -27 -19 -34 14 -45 16 -6 32 -20 35 -32 6 -22 7 -22 21 -3 21 27 19 59 -6 90 -23 29 -19 41 14 41 11 0 22 6 25 14 3 10 -2 12 -21 7 -23 -5 -27 -2 -37 30 -7 20 -10 56 -6 80 5 37 3 44 -15 49 -11 4 -25 18 -31 31 -6 13 -18 24 -25 24 -31 0 -5 25 31 30 46 6 49 19 10 45 -28 18 -31 24 -26 55 2 19 8 42 13 51 11 22 2 29 -38 29 l-34 0 5 42 c3 24 10 44 15 46 16 5 14 62 -1 61 -7 -1 -28 -9 -45 -17z"/>
<path d="M2431 2479 c-17 -17 -31 -35 -31 -40 0 -16 34 -49 52 -49 9 0 22 -9 28 -20 6 -11 15 -18 21 -15 13 9 5 118 -9 123 -7 2 -12 10 -12 18 0 22 -16 17 -49 -17z m57 -32 c2 -10 -4 -20 -13 -23 -21 -9 -28 0 -20 26 8 24 28 22 33 -3z"/>
<path d="M6650 2496 c1 -17 26 -46 39 -46 6 0 23 -7 36 -16 32 -21 45 -11 45 35 l0 38 -60 0 c-37 0 -60 -5 -60 -11z"/>
<path d="M6698 2383 c-50 -5 -63 -43 -27 -79 23 -22 26 -23 62 -10 37 12 77 56 77 84 0 12 -30 13 -112 5z"/>
<path d="M2378 2339 c-23 -25 -23 -40 4 -86 30 -50 55 -77 62 -65 3 5 4 45 3 88 -3 76 -4 79 -28 81 -13 1 -32 -7 -41 -18z m52 -29 c0 -5 -7 -10 -15 -10 -8 0 -15 5 -15 10 0 6 7 10 15 10 8 0 15 -4 15 -10z"/>
<path d="M6517 2319 c-16 -29 -16 -33 -2 -49 8 -9 15 -22 15 -29 0 -9 8 -11 28 -6 41 10 74 34 70 53 -5 25 -35 27 -43 2 -11 -34 -30 -17 -27 23 4 47 -16 49 -41 6z"/>
<path d="M2287 2241 c-13 -14 -16 -27 -11 -65 4 -25 11 -49 15 -52 5 -3 9 -12 9 -21 0 -11 -6 -14 -26 -9 -21 6 -25 4 -22 -11 5 -25 32 -28 57 -6 17 14 21 29 21 75 0 31 5 60 11 64 8 4 8 9 -1 18 -8 8 -13 7 -21 -4 -8 -12 -9 -10 -4 8 8 26 -3 28 -28 3z"/>
<path d="M6371 2236 c-16 -19 -4 -43 32 -61 41 -20 45 -20 78 16 37 39 29 53 -27 45 -24 -3 -46 -1 -49 4 -9 14 -21 12 -34 -4z"/>
<path d="M6680 2214 c0 -17 22 -14 28 4 2 7 -3 12 -12 12 -9 0 -16 -7 -16 -16z"/>
<path d="M6728 2192 c-16 -10 -28 -21 -28 -26 0 -15 44 -76 55 -76 11 0 75 93 75 109 0 17 -72 11 -102 -7z"/>
<path d="M6231 2128 c-7 -18 -4 -28 12 -45 21 -24 57 -31 57 -12 0 5 8 9 18 8 42 -6 84 34 66 63 -10 16 -50 8 -68 -14 l-19 -22 -8 22 c-11 29 -47 29 -58 0z"/>
<path d="M6762 2059 c-13 -5 -22 -12 -20 -16 3 -5 11 -23 18 -40 10 -24 21 -33 37 -33 24 0 31 14 13 25 -5 3 -10 19 -10 35 0 35 -8 40 -38 29z"/>
<path d="M6837 2054 c-4 -4 -7 -20 -7 -36 0 -26 3 -29 28 -26 23 3 27 8 27 33 0 23 -5 31 -20 33 -12 2 -24 0 -28 -4z"/>
<path d="M6171 2032 c-17 -32 -13 -49 15 -71 l25 -20 39 27 c47 33 54 65 13 60 -20 -2 -29 -9 -31 -26 -4 -29 -26 -23 -30 9 -5 35 -19 44 -31 21z"/>
<path d="M6947 1961 c-6 -25 -29 -27 -47 -6 -19 23 -40 18 -40 -10 0 -31 41 -55 63 -36 8 6 21 9 28 6 15 -5 77 40 68 49 -3 3 -19 9 -36 12 -25 5 -31 2 -36 -15z"/>
<path d="M2242 1944 c2 -15 9 -29 16 -32 10 -3 13 4 10 24 -2 15 -9 29 -16 32 -10 3 -13 -4 -10 -24z"/>
<path d="M2976 1935 l-19 -35 27 -25 c30 -27 66 -33 66 -10 0 7 -8 18 -17 24 -17 9 -17 10 0 16 32 13 14 65 -23 65 -8 0 -24 -16 -34 -35z"/>
<path d="M3128 1948 c-35 -29 -38 -50 -10 -90 31 -43 62 -51 62 -15 0 13 -3 27 -7 31 -5 4 -8 24 -8 44 0 39 -12 49 -37 30z"/>
<path d="M2102 1928 c-7 -7 -12 -18 -12 -26 0 -8 -7 -20 -15 -26 -10 -8 -12 -15 -5 -26 8 -12 11 -11 16 8 10 37 29 19 29 -29 0 -32 4 -44 16 -47 23 -4 30 20 20 72 -4 25 -5 50 0 57 16 27 -25 41 -49 17z"/>
<path d="M1965 1902 c-11 -9 -28 -30 -39 -46 l-19 -29 27 -19 c14 -11 26 -25 26 -32 0 -15 42 -56 57 -56 32 0 18 58 -21 84 -22 14 -25 20 -16 36 6 11 17 20 26 20 13 0 13 4 -1 30 -18 35 -15 34 -40 12z"/>
<path d="M6047 1906 c-3 -8 3 -22 14 -32 22 -20 25 -54 4 -54 -7 0 -18 -8 -24 -17 -11 -20 -13 -16 -25 40 -7 30 -21 35 -30 11 -8 -20 19 -83 39 -91 12 -4 29 7 56 34 37 39 40 40 86 33 53 -9 63 -6 63 16 0 9 10 24 23 35 36 30 7 38 -76 21 -64 -13 -72 -13 -82 2 -15 20 -41 21 -48 2z"/>
<path d="M2200 1885 c-12 -22 -11 -27 3 -43 39 -40 67 -81 67 -97 0 -25 24 -12 28 15 2 14 -3 27 -12 32 -9 5 -16 17 -16 27 0 10 -7 24 -15 31 -8 7 -15 23 -15 36 0 31 -23 31 -40 -1z"/>
<path d="M2280 1890 c0 -19 3 -21 12 -12 9 9 9 15 0 24 -9 9 -12 7 -12 -12z"/>
<path d="M6947 1863 c-4 -3 -7 -19 -7 -35 0 -20 7 -32 24 -39 13 -6 27 -20 29 -30 6 -22 30 -34 53 -25 14 5 14 9 3 23 -12 13 -12 17 -1 21 7 2 25 15 40 28 l27 24 -25 20 c-29 22 -60 26 -78 8 -10 -10 -17 -10 -32 0 -23 14 -24 14 -33 5z"/>
<path d="M3303 1853 c-18 -6 -16 -68 1 -82 21 -18 82 -25 91 -12 12 21 -16 42 -47 36 -30 -7 -37 5 -13 25 8 7 15 16 15 20 0 10 -31 18 -47 13z"/>
<path d="M3476 1841 c-4 -6 -18 -11 -32 -11 -34 0 -31 -31 5 -53 55 -32 106 -14 68 25 -7 7 -18 21 -24 32 -7 12 -13 15 -17 7z"/>
<path d="M3587 1830 c-9 -11 -17 -31 -17 -44 0 -16 -7 -27 -20 -31 -28 -9 -17 -22 22 -28 18 -3 43 -8 54 -12 33 -11 38 21 9 59 -16 21 -22 39 -18 54 7 27 -7 28 -30 2z"/>
<path d="M3223 1814 c-13 -14 -23 -29 -23 -34 0 -4 -7 -10 -15 -14 -21 -8 -19 -28 6 -49 15 -13 29 -16 54 -11 30 5 33 9 25 24 -6 10 -10 31 -11 47 0 15 -3 36 -7 45 -6 15 -10 14 -29 -8z m-1 -69 c0 -5 -5 -11 -11 -13 -6 -2 -11 4 -11 13 0 9 5 15 11 13 6 -2 11 -8 11 -13z"/>
<path d="M3686 1823 c-3 -4 -6 -24 -6 -45 0 -28 5 -40 18 -45 9 -4 20 -11 23 -16 9 -12 49 10 49 27 0 20 -11 26 -31 16 -25 -14 -35 7 -14 30 9 10 13 20 8 22 -20 11 -42 16 -47 11z"/>
<path d="M5900 1771 c0 -33 16 -41 39 -18 10 10 15 8 26 -6 9 -13 15 -15 20 -7 10 16 -23 47 -57 55 -26 7 -28 5 -28 -24z"/>
<path d="M1832 1778 c-7 -7 -12 -17 -12 -24 0 -6 -7 -17 -15 -24 -26 -21 -17 -45 20 -59 28 -10 35 -17 30 -31 -6 -18 18 -40 44 -40 18 0 24 61 8 77 -12 12 -13 21 -5 39 22 49 -34 98 -70 62z"/>
<path d="M3805 1778 c-2 -7 -6 -24 -8 -38 -3 -14 -9 -36 -13 -49 -8 -26 -12 -26 57 -5 19 6 20 5 11 -13 -9 -17 -7 -24 13 -41 29 -25 32 -40 10 -48 -21 -8 -19 -34 3 -34 29 0 42 -21 42 -71 l0 -47 53 -4 c57 -5 77 -1 77 14 0 16 -44 47 -67 48 -27 0 -30 12 -8 30 20 17 19 27 -3 34 -18 6 -42 57 -42 89 0 9 -6 17 -14 17 -13 0 -64 72 -79 113 -7 20 -26 23 -32 5z"/>
<path d="M5823 1733 c-21 -8 -15 -27 22 -70 39 -45 42 -53 21 -53 -7 0 -19 -7 -26 -15 -17 -21 -28 -10 -22 21 4 22 2 25 -19 22 -20 -2 -24 -8 -22 -32 4 -53 8 -56 76 -56 72 0 86 7 57 27 -28 20 -25 31 15 70 40 39 38 61 -6 55 -23 -3 -34 1 -45 17 -15 21 -27 24 -51 14z"/>
<path d="M6984 1665 c-4 -9 9 -34 30 -60 l37 -44 54 42 c67 53 69 67 10 67 -43 0 -50 -5 -46 -37 1 -6 -3 -14 -9 -18 -5 -3 -10 2 -10 13 0 21 -29 52 -49 52 -6 0 -14 -7 -17 -15z"/>
<path d="M1702 1650 c-17 -14 -21 -25 -16 -44 6 -26 -10 -38 -19 -13 -3 9 -7 9 -17 0 -21 -19 -4 -40 38 -47 30 -4 41 -11 44 -26 6 -37 23 -26 26 17 2 26 -3 51 -12 66 -18 26 -13 37 16 37 10 0 18 7 18 15 0 22 -50 19 -78 -5z"/>
<path d="M5475 1650 c-4 -13 2 -33 14 -54 12 -18 21 -41 21 -50 0 -9 7 -16 15 -16 8 0 15 5 15 10 0 6 13 10 28 10 36 0 71 35 54 52 -10 10 -17 10 -32 0 -28 -17 -42 -15 -36 6 5 13 -1 22 -19 30 -14 6 -25 16 -25 22 0 18 -29 10 -35 -10z"/>
<path d="M5630 1664 c0 -3 10 -20 23 -37 12 -18 22 -41 22 -52 0 -30 33 -31 46 -1 10 22 9 29 -6 46 -10 11 -24 20 -32 20 -7 0 -16 7 -19 15 -6 14 -34 22 -34 9z"/>
<path d="M1356 1615 c-20 -30 -20 -39 -2 -54 7 -6 16 -24 19 -40 5 -22 13 -30 36 -34 38 -8 41 -33 6 -49 -18 -8 -25 -19 -25 -40 0 -29 -24 -40 -33 -15 -3 6 -6 7 -6 1 -2 -20 41 -55 62 -52 20 3 22 9 20 56 -2 53 1 59 26 43 8 -5 20 -7 28 -4 19 8 16 31 -6 38 -12 3 -21 17 -23 33 -2 19 -10 28 -25 30 -15 2 -23 10 -23 24 0 17 3 18 15 8 32 -26 47 18 19 58 -21 31 -67 29 -88 -3z"/>
<path d="M5334 1625 c-3 -8 4 -35 16 -60 20 -40 25 -45 56 -45 31 0 74 28 74 48 0 10 -48 31 -55 24 -3 -3 -5 -14 -5 -24 0 -10 -7 -18 -15 -18 -11 0 -15 11 -15 39 0 26 -5 41 -16 45 -24 9 -34 7 -40 -9z"/>
<path d="M1548 1587 c-16 -13 -28 -32 -28 -42 1 -29 31 -63 62 -70 l26 -7 -1 69 c-2 77 -14 87 -59 50z"/>
<path d="M4041 1591 c-6 -11 -11 -32 -11 -48 0 -22 7 -31 30 -42 17 -7 37 -10 45 -7 9 3 19 -3 25 -14 7 -13 21 -20 41 -20 35 0 62 -41 41 -62 -17 -17 -15 -33 2 -19 8 7 27 11 43 9 27 -3 28 -6 28 -53 0 -43 3 -50 18 -47 10 2 25 -2 33 -9 8 -6 32 -11 54 -11 22 0 40 -3 40 -9 0 -5 9 -9 20 -9 25 0 25 14 -1 56 -20 33 -54 45 -61 22 -2 -6 -12 -9 -21 -5 -9 3 -14 13 -11 21 4 11 0 13 -16 9 -27 -7 -42 14 -27 38 13 21 -6 49 -34 49 -12 0 -19 7 -19 18 0 20 -24 45 -54 56 -13 4 -17 13 -13 28 8 28 -8 47 -33 41 -22 -6 -26 -23 -8 -41 9 -9 7 -13 -6 -18 -21 -8 -64 29 -68 59 -4 28 -24 32 -37 8z"/>
<path d="M4802 1563 c-27 -33 -27 -47 -3 -70 10 -10 22 -33 26 -50 7 -37 25 -41 82 -20 38 14 41 21 22 50 -27 40 -49 57 -74 57 -29 0 -32 8 -8 25 17 13 10 35 -11 35 -7 0 -22 -12 -34 -27z"/>
<path d="M5203 1578 c-7 -9 -6 -24 4 -46 11 -26 18 -32 33 -27 22 7 26 -5 9 -22 -22 -22 11 -25 40 -4 16 12 37 21 48 22 14 0 15 2 3 6 -8 4 -21 14 -28 24 -6 9 -25 20 -41 24 -16 3 -32 13 -35 21 -7 17 -20 18 -33 2z"/>
<path d="M5060 1511 c0 -22 5 -43 11 -46 5 -4 15 -18 20 -32 9 -24 11 -25 28 -9 22 20 41 21 41 0 0 -11 6 -14 23 -8 37 11 48 24 36 45 -5 10 -18 19 -28 19 -10 0 -39 16 -64 35 -25 19 -51 35 -56 35 -6 0 -11 -18 -11 -39z"/>
<path d="M7166 1542 c-4 -6 -3 -19 2 -29 6 -10 15 -30 23 -45 7 -16 16 -28 20 -28 16 0 39 33 39 56 0 19 -5 24 -26 24 -15 0 -32 7 -39 17 -8 11 -14 12 -19 5z"/>
<path d="M4635 1519 c-9 -14 4 -99 14 -99 5 0 14 7 21 15 12 14 15 14 31 -1 22 -19 63 -15 67 8 2 11 -9 23 -30 34 -18 9 -39 25 -46 35 -14 21 -47 25 -57 8z"/>
<path d="M4426 1505 c-9 -26 6 -135 21 -151 14 -14 74 -20 86 -8 3 4 2 14 -3 23 -5 10 -5 23 0 31 7 11 14 12 35 2 30 -14 68 -7 62 11 -2 7 -18 17 -35 23 -26 8 -30 13 -19 23 10 10 8 15 -8 27 -27 20 -39 13 -43 -24 -2 -19 -9 -32 -17 -32 -22 0 -45 41 -39 67 5 18 2 23 -14 23 -11 0 -23 -7 -26 -15z"/>
<path d="M6985 1509 c-9 -13 2 -55 22 -85 14 -22 17 -23 33 -9 9 8 25 15 36 15 10 1 30 10 43 21 19 15 21 23 12 32 -9 9 -16 9 -32 -2 -15 -8 -25 -9 -31 -3 -7 7 -17 7 -29 -1 -22 -14 -36 -3 -21 16 7 8 9 17 5 20 -10 10 -31 8 -38 -4z"/>
<path d="M7287 1504 c-26 -27 36 -134 77 -134 24 0 97 41 90 51 -8 14 -48 11 -70 -6 -10 -8 -22 -15 -26 -15 -11 0 -10 42 1 59 5 8 7 21 3 29 -4 12 -8 12 -19 -4 -14 -18 -15 -18 -31 4 -10 13 -21 20 -25 16z"/>
<path d="M4971 1451 c-7 -12 -11 -36 -9 -53 2 -25 9 -33 31 -39 30 -8 97 7 97 21 0 15 -39 32 -60 25 -15 -5 -20 -2 -20 12 0 11 -6 28 -14 38 -13 18 -14 18 -25 -4z"/>
<path d="M7455 1350 c-9 -27 18 -68 47 -72 24 -3 73 16 83 33 11 17 43 9 59 -16 12 -19 25 -25 51 -25 19 0 35 -4 35 -10 0 -5 -7 -10 -16 -10 -9 0 -14 -7 -12 -17 5 -28 23 -25 47 7 l22 31 -23 19 c-13 11 -35 19 -50 20 -16 0 -28 5 -28 10 0 6 -13 10 -30 10 -17 0 -38 9 -50 22 -17 19 -24 20 -38 10 -33 -23 -45 -25 -57 -9 -16 23 -32 21 -40 -3z"/>
<path d="M7846 1325 c-18 -28 -21 -45 -6 -45 6 0 10 -9 10 -20 0 -10 9 -28 20 -38 19 -17 25 -18 58 -7 25 9 38 20 40 35 2 12 10 24 18 27 8 3 14 11 14 19 0 15 -21 18 -58 8 -17 -5 -20 -9 -11 -20 15 -18 3 -34 -26 -34 -28 0 -36 18 -28 64 7 42 -7 47 -31 11z"/>
<path d="M1359 1297 c-14 -12 -28 -29 -32 -38 -7 -20 18 -58 62 -95 l34 -29 -6 39 c-3 21 -16 50 -28 63 -18 18 -20 26 -11 35 10 10 17 10 32 0 34 -21 39 -13 12 18 -15 17 -29 30 -32 30 -3 -1 -17 -11 -31 -23z"/>
<path d="M1246 1153 c-21 -33 -22 -40 -10 -54 8 -8 14 -22 14 -30 0 -8 5 -20 11 -26 13 -13 4 -33 -15 -33 -19 0 -59 -47 -51 -60 4 -7 2 -16 -5 -20 -16 -10 -4 -29 24 -40 30 -11 46 6 46 49 0 21 6 46 14 57 12 16 18 17 34 7 26 -16 32 -8 32 41 0 29 -6 47 -20 59 -21 18 -28 43 -9 31 16 -10 29 17 18 38 -17 31 -56 22 -83 -19z"/>
<path d="M7900 1135 c-11 -30 -27 -31 -60 -5 -32 25 -40 25 -40 1 0 -11 14 -31 30 -44 24 -21 37 -25 66 -20 20 3 48 17 62 30 24 22 24 24 7 43 -25 28 -53 25 -65 -5z"/>
<path d="M7856 985 c-3 -9 -4 -20 -1 -24 8 -13 106 -21 126 -10 32 16 22 26 -35 33 -30 3 -61 8 -69 12 -8 3 -17 -2 -21 -11z"/>
<path d="M7917 913 c-14 -13 -6 -24 15 -21 27 4 36 28 11 28 -11 0 -23 -3 -26 -7z"/>
<path d="M1198 825 c-21 -20 -38 -40 -38 -46 0 -16 76 -90 84 -82 10 10 7 73 -4 73 -25 0 -7 28 21 34 30 6 31 7 17 28 -22 33 -39 32 -80 -7z"/>
<path d="M7927 832 c-15 -16 -14 -20 18 -55 19 -20 43 -37 54 -37 26 0 27 12 2 34 -11 10 -23 31 -26 47 -7 33 -25 37 -48 11z"/>
<path d="M8005 820 c-3 -6 1 -13 9 -16 9 -3 16 -12 16 -20 0 -8 4 -14 8 -14 10 0 52 43 52 53 0 11 -78 8 -85 -3z"/>
<path d="M1260 680 c-23 -15 -18 -80 10 -117 18 -26 31 -33 57 -33 37 0 37 -1 22 51 -9 29 -18 39 -37 41 -25 3 -25 4 -8 21 33 32 -3 63 -44 37z"/>
<path d="M8030 665 c-12 -14 -24 -14 -67 2 -16 6 -17 -18 -1 -52 12 -28 35 -33 44 -10 4 8 13 15 21 15 25 0 73 30 73 45 0 20 -54 20 -70 0z"/>
<path d="M1113 652 c-14 -9 -33 -47 -33 -65 0 -8 15 -20 33 -27 17 -8 40 -20 50 -28 12 -11 21 -12 28 -5 11 11 2 43 -12 43 -4 0 -13 18 -19 39 -10 39 -28 55 -47 43z"/>
<path d="M966 571 c-14 -20 -26 -42 -26 -48 0 -17 68 -56 85 -49 27 10 11 118 -20 130 -8 3 -24 -11 -39 -33z"/>
<path d="M8329 584 l-10 -27 -22 22 c-26 24 -67 28 -67 7 0 -8 13 -29 28 -46 27 -29 30 -30 57 -16 44 23 73 86 40 86 -9 0 -20 -12 -26 -26z"/>
<path d="M8081 556 c-9 -11 -8 -18 4 -30 37 -37 54 -39 85 -9 17 15 30 31 30 35 0 12 -48 10 -55 -2 -9 -15 -25 -12 -25 5 0 19 -24 20 -39 1z"/>
<path d="M8400 547 c0 -8 8 -22 19 -31 16 -15 19 -15 24 -1 4 8 13 15 22 15 19 0 20 -29 0 -36 -23 -9 -18 -24 9 -24 26 0 36 16 36 61 0 29 -1 29 -55 29 -39 0 -55 -4 -55 -13z"/>
<path d="M7950 503 c0 -10 9 -29 20 -43 18 -22 21 -23 30 -8 6 10 18 14 31 11 19 -5 38 9 39 30 0 16 -52 28 -67 15 -11 -9 -19 -9 -34 0 -16 10 -19 9 -19 -5z"/>
<path d="M885 468 c-28 -13 -58 -77 -40 -85 8 -2 18 -2 24 1 5 4 12 -2 15 -12 5 -16 44 -42 61 -42 3 0 5 22 5 48 0 61 -32 106 -65 90z"/>
<path d="M758 355 c-10 -13 -18 -32 -18 -42 1 -20 23 -53 35 -53 5 0 17 -7 27 -16 28 -26 34 6 9 53 -12 25 -16 44 -11 53 22 35 -17 40 -42 5z"/>
<path d="M612 257 c-31 -32 -41 -57 -24 -57 5 0 23 -13 42 -30 18 -16 37 -27 41 -24 5 3 9 29 9 59 0 94 -16 106 -68 52z"/>
<path d="M493 237 c-11 -12 -28 -36 -38 -53 -17 -31 -17 -32 4 -53 11 -11 31 -21 42 -21 12 0 28 -8 35 -17 8 -12 16 -15 22 -8 14 15 -4 56 -28 62 -21 6 -27 37 -10 48 12 8 13 52 1 59 -4 3 -17 -5 -28 -17z"/>
<path d="M146 224 c-5 -12 -1 -23 10 -31 36 -27 46 -10 16 27 -18 22 -19 22 -26 4z"/>
<path d="M277 163 c-33 -46 -23 -68 34 -77 23 -4 44 -4 47 -1 11 10 4 85 -8 100 -20 25 -45 17 -73 -22z m38 -43 c0 -7 -6 -15 -12 -17 -8 -3 -13 4 -13 17 0 13 5 20 13 18 6 -3 12 -11 12 -18z"/>
<path d="M101 144 l-24 -24 24 -19 c13 -11 37 -20 52 -21 25 0 27 3 21 23 -8 24 -36 67 -44 66 -3 -1 -16 -12 -29 -25z"/>
</g>
</svg>