<?xml version="1.0" standalone="no"?>
<!DOCTYPE svg PUBLIC "-//W3C//DTD SVG 20010904//EN"
 "http://www.w3.org/TR/2001/REC-SVG-20010904/DTD/svg10.dtd">
<svg version="1.0" xmlns="http://www.w3.org/2000/svg"
 width="300.000000pt" height="275.000000pt" viewBox="0 0 300.000000 275.000000"
 preserveAspectRatio="xMidYMid meet">
<metadata>
Created by potrace 1.10, written by Peter Selinger 2001-2011
</metadata>
<g transform="translate(0.000000,275.000000) scale(0.100000,-0.100000)"
fill="#000000" stroke="none">
<path/>
<path/>
<path/>
<path/>
<path d="M1283 2666 c-10 -13 -25 -34 -33 -46 -35 -53 -73 -90 -106 -100 -39 -13 -87 -6 -105 16 -7 9 -29 24 -50 35 -31 15 -43 17 -71 7 -45 -15 -88 -46 -88 -64 0 -8 -6 -14 -14 -14 -12 0 -26 -20 -26 -36 0 -12 32 -1 37 13 10 25 54 61 91 73 28 10 37 8 70 -11 20 -13 43 -29 50 -36 40 -39 129 -20 185 40 20 22 37 45 37 52 0 6 16 28 35 49 39 43 41 46 21 46 -8 0 -23 -11 -33 -24z"/>
<path d="M1221 2414 c-117 -107 -177 -221 -240 -459 -27 -99 -63 -369 -66 -480 -1 -66 -5 -130 -9 -142 -8 -26 9 -40 29 -23 10 8 12 18 6 29 -11 23 -6 152 14 311 32 266 83 457 158 589 44 77 130 172 179 197 34 18 35 24 4 24 -15 0 -44 -18 -75 -46z"/>
<path d="M716 2258 c-10 -72 -4 -199 10 -227 8 -14 14 -49 14 -78 0 -28 6 -82 14 -120 24 -109 86 -335 101 -366 8 -15 17 -48 21 -73 3 -24 10 -47 15 -50 12 -7 2 62 -22 151 -11 39 -35 127 -54 197 -19 70 -39 166 -45 215 -6 48 -15 104 -20 123 -12 46 -11 210 2 234 7 13 6 21 -3 27 -23 14 -26 11 -33 -33z"/>
<path d="M669 2078 c-4 -18 -5 -26 -13 -83 -4 -33 -10 -71 -12 -85 -4 -18 -3 -21 4 -10 5 8 13 40 16 70 4 30 11 59 15 65 5 5 5 19 0 30 -4 11 -8 17 -10 13z"/>
<path d="M685 1958 c-8 -63 -33 -148 -44 -148 -5 0 -13 -21 -19 -47 -26 -110 -66 -264 -94 -355 -27 -89 -30 -126 -8 -113 7 4 28 70 60 185 30 112 45 162 66 225 49 152 77 305 56 305 -5 0 -13 -24 -17 -52z"/>
<path d="M1250 1823 c-6 -21 -15 -47 -20 -58 -13 -32 -38 -155 -46 -221 -5 -50 -2 -70 14 -108 20 -43 23 -46 59 -46 34 0 46 8 109 73 38 39 80 85 91 102 l21 29 7 -59 c9 -72 28 -108 69 -130 34 -19 87 -17 94 3 2 8 -8 12 -33 12 -69 0 -90 24 -106 118 -8 51 -5 69 26 179 40 141 39 133 21 133 -10 0 -19 -20 -26 -57 -19 -89 -50 -164 -89 -213 -54 -68 -146 -157 -171 -165 -65 -21 -79 115 -30 290 6 22 16 58 21 80 6 22 14 44 20 50 13 13 11 25 -5 25 -8 0 -20 -17 -26 -37z"/>
<path d="M1994 1796 c-28 -13 -72 -44 -98 -70 -26 -25 -49 -46 -51 -46 -1 0 -5 25 -8 57 -3 31 -12 60 -19 64 -19 12 -20 -1 -4 -71 12 -50 13 -80 5 -144 -15 -123 -15 -121 1 -121 9 0 16 11 18 30 10 120 23 160 65 204 47 49 127 91 172 91 17 0 47 -11 68 -25 26 -18 37 -22 37 -12 0 21 -75 67 -107 67 -16 0 -51 -11 -79 -24z"/>
<path d="M2327 1770 c-15 -16 -32 -30 -37 -30 -11 0 -80 -103 -80 -120 0 -21 20 -9 36 23 20 41 103 116 128 117 10 0 27 -12 38 -26 15 -18 24 -22 31 -15 8 8 0 21 -26 46 -20 19 -43 35 -50 35 -8 0 -26 -13 -40 -30z"/>
<path d="M2410 1689 c0 -6 -11 -25 -25 -43 -19 -26 -37 -35 -77 -44 -29 -5 -66 -9 -83 -9 -28 2 -30 -1 -33 -34 -4 -44 25 -83 76 -105 28 -12 56 -14 113 -10 111 9 289 56 289 77 0 11 3 12 -56 -5 -92 -27 -209 -48 -267 -47 -79 1 -120 24 -133 75 -6 25 -5 26 44 26 69 0 101 14 145 62 39 45 47 68 22 68 -8 0 -15 -5 -15 -11z"/>
<path d="M2672 1221 c9 -15 9 -25 1 -43 -19 -38 -44 -138 -37 -149 3 -5 -2 -26 -11 -45 -17 -35 -13 -94 6 -94 5 0 9 1 9 3 4 47 34 210 49 262 26 88 26 85 -4 85 -22 0 -24 -2 -13 -19z"/>
<path d="M1631 1159 c-43 -19 -98 -83 -130 -148 -28 -59 -27 -75 9 -103 17 -13 44 -33 60 -46 41 -32 135 -47 177 -27 39 19 73 100 73 173 0 51 -26 118 -56 143 -28 24 -89 28 -133 8z m103 -19 c38 -14 60 -65 60 -141 1 -57 -3 -71 -29 -109 l-29 -42 -71 6 c-51 5 -74 12 -85 25 -8 10 -27 26 -42 36 -34 21 -37 61 -8 98 11 14 20 29 20 34 0 11 60 75 85 90 25 15 66 16 99 3z"/>
<path d="M2326 1173 c-9 -9 -7 -95 2 -89 4 2 13 2 19 -2 18 -12 103 -142 103 -159 0 -8 6 -29 14 -46 18 -43 39 -134 33 -144 -3 -5 1 -19 9 -33 14 -23 14 -20 9 43 -14 143 -58 256 -130 333 -23 24 -35 47 -35 65 0 28 -12 44 -24 32z"/>
<path d="M590 1116 c-42 -16 -105 -52 -141 -80 -14 -12 -41 -32 -60 -46 -61 -45 -145 -130 -127 -130 9 0 18 3 20 8 5 12 115 102 125 102 5 0 22 14 39 31 42 44 150 95 206 98 38 1 49 -2 62 -21 18 -25 22 -103 5 -113 -6 -4 -8 -13 -5 -21 8 -22 -15 -118 -30 -127 -8 -4 -14 -15 -14 -23 0 -20 -46 -37 -69 -24 -35 18 -38 125 -5 178 12 17 24 22 59 22 45 0 60 12 29 24 -33 13 -66 5 -97 -23 -27 -26 -31 -37 -35 -94 -6 -87 13 -123 67 -132 41 -7 61 -2 61 16 0 5 9 22 20 37 34 46 56 157 51 255 0 15 -12 39 -26 52 -28 28 -77 32 -135 11z"/>
<path d="M1917 1112 c-4 -5 17 -12 50 -16 66 -8 138 -46 149 -79 13 -39 7 -151 -15 -258 -11 -57 -22 -120 -25 -139 -3 -19 -10 -60 -15 -90 -34 -180 -41 -225 -46 -287 -10 -117 24 -19 39 112 4 36 60 332 86 458 5 27 10 79 10 115 -1 90 -25 142 -76 167 -44 21 -148 32 -157 17z"/>
<path d="M1216 1088 c15 -47 24 -94 24 -130 0 -89 -113 -143 -195 -93 -29 18 -78 28 -70 15 13 -21 108 -61 145 -62 48 0 108 35 116 68 3 13 13 24 21 24 11 0 13 13 9 67 -7 78 -25 133 -44 133 -9 0 -11 -7 -6 -22z"/>
<path d="M2315 1060 c-6 -10 -18 -99 -17 -130 1 -29 -51 -295 -61 -315 -6 -11 -12 -33 -13 -50 -2 -16 -8 -39 -13 -50 -5 -11 -20 -49 -32 -85 -41 -121 -131 -275 -156 -266 -7 3 -13 1 -13 -3 0 -5 -3 -16 -6 -25 -11 -27 20 -18 49 15 15 17 27 34 27 38 0 4 11 18 25 31 14 13 25 29 25 36 0 7 11 30 25 50 14 20 25 43 25 51 0 7 4 21 10 31 18 33 85 251 81 266 -1 4 4 25 11 45 7 20 11 39 10 43 -1 4 5 40 13 80 17 78 32 248 22 248 -3 0 -9 -5 -12 -10z"/>
<path d="M2611 819 c-1 -34 -4 -66 -9 -73 -4 -6 -7 -20 -8 -31 -1 -11 -4 -33 -8 -50 l-7 -30 17 29 c17 30 19 40 30 149 4 43 3 67 -3 67 -6 0 -11 -27 -12 -61z"/>
<path d="M2506 642 c-3 -5 1 -28 9 -53 l14 -44 0 47 c1 44 -11 69 -23 50z"/>
<path d="M2559 618 c0 -2 -2 -16 -4 -32 -2 -15 -10 -36 -18 -45 -8 -9 -14 -33 -13 -54 1 -21 -2 -41 -6 -43 -4 -3 -8 -21 -8 -40 0 -28 4 -35 18 -32 12 2 16 11 14 31 -2 15 2 44 9 65 14 40 16 49 25 103 4 22 2 39 -5 43 -6 4 -11 6 -12 4z"/>
</g>
</svg>
