<?xml version="1.0" standalone="no"?>
<!DOCTYPE svg PUBLIC "-//W3C//DTD SVG 20010904//EN"
 "http://www.w3.org/TR/2001/REC-SVG-20010904/DTD/svg10.dtd">
<svg version="1.0" xmlns="http://www.w3.org/2000/svg"
 width="300.000000pt" height="255.000000pt" viewBox="0 0 300.000000 255.000000"
 preserveAspectRatio="xMidYMid meet">
<metadata>
Created by potrace 1.10, written by Peter Selinger 2001-2011
</metadata>
<g transform="translate(0.000000,255.000000) scale(0.100000,-0.100000)"
fill="#000000" stroke="none">
<path d="M230 2516 c-46 -34 -99 -86 -87 -86 3 0 25 18 49 41 24 22 59 49 78
60 19 10 28 18 20 18 -8 0 -35 -15 -60 -33z"/>
<path d="M336 2476 l5 -79 -28 6 c-16 3 -35 2 -42 -3 -9 -5 -1 -8 24 -8 20 0
40 -4 44 -8 4 -5 18 -45 30 -89 13 -44 34 -102 47 -128 l24 -49 -35 -35 c-34
-34 -38 -35 -92 -31 -52 5 -60 9 -96 49 -22 24 -49 64 -60 89 -11 25 -22 40
-24 33 -2 -6 8 -30 22 -53 33 -53 26 -61 -17 -20 -37 36 -85 60 -120 60 -13
-1 -1 -8 30 -19 108 -37 181 -145 190 -277 3 -41 8 -77 13 -79 4 -3 6 9 4 27
-2 18 -6 56 -9 85 -3 28 -14 71 -25 94 -12 24 -21 44 -21 46 0 1 15 -8 34 -21
53 -35 110 -41 152 -15 19 11 39 30 45 41 7 13 14 17 21 10 7 -7 6 -17 -1 -30
-13 -25 -14 -69 -2 -77 6 -3 8 5 5 19 -7 40 12 76 40 76 34 0 51 -23 34 -49
-12 -20 -13 -20 -35 7 -19 21 -16 14 9 -37 18 -35 46 -77 61 -95 16 -17 40
-45 53 -62 39 -50 114 -85 197 -91 56 -4 80 -2 105 11 35 18 68 50 84 81 5 11
-2 5 -17 -13 -15 -18 -45 -42 -68 -54 -35 -17 -52 -20 -110 -14 -95 9 -143 37
-213 121 -37 45 -37 46 -17 60 26 18 46 72 31 81 -7 4 -6 9 1 14 9 5 7 10 -4
20 -13 11 -14 10 -9 -5 6 -15 3 -16 -17 -10 -13 4 -34 16 -45 27 -12 10 -34
20 -50 21 l-29 3 3 65 c4 71 -13 126 -50 166 -25 27 -17 30 18 6 14 -9 39 -39
55 -67 16 -28 29 -46 29 -41 0 6 -11 29 -25 53 l-24 42 25 -6 c29 -7 74 2 74
16 0 6 -10 6 -26 -1 -58 -21 -96 26 -97 121 0 53 0 54 -10 21 -10 -32 -4 -72
17 -123 6 -13 -2 -11 -42 10 l-50 26 -10 81 -11 80 5 -79z m49 -114 c-2 -3 7
-18 20 -34 13 -16 29 -45 35 -66 12 -46 13 -112 1 -112 -9 0 -51 103 -66 160
-4 14 -9 32 -11 41 -3 9 2 16 11 16 8 0 13 -2 10 -5z m199 -321 c30 -12 26
-38 -11 -73 l-26 -23 6 23 c3 13 1 20 -5 16 -19 -12 -27 19 -11 43 18 27 15
26 47 14z"/>
<path d="M504 2517 c14 -18 32 -48 41 -67 15 -33 16 -33 10 -6 -7 31 -54 105
-68 106 -4 0 3 -15 17 -33z"/>
<path d="M550 2517 c21 -35 27 -79 17 -112 -3 -11 -2 -36 3 -55 9 -34 9 -34 8
-5 0 17 3 38 7 48 15 35 -22 157 -47 157 -4 0 1 -15 12 -33z"/>
<path d="M663 2535 c0 -11 -10 -42 -23 -70 -25 -52 -41 -188 -24 -205 5 -5 8
21 6 60 -3 58 1 79 23 128 l26 59 28 -28 c37 -37 74 -46 106 -25 13 9 27 16
30 16 6 0 -39 -71 -102 -160 l-45 -64 53 46 c30 25 54 54 55 65 1 11 21 58 46
105 31 57 41 85 32 85 -8 0 -14 -7 -14 -15 0 -8 -15 -29 -34 -48 -29 -29 -39
-34 -63 -28 -41 10 -84 53 -77 78 4 15 3 17 -4 7 -8 -11 -10 -11 -15 0 -3 8
-5 6 -4 -6z m108 -208 c-13 -12 -20 -15 -16 -7 14 26 28 41 33 35 3 -3 -5 -16
-17 -28z"/>
<path d="M965 2504 c96 -125 115 -281 64 -527 -10 -49 -15 -95 -12 -103 8 -22
32 -16 45 12 11 23 13 24 19 7 7 -16 8 -15 8 5 1 15 7 22 21 22 23 0 27 15 6
23 -8 3 -17 -1 -20 -9 -3 -8 -12 -14 -20 -14 -8 0 -19 -8 -25 -17 -21 -37 -24
17 -6 100 22 99 25 292 6 357 -17 58 -89 187 -106 187 -7 0 2 -19 20 -43z"/>
<path d="M1541 2501 c-11 -27 -18 -56 -15 -64 7 -21 35 -30 48 -17 7 7 6 10
-2 10 -7 0 -12 7 -12 15 0 9 -6 12 -15 9 -12 -5 -10 4 6 41 11 26 19 49 16 51
-2 3 -14 -18 -26 -45z"/>
<path d="M1616 2510 c24 -36 58 -59 71 -47 2 3 -5 8 -16 12 -11 3 -30 22 -41
41 -12 18 -26 34 -31 34 -5 0 3 -18 17 -40z"/>
<path d="M1695 2530 c-4 -12 -5 -24 -2 -27 3 -2 8 5 12 17 4 12 5 24 2 27 -3
2 -8 -5 -12 -17z"/>
<path d="M1999 2504 c-13 -25 -29 -49 -36 -51 -7 -3 -13 -9 -13 -13 0 -5 25
-1 56 7 55 14 190 90 180 101 -3 3 -25 -8 -48 -24 -55 -37 -108 -63 -130 -64
-23 0 -22 1 3 45 12 20 19 38 16 41 -3 3 -15 -16 -28 -42z"/>
<path d="M2194 2494 c-43 -67 -51 -108 -30 -157 17 -42 46 -57 108 -57 39 0
40 -1 33 -27 -8 -33 -5 -30 -35 -43 -25 -10 -25 -10 3 -5 26 5 27 4 20 -22 -4
-16 -7 -75 -6 -133 1 -107 27 -230 72 -350 l20 -52 -32 -41 c-18 -23 -61 -86
-96 -140 -44 -65 -68 -94 -75 -87 -12 12 -53 13 -60 1 -3 -4 5 -6 17 -4 12 2
28 -1 36 -6 12 -8 6 -21 -29 -75 -24 -36 -44 -66 -45 -66 -1 0 -2 36 -3 79 -2
107 -15 160 -63 255 -37 73 -72 115 -91 108 -13 -3 -9 26 7 64 8 20 12 41 8
47 -3 5 -1 7 4 4 6 -4 14 4 17 17 3 13 8 32 11 43 3 10 -2 5 -10 -12 l-16 -30
7 35 c15 85 15 85 6 70 -5 -8 -17 -55 -27 -105 -10 -49 -19 -92 -21 -94 -2 -2
-29 17 -61 42 -33 26 -84 54 -118 65 -76 25 -171 37 -180 23 -3 -6 -1 -11 4
-11 18 0 12 -28 -6 -33 -10 -3 0 -5 22 -5 30 0 35 1 20 7 -20 8 -20 8 0 13 16
5 17 6 3 7 -10 0 -18 6 -18 12 0 6 8 8 18 6 9 -3 34 -8 55 -12 28 -4 37 -11
37 -25 0 -14 10 -21 35 -26 19 -3 35 -10 35 -15 0 -5 12 -4 26 1 33 13 26 15
73 -24 22 -18 37 -37 33 -41 -4 -5 -1 -5 6 -1 8 5 12 -1 12 -19 0 -22 -3 -24
-19 -15 -11 5 -22 20 -24 32 l-4 23 -2 -22 c0 -13 8 -28 19 -35 14 -9 20 -23
19 -48 l0 -35 -17 25 c-39 57 -120 134 -160 151 -49 21 -81 26 -43 6 29 -15
39 -37 16 -37 -9 0 -13 5 -10 10 3 6 -1 10 -9 10 -9 0 -21 9 -28 20 -11 17
-23 20 -73 19 -41 -1 -52 -3 -35 -8 17 -5 21 -9 12 -15 -6 -4 -16 -5 -20 -2
-5 3 -9 -1 -9 -9 0 -17 13 -20 22 -5 9 15 41 12 55 -5 7 -8 16 -13 20 -10 16
10 87 -19 127 -51 38 -31 43 -33 52 -17 9 17 11 17 30 -1 26 -23 27 -37 4 -30
-15 5 -15 4 -3 -4 8 -6 17 -9 21 -6 4 2 13 -6 21 -19 19 -29 26 -347 7 -347
-6 0 -9 8 -6 20 3 11 2 20 -3 20 -12 0 -22 -34 -11 -38 5 -2 7 -10 4 -18 -3
-7 -9 -11 -14 -8 -5 3 -9 -4 -9 -15 0 -12 -10 -31 -21 -42 -20 -20 -23 -20
-31 -5 -5 9 -6 22 -2 29 5 8 2 7 -9 -2 -12 -10 -14 -17 -7 -26 8 -9 6 -17 -5
-29 -21 -20 -46 -21 -39 -1 4 8 10 15 15 15 5 0 9 5 9 11 0 5 -4 8 -9 4 -5 -3
-12 -1 -15 4 -6 10 47 41 71 41 7 0 13 -7 13 -17 0 -22 13 -8 15 16 1 13 -4
17 -19 14 -21 -4 -21 -4 -2 11 11 9 23 16 28 16 4 0 5 6 2 13 -2 7 5 23 17 36
20 21 34 96 17 84 -5 -2 -8 -13 -8 -24 0 -26 -42 -99 -72 -125 -13 -12 -40
-30 -60 -41 -36 -21 -37 -21 -54 -2 -9 10 -15 20 -13 22 2 2 28 18 57 36 29
19 59 46 67 61 24 46 34 112 25 155 l-9 40 3 -47 c4 -55 -4 -60 -33 -19 -23
32 -27 46 -9 35 7 -4 8 -3 4 4 -4 7 -2 12 3 12 6 0 11 -5 11 -12 0 -6 2 -9 5
-7 8 9 -7 47 -20 53 -9 3 -11 -2 -8 -15 3 -10 0 -19 -6 -19 -6 0 -11 5 -11 12
0 6 -9 21 -20 33 -21 22 -18 60 4 49 6 -3 3 1 -7 9 -18 15 -57 12 -57 -5 0 -5
-5 -6 -11 -3 -5 4 -8 12 -6 18 2 7 -3 21 -12 31 -15 18 -15 19 14 12 22 -5 26
-4 15 4 -19 12 -57 13 -65 1 -3 -5 4 -12 15 -16 12 -4 20 -15 20 -29 0 -20 -4
-22 -26 -18 l-27 5 23 12 22 12 -21 6 c-14 3 -24 -1 -31 -13 -9 -16 -4 -21 37
-33 49 -14 77 -12 67 4 -3 5 2 6 12 2 15 -5 15 -7 0 -15 -14 -8 -12 -12 13
-34 34 -28 55 -83 53 -134 -2 -22 1 -30 6 -22 6 9 12 6 21 -12 14 -26 6 -52
-26 -77 -17 -13 -17 -13 -1 6 9 11 18 29 20 40 5 30 -25 25 -55 -10 -14 -17
-42 -40 -62 -50 -31 -17 -37 -18 -45 -5 -14 21 -12 30 5 30 8 0 28 12 45 28
28 24 31 33 31 90 1 60 -1 65 -32 92 -23 19 -44 29 -64 28 l-30 -1 32 -4 c51
-7 83 -52 83 -118 0 -44 -3 -53 -15 -49 -14 6 -19 18 -16 37 1 5 -3 5 -9 2 -8
-5 -6 -14 4 -31 20 -29 20 -40 2 -25 -12 10 -13 8 -9 -8 3 -12 1 -22 -3 -22
-41 -6 -54 -5 -54 7 0 7 3 14 8 17 4 2 1 2 -5 1 -7 -2 -17 5 -22 15 -12 21 3
41 31 41 26 0 45 44 28 65 -10 12 -9 15 6 15 11 1 1 9 -24 21 -24 11 -45 26
-48 33 -5 14 -34 18 -34 4 0 -4 7 -8 16 -8 12 0 8 -7 -12 -22 -31 -25 -45 -29
-55 -15 -3 5 -6 -4 -7 -20 0 -75 -8 -162 -14 -169 -12 -11 -30 48 -23 76 4 19
3 21 -5 10 -15 -23 -12 -38 18 -97 33 -67 65 -85 149 -88 59 -2 93 -16 93 -36
0 -5 -35 -9 -79 -9 -67 0 -84 4 -115 25 -27 18 -36 21 -36 10 0 -8 4 -15 8
-15 4 0 8 -9 8 -20 0 -11 -4 -20 -8 -20 -17 0 -7 -30 15 -44 32 -21 90 -29
152 -21 50 6 55 9 55 31 0 14 6 27 14 30 8 3 12 12 9 20 -3 8 0 14 5 14 21 0
22 -20 2 -40 -12 -12 -15 -20 -7 -20 8 0 7 -4 -3 -10 -11 -8 -9 -9 10 -5 18 4
28 0 37 -14 15 -24 -7 -47 -69 -67 -29 -10 -33 -13 -13 -10 17 3 39 8 49 12
15 6 18 4 13 -8 -4 -12 3 -17 31 -21 20 -2 42 0 48 4 6 5 44 -27 100 -85 50
-51 104 -102 120 -112 16 -10 -5 14 -46 53 l-75 72 46 43 c50 48 103 135 114
188 6 31 30 71 167 287 41 64 84 111 59 66 -9 -19 -9 -23 2 -23 8 0 13 11 12
30 0 26 50 119 65 120 3 0 17 -24 33 -53 65 -124 164 -223 262 -264 l45 -18 0
-165 c0 -169 14 -259 54 -354 21 -51 21 -52 -14 -65 -16 -5 -30 -13 -30 -17 0
-3 7 -3 16 0 18 7 103 -38 173 -91 50 -39 103 -68 62 -35 -23 19 -23 20 -5 30
16 10 17 13 4 22 -8 6 -25 8 -37 5 -23 -5 -46 16 -25 23 7 2 12 8 12 13 0 4
-7 6 -15 3 -8 -4 -15 -13 -15 -22 0 -9 -15 0 -40 26 -22 22 -40 44 -40 49 0 4
27 19 60 31 43 17 60 29 60 42 0 21 -29 35 -44 20 -7 -7 -3 -10 13 -10 37 0
19 -21 -34 -41 -28 -11 -55 -19 -60 -19 -6 0 -18 18 -28 41 -39 90 -49 153
-54 333 -5 171 -5 179 13 172 29 -11 153 -26 209 -24 56 1 52 2 -91 18 -55 7
-107 16 -114 20 -11 7 -12 25 -1 106 14 110 36 220 51 258 5 14 6 35 2 47 -6
16 -12 2 -25 -62 -26 -132 -47 -266 -47 -304 0 -43 -9 -44 -82 -2 -97 54 -173
139 -237 265 l-20 38 71 95 c39 52 95 129 126 173 l55 78 20 -41 c28 -60 131
-110 217 -104 49 3 113 46 118 79 3 18 2 18 -8 1 -13 -21 -90 -71 -97 -63 -3
2 20 36 51 75 31 38 56 74 56 78 -1 9 -35 -30 -90 -103 l-39 -51 -58 9 c-32 6
-64 16 -72 23 -11 11 -4 16 40 30 30 9 60 19 68 22 13 5 11 -8 -7 -56 -3 -9
-1 -12 6 -8 6 4 13 20 17 35 3 16 26 55 51 88 42 56 45 62 39 106 -4 38 0 62
21 114 14 36 24 67 21 70 -6 6 -37 -69 -83 -205 l-39 -114 -50 -23 c-27 -12
-67 -26 -87 -29 -34 -7 -39 -5 -57 26 -12 19 -21 41 -20 49 0 8 44 69 98 135
71 87 103 119 117 117 12 -2 15 0 8 5 -14 10 83 152 104 152 7 1 11 5 8 10 -3
5 -15 7 -27 4 -19 -5 -20 -4 -8 15 10 16 16 18 26 10 10 -8 13 -3 13 23 -1 29
-2 31 -11 16 -8 -14 -18 -17 -36 -12 -24 6 -25 4 -19 -26 3 -18 11 -36 17 -40
7 -4 -10 -32 -41 -72 l-52 -65 -47 21 c-35 16 -67 21 -133 21 -49 1 -88 2 -88
3 0 1 19 11 43 21 74 33 173 63 239 72 l63 9 -75 -3 c-62 -2 -93 -11 -178 -46
-127 -53 -210 -125 -236 -204 -16 -50 -22 -176 -8 -176 4 0 6 26 4 58 -4 65
25 157 58 187 20 18 20 17 20 -24 0 -23 10 -66 22 -94 25 -60 26 -62 34 -55 3
3 -4 24 -15 47 -30 58 -38 124 -18 155 34 51 145 58 270 17 50 -17 34 -36 -27
-32 -37 2 -48 -2 -74 -28 -37 -37 -72 -126 -72 -182 0 -33 -10 -52 -63 -122
-35 -45 -92 -122 -127 -172 l-64 -89 -29 89 c-40 125 -57 222 -57 325 0 134 3
142 63 170 101 45 238 213 237 289 -1 18 -6 10 -19 -27 -25 -72 -80 -127 -169
-169 -41 -19 -75 -33 -77 -31 -4 5 32 179 45 212 6 16 9 31 6 33 -7 8 -35 -80
-52 -162 -9 -44 -18 -83 -20 -87 -6 -10 -41 -10 -83 -2 -85 17 -84 135 2 232
12 12 15 22 9 22 -7 0 -28 -25 -48 -56z m271 -169 c-27 -24 -71 -56 -97 -70
l-48 -26 0 26 c0 21 7 29 33 38 17 7 59 26 92 44 33 17 62 31 65 32 3 0 -17
-20 -45 -44z m347 -91 c4 -3 -22 -41 -56 -84 -35 -43 -73 -91 -84 -107 l-21
-28 -1 27 c0 44 37 132 71 166 29 30 75 43 91 26z m128 -148 c0 -23 -9 -45
-24 -63 l-25 -28 22 63 c12 34 23 62 24 62 2 0 3 -15 3 -34z m-1184 -298 c-11
-6 -22 -6 -32 2 -24 21 -16 30 17 18 27 -9 29 -12 15 -20z m-118 -35 c2 -7 -1
-13 -8 -13 -6 0 -9 4 -5 9 3 5 -5 12 -17 14 -21 4 -21 4 1 3 14 -1 26 -7 29
-13z m140 -38 c21 -18 28 -31 25 -45 -5 -19 -8 -18 -42 12 -21 18 -36 39 -33
46 6 18 17 15 50 -13z m247 -170 c46 -99 57 -147 57 -267 0 -54 -5 -86 -16
-102 -8 -14 -12 -33 -9 -46 4 -16 3 -21 -6 -16 -6 4 -9 12 -6 17 4 5 4 9 2 9
-2 0 -21 -25 -41 -55 -20 -30 -34 -55 -31 -55 2 0 17 18 31 40 35 53 40 46 10
-16 -15 -32 -40 -61 -71 -83 l-46 -33 -26 23 c-43 41 -45 52 -12 87 17 18 29
38 26 45 -2 6 -11 -2 -20 -19 -17 -32 -53 -51 -60 -30 -2 6 -8 8 -12 3 -5 -4
0 -14 11 -21 16 -12 17 -17 6 -28 -11 -11 -14 -10 -21 1 -5 8 -16 11 -24 8 -9
-3 -18 1 -21 9 -3 9 -1 12 4 9 6 -3 10 -2 10 4 0 6 13 17 29 26 23 11 31 12
34 2 3 -6 6 -3 6 9 1 12 12 26 26 32 14 6 25 16 25 22 0 9 16 3 49 -18 3 -1
-15 -24 -40 -50 -43 -46 -43 -46 -3 -9 l41 38 12 -41 c7 -23 9 -47 4 -54 -4
-6 0 -3 10 8 10 11 14 22 8 25 -24 15 -23 60 2 93 44 59 61 100 48 119 -6 10
-7 20 -2 24 5 3 12 -1 14 -7 4 -9 6 -7 6 3 1 9 -8 28 -19 42 -18 22 -19 27 -5
34 14 8 14 11 -1 28 -8 11 -13 15 -10 8 4 -6 2 -14 -4 -18 -5 -3 -10 -17 -10
-30 0 -58 -82 -177 -152 -221 -46 -29 -54 -30 -68 -5 -9 17 -4 23 40 47 27 15
50 30 50 33 0 3 10 22 22 41 l22 35 7 -30 c6 -28 7 -28 8 10 0 23 7 47 14 54
17 17 16 237 -2 269 -10 19 -9 28 3 52 8 17 10 30 5 30 -6 0 -5 9 1 21 11 20
12 20 32 2 12 -10 40 -58 63 -108z m-101 -78 c3 -36 1 -69 -4 -72 -5 -3 -9 29
-9 71 0 92 7 93 13 1z m-369 33 c-4 -6 5 -7 23 -4 17 4 32 1 36 -5 4 -6 1 -11
-6 -11 -9 0 -9 -3 2 -10 18 -11 6 -37 -25 -54 -11 -6 -25 -17 -31 -25 -9 -11
-14 -8 -31 15 -25 36 -39 61 -29 52 9 -7 46 27 46 42 0 6 5 10 11 10 5 0 7 -4
4 -10z m-8 -145 c8 -16 27 -42 41 -57 33 -36 22 -46 -26 -24 -53 24 -78 71
-73 135 1 20 38 -15 58 -54z m377 -16 c-3 -57 -14 -62 -14 -6 0 26 4 47 8 47
5 0 7 -18 6 -41z m-154 -9 c0 -9 -56 -79 -75 -92 -5 -4 -16 -1 -24 5 -12 10
-14 9 -8 -5 3 -10 3 -17 -1 -16 -4 1 -22 -2 -39 -6 -18 -4 -38 -4 -45 0 -7 5
-21 10 -31 11 -10 2 -28 9 -40 15 -20 11 -20 13 -4 16 15 3 16 6 6 18 -10 12
-14 12 -20 2 -7 -11 -9 -11 -9 0 0 7 -4 10 -10 7 -5 -3 -10 -2 -10 4 0 20 26
17 57 -6 17 -13 48 -27 70 -30 21 -3 44 -11 52 -17 11 -8 13 -8 8 1 -8 13 39
42 70 44 12 0 13 2 5 6 -10 4 -8 11 9 29 24 25 39 31 39 14z m229 -66 c-8 -9
-13 -25 -11 -35 2 -10 -6 -23 -17 -28 -13 -8 -19 -21 -19 -42 1 -20 4 -26 9
-17 5 7 6 21 3 32 -4 12 -2 16 4 12 6 -4 18 6 26 21 8 15 15 22 16 14 0 -7
-12 -35 -26 -61 l-26 -49 -21 20 c-21 19 -21 20 -4 47 10 15 28 49 39 75 14
32 24 45 31 38 7 -7 6 -16 -4 -27z m-379 -118 c60 3 78 1 63 -6 -13 -5 -23
-14 -23 -20 0 -6 5 -8 10 -5 6 3 10 -1 10 -10 0 -9 -6 -15 -12 -14 -7 1 -21
-1 -30 -5 -9 -4 -26 -3 -37 4 -14 7 -21 7 -21 0 0 -5 -7 -10 -15 -10 -13 0
-13 3 -3 20 15 23 48 27 48 5 0 -12 4 -13 18 -4 22 14 25 39 4 39 -9 0 -12 -6
-8 -16 5 -13 3 -14 -6 -7 -18 15 -59 26 -57 16 4 -22 -3 -31 -26 -35 -29 -6
-69 18 -58 35 4 7 8 15 9 20 1 4 2 10 3 13 0 4 11 0 24 -8 16 -11 45 -14 107
-12z m297 -22 c-9 -9 -28 6 -21 18 4 6 10 6 17 -1 6 -6 8 -13 4 -17z m907
-431 l19 -26 -31 18 c-17 10 -29 22 -26 27 9 13 18 9 38 -19z m138 -95 c-6 -6
-16 -7 -22 -3 -9 6 -9 9 1 16 17 10 34 0 21 -13z"/>
<path d="M1948 1624 c3 -18 1 -25 -6 -20 -10 6 10 -53 27 -79 7 -11 30 -94 30
-110 1 -5 -4 -3 -9 5 -5 8 -10 10 -10 4 0 -7 9 -22 20 -35 10 -13 19 -18 20
-11 0 6 -5 12 -11 12 -5 0 -8 4 -4 10 3 5 13 6 21 3 19 -7 17 1 -23 115 -17
49 -28 69 -34 61 -5 -8 -7 -1 -7 19 1 18 -4 38 -9 43 -7 7 -9 2 -5 -17z m61
-157 c1 -5 -3 -5 -9 -2 -5 3 -10 16 -9 28 0 21 1 21 9 2 5 -11 9 -24 9 -28z"/>
<path d="M2028 1350 c-2 -22 0 -47 4 -57 4 -10 7 6 7 40 1 66 -5 76 -11 17z"/>
<path d="M1493 1139 c-1 -10 2 -21 8 -24 5 -4 9 -1 9 6 0 8 4 8 15 -1 8 -7 15
-9 15 -4 0 5 -11 16 -23 25 -22 16 -23 16 -24 -2z"/>
<path d="M1575 2490 c-4 -7 -2 -16 6 -21 18 -11 23 -4 11 17 -7 12 -11 13 -17
4z"/>
<path d="M1474 2383 c27 -29 36 -29 36 2 0 20 -4 24 -29 22 l-28 -2 21 -22z"/>
<path d="M1385 2361 c3 -6 10 -9 15 -6 5 3 11 -3 14 -12 4 -14 4 -14 3 2 -1
11 -11 21 -21 23 -11 3 -16 0 -11 -7z"/>
<path d="M1356 2328 c3 -5 9 -6 14 -3 5 3 11 -3 13 -12 4 -14 5 -13 6 4 1 16
-4 21 -18 20 -11 0 -17 -5 -15 -9z"/>
<path d="M1400 2301 c0 -5 7 -14 15 -21 13 -11 13 -15 3 -21 -9 -6 -9 -9 -1
-9 6 0 19 -7 27 -16 15 -14 16 -14 16 6 0 11 -7 23 -15 26 -8 4 -15 15 -15 25
0 10 -7 19 -15 19 -8 0 -15 -4 -15 -9z"/>
<path d="M1938 2293 c12 -2 30 -2 40 0 9 3 -1 5 -23 4 -22 0 -30 -2 -17 -4z"/>
<path d="M607 2210 c-9 -15 -17 -34 -16 -42 0 -7 5 -1 11 15 5 15 14 27 19 27
5 0 11 -12 15 -27 3 -16 12 -46 20 -68 14 -38 14 -38 9 -6 -4 27 -2 32 10 27
8 -3 21 -9 29 -12 17 -6 46 22 46 44 -1 14 -3 14 -12 -3 -16 -29 -29 -35 -51
-24 -14 8 -16 14 -7 24 6 7 9 26 8 41 -2 25 -6 29 -33 31 -25 1 -35 -5 -48
-27z m71 -18 c-4 -36 -22 -37 -34 -3 -11 27 -10 29 13 29 20 0 24 -5 21 -26z"/>
<path d="M1456 2201 c-3 -4 0 -13 6 -21 8 -12 9 -12 4 3 -3 9 -1 17 4 17 6 0
10 -7 10 -15 0 -8 6 -15 13 -15 8 0 19 -10 26 -22 6 -13 9 -15 7 -5 -3 9 -1
17 4 17 6 0 10 6 10 14 0 9 -7 12 -20 9 -13 -3 -20 0 -20 9 0 14 -36 22 -44 9z"/>
<path d="M560 2171 c0 -5 -5 -22 -10 -37 -10 -26 -11 -26 -25 -8 -8 10 -15 15
-15 10 0 -18 32 -45 48 -39 12 5 14 2 9 -13 -5 -15 -2 -13 14 6 l21 25 -20 3
c-18 3 -20 8 -15 33 3 16 3 29 -1 29 -3 0 -6 -4 -6 -9z"/>
<path d="M1430 2159 c0 -5 -5 -7 -12 -3 -6 4 -8 3 -5 -3 4 -6 -2 -13 -13 -16
-19 -5 -25 -47 -7 -47 5 0 5 9 2 20 -7 22 20 29 28 8 3 -7 6 -2 6 11 1 16 5
21 15 18 10 -4 13 -1 9 9 -6 16 -23 19 -23 3z"/>
<path d="M1550 2143 c0 -8 5 -11 10 -8 6 3 10 -1 10 -9 0 -9 5 -16 10 -16 19
0 10 38 -10 43 -13 3 -20 0 -20 -10z"/>
<path d="M1618 2142 c-23 -4 -24 -22 -2 -22 14 0 14 -3 4 -15 -10 -12 -10 -15
4 -15 9 0 16 7 16 16 0 13 3 14 15 4 8 -7 12 -17 8 -24 -3 -6 -2 -8 2 -3 12
11 17 50 6 43 -5 -4 -15 0 -23 7 -7 7 -21 11 -30 9z"/>
<path d="M1750 2140 c0 -5 5 -10 11 -10 6 0 9 -7 5 -15 -3 -8 -1 -15 3 -15 15
0 20 27 8 39 -14 14 -27 14 -27 1z"/>
<path d="M1690 2123 c0 -13 22 -33 37 -33 7 0 13 7 13 15 0 8 -4 15 -9 15 -5
0 -16 3 -25 6 -9 3 -16 2 -16 -3z"/>
<path d="M1325 2088 c-29 -16 -29 -16 -10 -35 17 -16 17 -16 11 5 -7 22 7 31
19 12 11 -18 23 -11 18 10 -6 23 -10 24 -38 8z"/>
<path d="M1780 2080 c-8 -16 -8 -20 3 -20 8 0 22 -12 32 -26 13 -21 19 -24 26
-13 6 10 1 18 -17 27 -18 10 -23 18 -19 33 8 25 -11 25 -25 -1z"/>
<path d="M1256 2052 c-23 -11 -34 -12 -48 -3 -15 10 -20 7 -30 -14 -6 -14 -15
-25 -20 -25 -4 0 -8 -4 -8 -9 0 -5 12 -8 26 -8 18 0 22 3 15 10 -21 21 -11 29
29 25 22 -2 42 1 44 7 3 6 8 5 14 -4 12 -17 27 3 15 22 -7 11 -13 10 -37 -1z"/>
<path d="M1940 2040 c0 -5 5 -10 11 -10 5 0 7 -5 4 -10 -4 -6 4 -19 17 -30 22
-18 22 -19 3 -20 -18 -1 -18 -2 3 -10 12 -5 22 -14 22 -19 0 -6 8 -7 17 -4 12
5 15 2 11 -8 -3 -8 -1 -25 6 -37 l11 -22 13 21 c8 12 9 18 3 15 -5 -4 -11 4
-13 16 -2 12 -12 27 -24 33 -11 6 -19 15 -17 22 2 6 -5 17 -17 23 -11 6 -18
16 -14 22 4 5 0 14 -7 19 -19 12 -29 11 -29 -1z"/>
<path d="M1860 2030 c0 -5 6 -10 13 -10 8 0 7 -4 -3 -10 -13 -8 -13 -10 1 -10
17 0 32 24 22 34 -10 10 -33 7 -33 -4z"/>
<path d="M1913 2020 c1 -11 5 -20 9 -20 4 0 8 9 8 20 0 11 -4 20 -9 20 -6 0
-9 -9 -8 -20z"/>
<path d="M1587 1985 c-9 -25 -12 -43 -7 -40 6 3 10 14 10 23 0 14 2 14 13 -2
12 -16 13 -13 14 23 0 23 -2 41 -6 41 -4 0 -14 -20 -24 -45z"/>
<path d="M45 1982 c48 -17 94 -44 160 -94 22 -16 26 -18 15 -4 -17 21 -113 87
-153 104 -15 7 -38 12 -50 12 -13 -1 -1 -8 28 -18z"/>
<path d="M447 1918 c-25 -35 -71 -103 -103 -153 -79 -123 -194 -285 -203 -285
-13 0 -41 -58 -35 -73 3 -8 1 -18 -5 -22 -7 -4 -8 1 -4 12 6 15 4 16 -8 6 -10
-8 -30 -10 -55 -6 -32 5 -37 3 -26 -8 6 -7 12 -20 11 -28 0 -12 -3 -10 -10 4
-8 19 -9 19 -6 1 3 -30 27 -32 27 -2 0 18 4 24 14 20 17 -7 12 -24 -21 -73
-13 -19 -23 -40 -23 -49 0 -8 18 13 41 47 l40 61 30 -16 c45 -23 169 -104 213
-138 21 -17 102 -103 178 -191 121 -138 147 -175 194 -269 35 -70 51 -113 45
-120 -6 -7 -2 -20 10 -35 17 -21 25 -16 19 14 -1 5 -2 22 -2 37 -1 15 -5 25
-10 22 -14 -9 -9 8 6 20 17 13 25 50 11 53 -6 1 -9 -9 -8 -23 1 -17 -3 -24
-15 -24 -11 0 -29 26 -54 80 -38 80 -160 236 -300 381 -55 58 -163 139 -201
152 -9 3 -8 8 2 21 13 16 12 17 -10 11 -32 -8 -69 18 -52 36 10 10 10 16 -2
29 -14 15 -12 21 18 61 64 84 134 185 240 347 108 165 134 212 54 100z"/>
<path d="M1134 1965 c-10 -8 -14 -15 -7 -15 6 0 15 5 19 11 4 8 9 7 15 -2 6
-10 9 -10 9 -2 0 20 -16 23 -36 8z"/>
<path d="M1833 1907 c-11 -24 -10 -24 27 -23 21 0 36 4 34 8 -3 5 -10 8 -16 8
-6 0 -16 7 -22 16 -11 14 -13 13 -23 -9z"/>
<path d="M1315 1890 c-11 -17 5 -31 19 -17 14 12 12 27 -4 27 -5 0 -12 -4 -15
-10z"/>
<path d="M2060 1876 c0 -9 5 -14 10 -11 6 3 10 2 10 -4 0 -5 -6 -12 -12 -15
-7 -4 -3 -4 10 -2 18 3 22 0 22 -22 0 -20 3 -23 9 -12 6 8 7 18 4 24 -3 5 -1
6 5 2 7 -4 12 -14 12 -22 0 -9 5 -12 12 -8 8 5 9 2 5 -9 -7 -18 8 -24 18 -8 6
10 -36 61 -51 61 -4 0 -18 10 -31 22 -20 19 -23 19 -23 4z"/>
<path d="M1173 1845 c21 -106 20 -118 -14 -150 -48 -45 -95 -123 -121 -200
-18 -55 -23 -93 -23 -175 0 -96 2 -110 30 -165 40 -82 56 -106 65 -100 10 6
-12 55 -25 55 -5 0 -3 4 5 10 20 12 46 -46 29 -66 -24 -29 153 -193 246 -228
46 -17 105 -23 119 -12 19 15 27 66 14 91 -11 19 -11 19 -19 0 -7 -19 -8 -19
-8 2 -1 12 -5 24 -10 27 -15 9 0 -78 15 -90 24 -19 15 -26 -23 -19 -21 3 -53
8 -72 10 -19 3 -39 9 -45 15 -13 13 0 13 24 0 13 -7 21 -7 25 0 3 5 0 10 -8
10 -8 0 -43 15 -78 34 -46 24 -76 49 -107 89 -41 54 -42 57 -33 99 5 24 15
104 21 178 6 74 14 143 16 153 3 10 1 24 -6 32 -8 9 -8 15 0 20 6 3 7 11 4 17
-4 6 1 8 15 3 26 -8 27 3 4 21 -36 27 -61 17 -83 -33 -27 -60 -20 -66 9 -7 13
25 27 44 33 42 5 -2 9 -7 9 -11 -1 -4 -1 -14 -1 -22 0 -8 -9 -15 -20 -15 -12
0 -20 -7 -20 -16 0 -10 5 -14 16 -10 8 3 13 2 9 -3 -3 -5 0 -11 6 -13 9 -3 9
-40 0 -148 -7 -80 -16 -161 -20 -180 l-7 -34 -18 47 c-16 42 -19 45 -33 31
-14 -13 -17 -13 -30 6 -8 12 -12 24 -8 28 4 4 10 2 12 -5 2 -7 11 -9 19 -6 19
7 19 163 -1 220 -8 23 -12 49 -9 57 3 9 -2 17 -15 21 -16 5 -18 11 -12 28 5
12 13 22 19 22 6 0 19 8 29 17 57 55 66 68 65 97 -1 26 3 31 23 31 26 0 42
-28 24 -44 -9 -8 -10 -7 -6 6 3 10 2 20 -3 23 -6 4 -10 -3 -10 -14 0 -12 -6
-21 -12 -21 -10 0 -9 -3 1 -9 7 -5 11 -13 8 -18 -3 -5 -2 -15 4 -23 7 -12 9
-9 9 9 0 14 10 35 22 48 15 16 17 23 7 23 -12 0 -11 2 1 10 13 8 13 10 -2 10
-9 0 -22 8 -27 18 -6 9 -11 11 -11 5 0 -7 -9 -13 -20 -13 -13 0 -18 5 -14 15
4 8 10 12 15 9 5 -3 9 0 9 6 0 17 30 45 100 90 62 40 68 42 124 37 41 -4 55
-2 45 5 -12 8 -12 9 1 5 8 -2 15 -13 14 -25 0 -17 3 -19 16 -12 10 5 20 6 24
3 3 -3 6 -1 6 6 0 8 7 11 15 7 9 -3 15 0 15 10 0 10 -5 14 -15 10 -8 -3 -22
-9 -30 -12 -8 -3 -15 -1 -15 5 0 6 5 11 10 11 6 0 10 5 10 11 0 6 -8 8 -17 5
-10 -3 -49 -8 -88 -11 -38 -4 -71 -11 -73 -16 -2 -5 -8 -9 -14 -9 -5 0 -24
-10 -40 -22 -30 -21 -31 -21 -44 -3 -8 10 -14 24 -14 30 0 7 -10 23 -21 36
l-21 24 5 -30z m44 -93 c-9 -11 -12 -11 -18 5 -4 10 -8 29 -8 43 -1 25 -1 25
18 -5 13 -22 15 -34 8 -43z m-72 -124 c-1 -39 -35 -85 -47 -65 -5 8 -8 4 -8
-10 0 -22 -16 -40 -27 -30 -4 4 33 80 64 130 10 17 20 5 18 -25z m-72 -257
c13 -48 18 -161 6 -161 -5 0 -9 -5 -9 -11 0 -5 5 -7 10 -4 6 3 10 -1 10 -9 0
-21 -13 -20 -39 2 -14 11 -22 32 -25 62 -2 25 -1 35 1 22 3 -16 9 -22 20 -18
11 5 14 2 9 -11 -6 -14 -4 -15 5 -6 6 6 13 29 14 50 l3 38 -16 -35 c-15 -34
-16 -34 -20 -10 -2 14 -9 28 -14 31 -8 5 -7 21 0 51 6 24 9 55 5 68 l-5 25 17
-24 c10 -12 22 -39 28 -60z m100 -382 c7 -8 0 -2 -15 15 -16 17 -28 37 -28 46
0 8 7 2 16 -15 8 -16 21 -37 27 -46z"/>
<path d="M1038 1343 c6 -2 10 -9 6 -14 -3 -5 0 -9 5 -9 6 0 11 7 11 15 0 8 -8
15 -17 14 -11 0 -13 -3 -5 -6z"/>
<path d="M1020 1832 c0 -10 -6 -24 -12 -31 -11 -11 -10 -13 4 -8 9 3 19 1 22
-6 4 -7 4 0 1 16 -3 16 -1 27 5 27 6 0 8 5 5 10 -10 16 -25 11 -25 -8z"/>
<path d="M2812 1790 c-6 -24 -6 -40 0 -40 5 0 8 -6 7 -12 -3 -18 18 -87 39
-125 19 -34 116 -117 132 -111 6 2 -11 19 -37 38 -62 46 -116 133 -109 175 4
20 3 25 -3 16 -6 -9 -9 4 -9 39 -1 66 -7 72 -20 20z"/>
<path d="M2853 1808 c-6 -13 -7 -32 -3 -43 5 -15 8 -11 13 20 8 46 4 54 -10
23z"/>
<path d="M2973 1808 c-64 -71 -69 -155 -12 -214 41 -42 50 -38 10 4 -52 56
-49 148 6 192 14 10 23 24 21 30 -2 6 -13 1 -25 -12z"/>
<path d="M1425 1789 c-4 -6 -14 -8 -23 -4 -9 3 -13 3 -9 -1 4 -4 1 -14 -6 -23
-6 -8 3 -5 21 8 17 12 32 24 32 27 0 8 -9 4 -15 -7z"/>
<path d="M2180 1790 c0 -5 5 -10 11 -10 6 0 8 -7 5 -16 -5 -14 -4 -15 9 -4 13
10 15 9 15 -9 0 -12 6 -21 15 -21 8 0 15 3 15 8 -1 13 -27 42 -39 42 -6 0 -11
5 -11 10 0 6 -4 10 -10 10 -5 0 -10 -4 -10 -10z"/>
<path d="M1122 1775 c0 -11 3 -29 8 -40 11 -25 11 1 0 35 -6 20 -8 21 -8 5z"/>
<path d="M1313 1768 c4 -28 -14 -42 -44 -36 -8 2 -13 -3 -11 -9 1 -7 -5 -13
-14 -13 -9 0 -12 5 -8 13 5 8 2 8 -9 -2 -25 -20 -21 -28 13 -23 29 4 30 3 20
-22 -13 -35 -5 -33 13 3 12 25 12 29 -2 39 -12 9 -10 9 11 2 17 -6 29 -6 33 0
4 6 11 10 17 10 6 0 3 -10 -8 -22 l-19 -23 22 19 c13 10 20 22 18 27 -3 4 2
12 12 17 14 9 15 13 4 26 -7 9 -19 16 -25 16 -6 0 -3 -5 7 -11 9 -6 15 -14 12
-20 -10 -16 -25 -10 -36 14 -9 21 -9 20 -6 -5z"/>
<path d="M983 1773 c-7 -2 -13 -11 -13 -19 0 -8 -7 -14 -15 -14 -22 0 -18 -17
6 -23 15 -4 19 -2 15 9 -3 9 4 16 20 20 14 4 23 11 21 17 -4 13 -18 17 -34 10z"/>
<path d="M1152 1740 c0 -19 2 -27 5 -17 2 9 2 25 0 35 -3 9 -5 1 -5 -18z"/>
<path d="M1473 1758 c1 -7 7 -17 12 -21 6 -5 0 -7 -12 -4 -13 3 -23 1 -23 -4
0 -5 -5 -9 -11 -9 -5 0 -7 6 -3 13 11 17 -24 -12 -58 -48 -15 -16 -30 -38 -34
-48 -3 -10 -12 -16 -19 -13 -9 3 -12 0 -9 -8 3 -7 -14 -45 -36 -84 -51 -88
-80 -170 -79 -219 1 -42 4 -33 14 40 7 56 16 56 20 0 1 -21 10 -65 18 -98 10
-37 12 -64 6 -69 -6 -6 -9 -4 -9 6 0 22 -19 33 -32 20 -8 -8 -8 -15 0 -25 7
-8 9 -17 5 -20 -3 -4 -1 -7 4 -7 6 0 14 6 17 13 3 6 5 3 3 -8 -2 -27 10 -45
32 -45 33 0 84 -71 61 -85 -5 -3 -6 -13 -3 -23 4 -13 2 -13 -10 3 -9 11 -17
16 -17 11 0 -5 -7 -3 -15 4 -19 16 -10 30 18 30 22 1 22 1 2 12 -11 7 -26 18
-34 26 -8 7 -25 18 -38 23 -13 5 -28 19 -33 31 -5 13 -9 17 -9 10 -2 -27 28
-80 65 -117 47 -45 122 -95 143 -95 9 1 -3 10 -26 20 -40 19 -42 21 -31 50 5
17 12 30 14 30 3 0 23 -9 44 -20 22 -11 40 -18 40 -15 0 2 -22 16 -49 29 -26
14 -61 40 -76 58 -16 18 -33 32 -38 30 -11 -3 -27 17 -27 36 0 6 5 12 10 12 6
0 10 -7 10 -17 0 -9 3 -13 7 -10 3 4 16 -1 27 -10 19 -16 19 -16 -1 7 -25 29
-41 67 -53 130 -5 25 -12 55 -16 68 -4 13 -2 22 5 22 6 0 11 -12 11 -27 1 -21
5 -14 19 27 36 105 35 103 12 88 -11 -7 -16 -15 -10 -18 15 -10 0 -40 -17 -33
-8 3 -14 0 -14 -7 0 -6 -5 -8 -10 -5 -8 5 -7 11 0 20 7 8 9 18 6 24 -4 5 7 19
23 31 19 13 28 26 24 36 -8 21 17 78 30 65 7 -7 6 -15 -3 -26 -10 -12 -11 -18
-1 -28 10 -9 11 -8 5 6 -4 12 -2 17 7 15 15 -3 15 3 4 37 -5 13 2 8 20 -13 28
-34 38 -34 56 1 10 21 9 21 -8 -1 -17 -21 -21 -22 -33 -7 -11 13 -9 20 11 42
13 15 17 22 8 15 -9 -6 -19 -8 -23 -4 -4 4 -6 2 -4 -3 2 -5 -1 -11 -7 -12 -5
-2 -10 2 -9 7 1 6 2 16 3 24 0 9 9 13 20 11 11 -2 22 3 25 10 3 9 0 12 -10 8
-7 -3 -14 0 -14 6 0 15 26 25 40 16 7 -4 7 -13 -1 -28 -9 -21 -9 -21 5 -4 8
11 12 25 10 31 -5 14 18 38 32 35 13 -4 64 23 64 33 0 4 -5 8 -11 8 -5 0 -7 5
-4 10 3 6 -3 10 -14 10 -12 0 -20 -6 -18 -12z m-183 -688 c0 -5 -4 -12 -10
-15 -5 -3 -10 2 -10 11 0 10 -3 14 -7 11 -7 -8 -33 11 -33 24 0 5 14 3 30 -6
17 -9 30 -20 30 -25z"/>
<path d="M15 1735 c26 -21 82 -35 130 -34 36 1 34 2 -15 9 -30 4 -73 15 -95
24 -33 13 -36 13 -20 1z"/>
<path d="M1817 1718 c30 -31 53 -23 32 11 -8 12 -22 20 -36 19 l-23 -2 27 -28z
m23 7 c20 -24 6 -28 -15 -5 -10 11 -13 20 -8 20 6 0 16 -7 23 -15z"/>
<path d="M916 1713 c-10 -11 -7 -25 5 -17 6 3 15 1 19 -6 5 -8 10 -9 14 -2 7
12 -28 35 -38 25z"/>
<path d="M2230 1700 c0 -12 -4 -18 -10 -15 -5 3 -10 1 -10 -4 0 -6 7 -11 15
-11 12 0 13 -4 5 -19 -13 -26 -13 -31 5 -31 18 0 20 -21 3 -38 -9 -9 -9 -12 0
-12 7 0 12 5 12 11 0 5 4 7 10 4 5 -3 7 -19 3 -36 -5 -24 -3 -28 11 -23 21 8
20 21 -4 72 -13 26 -25 40 -32 36 -7 -4 -8 -3 -4 5 4 6 12 9 17 6 5 -4 9 -2 9
4 0 5 -5 13 -10 16 -6 4 -8 15 -5 25 3 10 1 21 -5 25 -6 3 -10 -3 -10 -15z"/>
<path d="M1055 1699 c-4 -6 -4 -13 -1 -16 3 -4 6 -1 6 7 0 10 3 10 15 0 13
-11 14 -10 9 4 -7 18 -20 21 -29 5z"/>
<path d="M857 1676 c-6 -15 1 -26 15 -26 5 0 6 5 2 12 -4 7 -3 8 4 4 7 -4 17
-4 23 0 8 4 7 9 -2 15 -20 13 -36 11 -42 -5z"/>
<path d="M1286 1681 c-3 -4 1 -17 9 -27 8 -10 15 -14 15 -7 0 6 -5 15 -10 18
-6 4 -8 11 -5 16 4 5 4 9 1 9 -3 0 -7 -4 -10 -9z"/>
<path d="M1000 1669 c0 -4 7 -22 15 -40 10 -25 14 -29 15 -13 0 17 -29 70 -30
53z"/>
<path d="M810 1644 c0 -16 9 -18 28 -5 10 6 9 10 -7 14 -14 3 -21 0 -21 -9z"/>
<path d="M1450 1648 c0 -11 82 -10 99 1 10 6 -5 9 -42 8 -31 -1 -57 -5 -57 -9z"/>
<path d="M960 1632 c0 -5 7 -15 15 -22 8 -7 15 -8 15 -2 0 5 -7 15 -15 22 -8
7 -15 8 -15 2z"/>
<path d="M1683 1633 c-18 -7 -16 -20 2 -20 8 0 12 4 9 9 -3 4 0 8 7 8 6 0 28
-17 47 -37 19 -21 30 -28 24 -16 -12 22 -59 64 -71 62 -3 0 -12 -3 -18 -6z"/>
<path d="M1516 1618 c5 -7 2 -9 -8 -6 -8 4 -21 2 -29 -3 -11 -7 -10 -9 5 -9
20 0 20 0 0 -16 -17 -14 -17 -15 -1 -10 10 3 31 6 45 7 l27 1 -25 7 c-22 6
-23 8 -7 14 18 7 15 27 -4 27 -6 0 -7 -5 -3 -12z"/>
<path d="M796 1604 c-8 -21 -8 -24 4 -24 6 0 10 8 10 18 0 13 2 14 9 3 5 -8
11 -9 15 -3 3 5 -1 13 -10 16 -21 8 -21 8 -28 -10z"/>
<path d="M1787 1613 c-8 -14 2 -66 14 -73 6 -4 9 -12 5 -18 -9 -15 31 -2 45
14 14 17 5 29 -22 29 -27 0 -28 19 -1 23 12 2 20 8 16 13 -3 5 -10 7 -15 4 -5
-4 -9 -1 -9 4 0 12 -27 15 -33 4z"/>
<path d="M1413 1545 c-19 -30 -20 -35 -6 -46 12 -11 14 -10 13 2 -4 27 0 39
20 59 12 12 15 20 8 20 -7 -1 -23 -16 -35 -35z"/>
<path d="M768 1545 c-16 -13 -28 -28 -28 -32 0 -5 -9 -14 -20 -21 -11 -7 -20
-18 -20 -25 1 -8 5 -6 13 4 7 9 18 14 26 11 8 -3 11 0 7 6 -3 5 1 13 10 16 8
3 13 9 11 13 -6 10 14 28 31 28 6 0 12 4 13 10 1 18 -16 14 -43 -10z"/>
<path d="M1483 1545 c-40 -11 -41 -18 -7 -33 14 -7 23 -8 19 -3 -3 6 2 14 11
19 28 16 11 28 -23 17z"/>
<path d="M1125 1519 c-9 -17 -15 -33 -13 -35 3 -2 12 12 21 31 21 43 13 47 -8
4z"/>
<path d="M896 1485 c9 -14 18 -25 20 -25 2 0 -2 11 -8 25 -6 14 -15 25 -20 25
-5 0 -1 -11 8 -25z"/>
<path d="M1367 1503 c-12 -11 -8 -23 8 -23 9 0 12 -6 9 -15 -4 -8 -2 -15 4
-15 5 0 12 6 15 14 6 16 -26 50 -36 39z"/>
<path d="M2332 1486 c-11 -24 -10 -26 16 -27 15 0 21 -3 15 -6 -17 -6 -16 -23
1 -23 18 0 27 23 15 41 -5 8 -9 10 -9 4 0 -5 -6 0 -13 13 l-13 23 -12 -25z"/>
<path d="M500 1474 c-31 -11 -32 -13 -10 -13 14 0 32 3 40 9 24 15 7 18 -30 4z"/>
<path d="M265 1470 c3 -5 18 -10 32 -10 15 0 23 -3 20 -7 -4 -3 -21 -6 -39 -5
-18 0 -27 -2 -21 -6 7 -4 76 -8 155 -9 112 -1 133 1 98 9 -25 5 -66 8 -92 8
-26 -1 -71 6 -99 15 -62 18 -62 18 -54 5z"/>
<path d="M835 1420 c0 -32 3 -53 7 -46 14 24 16 62 4 83 -9 18 -11 13 -11 -37z"/>
<path d="M1437 1473 c-4 -3 -7 -18 -7 -31 0 -31 12 -21 16 13 3 26 1 29 -9 18z"/>
<path d="M677 1436 c-6 -15 1 -26 15 -26 4 0 8 6 8 14 0 8 6 17 13 19 6 3 2 6
-9 6 -12 1 -24 -5 -27 -13z"/>
<path d="M930 1442 c0 -5 7 -16 16 -23 14 -12 16 -11 13 5 -4 20 -29 35 -29
18z"/>
<path d="M1092 1435 c0 -11 4 -31 8 -45 6 -20 8 -21 8 -5 0 11 -4 31 -8 45 -6
20 -8 21 -8 5z"/>
<path d="M907 1401 c-3 -22 -19 -68 -37 -103 -17 -35 -27 -58 -22 -53 33 32
91 195 70 195 -3 0 -8 -18 -11 -39z"/>
<path d="M1340 1420 c-9 -16 -8 -20 5 -20 8 0 15 9 15 20 0 11 -2 20 -5 20 -2
0 -9 -9 -15 -20z"/>
<path d="M1374 1412 c-4 -18 -10 -29 -15 -26 -5 3 -9 0 -9 -5 0 -27 28 -8 33
22 6 42 -1 49 -9 9z"/>
<path d="M2353 1413 c-7 -3 -13 -11 -13 -18 0 -7 6 -16 13 -19 8 -3 6 -9 -7
-20 -17 -14 -17 -16 -4 -16 11 0 16 -8 15 -20 -1 -11 -7 -20 -14 -20 -15 0
-17 -16 -4 -25 16 -9 32 33 35 86 2 53 -1 59 -21 52z"/>
<path d="M700 1380 c0 -11 1 -20 3 -20 1 0 10 9 20 20 16 19 16 20 -3 20 -13
0 -20 -7 -20 -20z"/>
<path d="M1150 1337 c4 -41 5 -41 8 -8 2 18 0 37 -5 42 -5 5 -6 -11 -3 -34z"/>
<path d="M724 1329 c3 -17 6 -35 6 -40 0 -5 5 -9 11 -9 6 0 8 7 5 16 -3 8 -2
12 4 9 6 -3 10 -1 10 4 0 6 -7 11 -15 11 -16 0 -16 20 0 32 6 4 2 8 -9 8 -15
0 -17 -5 -12 -31z"/>
<path d="M1315 1298 c3 -67 39 -127 95 -161 l35 -21 -19 22 c-14 17 -16 22 -5
22 10 0 11 2 2 8 -17 11 1 37 18 27 8 -5 5 2 -5 14 -11 12 -21 28 -22 35 -1 7
-9 26 -18 42 l-17 29 6 -30 c5 -27 4 -28 -8 -13 -8 10 -17 15 -20 11 -11 -10
-8 -25 3 -18 6 3 10 1 10 -4 0 -6 6 -11 13 -11 16 0 40 -38 32 -50 -10 -16
-28 -11 -21 5 5 15 -5 20 -17 8 -4 -3 3 -17 15 -30 16 -17 18 -23 7 -23 -8 0
-27 19 -42 43 -21 31 -27 50 -23 72 4 21 3 25 -3 15 -7 -10 -11 -4 -14 25 -2
22 -3 14 -2 -17z"/>
<path d="M813 1338 c-20 -26 -26 -41 -15 -34 12 7 36 46 29 46 -3 0 -9 -6 -14
-12z"/>
<path d="M1343 1333 c-18 -7 -16 -20 2 -20 8 0 15 6 15 14 0 7 -1 13 -2 12 -2
0 -9 -3 -15 -6z"/>
<path d="M947 1273 c-4 -36 -12 -62 -22 -69 -9 -7 -12 -15 -7 -18 6 -3 -1 -32
-15 -67 -13 -33 -22 -63 -20 -66 3 -2 13 19 22 47 15 44 20 50 38 45 17 -5 19
-4 7 4 -13 9 -13 14 -2 32 10 16 10 19 1 13 -9 -5 -10 -2 -5 11 4 11 10 40 13
65 3 25 11 48 17 52 7 5 5 8 -5 8 -12 0 -18 -14 -22 -57z"/>
<path d="M1223 1281 c3 -14 1 -31 -5 -38 -8 -10 -7 -13 4 -13 17 0 19 52 4 67
-5 4 -6 -2 -3 -16z"/>
<path d="M724 1254 c3 -8 -1 -22 -9 -31 -16 -15 -11 -38 6 -27 5 3 6 10 3 16
-5 7 -2 9 7 6 10 -4 14 3 14 23 0 18 -5 29 -14 29 -8 0 -11 -6 -7 -16z"/>
<path d="M1193 1225 c0 -27 2 -38 4 -22 2 15 2 37 0 50 -2 12 -4 0 -4 -28z"/>
<path d="M2369 1263 c-1 -5 -1 -11 0 -15 2 -13 -17 -9 -21 4 -3 7 -7 6 -11 -5
-5 -13 -1 -17 18 -17 18 0 25 5 25 20 0 19 -9 29 -11 13z"/>
<path d="M982 1210 c0 -19 2 -27 5 -17 2 9 2 25 0 35 -3 9 -5 1 -5 -18z"/>
<path d="M2387 1226 c-16 -13 -16 -14 3 -19 11 -3 20 -13 20 -22 0 -12 -5 -15
-21 -10 -13 5 -19 3 -15 -3 3 -5 -1 -13 -10 -16 -8 -3 -12 -10 -9 -16 3 -5 2
-10 -4 -10 -5 0 -12 6 -15 13 -3 6 -4 0 -1 -16 4 -19 1 -29 -11 -34 -13 -5
-13 -8 -2 -15 10 -8 10 -11 0 -15 -6 -2 -10 -9 -6 -14 3 -5 -2 -9 -11 -9 -9 0
-13 -4 -10 -10 3 -5 9 -10 13 -10 9 0 42 58 42 75 0 7 7 18 15 25 8 6 13 17
12 23 -1 6 8 13 19 15 21 3 42 42 24 42 -5 0 -10 9 -12 19 -3 17 -5 18 -21 7z"/>
<path d="M2103 1185 c0 -21 2 -23 13 -14 11 9 11 15 3 25 -15 19 -16 18 -16
-11z"/>
<path d="M737 1194 c-7 -7 2 -34 12 -34 4 0 7 9 8 20 2 19 -8 26 -20 14z"/>
<path d="M754 1134 c3 -9 6 -18 6 -20 0 -2 7 -4 16 -4 8 0 12 -4 9 -10 -3 -5
-1 -10 4 -10 6 0 11 5 11 11 0 5 6 7 13 3 7 -4 9 -3 4 2 -8 9 -12 10 -38 13
-6 0 -9 8 -5 16 3 9 0 15 -10 15 -11 0 -14 -6 -10 -16z"/>
<path d="M806 1081 c-8 -12 4 -71 14 -71 4 0 11 7 14 16 4 10 2 13 -6 8 -8 -5
-9 2 -5 24 6 30 -5 44 -17 23z"/>
<path d="M2062 1066 c4 -5 3 -18 -3 -29 -7 -13 -8 -17 -1 -13 6 3 19 -7 28
-24 12 -19 21 -26 25 -18 9 14 -13 59 -38 78 -10 8 -15 11 -11 6z"/>
<path d="M2853 1063 c9 -2 25 -2 35 0 9 3 1 5 -18 5 -19 0 -27 -2 -17 -5z"/>
<path d="M1367 1011 c-3 -14 -1 -18 9 -14 8 3 14 11 14 19 0 21 -17 17 -23 -5z"/>
<path d="M2324 1006 c-3 -8 -13 -12 -22 -10 -14 5 -14 3 2 -10 18 -15 13 -42
-6 -30 -7 4 -8 2 -4 -4 8 -13 36 -16 37 -4 0 4 2 22 5 40 4 33 -2 43 -12 18z"/>
<path d="M830 1001 c-19 -8 -20 -33 -1 -39 10 -3 12 0 8 11 -3 9 -1 18 6 20 7
2 10 7 7 9 -3 3 -12 3 -20 -1z"/>
<path d="M1404 1001 c4 -5 0 -11 -6 -14 -7 -2 -1 -4 15 -4 22 0 25 2 16 13
-13 15 -34 19 -25 5z"/>
<path d="M1477 990 c-15 -8 -27 -18 -27 -22 0 -9 42 2 59 16 11 8 13 8 7 -1
-4 -8 -1 -13 9 -13 9 0 13 5 10 10 -4 6 5 10 19 10 14 0 26 -5 26 -11 0 -5 -4
-8 -9 -4 -5 3 -12 1 -16 -4 -3 -6 3 -8 15 -6 11 2 20 0 20 -5 0 -5 -27 -8 -59
-7 -33 1 -57 -1 -54 -5 2 -5 37 -8 76 -7 40 0 66 3 59 6 -16 6 -6 23 15 23 9
0 13 -6 9 -15 -6 -16 5 -18 44 -5 25 8 25 8 2 9 -13 1 -21 5 -17 10 3 6 17 6
35 -1 21 -7 38 -7 57 1 28 11 28 11 -4 5 -18 -3 -33 -2 -33 3 0 7 -44 9 -60 3
-18 -7 -69 -3 -66 5 2 6 13 9 25 8 11 -2 21 1 21 6 0 14 -134 7 -163 -9z"/>
<path d="M1013 976 c16 -13 16 -14 -10 -21 -25 -7 -26 -8 -8 -15 17 -6 15 -8
-13 -15 -18 -4 -31 -9 -28 -12 3 -3 18 -1 34 5 21 7 33 7 41 -1 8 -8 14 -8 23
1 9 9 7 12 -10 12 -23 0 -29 14 -12 25 13 8 -6 35 -24 35 -6 0 -3 -7 7 -14z"/>
<path d="M1127 958 c-3 -18 -11 -60 -17 -93 -6 -33 -15 -105 -19 -159 -6 -63
-14 -102 -23 -107 -9 -6 -10 -11 -2 -19 17 -17 22 -2 29 76 3 38 15 127 26
197 11 71 18 131 16 133 -2 3 -7 -10 -10 -28z"/>
<path d="M834 949 c-4 -7 -7 -33 -8 -59 -1 -26 -7 -54 -14 -63 -11 -13 -10
-17 8 -27 22 -12 21 -17 21 87 0 23 4 45 9 48 13 8 13 25 1 25 -6 0 -13 -5
-17 -11z"/>
<path d="M1071 894 c-11 -31 -21 -61 -20 -67 0 -7 11 17 25 52 14 35 23 65 21
68 -2 2 -14 -22 -26 -53z"/>
<path d="M854 919 c-3 -6 -2 -15 3 -20 5 -5 14 0 21 11 10 17 10 20 -2 20 -8
0 -18 -5 -22 -11z"/>
<path d="M2253 917 c-3 -5 -3 -11 0 -14 8 -7 47 7 47 17 0 11 -40 9 -47 -3z"/>
<path d="M1552 908 c-7 -7 -12 -25 -12 -41 0 -17 -4 -26 -11 -22 -6 4 -5 -2 3
-14 7 -11 15 -17 19 -13 6 6 20 102 15 102 -1 0 -7 -5 -14 -12z"/>
<path d="M1596 904 c-3 -9 -6 -31 -6 -50 0 -25 -4 -33 -12 -28 -10 6 -10 4 0
-7 17 -18 28 -3 36 48 6 41 -6 67 -18 37z"/>
<path d="M1855 895 c-16 -12 -57 -38 -90 -55 -56 -30 -67 -33 -161 -34 -56 0
-100 -4 -97 -8 2 -5 44 -8 92 -8 95 0 153 18 236 75 22 15 35 21 29 14 -6 -8
-40 -52 -75 -99 -106 -140 -129 -178 -91 -149 15 13 16 12 3 -3 -7 -10 -17
-15 -22 -12 -8 4 -29 -35 -29 -53 0 -10 41 30 73 72 20 26 24 33 9 21 -42 -36
-22 1 56 105 121 162 133 186 67 134z"/>
<path d="M893 893 c-16 -6 -17 -30 -1 -39 7 -5 9 -2 5 9 -3 9 -1 18 6 20 7 2
10 7 7 9 -3 3 -11 3 -17 1z"/>
<path d="M2256 882 c-4 -7 -12 -10 -17 -7 -5 4 -9 2 -9 -4 0 -16 21 -24 32
-13 6 6 8 16 6 23 -3 10 -6 10 -12 1z"/>
<path d="M2000 868 c0 -18 18 -34 28 -24 3 4 -2 14 -11 23 -16 16 -17 16 -17
1z"/>
<path d="M915 850 c-3 -5 0 -20 6 -32 7 -13 11 -25 10 -28 -1 -2 2 -6 8 -8 6
-2 11 3 11 12 0 9 -5 16 -11 16 -7 0 -9 10 -5 25 6 24 -7 35 -19 15z"/>
<path d="M2220 831 c0 -5 7 -12 16 -15 22 -9 24 -8 24 9 0 8 -9 15 -20 15 -11
0 -20 -4 -20 -9z"/>
<path d="M2220 784 c0 -10 7 -14 22 -12 32 5 35 28 4 28 -17 0 -26 -5 -26 -16z"/>
<path d="M795 780 c-6 -9 11 -50 20 -50 3 0 5 14 5 30 0 29 -13 40 -25 20z"/>
<path d="M2176 782 c-10 -16 8 -37 23 -28 6 4 11 13 11 19 0 8 -3 7 -9 -2 -7
-11 -10 -10 -13 5 -3 15 -5 16 -12 6z"/>
<path d="M1192 775 c4 -4 0 -14 -10 -22 -16 -12 -15 -13 8 -11 27 3 34 28 10
36 -8 3 -12 1 -8 -3z"/>
<path d="M932 761 c-11 -6 -10 -11 3 -25 14 -14 15 -19 3 -33 -7 -9 -8 -14 -2
-10 15 8 26 -19 19 -43 -3 -11 1 -20 11 -24 13 -5 15 -2 11 14 -3 11 0 20 6
20 9 0 8 3 0 8 -7 4 -14 17 -16 29 -1 12 -9 28 -16 37 -11 14 -11 16 3 16 10
0 14 5 11 10 -7 12 -16 12 -33 1z"/>
<path d="M2125 750 c-3 -4 1 -13 9 -19 10 -8 16 -8 25 3 9 11 7 15 -9 19 -11
3 -22 2 -25 -3z"/>
<path d="M1880 735 c0 -8 -8 -15 -18 -15 -11 0 -18 -8 -19 -22 -2 -22 -1 -22
13 -4 13 19 14 17 15 -20 l2 -39 6 45 c4 25 10 51 14 58 5 7 4 12 -2 12 -6 0
-11 -7 -11 -15z"/>
<path d="M2238 728 c7 -27 20 -31 31 -9 9 16 7 19 -13 23 -19 4 -22 1 -18 -14z"/>
<path d="M2082 708 c2 -5 7 -9 11 -9 4 1 14 1 22 1 8 0 15 4 15 9 0 5 -11 9
-25 9 -14 0 -24 -5 -23 -10z"/>
<path d="M2061 678 c-1 -24 14 -31 29 -13 9 10 9 15 1 15 -6 0 -11 -6 -12 -12
0 -7 -4 -4 -9 7 -7 16 -9 17 -9 3z"/>
<path d="M2257 674 c5 -13 7 -13 14 -2 7 10 11 7 15 -9 4 -13 14 -23 25 -23
21 0 34 16 19 25 -5 3 -10 1 -10 -4 0 -6 -4 -11 -10 -11 -5 0 -10 9 -10 20 0
15 -7 20 -25 20 -18 0 -23 -4 -18 -16z"/>
<path d="M1345 650 c-17 -33 -15 -47 5 -35 6 4 9 13 6 20 -2 7 1 18 7 24 6 6
8 13 5 17 -4 3 -14 -8 -23 -26z"/>
<path d="M995 650 c-7 -11 2 -30 13 -30 4 0 8 9 9 20 2 21 -11 27 -22 10z"/>
<path d="M1041 646 c-9 -10 -8 -16 4 -26 13 -11 15 -8 15 14 0 30 -3 32 -19
12z"/>
<path d="M696 634 c-3 -8 -2 -12 3 -9 5 3 12 -3 14 -12 3 -11 5 -8 6 10 1 29
-13 37 -23 11z"/>
<path d="M1570 631 c-6 -12 -17 -17 -29 -14 -16 4 -19 1 -14 -18 4 -13 8 -18
11 -11 7 21 21 13 25 -15 3 -24 4 -23 6 7 1 19 6 42 12 50 8 12 9 10 4 -9 -5
-16 -4 -21 4 -17 14 9 15 46 1 46 -5 0 -14 -9 -20 -19z"/>
<path d="M2025 632 c3 -8 2 -19 -2 -25 -4 -7 -9 -3 -14 9 -7 17 -8 17 -8 2 -1
-10 -8 -18 -16 -18 -8 0 -15 -4 -15 -9 0 -15 51 1 63 20 8 12 15 15 23 8 7 -6
15 -5 23 5 9 11 5 14 -24 18 -27 3 -34 1 -30 -10z"/>
<path d="M647 626 c-3 -8 3 -22 14 -32 10 -9 19 -12 19 -6 0 6 -4 13 -10 17
-5 3 -7 12 -3 20 3 8 1 15 -5 15 -5 0 -12 -6 -15 -14z"/>
<path d="M1145 618 c-4 -10 -14 -18 -22 -18 -8 0 -11 5 -8 10 3 6 1 10 -5 10
-26 0 -1 -25 26 -27 16 -1 41 -5 56 -8 24 -6 26 -5 21 16 -6 20 -8 21 -16 7
-9 -14 -12 -13 -28 6 -16 19 -18 20 -24 4z"/>
<path d="M2310 620 c1 -9 27 -40 34 -40 4 0 5 4 2 9 -3 5 1 12 10 15 9 4 14
10 10 14 -9 8 -56 11 -56 2z"/>
<path d="M1230 595 c0 -8 8 -15 18 -14 10 0 12 3 4 6 -6 2 -10 9 -6 14 3 5 0
9 -5 9 -6 0 -11 -7 -11 -15z"/>
<path d="M607 587 c-3 -7 4 -24 14 -38 l19 -24 0 38 c0 37 -22 53 -33 24z"/>
<path d="M1267 580 c-3 -13 1 -21 14 -25 10 -4 19 -12 19 -20 0 -7 7 -15 15
-19 21 -8 19 -1 -14 44 -25 34 -29 37 -34 20z"/>
<path d="M780 583 c0 -11 38 -73 45 -73 2 0 -5 18 -16 40 -20 38 -29 48 -29
33z"/>
<path d="M1948 563 c14 -26 3 -38 -14 -15 -12 15 -12 15 -7 -5 4 -16 13 -23
30 -23 14 0 22 4 18 10 -4 6 -1 17 5 25 8 9 8 15 2 15 -6 0 -18 3 -27 7 -15 5
-16 3 -7 -14z"/>
<path d="M562 548 c-16 -16 -15 -28 2 -28 8 0 17 -6 20 -12 3 -7 4 -1 2 14 -1
15 2 29 8 32 6 2 4 5 -4 5 -9 1 -21 -4 -28 -11z"/>
<path d="M1830 547 c0 -27 15 -38 34 -24 17 12 16 14 -8 25 -20 9 -26 9 -26
-1z"/>
<path d="M1887 548 c7 -8 10 -18 6 -21 -3 -4 -1 -7 5 -7 22 0 22 19 0 31 -20
11 -21 10 -11 -3z"/>
<path d="M2341 538 c5 -10 13 -18 16 -18 3 0 3 3 -1 7 -3 4 4 13 16 19 22 12
22 13 -9 12 -28 -1 -31 -3 -22 -20z"/>
<path d="M457 544 c-7 -7 3 -37 15 -45 11 -7 -1 -41 -13 -33 -5 3 -6 -1 -3 -9
3 -8 1 -18 -5 -21 -6 -4 -8 -13 -4 -21 3 -9 -1 -15 -10 -15 -24 0 -28 -27 -6
-52 l20 -23 -2 25 c-2 44 0 52 16 46 13 -4 14 -2 5 14 -6 11 -7 20 -2 20 4 0
9 10 9 22 1 13 6 24 11 26 13 4 1 72 -12 72 -7 0 -15 -3 -19 -6z"/>
<path d="M1780 543 c1 -19 19 -35 35 -30 9 4 13 12 9 18 -4 8 -9 7 -15 -2 -8
-13 -13 -5 -10 14 0 4 -3 7 -9 7 -5 0 -10 -3 -10 -7z"/>
<path d="M515 530 c-7 -12 2 -30 16 -30 5 0 9 9 9 20 0 21 -15 27 -25 10z"/>
<path d="M1350 526 c0 -16 18 -31 27 -22 3 3 -2 12 -11 21 -14 14 -16 14 -16
1z"/>
<path d="M1605 530 c-11 -18 6 -50 25 -50 13 0 17 5 14 15 -4 8 -12 15 -20 15
-8 0 -11 6 -8 15 7 17 -1 20 -11 5z"/>
<path d="M1738 535 c-4 -4 -4 -13 -1 -21 6 -17 -1 -18 -29 -3 -17 9 -19 8 -16
-8 3 -19 48 -32 48 -13 0 6 4 9 9 6 5 -3 14 1 21 9 10 12 10 15 -3 15 -8 0
-17 5 -19 11 -2 5 -6 7 -10 4z"/>
<path d="M1550 500 c0 -11 -7 -20 -16 -20 -8 0 -13 4 -9 9 3 5 1 12 -5 16 -5
3 -10 -2 -10 -12 -1 -17 -2 -17 -15 1 -16 21 -19 16 -15 -23 1 -13 -2 -21 -7
-18 -6 4 -10 0 -10 -8 0 -8 7 -17 15 -20 10 -3 12 0 8 10 -4 10 1 15 15 15 11
0 17 5 14 10 -3 6 3 10 14 10 11 0 22 4 26 10 3 5 12 7 20 3 22 -8 18 10 -5
25 -18 11 -20 10 -20 -8z"/>
<path d="M2330 495 c0 -20 12 -25 32 -14 22 12 17 22 -12 24 -11 1 -20 -4 -20
-10z"/>
<path d="M2431 499 c-1 -26 25 -43 46 -29 16 10 16 11 -5 7 -19 -5 -22 -2 -17
16 5 16 4 18 -3 8 -8 -11 -10 -11 -15 0 -4 10 -6 10 -6 -2z"/>
<path d="M1310 489 c0 -5 10 -9 22 -9 12 0 18 3 14 7 -10 11 -36 12 -36 2z"/>
<path d="M1657 477 c-5 -13 -1 -17 19 -17 14 0 23 4 19 10 -4 6 -10 8 -15 5
-4 -3 -10 0 -12 7 -3 8 -7 6 -11 -5z"/>
<path d="M2480 450 c0 -11 22 -18 38 -13 21 8 13 21 -13 21 -14 0 -25 -4 -25
-8z"/>
<path d="M2619 450 c-14 -35 17 -54 41 -25 10 12 9 15 -4 15 -10 0 -14 -4 -11
-10 3 -5 2 -10 -4 -10 -5 0 -11 10 -13 23 -2 16 -5 18 -9 7z"/>
<path d="M2550 440 c0 -4 8 -14 17 -21 9 -8 14 -9 10 -2 -4 6 -2 13 5 15 7 3
2 7 -10 10 -12 4 -22 3 -22 -2z"/>
<path d="M2604 389 c-3 -6 -2 -15 4 -21 13 -13 44 -7 50 11 4 11 -2 12 -23 7
-17 -4 -24 -3 -20 4 3 5 4 10 1 10 -3 0 -8 -5 -12 -11z"/>
<path d="M401 327 c-6 -8 -8 -17 -4 -20 11 -12 21 -7 26 13 6 23 -5 26 -22 7z"/>
<path d="M2620 329 c0 -5 7 -9 16 -9 9 0 12 -5 8 -12 -5 -9 -2 -9 9 1 22 17
22 18 -8 23 -14 3 -25 1 -25 -3z"/>
<path d="M1470 292 c8 -5 34 -12 58 -16 95 -14 219 -69 295 -129 35 -29 51
-61 61 -127 2 -18 4 -15 5 10 2 66 -67 266 -86 247 -1 -2 9 -32 23 -66 14 -35
23 -65 21 -67 -1 -2 -19 9 -38 25 -45 38 -119 74 -199 99 -75 23 -163 38 -140
24z"/>
<path d="M401 276 c-9 -10 -7 -17 6 -27 15 -12 16 -12 10 3 -3 9 -1 18 6 21 8
2 8 5 0 10 -6 4 -16 1 -22 -7z"/>
<path d="M1275 279 c-80 -23 -186 -144 -184 -209 1 -23 2 -22 8 5 19 78 93
159 173 190 58 22 94 12 126 -35 24 -36 28 -35 11 3 -12 27 -58 57 -86 56 -10
0 -31 -5 -48 -10z"/>
<path d="M2640 281 c0 -5 7 -14 15 -21 11 -9 15 -9 15 -1 0 7 4 10 9 6 5 -3
13 0 17 6 5 9 0 10 -14 7 -12 -4 -22 -2 -22 3 0 5 -4 9 -10 9 -5 0 -10 -4 -10
-9z"/>
<path d="M1112 268 c-41 -53 -62 -161 -43 -233 9 -36 9 -34 4 21 -6 70 14 155
48 197 11 15 16 27 11 27 -5 0 -14 -6 -20 -12z"/>
<path d="M427 233 c-13 -12 -7 -41 9 -47 23 -9 28 -1 11 15 -7 8 -12 20 -9 27
4 13 -1 16 -11 5z"/>
<path d="M2650 219 c0 -16 17 -18 35 -5 17 13 17 14 -8 14 -15 0 -27 -4 -27
-9z"/>
<path d="M367 213 c-12 -11 -7 -21 13 -26 11 -3 20 -2 20 3 0 12 -26 31 -33
23z"/>
<path d="M324 196 c-4 -11 -1 -21 7 -27 17 -11 26 18 10 34 -7 7 -12 5 -17 -7z"/>
<path d="M2750 189 c9 -16 14 -18 26 -8 8 6 14 17 14 23 0 6 -4 5 -9 -3 -6 -9
-11 -10 -15 -2 -13 21 -27 12 -16 -10z"/>
<path d="M2850 206 c0 -10 62 -95 113 -154 57 -67 44 -38 -18 38 -59 72 -72
100 -27 58 27 -26 64 -48 79 -48 4 0 -8 10 -27 21 -19 12 -47 33 -62 47 -16
14 -28 22 -28 17 0 -5 -7 0 -15 11 -8 10 -15 15 -15 10z"/>
<path d="M2812 191 c-10 -6 -10 -10 2 -20 10 -9 16 -9 21 -1 10 16 -7 31 -23
21z"/>
<path d="M2680 180 c-8 -5 -18 -6 -22 -4 -4 3 -8 1 -8 -5 0 -5 5 -13 10 -16 6
-3 10 -1 10 5 0 6 5 8 10 5 6 -3 10 -1 10 5 0 7 7 10 15 7 8 -4 16 -3 19 1 7
11 -28 12 -44 2z"/>
<path d="M292 153 c-8 -15 -7 -22 9 -31 16 -10 19 -9 19 5 0 10 -4 24 -9 32
-7 11 -11 10 -19 -6z"/>
<path d="M255 116 c-5 -11 -3 -21 6 -26 19 -12 21 -7 10 21 -8 22 -10 22 -16
5z"/>
<path d="M10 81 c-16 -30 -13 -46 5 -31 9 7 13 15 10 18 -3 3 0 11 6 19 8 9 8
13 1 13 -6 0 -16 -9 -22 -19z"/>
<path d="M205 90 c-7 -12 2 -30 16 -30 5 0 9 9 9 20 0 21 -15 27 -25 10z"/>
<path d="M156 73 c-5 -11 -1 -22 10 -30 22 -16 23 -14 17 20 -6 31 -18 35 -27
10z"/>
<path d="M1426 79 c-9 -28 -12 -79 -5 -79 4 0 9 19 11 43 5 43 2 61 -6 36z"/>
<path d="M102 68 c-7 -7 -12 -16 -12 -22 0 -5 3 -6 7 -3 3 4 12 2 19 -4 10 -8
12 -6 9 11 -6 30 -9 32 -23 18z"/>
<path d="M36 52 c-3 -6 -1 -14 5 -17 15 -10 25 3 12 16 -7 7 -13 7 -17 1z"/>
</g>
</svg>
