<?xml version="1.0" standalone="no"?>
<!DOCTYPE svg PUBLIC "-//W3C//DTD SVG 20010904//EN"
 "http://www.w3.org/TR/2001/REC-SVG-20010904/DTD/svg10.dtd">
<svg version="1.0" xmlns="http://www.w3.org/2000/svg"
 width="65.000000pt" height="300.000000pt" viewBox="0 0 65.000000 300.000000"
 preserveAspectRatio="xMidYMid meet">
<metadata>
Created by potrace 1.10, written by Peter Selinger 2001-2011
</metadata>
<g transform="translate(0.000000,300.000000) scale(0.100000,-0.100000)"
fill="#000000" stroke="none">
<path d="M605 2910 c-3 -5 -16 -10 -27 -10 -12 0 -30 -8 -40 -17 -18 -16 -18 -17 4 -29 21 -11 21 -13 5 -20 -12 -4 -23 0 -32 12 -7 11 -16 16 -20 12 -4 -3 3 -16 14 -27 28 -28 26 -35 -5 -27 -14 4 -23 3 -21 -1 3 -4 -12 -21 -34 -37 -21 -17 -39 -37 -39 -47 0 -9 -7 -19 -15 -23 -8 -3 -15 -12 -15 -20 0 -11 -8 -13 -35 -9 -34 6 -35 5 -35 -29 0 -45 20 -63 57 -52 l28 8 -32 4 c-32 3 -32 4 -17 27 13 19 20 23 34 15 13 -7 21 -5 30 5 10 12 9 16 -4 21 -23 9 -20 27 4 21 10 -3 27 1 36 7 13 10 14 17 5 34 -13 24 -3 30 17 10 6 -6 15 -8 19 -4 4 4 1 11 -7 16 -11 7 -11 11 -1 24 8 9 21 16 31 16 17 0 91 80 103 113 7 18 2 23 -8 7z"/>
<path d="M256 381 c-3 -5 9 -12 27 -15 l32 -7 -23 -19 c-12 -10 -52 -29 -89 -41 -90 -30 -173 -68 -173 -80 0 -6 7 -6 19 1 24 12 43 6 99 -33 26 -19 55 -31 77 -31 29 -1 35 -5 35 -23 0 -26 16 -33 54 -22 38 11 51 1 30 -22 -14 -15 -14 -21 -4 -34 7 -8 20 -15 28 -15 12 0 10 5 -7 17 l-24 16 28 14 c27 15 27 15 6 29 -14 10 -32 13 -55 9 -45 -9 -58 11 -25 38 l24 20 -30 -8 c-52 -14 -86 -7 -142 32 l-54 37 33 12 c189 69 223 91 184 120 -22 16 -42 18 -50 5z"/>
</g>
</svg>
