<?xml version="1.0" standalone="no"?>
<!DOCTYPE svg PUBLIC "-//W3C//DTD SVG 20010904//EN"
 "http://www.w3.org/TR/2001/REC-SVG-20010904/DTD/svg10.dtd">
<svg version="1.0" xmlns="http://www.w3.org/2000/svg"
 width="300.000000pt" height="263.000000pt" viewBox="0 0 300.000000 263.000000"
 preserveAspectRatio="xMidYMid meet">
<metadata>
Created by potrace 1.10, written by Peter Selinger 2001-2011
</metadata>
<g transform="translate(0.000000,263.000000) scale(0.100000,-0.100000)"
fill="#000000" stroke="none">
<path d="M811 2193 c-18 -20 -39 -50 -48 -66 -49 -96 -74 -323 -55 -512 8 -84 16 -114 49 -180 21 -44 40 -82 43 -85 3 -3 17 -21 30 -40 39 -56 43 -60 90 -107 103 -101 267 -208 364 -239 31 -10 56 -22 56 -27 0 -6 -57 -8 -147 -4 -115 4 -181 12 -293 37 -80 17 -154 36 -165 40 -11 5 -44 16 -73 24 -83 24 -230 102 -317 169 -44 33 -116 100 -160 148 -85 93 -112 112 -70 52 40 -59 181 -199 249 -246 153 -107 454 -214 671 -237 103 -12 604 -19 610 -10 9 15 -37 23 -123 22 -82 -1 -115 6 -179 34 -17 8 -36 14 -41 14 -36 0 -215 113 -325 205 -69 57 -156 177 -202 275 l-40 85 0 205 c0 173 3 215 19 270 11 36 25 72 33 81 7 8 13 20 13 25 0 5 18 28 40 51 31 33 36 42 24 47 -9 3 -17 6 -18 6 -1 0 -17 -16 -35 -37z"/>








<path d="M1830 2134 c0 -3 9 -22 20 -42 11 -20 53 -104 94 -187 101 -206 161 -319 208 -389 21 -33 37 -65 34 -73 -3 -7 1 -13 9 -13 15 0 21 -25 8 -33 -5 -2 -3 -3 3 -1 16 3 27 -6 65 -61 111 -160 181 -230 361 -361 47 -35 244 -134 265 -134 29 0 10 22 -34 41 -239 102 -424 253 -569 464 -11 16 -41 59 -66 95 -91 131 -338 609 -338 655 0 15 -32 45 -48 45 -7 0 -12 -2 -12 -6z"/>










<path d="M1480 1566 c-14 -38 -14 -48 -1 -108 9 -44 19 -62 41 -78 15 -11 32 -20 38 -20 14 0 22 38 15 71 -6 32 1 36 23 14 24 -24 71 -19 78 8 9 35 7 47 -9 47 -8 0 -14 -3 -14 -7 6 -35 -21 -49 -49 -25 -10 9 -27 35 -38 57 -10 22 -24 46 -32 54 -23 24 -26 2 -5 -37 12 -20 24 -63 27 -96 5 -50 3 -57 -10 -52 -9 3 -19 6 -24 6 -10 0 -19 56 -22 133 -2 31 -4 57 -6 57 -1 0 -7 -11 -12 -24z"/>
<path d="M30 1431 c4 -24 12 -46 17 -50 9 -6 152 -191 183 -237 24 -35 173 -229 180 -234 3 -3 60 -66 124 -140 65 -74 139 -153 165 -175 26 -22 91 -86 146 -142 90 -92 125 -119 125 -95 0 5 -80 87 -178 183 -187 184 -388 406 -457 503 -11 16 -29 40 -41 55 -11 14 -41 56 -67 93 -26 36 -53 72 -60 80 -25 25 -97 125 -97 134 0 5 -11 23 -24 39 l-24 30 8 -44z"/>
<path d="M2032 1309 c-164 -83 -287 -122 -465 -149 -193 -30 -254 -16 -357 82 -20 18 -43 44 -52 57 -12 17 -22 22 -35 17 -15 -6 -4 -20 62 -86 68 -66 89 -81 140 -96 70 -21 129 -23 240 -6 100 15 283 60 310 76 11 6 52 25 90 41 39 15 75 32 80 36 16 11 125 69 131 69 3 0 3 -4 0 -8 -6 -9 11 -39 18 -32 2 3 8 18 12 34 6 24 4 28 -8 23 -9 -3 -19 -2 -24 2 -5 4 -69 -23 -142 -60z"/>






<path d="M2160 1296 c0 -9 -17 -54 -39 -99 -57 -121 -87 -224 -117 -402 -32 -187 -38 -337 -13 -375 8 -14 25 -50 38 -81 26 -67 93 -135 170 -175 51 -26 55 -27 105 -14 84 22 132 89 64 90 -20 0 -23 -11 -8 -26 22 -22 -8 -38 -73 -38 -57 -1 -69 3 -119 36 -53 35 -108 93 -108 114 0 5 -14 38 -31 74 -31 63 -32 65 -25 169 3 58 10 133 16 166 5 33 14 90 19 126 6 37 23 104 38 150 15 46 27 86 28 89 0 3 12 30 27 62 45 98 54 126 40 140 -9 9 -12 8 -12 -6z"/>







<path d="M1373 683 c-7 -3 -13 -20 -13 -39 0 -19 -3 -34 -7 -34 -4 0 -26 9 -50 21 -41 20 -72 22 -76 6 -1 -5 22 -16 51 -26 63 -21 84 -39 102 -86 11 -27 19 -35 39 -35 14 0 36 -3 48 -6 18 -5 25 -1 33 22 14 35 7 63 -21 95 -12 13 -29 33 -38 45 -20 26 -52 43 -68 37z m64 -65 c26 -25 33 -40 33 -70 0 -41 -6 -44 -43 -27 -25 11 -47 59 -47 102 0 36 17 34 57 -5z"/>










</g>
</svg>
