<?xml version="1.0" standalone="no"?>
<!DOCTYPE svg PUBLIC "-//W3C//DTD SVG 20010904//EN"
 "http://www.w3.org/TR/2001/REC-SVG-20010904/DTD/svg10.dtd">
<svg version="1.0" xmlns="http://www.w3.org/2000/svg"
 width="300.000000pt" height="361.000000pt" viewBox="0 0 300.000000 361.000000"
 preserveAspectRatio="xMidYMid meet">
<metadata>
Created by potrace 1.10, written by Peter Selinger 2001-2011
</metadata>
<g transform="translate(0.000000,361.000000) scale(0.100000,-0.100000)"
fill="#000000" stroke="none">
<path d="M2534 3533 c-34 -6 -105 -99 -130 -169 -26 -69 -34 -168 -16 -186 8 -8 14 -5 20 13 6 14 6 25 1 27 -12 5 -12 92 0 92 5 0 12 -8 14 -17 3 -10 5 1 6 25 1 44 25 99 60 140 22 25 43 21 40 -6 -2 -16 3 -35 22 -77 4 -11 14 -49 20 -83 7 -36 18 -66 26 -69 8 -3 11 -13 8 -24 -3 -10 1 -32 10 -48 8 -17 16 -43 18 -59 2 -15 6 -32 9 -38 4 -5 9 -26 13 -47 4 -20 11 -37 16 -37 18 0 7 67 -25 165 -19 55 -32 102 -30 104 2 2 21 -8 41 -22 139 -95 241 -80 284 43 24 67 24 70 -1 70 -15 0 -20 -7 -20 -27 0 -40 -31 -96 -60 -110 -39 -20 -76 -15 -146 18 l-65 30 39 38 c40 39 45 52 58 159 6 41 5 43 -31 58 -21 8 -49 17 -64 19 -14 2 -39 8 -54 14 -16 6 -31 10 -35 10 -4 -1 -17 -4 -28 -6z m66 -38 c10 -12 8 -18 -11 -35 -13 -10 -19 -19 -12 -20 7 0 24 12 38 26 21 21 32 25 60 20 46 -9 61 -29 46 -62 -6 -14 -11 -36 -11 -50 0 -32 -24 -73 -56 -97 -29 -22 -54 -16 -54 13 0 23 -49 170 -62 187 -23 30 38 47 62 18z"/>
<path d="M2285 3303 c-4 -16 -15 -55 -26 -89 -10 -33 -19 -69 -19 -80 0 -46 -50 -59 -68 -19 -7 15 -8 25 -2 25 22 0 8 18 -31 38 -47 25 -60 23 -32 -6 33 -35 53 -62 53 -72 0 -6 5 -10 10 -10 6 0 10 -7 10 -15 0 -7 6 -18 13 -22 6 -4 26 -28 42 -52 22 -33 31 -40 33 -27 2 10 -6 29 -19 42 -12 13 -21 26 -18 28 8 7 120 46 133 46 8 0 -4 -19 -25 -42 -22 -24 -42 -53 -45 -66 -15 -55 18 -28 84 71 l52 77 -75 0 -74 0 5 33 c3 17 9 50 14 72 21 94 21 95 5 95 -8 0 -17 -12 -20 -27z"/>
<path d="M1966 3059 c-28 -22 -88 -131 -100 -183 -9 -37 -9 -156 -1 -165 4 -3 12 1 18 10 7 8 19 18 28 21 9 4 19 16 22 28 5 21 5 21 -14 4 -45 -41 -49 42 -7 150 23 57 48 85 48 53 0 -19 32 -77 43 -77 4 0 7 -5 7 -12 0 -7 20 -42 45 -79 25 -37 45 -79 45 -93 0 -14 6 -29 13 -33 19 -11 67 -102 67 -125 0 -26 17 -56 39 -67 20 -11 68 11 128 57 40 32 113 150 113 184 0 13 5 29 11 35 20 20 -7 77 -49 100 -39 22 -153 46 -176 37 -9 -3 -13 3 -13 19 0 41 -76 132 -118 141 -11 3 -43 7 -71 11 -42 4 -56 2 -78 -16z m111 -23 c58 -4 97 -35 133 -106 l20 -39 -24 -16 c-14 -9 -28 -30 -31 -46 -4 -16 -11 -31 -16 -34 -12 -8 -11 11 2 38 10 21 10 21 -5 3 -14 -17 -21 -52 -17 -78 3 -21 -20 -4 -35 25 -9 17 -28 46 -40 63 -13 17 -24 34 -24 39 0 4 -18 30 -40 57 -22 28 -40 54 -40 59 0 5 10 13 21 20 18 9 19 13 8 20 -10 7 -6 8 11 4 14 -2 48 -7 77 -9z m282 -171 c66 -8 116 -61 86 -91 -8 -8 -15 -27 -15 -40 0 -49 -81 -170 -107 -160 -8 3 -13 -2 -13 -13 0 -20 -43 -47 -59 -36 -7 4 -9 15 -6 26 4 13 1 21 -12 26 -30 12 -73 63 -73 87 0 17 18 2 34 -29 18 -34 36 -46 36 -25 0 6 7 10 15 10 10 0 15 9 14 28 l0 27 -16 -22 c-21 -31 -35 -29 -55 7 -17 29 -17 31 18 82 34 53 40 68 26 68 -4 0 -17 -19 -30 -43 -23 -44 -62 -78 -62 -55 0 17 70 119 100 146 19 16 33 21 55 17 17 -3 45 -8 64 -10z"/>
<path d="M2367 2988 c-2 -7 9 -21 25 -30 16 -10 33 -29 40 -43 11 -24 44 -43 56 -31 6 7 -97 116 -109 116 -4 0 -9 -6 -12 -12z"/>

<path d="M777 842 c-10 -10 -17 -26 -17 -34 0 -9 -3 -18 -7 -20 -11 -4 -55 -67 -73 -102 -8 -16 -42 -58 -75 -93 l-60 -64 -110 26 c-60 14 -132 33 -159 41 -77 22 -110 19 -146 -17 -17 -18 -27 -35 -23 -38 5 -3 16 -28 25 -56 9 -28 21 -50 29 -50 17 0 16 28 -2 73 -17 40 -4 66 34 70 15 2 64 -8 109 -21 46 -14 112 -31 147 -38 35 -8 65 -19 68 -25 6 -15 -48 -68 -86 -83 -47 -20 -60 -9 -27 24 15 15 24 30 18 34 -5 3 -14 16 -21 29 -8 16 -21 22 -44 22 -38 0 -50 -7 -66 -37 -17 -34 -13 -62 14 -87 21 -19 31 -22 72 -16 26 3 59 12 71 19 40 22 36 5 -14 -60 -94 -119 -111 -144 -117 -176 -7 -38 4 -42 33 -13 11 11 24 20 29 20 5 0 21 24 34 53 24 54 42 79 84 124 13 13 32 46 44 73 20 46 24 49 48 43 14 -3 42 -17 61 -30 19 -12 40 -23 48 -23 14 0 60 -26 157 -90 30 -20 87 -19 128 2 36 18 47 95 12 82 -8 -3 -12 -10 -9 -15 12 -20 -17 -49 -50 -49 -42 0 -136 51 -175 95 -17 19 -38 35 -47 35 -22 0 -97 21 -108 31 -13 11 52 99 81 110 38 14 40 3 4 -30 -34 -32 -39 -55 -16 -78 42 -41 145 5 132 59 -10 40 -44 68 -82 68 -38 0 -44 10 -19 31 8 7 22 25 30 41 8 15 35 53 60 83 24 31 42 60 39 65 -10 16 -41 11 -58 -8z m-11 -250 c6 -4 14 -17 18 -29 7 -22 -15 -43 -47 -43 -21 0 -27 46 -8 64 17 18 21 19 37 8z m-386 -108 c0 -8 -6 -17 -14 -20 -8 -3 -11 -15 -8 -30 3 -19 0 -24 -17 -24 -17 0 -21 6 -21 30 0 17 9 39 20 50 22 22 40 19 40 -6z"/>

</g>
</svg>
