<?xml version="1.0" standalone="no"?>
<!DOCTYPE svg PUBLIC "-//W3C//DTD SVG 20010904//EN"
 "http://www.w3.org/TR/2001/REC-SVG-20010904/DTD/svg10.dtd">
<svg version="1.0" xmlns="http://www.w3.org/2000/svg"
 width="300.000000pt" height="331.000000pt" viewBox="0 0 300.000000 331.000000"
 preserveAspectRatio="xMidYMid meet">
<metadata>
Created by potrace 1.10, written by Peter Selinger 2001-2011
</metadata>
<g transform="translate(0.000000,331.000000) scale(0.100000,-0.100000)"
fill="#000000" stroke="none">
<path d="M1566 3079 c-21 -50 -35 -93 -32 -96 3 -4 14 12 23 35 9 23 22 42 30 42 7 0 13 -4 13 -8 0 -5 6 -16 13 -26 17 -23 70 -6 60 20 -6 15 -7 15 -19 -1 -11 -15 -16 -16 -28 -6 -15 13 -16 64 -1 110 4 14 2 21 -7 21 -7 0 -31 -41 -52 -91z"/>
<path d="M2090 2922 c0 -16 -8 -32 -20 -40 -11 -7 -20 -19 -20 -27 0 -18 1 -18 36 0 38 20 90 19 98 -1 5 -12 8 -13 20 -2 20 19 1 38 -40 38 -26 0 -32 3 -28 15 7 18 -12 45 -32 45 -9 0 -14 -11 -14 -28z"/>
<path d="M450 2502 c0 -5 11 -19 25 -32 18 -17 23 -30 19 -44 -6 -18 -5 -19 9 -7 13 10 14 17 6 35 -22 42 -59 72 -59 48z"/>
<path d="M1006 2898 c-16 -23 -21 -60 -9 -71 10 -10 33 13 33 33 0 13 6 16 28
13 26 -4 26 -4 -6 14 -18 11 -30 22 -26 26 4 4 5 7 1 7 -3 0 -13 -10 -21 -22z
m5 -51 c-8 -8 -11 -5 -11 9 0 27 14 41 18 19 2 -9 -1 -22 -7 -28z"/>
<path d="M2515 2291 c-31 -6 -43 -40 -17 -49 7 -2 10 2 6 11 -3 10 3 17 20 21 14 3 26 11 26 16 0 6 -1 9 -2 9 -2 -1 -16 -4 -33 -8z"/>
<path d="M2570 2290 c0 -5 7 -10 15 -10 8 0 15 5 15 10 0 6 -7 10 -15 10 -8 0 -15 -4 -15 -10z"/>
<path d="M194 1946 c-8 -22 14 -56 36 -56 26 0 26 31 2 53 -23 21 -31 21 -38 3z"/>
<path d="M2677 1823 c-11 -10 -8 -43 3 -43 5 0 7 7 4 15 -5 13 1 17 26 17 3 1 25 -2 50 -6 43 -6 44 -5 20 9 -26 15 -91 20 -103 8z"/>
<path d="M2644 1435 c-4 -10 -2 -26 5 -36 7 -12 7 -19 1 -19 -5 0 -10 -12 -9 -27 0 -26 1 -26 9 -7 4 12 15 24 24 27 22 9 20 40 -4 62 -19 17 -20 17 -26 0z"/>
<path d="M156 1431 c-4 -5 3 -15 14 -21 23 -12 27 -47 6 -52 -9 -2 -1 -13 24 -31 23 -16 41 -23 45 -17 3 5 -4 15 -17 21 -18 8 -24 18 -24 43 0 23 5 33 14 32 8 -1 16 4 18 9 2 6 -6 10 -18 11 -13 0 -30 4 -39 8 -10 4 -20 3 -23 -3z"/>
<path d="M2554 1122 c-3 -15 -9 -35 -15 -44 -13 -25 -12 -28 9 -25 12 1 31 -14 53 -42 39 -52 55 -60 63 -33 8 23 -17 84 -50 128 -35 45 -52 50 -60 16z m38 -19 c23 -26 48 -79 48 -100 -1 -14 -6 -11 -23 12 -12 16 -21 31 -19 33 2 1 -6 14 -18 29 -31 40 -21 63 12 26z"/>
<path d="M320 981 c0 -5 14 -14 30 -20 17 -5 30 -14 30 -20 0 -10 -52 -30 -84 -32 -15 -1 -12 -4 12 -12 42 -13 36 -29 -19 -46 -80 -25 -88 -30 -52 -30 17 -1 53 8 79 19 42 19 49 19 56 5 10 -17 55 -20 78 -5 21 13 8 21 -52 30 -29 4 -46 8 -38 9 11 1 11 4 2 13 -9 9 -5 15 19 25 31 13 35 31 8 43 -8 4 -24 12 -36 18 -27 14 -33 15 -33 3z m100 -131 c0 -5 -6 -10 -14 -10 -8 0 -18 5 -21 10 -3 6 3 10 14 10 12 0 21 -4 21 -10z"/>
<path d="M2437 743 c-4 -3 -6 -20 -6 -37 1 -24 3 -26 6 -8 5 27 20 29 28 2 3 -11 11 -20 16 -20 12 0 11 6 -6 40 -15 30 -26 36 -38 23z"/>
<path d="M2490 662 c0 -5 7 -15 15 -22 8 -7 15 -8 15 -2 0 5 -7 15 -15 22 -8 7 -15 8 -15 2z"/>
<path d="M730 550 c0 -4 7 -10 15 -14 24 -9 17 -23 -15 -29 -41 -9 -42 -40 -1 -35 16 1 36 -4 45 -11 9 -8 16 -9 16 -3 0 6 -5 14 -10 17 -8 5 -7 11 0 20 8 10 8 19 1 33 -10 20 -51 37 -51 22z"/>
<path d="M2176 474 c-3 -9 -6 -26 -6 -40 0 -20 -3 -22 -22 -15 -13 5 -32 5 -43 0 -11 -4 -14 -8 -8 -8 10 -1 10 -7 1 -26 -9 -20 -9 -28 1 -38 14 -14 31 5 31 36 0 9 7 17 15 17 12 0 15 -15 15 -75 0 -43 4 -75 10 -75 6 0 10 32 10 75 0 50 5 87 16 106 15 31 13 59 -5 59 -5 0 -12 -7 -15 -16z"/>
<path d="M1096 411 c-3 -5 -1 -11 6 -13 14 -5 -30 -105 -67 -154 -39 -51 -26 -73 23 -38 22 15 30 44 12 44 -5 0 4 26 20 58 16 31 31 68 32 81 3 24 -15 40 -26 22z"/>
<path d="M1549 270 c-9 -5 -22 -23 -28 -39 -10 -22 -19 -29 -39 -28 -15 1 -30 6 -33 11 -8 10 -29 -1 -29 -15 0 -5 6 -8 13 -7 8 2 11 -7 9 -24 -3 -35 14 -37 22 -3 4 14 13 25 21 25 11 0 15 -13 15 -55 0 -30 4 -55 9 -55 13 0 22 47 16 83 -4 23 1 42 17 67 22 34 22 34 26 10 2 -13 -1 -26 -7 -28 -11 -4 -16 -32 -5 -32 17 0 35 34 32 62 -3 34 -14 42 -39 28z"/>
</g>
</svg>
