<?xml version="1.0" encoding="UTF-8" standalone="no"?>
<!DOCTYPE svg PUBLIC "-//W3C//DTD SVG 20010904//EN"
              "http://www.w3.org/TR/2001/REC-SVG-20010904/DTD/svg10.dtd">

<svg xmlns="http://www.w3.org/2000/svg"
     width="12.5in" height="10.6222in"
     viewBox="0 0 1125 956">
  <path id="Selection #3"
        fill="none" stroke="black" stroke-width="1"
        d="M 970.00,0.00 
           C 970.00,0.00 976.00,1.00 976.00,1.00 976.00,1.00 975.00,6.00 975.00,6.00 975.00,6.00 970.00,6.00 970.00,6.00 970.00,6.00 970.00,0.00 970.00,0.00 Z
		   M 606.00,219.00
           C 606.00,219.00 607.00,219.00 607.00,219.00 607.00,219.00 606.00,220.00 606.00,220.00 606.00,220.00 606.00,219.00 606.00,219.00 Z
           M 610.00,220.00
           C 610.00,220.00 614.00,221.00 614.00,221.00 614.00,221.00 610.00,220.00 610.00,220.00 Z
           M 656.00,226.00
           C 656.00,226.00 657.00,226.00 657.00,226.00 657.00,226.00 656.00,227.00 656.00,227.00 656.00,227.00 656.00,226.00 656.00,226.00 Z
           M 381.00,490.00
           C 375.22,486.37 376.93,476.13 377.00,470.00 377.00,470.00 377.91,460.00 377.91,460.00 377.91,460.00 380.72,427.00 380.72,427.00 380.72,427.00 381.39,417.00 381.39,417.00 381.39,417.00 386.00,403.00 386.00,403.00 390.75,386.47 394.48,374.13 403.35,359.00 403.35,359.00 410.45,349.00 410.45,349.00 410.45,349.00 416.49,338.17 416.49,338.17 416.49,338.17 431.00,322.09 431.00,322.09 431.00,322.09 440.79,313.71 440.79,313.71 444.74,309.63 444.37,306.58 446.56,304.75 446.56,304.75 452.00,302.34 452.00,302.34 452.00,302.34 466.00,292.12 466.00,292.12 466.00,292.12 483.00,279.68 483.00,279.68 483.00,279.68 490.00,276.18 490.00,276.18 492.52,274.70 494.13,272.98 497.00,271.89 501.30,270.26 509.34,270.17 514.00,269.96 514.00,269.96 522.00,269.09 522.00,269.09 522.00,269.09 540.00,267.72 540.00,267.72 540.00,267.72 556.00,265.19 556.00,265.19 556.00,265.19 563.00,265.19 563.00,265.19 563.00,265.19 575.00,265.19 575.00,265.19 575.00,265.19 583.00,265.82 583.00,265.82 583.00,265.82 599.00,264.04 599.00,264.04 614.52,264.54 642.58,269.60 657.00,275.06 674.05,281.53 695.31,295.31 708.99,307.30 708.99,307.30 716.17,314.32 716.17,314.32 719.41,316.85 722.50,317.34 723.69,322.00 726.37,332.57 718.06,351.00 730.00,357.00 730.00,352.26 729.09,346.96 732.00,343.00 732.00,343.00 736.53,355.00 736.53,355.00 736.53,355.00 734.97,362.00 734.97,362.00 734.97,362.00 734.00,373.00 734.00,373.00 726.49,366.99 727.11,360.79 722.35,354.00 722.35,354.00 711.63,341.32 711.63,341.32 708.50,338.10 705.30,337.05 701.80,332.00 698.23,326.84 699.81,324.87 699.14,322.17 699.14,322.17 696.00,316.00 696.00,316.00 708.38,318.07 700.28,323.06 708.04,332.85 711.13,336.74 713.24,334.75 715.00,339.00 719.56,332.54 717.91,328.20 716.00,321.00 716.00,321.00 714.00,323.00 714.00,323.00 714.00,323.00 713.00,323.00 713.00,323.00 713.00,323.00 712.00,322.00 712.00,322.00 712.00,322.00 714.00,317.00 714.00,317.00 701.47,314.61 695.71,300.83 682.00,296.19 677.19,294.57 669.68,299.61 665.10,299.31 661.73,299.09 661.34,296.02 657.90,294.59 657.90,294.59 652.00,293.39 652.00,293.39 650.09,292.90 637.45,288.88 636.65,288.07 634.24,285.61 637.53,280.65 642.01,281.84 645.04,282.65 648.19,286.28 651.00,287.31 653.73,288.32 660.08,286.72 663.00,286.00 663.00,286.00 663.00,284.00 663.00,284.00 655.35,282.43 654.39,280.72 651.00,279.97 651.00,279.97 646.00,279.39 646.00,279.39 646.00,279.39 640.00,277.29 640.00,277.29 640.00,277.29 630.00,275.99 630.00,275.99 630.00,275.99 614.00,272.27 614.00,272.27 608.22,271.38 599.60,268.03 596.00,274.00 602.74,274.55 604.19,275.69 610.00,277.04 610.00,277.04 615.69,277.68 615.69,277.68 617.99,278.63 617.95,281.17 615.69,282.26 611.78,284.16 608.46,280.69 605.00,279.79 601.97,278.61 598.99,279.27 596.00,279.79 596.00,279.79 596.00,282.00 596.00,282.00 596.00,282.00 605.00,283.00 605.00,283.00 601.44,288.32 590.79,285.02 585.00,285.00 585.00,285.00 585.00,283.00 585.00,283.00 591.24,281.05 590.94,277.81 591.00,272.00 581.85,271.17 577.27,267.08 573.58,267.02 571.47,266.98 566.17,268.92 564.00,269.69 562.09,270.38 553.78,273.04 556.74,276.38 561.16,281.34 572.09,265.35 576.44,274.15 576.44,274.15 578.00,280.00 578.00,280.00 578.00,280.00 563.97,280.00 563.97,280.00 563.97,280.00 563.97,284.37 563.97,284.37 563.97,284.37 559.00,285.90 559.00,285.90 559.00,285.90 550.00,289.00 550.00,289.00 548.12,281.29 550.95,272.82 541.00,272.00 541.00,272.00 546.00,277.00 546.00,277.00 533.58,278.63 539.11,276.82 530.00,276.05 530.00,276.05 515.00,276.05 515.00,276.05 501.32,276.02 501.37,278.88 490.00,284.74 479.30,290.26 473.19,295.19 463.72,302.22 460.09,304.91 456.37,307.02 453.04,310.17 453.04,310.17 447.41,316.41 447.41,316.41 447.41,316.41 443.26,320.20 443.26,320.20 443.26,320.20 439.32,325.15 439.32,325.15 439.32,325.15 422.22,340.17 422.22,340.17 422.22,340.17 412.50,354.09 412.50,354.09 412.50,354.09 410.48,360.00 410.48,360.00 407.17,367.97 396.87,380.38 398.00,389.00 402.63,386.87 405.41,385.11 407.15,380.00 408.70,375.45 406.67,372.02 411.00,369.00 411.00,369.00 412.00,377.00 412.00,377.00 412.00,377.00 419.00,373.00 419.00,373.00 418.11,378.51 417.07,377.68 415.00,382.00 412.57,387.07 413.36,389.49 406.72,393.00 403.28,394.81 399.49,393.15 396.43,395.74 394.12,397.69 391.75,407.72 391.00,411.00 398.22,410.05 408.20,418.20 400.47,424.38 397.14,427.05 392.70,423.21 399.00,421.00 399.00,421.00 393.00,415.00 393.00,415.00 391.57,419.27 391.62,420.19 387.00,421.00 388.26,427.76 390.53,427.98 389.00,435.00 389.00,435.00 393.00,437.00 393.00,437.00 393.00,437.00 393.00,439.00 393.00,439.00 389.32,439.85 389.32,439.71 386.00,438.00 385.95,441.24 385.07,446.99 387.59,449.41 389.85,451.58 395.93,451.00 399.00,451.00 399.00,451.00 396.54,457.07 396.54,457.07 394.89,461.55 395.78,462.76 390.00,462.00 390.00,462.00 393.00,456.00 393.00,456.00 393.00,456.00 382.00,454.00 382.00,454.00 382.93,465.00 386.50,464.40 388.42,470.00 389.31,472.61 389.00,480.81 389.00,484.00 394.06,481.17 396.74,475.45 398.28,470.00 399.84,464.48 397.64,462.12 404.00,461.00 403.90,471.51 401.01,470.10 400.67,473.42 400.30,477.10 406.22,479.70 402.64,488.00 400.52,492.89 394.42,499.31 390.00,493.00 395.84,491.26 397.04,488.77 398.00,483.00 398.00,483.00 394.00,486.07 394.00,486.07 382.75,493.61 385.00,477.25 385.00,471.00 385.00,471.00 382.00,471.00 382.00,471.00 382.00,471.00 381.00,490.00 381.00,490.00 Z
           M 525.00,283.00
           C 525.86,278.06 527.43,278.66 532.00,279.00 529.91,282.71 529.14,282.66 525.00,283.00 Z
           M 622.00,281.00
           C 622.00,281.00 630.00,278.00 630.00,278.00 630.00,278.00 631.00,282.00 631.00,282.00 626.58,282.96 626.13,282.87 622.00,281.00 Z
           M 506.00,279.00
           C 506.00,279.00 514.00,280.00 514.00,280.00 511.29,284.53 507.69,283.73 506.00,279.00 Z
           M 535.00,286.00
           C 536.61,281.45 539.38,281.53 541.00,286.00 541.00,286.00 535.00,286.00 535.00,286.00 Z
           M 519.00,287.00
           C 519.00,287.00 524.00,286.00 524.00,286.00 522.80,289.39 522.54,289.47 519.00,289.00 519.00,289.00 519.00,287.00 519.00,287.00 Z
           M 491.00,288.00
           C 491.00,288.00 493.00,288.00 493.00,288.00 494.19,291.72 495.98,298.03 499.74,300.04 504.78,302.72 506.81,294.18 507.00,291.00 512.58,292.74 514.31,297.00 509.72,301.29 504.34,306.32 495.39,311.75 488.00,309.00 486.66,316.61 480.27,313.30 476.00,310.00 480.69,308.57 483.13,308.04 488.00,309.00 488.04,304.83 489.44,304.69 493.00,303.00 493.00,303.00 491.00,288.00 491.00,288.00 Z
           M 575.00,291.00
           C 585.50,288.45 606.54,289.00 618.00,289.00 618.37,295.33 621.27,300.71 627.00,303.86 630.79,305.95 633.11,305.02 637.00,308.00 626.29,314.86 626.62,310.70 616.00,311.15 612.75,311.15 608.11,312.50 605.21,311.15 602.38,310.04 601.43,307.11 597.96,304.70 590.42,299.46 585.07,305.55 587.00,294.00 587.00,294.00 575.00,293.00 575.00,293.00 575.00,293.00 575.00,291.00 575.00,291.00 Z
           M 526.00,293.00
           C 526.00,293.00 532.00,290.00 532.00,290.00 530.08,293.31 529.78,293.32 526.00,293.00 Z
           M 549.00,302.00
           C 552.40,298.12 550.45,296.73 552.06,294.80 554.47,291.39 564.71,293.99 568.00,294.80 568.00,294.80 563.00,300.00 563.00,300.00 570.30,302.46 569.19,305.11 576.00,304.00 576.00,304.00 576.00,302.00 576.00,302.00 576.00,302.00 572.00,300.00 572.00,300.00 572.00,300.00 572.00,298.00 572.00,298.00 572.00,298.00 573.00,297.00 573.00,297.00 576.80,298.21 585.28,302.54 579.68,307.26 576.69,309.78 571.68,308.52 568.00,309.41 568.00,309.41 554.00,315.36 554.00,315.36 550.57,316.51 549.80,315.45 547.00,315.88 542.79,316.51 534.42,322.08 533.07,326.17 532.25,328.68 534.11,330.80 534.00,335.00 527.20,331.34 526.07,327.24 521.96,327.70 517.14,328.25 514.75,332.23 512.70,336.00 512.70,336.00 506.96,346.00 506.96,346.00 506.96,346.00 503.44,355.00 503.44,355.00 500.22,360.90 497.61,360.48 497.00,368.00 497.00,368.00 491.00,367.00 491.00,367.00 491.00,367.00 484.03,382.00 484.03,382.00 484.03,382.00 480.79,392.00 480.79,392.00 478.64,396.93 476.47,397.11 477.00,403.00 477.00,403.00 482.00,401.00 482.00,401.00 479.52,407.46 473.10,407.44 468.43,413.17 465.11,417.25 466.65,420.03 465.42,424.00 463.72,429.53 461.86,428.54 466.00,434.00 468.95,429.93 470.09,428.44 475.00,427.00 474.48,433.28 471.80,435.07 466.00,437.00 466.00,437.00 470.00,443.18 470.00,443.18 468.34,443.42 467.01,444.00 465.26,443.18 462.70,442.41 456.94,433.70 456.64,431.00 456.38,428.64 457.71,426.22 458.41,424.00 460.89,416.07 460.06,415.49 464.59,407.00 464.59,407.00 475.69,388.00 475.69,388.00 475.69,388.00 483.45,372.00 483.45,372.00 483.45,372.00 492.78,359.00 492.78,359.00 492.78,359.00 495.97,351.28 495.97,351.28 495.97,351.28 499.97,345.96 499.97,345.96 506.59,335.79 506.41,335.55 514.72,326.00 520.49,319.37 531.57,306.99 539.00,303.00 539.00,303.00 536.00,313.00 536.00,313.00 536.00,313.00 544.26,307.23 544.26,307.23 544.26,307.23 557.00,308.00 557.00,308.00 557.00,308.00 549.00,304.00 549.00,304.00 549.00,304.00 549.00,302.00 549.00,302.00 Z
           M 625.00,296.00
           C 631.47,291.82 640.71,297.09 647.00,299.90 652.01,302.13 654.71,302.57 660.00,305.71 667.33,310.07 686.02,327.31 691.54,334.00 696.14,339.58 704.30,346.66 703.00,354.00 703.00,354.00 701.00,354.00 701.00,354.00 698.33,349.72 686.91,333.83 682.99,332.06 680.92,331.21 679.11,331.70 677.00,332.06 676.38,329.37 676.37,326.39 675.02,324.01 672.66,319.86 661.48,311.02 657.00,308.90 655.20,308.05 651.99,306.40 650.04,306.70 648.14,307.00 646.40,308.78 645.00,310.00 637.87,300.07 634.69,300.61 625.00,296.00 Z
           M 517.00,302.00
           C 516.23,295.87 519.78,295.31 525.00,295.00 525.00,295.00 519.00,302.00 519.00,302.00 519.00,302.00 517.00,302.00 517.00,302.00 Z
           M 678.00,301.00
           C 683.83,299.82 689.50,300.71 688.00,308.00 682.96,306.31 680.04,306.30 678.00,301.00 Z
           M 675.00,306.00
           C 679.06,307.99 679.71,308.66 681.00,313.00 677.06,310.81 676.32,310.37 675.00,306.00 Z
           M 465.00,309.00
           C 473.90,307.14 472.29,311.99 477.32,314.98 479.29,316.14 481.80,315.97 484.00,316.00 484.00,316.00 477.30,327.00 477.30,327.00 473.65,334.12 476.31,334.98 468.00,341.00 468.00,341.00 473.00,321.00 473.00,321.00 461.44,318.93 463.17,321.18 453.00,323.00 452.26,311.42 463.36,315.93 471.00,316.00 471.00,316.00 465.00,309.00 465.00,309.00 Z
           M 691.00,310.00
           C 691.00,310.00 695.00,310.00 695.00,310.00 695.00,310.00 694.00,316.00 694.00,316.00 694.00,316.00 691.00,310.00 691.00,310.00 Z
           M 633.00,315.00
           C 640.92,307.19 647.76,317.27 657.06,317.00 657.06,317.00 657.06,321.71 657.06,321.71 657.06,321.71 673.00,338.00 673.00,338.00 673.00,338.00 678.00,335.00 678.00,335.00 677.26,337.96 675.93,342.27 671.96,341.60 667.62,340.87 660.29,333.11 657.00,330.17 654.10,327.59 644.06,319.32 641.00,317.99 641.00,317.99 633.00,315.00 633.00,315.00 Z
           M 494.00,320.00
           C 495.07,316.93 494.93,317.07 498.00,316.00 496.93,319.07 497.07,318.93 494.00,320.00 Z
           M 685.00,316.00
           C 685.00,316.00 689.00,320.00 689.00,320.00 685.93,318.93 686.07,319.07 685.00,316.00 Z
           M 487.00,327.00
           C 487.99,322.45 488.59,321.60 493.00,320.00 493.00,320.00 494.00,321.00 494.00,321.00 494.00,321.00 494.00,323.00 494.00,323.00 494.00,323.00 487.00,327.00 487.00,327.00 Z
           M 658.00,321.00
           C 663.08,319.96 664.51,321.11 666.00,326.00 661.51,325.04 660.89,324.57 658.00,321.00 Z
           M 440.00,336.00
           C 446.74,329.94 442.24,328.25 449.00,326.00 449.06,330.95 448.63,332.20 453.00,335.00 450.65,341.88 444.25,340.04 440.00,336.00 Z
           M 479.00,326.00
           C 484.47,327.78 483.93,331.32 478.00,330.00 478.00,330.00 479.00,326.00 479.00,326.00 Z
           M 726.00,326.00
           C 731.41,328.56 732.69,331.13 737.00,334.79 737.00,334.79 743.62,339.63 743.62,339.63 747.96,343.58 753.04,353.18 752.00,359.00 745.65,355.92 739.54,344.00 733.91,338.00 729.48,333.29 726.55,332.73 726.00,326.00 Z
           M 667.00,327.00
           C 667.00,327.00 672.00,330.00 672.00,330.00 672.00,330.00 667.00,327.00 667.00,327.00 Z
           M 483.00,334.00
           C 489.42,335.63 489.84,337.81 490.00,344.00 486.18,341.76 484.38,338.11 483.00,334.00 Z
           M 434.00,349.00
           C 430.68,348.45 427.03,347.04 426.82,343.00 426.64,339.47 432.09,334.24 435.67,335.66 439.55,337.19 434.76,341.84 434.00,349.00 Z
           M 542.00,340.00
           C 547.92,336.88 549.81,338.42 556.00,337.83 556.00,337.83 585.00,335.00 585.00,335.00 583.22,337.87 582.94,337.67 580.07,339.35 570.25,345.12 572.17,342.08 562.00,343.28 554.97,344.12 547.43,345.53 542.00,340.00 Z
           M 592.00,335.00
           C 592.00,335.00 597.00,337.00 597.00,337.00 593.84,337.42 593.84,337.65 592.00,335.00 Z
           M 617.00,360.00
           C 609.96,356.03 615.18,351.51 611.40,347.58 608.56,344.63 602.25,346.37 601.37,341.86 599.72,333.41 615.04,333.79 620.00,337.00 620.00,337.00 611.00,339.00 611.00,339.00 613.51,342.50 621.35,349.33 620.96,353.00 620.75,355.03 618.19,358.29 617.00,360.00 Z
           M 529.00,336.00
           C 529.00,336.00 531.00,336.00 531.00,336.00 531.00,336.00 532.00,337.00 532.00,337.00 530.74,341.90 529.54,344.49 525.00,347.00 525.00,347.00 529.00,336.00 529.00,336.00 Z
           M 451.00,346.00
           C 454.61,337.23 455.98,337.39 465.00,339.00 464.63,353.80 454.59,355.37 450.01,365.00 447.45,370.38 450.99,375.39 447.00,384.00 445.04,380.81 443.38,376.77 443.12,373.00 442.62,365.76 446.71,365.71 440.00,360.00 440.00,360.00 447.00,344.00 447.00,344.00 447.00,344.00 451.00,346.00 451.00,346.00 Z
           M 515.34,339.08
           C 521.21,337.68 520.05,343.89 518.42,344.83 516.60,345.88 511.93,343.36 515.34,339.08 Z
           M 621.00,339.00
           C 625.19,338.09 627.37,337.49 629.00,342.00 629.00,342.00 621.00,341.00 621.00,341.00 621.00,341.00 621.00,339.00 621.00,339.00 Z
           M 726.00,338.00
           C 726.00,338.00 730.00,338.00 730.00,338.00 730.00,338.00 730.00,343.00 730.00,343.00 730.00,343.00 726.00,338.00 726.00,338.00 Z
           M 677.00,340.00
           C 681.04,341.29 681.31,341.86 682.00,346.00 677.11,345.61 676.34,344.98 677.00,340.00 Z
           M 583.00,357.00
           C 581.67,356.26 580.86,356.13 579.90,354.71 576.28,349.36 585.45,337.71 593.85,344.65 595.30,345.85 596.20,347.06 596.20,349.02 596.20,350.43 595.50,351.72 595.00,353.00 595.00,353.00 605.00,349.00 605.00,349.00 604.03,353.75 601.84,358.48 596.04,357.73 594.44,357.53 593.11,356.93 592.17,355.57 590.76,353.51 591.01,349.45 591.00,347.00 591.00,347.00 584.00,347.00 584.00,347.00 584.00,347.00 583.00,357.00 583.00,357.00 Z
           M 626.00,352.00
           C 627.68,341.64 635.95,340.60 644.00,345.04 654.78,350.98 656.88,354.22 662.65,364.96 664.12,367.69 665.13,368.94 666.00,372.00 658.45,370.08 659.99,367.44 656.30,362.00 653.63,358.05 642.36,348.73 637.83,347.87 636.28,347.40 635.45,347.76 634.00,347.87 634.00,347.87 637.00,352.00 637.00,352.00 637.00,352.00 626.00,352.00 626.00,352.00 Z
           M 564.00,347.00
           C 574.03,344.41 578.95,354.40 569.00,358.00 569.00,358.00 569.00,360.00 569.00,360.00 569.00,360.00 581.00,362.00 581.00,362.00 577.86,366.51 571.93,364.64 567.00,365.17 559.88,365.95 558.58,368.58 550.00,369.00 551.21,361.72 555.28,362.33 561.00,359.00 556.15,357.88 555.57,358.08 551.00,360.00 552.99,350.88 560.39,353.00 568.00,353.00 568.00,353.00 564.00,349.00 564.00,349.00 564.00,349.00 564.00,347.00 564.00,347.00 Z
           M 686.00,346.00
           C 686.00,346.00 691.00,349.00 691.00,349.00 691.00,349.00 686.00,346.00 686.00,346.00 Z
           M 418.00,348.00
           C 423.54,347.06 424.57,348.75 425.00,354.00 420.74,352.51 420.22,351.90 418.00,348.00 Z
           M 522.00,348.00
           C 525.00,352.81 520.42,356.59 516.00,358.00 516.00,358.00 522.00,348.00 522.00,348.00 Z
           M 676.00,349.00
           C 681.01,350.66 681.14,353.36 683.00,358.00 683.00,358.00 685.00,358.00 685.00,358.00 689.45,351.37 694.95,358.79 695.00,365.00 695.00,365.00 689.00,361.71 689.00,361.71 689.00,361.71 681.63,359.18 681.63,359.18 681.63,359.18 676.00,349.00 676.00,349.00 Z
           M 435.00,350.00
           C 436.82,357.64 434.65,365.28 427.99,369.75 426.24,370.93 422.54,373.03 420.42,371.79 417.72,370.22 420.68,366.56 421.81,365.00 425.71,359.62 428.90,352.95 435.00,350.00 Z
           M 692.00,351.00
           C 692.00,351.00 696.00,350.00 696.00,350.00 696.00,350.00 695.00,354.00 695.00,354.00 695.00,354.00 693.00,354.00 693.00,354.00 693.00,354.00 692.00,353.00 692.00,353.00 692.00,353.00 692.00,351.00 692.00,351.00 Z
           M 536.00,354.00
           C 538.73,358.66 535.41,361.63 531.00,363.00 531.78,358.18 532.74,357.54 536.00,354.00 Z
           M 624.00,358.00
           C 630.73,355.84 652.45,353.42 651.00,365.00 651.00,365.00 644.00,362.00 644.00,362.00 644.00,362.00 645.00,367.00 645.00,367.00 639.21,367.78 636.36,364.42 631.00,362.67 631.00,362.67 624.00,361.00 624.00,361.00 624.00,361.00 624.00,358.00 624.00,358.00 Z
           M 703.00,355.00
           C 703.00,355.00 708.00,359.00 708.00,359.00 704.31,358.96 704.26,358.37 703.00,355.00 Z
           M 752.00,360.00
           C 756.31,361.47 756.46,363.31 759.01,367.00 763.81,373.96 766.77,382.25 770.13,390.00 773.09,396.84 777.16,405.74 778.53,413.00 778.53,413.00 779.68,422.00 779.68,422.00 779.68,422.00 782.71,434.00 782.71,434.00 782.71,434.00 783.29,445.00 783.29,445.00 783.29,445.00 785.84,457.00 785.84,457.00 785.84,457.00 785.84,476.00 785.84,476.00 785.72,485.38 783.00,479.80 783.00,498.00 783.00,498.00 789.00,492.00 789.00,492.00 788.96,503.06 783.13,506.98 780.16,518.00 780.16,518.00 778.59,527.00 778.59,527.00 778.59,527.00 774.56,540.00 774.56,540.00 770.24,552.22 753.88,579.21 745.56,589.00 740.34,595.14 732.99,598.78 727.00,604.17 727.00,604.17 717.58,613.54 717.58,613.54 717.58,613.54 709.04,620.17 709.04,620.17 709.04,620.17 702.83,626.11 702.83,626.11 702.83,626.11 693.00,630.48 693.00,630.48 693.00,630.48 683.00,637.64 683.00,637.64 678.53,640.64 675.61,641.88 671.00,644.26 671.00,644.26 646.00,656.35 646.00,656.35 642.66,657.91 639.15,660.76 636.00,661.79 636.00,661.79 616.00,661.79 616.00,661.79 613.85,661.97 601.67,660.92 600.27,660.28 598.72,659.57 598.82,659.18 598.00,658.00 598.00,658.00 622.00,656.00 622.00,656.00 637.26,655.82 638.94,651.28 650.00,646.59 659.58,642.53 669.23,638.25 678.00,632.56 678.00,632.56 688.00,624.72 688.00,624.72 688.00,624.72 695.00,621.29 695.00,621.29 695.00,621.29 709.98,609.57 709.98,609.57 715.61,604.61 715.38,602.55 720.04,598.29 726.01,592.83 732.75,591.38 740.96,582.98 747.44,576.35 754.12,561.34 758.87,553.00 758.87,553.00 769.60,536.00 769.60,536.00 769.60,536.00 773.37,517.00 773.37,517.00 775.84,506.80 777.81,513.76 778.00,497.00 778.00,497.00 781.68,471.00 781.68,471.00 780.76,459.05 778.20,459.05 778.00,442.00 777.93,436.00 776.88,432.73 775.80,427.00 775.80,427.00 773.55,413.00 773.55,413.00 773.55,413.00 763.44,390.00 763.44,390.00 763.44,390.00 759.34,378.00 759.34,378.00 757.25,372.32 752.65,365.67 752.00,360.00 Z
           M 595.00,362.00
           C 600.14,360.54 603.78,360.41 608.00,364.00 603.24,365.35 599.76,365.35 595.00,364.00 595.00,364.00 595.00,362.00 595.00,362.00 Z
           M 610.00,365.00
           C 617.18,360.40 616.00,361.08 623.00,364.04 623.00,364.04 630.00,366.00 630.00,366.00 630.00,366.00 630.00,368.00 630.00,368.00 621.91,371.68 618.11,370.83 610.00,367.00 610.00,367.00 610.00,365.00 610.00,365.00 Z
           M 739.00,362.00
           C 739.00,362.00 741.00,362.00 741.00,362.00 749.65,384.18 744.88,377.01 748.00,388.00 750.82,385.18 752.07,388.38 752.98,391.02 752.98,391.02 756.22,400.00 756.22,400.00 756.22,400.00 758.23,408.00 758.23,408.00 764.89,428.59 764.00,441.05 764.00,462.00 764.00,468.07 765.87,477.31 760.00,481.00 760.00,481.00 759.00,453.00 759.00,453.00 759.00,442.86 760.41,437.62 754.00,429.00 750.40,438.56 757.63,437.86 754.00,447.00 754.00,447.00 749.00,441.00 749.00,441.00 749.00,441.00 750.17,449.90 750.17,449.90 750.17,449.90 756.00,458.00 756.00,458.00 747.79,462.52 750.72,464.14 747.47,471.00 747.47,471.00 742.77,480.00 742.77,480.00 739.65,487.86 737.61,495.52 733.37,503.00 733.37,503.00 720.36,522.00 720.36,522.00 719.01,525.65 722.57,532.43 724.00,536.00 727.08,533.16 731.05,529.53 731.31,525.00 731.50,521.74 729.03,519.57 731.31,515.00 733.52,510.59 739.60,506.17 742.28,502.00 745.84,496.45 744.32,490.93 745.72,487.00 747.24,482.74 749.89,481.63 752.00,475.00 753.47,475.47 754.23,475.44 755.49,476.59 759.53,480.27 759.90,492.21 758.00,497.00 758.00,497.00 755.00,487.00 755.00,487.00 755.00,487.00 750.00,491.00 750.00,491.00 753.57,495.03 750.99,495.95 748.89,500.09 743.61,510.52 745.40,511.94 734.00,515.00 734.82,516.51 736.98,519.76 737.26,521.17 738.21,525.84 732.32,533.04 731.70,535.96 730.88,539.81 734.60,540.95 732.77,544.85 732.08,546.31 730.30,547.89 729.25,549.16 729.25,549.16 725.46,554.27 725.46,554.27 723.19,556.27 721.37,555.44 717.00,559.14 710.23,564.89 700.18,576.78 692.00,579.00 695.47,567.80 713.94,558.69 718.99,550.00 720.58,547.26 721.27,544.20 717.85,542.59 716.19,541.82 710.39,541.88 712.17,538.43 712.87,537.07 721.59,532.65 714.78,528.13 713.72,527.43 713.05,527.38 712.00,527.00 712.00,527.00 710.00,536.00 710.00,536.00 703.54,537.10 703.60,540.61 698.96,544.81 694.41,548.94 691.76,548.72 689.39,550.72 684.86,554.55 685.00,561.64 685.00,567.00 698.21,564.86 695.34,551.33 708.00,547.00 710.40,556.31 704.96,555.42 700.75,560.27 700.75,560.27 696.66,566.00 696.66,566.00 693.26,570.17 689.14,573.60 685.00,577.00 689.77,579.25 690.63,579.84 692.00,585.00 689.59,585.20 686.60,585.74 684.56,584.11 683.26,583.08 681.81,579.66 680.66,578.00 676.11,571.44 674.29,573.20 669.74,568.82 668.19,567.33 666.71,564.89 664.17,566.03 662.45,566.80 661.11,569.41 660.26,571.00 660.26,571.00 657.00,578.00 657.00,578.00 657.00,578.00 669.00,577.00 669.00,577.00 670.53,584.15 671.35,584.57 678.00,587.01 671.86,593.05 670.04,587.28 661.00,587.01 653.46,586.80 650.22,587.60 644.00,592.00 657.93,595.39 657.86,588.22 668.00,591.00 668.00,591.00 668.00,593.00 668.00,593.00 664.01,594.22 650.45,598.09 647.00,597.75 642.28,597.29 631.61,592.97 627.00,593.72 621.02,594.68 619.83,598.91 621.00,604.00 607.13,605.83 577.21,605.17 562.00,605.00 555.61,604.92 548.91,605.26 551.00,597.00 552.67,597.95 554.90,599.34 556.72,599.84 561.18,601.08 571.96,599.22 576.00,596.91 576.00,596.91 582.00,592.30 582.00,592.30 584.88,590.24 586.51,589.47 588.00,593.00 588.00,593.00 594.00,588.00 594.00,588.00 594.00,588.00 596.00,593.00 596.00,593.00 600.00,590.35 605.12,588.39 610.00,589.58 610.00,589.58 617.00,592.15 617.00,592.15 620.35,592.34 622.29,589.25 626.00,588.65 628.74,587.98 633.64,589.56 638.00,588.65 644.17,587.66 648.34,581.18 651.00,576.00 651.00,576.00 650.00,575.00 650.00,575.00 642.69,578.49 644.89,577.30 638.00,579.76 631.10,581.77 624.80,586.26 618.00,579.76 625.26,576.64 625.30,578.93 631.00,577.59 637.98,575.95 655.84,566.86 660.27,561.53 661.65,559.87 662.29,557.06 663.00,555.00 671.54,556.43 672.91,553.75 680.00,549.45 688.50,544.28 694.82,540.15 701.99,532.99 704.59,530.38 711.18,522.99 712.92,520.00 712.92,520.00 715.84,514.21 715.84,514.21 718.02,511.21 722.28,509.60 726.44,504.00 728.56,501.15 739.63,477.44 740.59,474.00 742.57,466.90 745.27,450.27 744.96,443.00 744.96,443.00 744.00,428.00 744.00,428.00 744.00,428.00 749.00,427.00 749.00,427.00 745.43,417.57 745.00,415.94 745.00,406.00 745.00,406.00 753.00,409.00 753.00,409.00 749.82,399.89 748.09,399.23 748.00,389.00 748.00,389.00 746.00,389.00 746.00,389.00 745.80,393.46 745.62,400.45 743.00,404.00 743.00,404.00 739.29,387.00 739.29,387.00 739.19,383.43 740.93,381.40 740.33,378.00 739.27,371.95 734.77,372.16 739.00,362.00 Z
           M 527.00,365.00
           C 527.00,365.00 532.00,366.00 532.00,366.00 529.75,370.59 528.70,372.66 524.00,375.00 524.00,375.00 523.00,374.00 523.00,374.00 523.00,374.00 527.00,365.00 527.00,365.00 Z
           M 535.00,365.00
           C 535.00,365.00 545.00,365.00 545.00,365.00 545.00,365.00 545.00,369.00 545.00,369.00 534.34,374.00 530.01,387.98 530.00,399.00 527.95,397.76 522.08,394.67 521.13,392.73 519.68,389.81 522.53,385.27 524.39,383.10 528.87,377.86 534.35,376.12 535.00,365.00 Z
           M 505.00,366.00
           C 505.00,366.00 510.00,366.00 510.00,366.00 510.00,366.00 511.00,375.00 511.00,375.00 505.67,372.48 505.21,371.86 505.00,366.00 Z
           M 629.00,376.00
           C 629.98,368.51 633.92,363.82 640.13,371.19 640.13,371.19 652.53,387.00 652.53,387.00 656.19,392.41 655.24,393.62 661.00,398.00 661.64,395.40 662.15,388.36 664.51,387.17 667.08,385.86 670.46,389.19 669.76,393.96 668.83,400.22 660.07,399.66 661.71,407.00 662.39,410.06 665.34,412.98 666.66,417.00 670.17,427.72 661.74,431.67 673.00,435.00 673.00,435.00 670.00,425.00 670.00,425.00 684.31,427.32 682.56,447.19 677.74,457.00 677.74,457.00 672.65,467.00 672.65,467.00 667.64,477.69 661.01,480.80 652.00,487.21 652.00,487.21 639.00,496.91 639.00,496.91 639.00,496.91 630.21,500.92 630.21,500.92 627.97,502.35 627.05,504.32 624.79,505.25 622.73,506.10 620.22,505.60 618.00,505.88 614.23,506.35 611.38,508.27 605.00,507.91 605.00,507.91 595.00,507.00 595.00,507.00 579.53,506.82 582.13,506.99 568.00,501.46 563.55,499.72 561.09,499.78 557.00,496.61 549.48,490.77 540.70,480.12 553.00,474.00 553.00,474.00 556.00,482.00 556.00,482.00 556.00,482.00 559.00,481.00 559.00,481.00 559.00,481.00 556.00,473.00 556.00,473.00 556.00,473.00 557.00,473.00 557.00,473.00 557.00,473.00 559.00,471.00 559.00,471.00 554.68,468.84 554.88,468.69 550.00,469.00 549.96,457.27 547.43,459.63 546.93,455.00 546.64,452.29 548.98,449.75 549.00,440.00 549.01,432.09 550.36,409.18 554.85,403.23 557.80,399.32 560.48,401.62 565.00,398.93 567.76,397.30 578.82,386.78 581.00,384.00 578.86,383.98 575.24,384.15 573.47,382.83 571.27,381.18 571.98,378.28 574.24,377.39 575.83,376.78 579.39,377.74 580.96,378.33 586.64,380.46 587.11,385.13 592.04,387.84 592.04,387.84 602.00,390.98 602.00,390.98 605.78,393.02 607.46,396.53 612.00,397.06 612.00,397.06 615.77,397.06 615.77,397.06 618.32,397.81 618.79,400.43 616.64,401.99 615.48,402.83 610.74,403.57 609.00,404.00 611.66,406.89 617.35,414.48 616.31,418.72 615.90,420.40 612.43,424.28 611.22,426.00 609.64,428.24 608.39,431.06 605.79,432.27 601.57,434.22 591.72,432.46 587.61,441.02 585.06,446.34 590.93,450.95 593.42,455.00 595.09,457.72 595.44,460.91 596.00,464.00 598.13,462.86 599.41,461.80 601.99,462.41 604.25,462.94 605.74,465.08 608.28,464.48 613.72,463.20 617.31,455.08 618.78,453.82 621.14,451.80 623.99,453.51 627.77,449.77 631.81,445.78 631.99,434.59 632.00,429.00 632.01,424.97 632.32,413.18 631.43,410.00 630.11,405.30 622.59,394.69 618.91,391.30 615.86,388.49 611.15,384.93 607.00,384.22 600.67,383.15 596.62,385.78 591.00,381.00 605.62,375.66 617.55,383.17 628.00,393.02 630.35,395.24 633.78,398.30 635.32,401.09 636.76,403.71 637.35,407.09 638.15,410.00 640.87,422.60 639.93,423.29 638.15,436.00 637.75,440.10 637.38,446.37 635.55,450.00 633.92,453.22 630.58,456.46 628.00,458.99 619.93,466.89 615.97,468.47 606.00,472.86 603.33,474.03 600.02,476.14 597.09,474.87 595.07,474.00 591.61,469.77 590.00,468.00 585.70,463.29 579.21,453.50 578.83,447.00 578.70,444.86 579.56,441.07 580.22,439.00 581.09,436.27 582.31,433.56 584.39,431.53 587.52,428.48 603.16,422.54 606.13,415.96 607.64,412.61 604.54,409.89 603.29,407.00 601.62,403.14 603.21,401.87 602.41,399.82 600.87,395.86 592.76,395.00 589.00,394.00 587.01,401.39 584.23,400.02 578.00,398.00 578.00,398.00 578.00,396.00 578.00,396.00 578.00,396.00 583.00,392.00 583.00,392.00 583.00,392.00 577.00,392.00 577.00,392.00 576.99,394.56 577.25,398.40 575.83,400.59 574.02,403.37 570.17,403.53 566.03,410.00 563.65,413.72 557.54,429.82 557.27,434.00 557.07,437.29 558.67,447.70 559.75,451.00 561.25,455.57 569.08,468.48 572.27,471.62 579.13,478.39 592.32,484.53 602.00,484.05 602.00,484.05 614.00,483.47 614.00,483.47 624.44,481.21 633.73,472.28 641.00,465.00 646.32,459.68 652.22,454.12 655.00,447.00 656.98,447.51 664.89,450.18 665.98,451.59 668.35,454.68 667.52,466.81 659.00,470.00 659.00,470.00 658.00,469.00 658.00,469.00 658.00,469.00 659.45,464.00 659.45,464.00 660.67,460.60 662.42,453.19 655.96,458.28 650.00,462.97 650.09,466.64 642.00,471.00 642.00,471.00 642.00,473.00 642.00,473.00 642.00,473.00 647.00,476.00 647.00,476.00 647.00,476.00 638.00,478.72 638.00,478.72 638.00,478.72 627.00,483.32 627.00,483.32 627.00,483.32 612.00,490.76 612.00,490.76 612.00,490.76 604.00,490.00 604.00,490.00 604.00,490.00 595.00,490.00 595.00,490.00 595.00,490.00 576.00,483.00 576.00,483.00 576.00,483.00 575.00,488.00 575.00,488.00 575.00,488.00 571.26,479.27 571.26,479.27 571.26,479.27 561.00,473.00 561.00,473.00 561.00,473.00 569.00,482.00 569.00,482.00 569.00,482.00 569.00,484.00 569.00,484.00 569.00,484.00 558.00,486.00 558.00,486.00 563.22,492.86 569.25,493.51 577.00,495.55 577.00,495.55 584.00,498.00 584.00,498.00 584.00,498.00 580.00,489.00 580.00,489.00 586.78,491.21 585.56,496.19 593.00,500.47 601.80,505.53 605.09,501.17 610.00,499.54 610.00,499.54 617.00,498.00 617.00,498.00 617.00,498.00 613.00,493.00 613.00,493.00 613.00,493.00 626.00,499.00 626.00,499.00 626.00,499.00 621.00,490.00 621.00,490.00 626.36,490.60 628.82,492.75 632.00,492.31 640.87,491.08 644.79,480.25 651.04,475.57 655.82,471.99 657.92,474.33 660.83,472.95 664.82,471.05 667.99,463.88 669.66,460.00 671.03,456.82 677.68,446.46 675.89,443.46 673.95,440.19 671.57,445.79 671.00,447.00 665.61,444.83 667.34,442.03 668.00,437.00 668.00,437.00 663.00,437.00 663.00,437.00 663.00,437.00 661.00,446.00 661.00,446.00 661.00,446.00 659.00,446.00 659.00,446.00 657.19,439.06 659.60,439.52 659.60,434.00 659.60,434.00 659.60,428.00 659.60,428.00 659.60,428.00 659.60,422.00 659.60,422.00 659.50,409.60 650.44,393.67 641.99,385.00 637.73,380.64 635.20,377.00 629.00,376.00 Z
           M 712.00,367.00
           C 718.27,368.43 717.92,371.44 719.48,377.00 719.48,377.00 722.70,388.00 722.70,388.00 722.70,388.00 723.34,399.00 723.34,399.00 723.34,399.00 726.85,410.00 726.85,410.00 726.85,410.00 726.85,429.00 726.85,429.00 726.98,440.91 724.04,438.94 724.13,443.28 724.18,445.24 726.70,451.57 726.66,456.00 726.62,460.44 724.71,463.11 723.63,467.00 723.63,467.00 722.12,475.00 722.12,475.00 720.98,478.19 718.95,480.18 717.41,483.00 714.09,489.08 717.05,489.21 710.00,494.00 710.00,494.00 710.00,492.00 710.00,492.00 699.90,503.95 696.59,517.07 691.62,522.28 686.03,528.13 670.60,533.79 663.00,538.35 657.97,541.37 656.63,544.38 653.83,545.49 651.70,546.02 649.58,545.00 647.00,545.49 642.12,546.93 643.15,549.26 637.00,548.00 637.00,548.00 641.99,542.74 641.99,542.74 644.49,538.56 642.29,532.69 651.00,530.00 651.00,530.00 651.00,537.00 651.00,537.00 661.49,536.19 664.68,529.09 671.00,528.00 671.00,528.00 666.73,522.00 666.73,522.00 665.59,520.46 663.61,518.29 663.91,516.21 664.27,513.75 669.15,510.84 671.41,512.15 673.53,513.39 673.03,518.75 676.39,521.76 678.26,523.16 679.91,523.03 681.99,521.76 685.97,519.85 691.90,511.43 692.78,507.00 693.31,504.34 692.27,502.40 693.30,500.26 694.87,496.97 697.84,498.12 702.07,489.00 693.27,484.51 699.14,474.68 702.07,473.84 703.81,473.13 705.37,473.66 707.00,473.84 705.26,481.43 701.40,484.10 710.00,489.00 710.00,489.00 711.00,469.00 711.00,469.00 711.00,469.00 710.03,456.00 710.03,456.00 710.03,456.00 710.99,444.00 710.99,444.00 710.99,444.00 710.00,430.00 710.00,430.00 710.00,430.00 710.91,414.00 710.91,414.00 710.91,414.00 709.18,399.00 709.18,399.00 709.18,399.00 713.40,377.00 713.40,377.00 713.40,377.00 712.00,367.00 712.00,367.00 Z
           M 497.00,371.00
           C 507.57,372.81 502.62,380.27 499.68,386.00 499.68,386.00 496.00,394.00 496.00,394.00 496.00,394.00 494.00,394.00 494.00,394.00 494.00,394.00 490.28,382.99 490.28,382.99 490.28,382.99 497.00,371.00 497.00,371.00 Z
           M 655.00,374.00
           C 655.00,374.00 662.00,378.00 662.00,378.00 662.00,378.00 655.00,379.00 655.00,379.00 655.00,379.00 655.00,374.00 655.00,374.00 Z
           M 695.00,374.00
           C 695.00,374.00 697.00,378.00 697.00,378.00 697.00,378.00 695.00,374.00 695.00,374.00 Z
           M 563.00,383.00
           C 561.77,388.71 557.17,393.26 551.00,391.00 548.11,389.94 541.31,387.18 543.28,383.21 544.21,381.33 546.14,380.54 548.02,379.94 548.02,379.94 564.00,375.23 564.00,375.23 566.98,374.90 570.69,376.05 569.34,379.87 568.33,382.76 565.53,382.79 563.00,383.00 Z
           M 734.00,375.00
           C 734.00,375.00 736.00,375.00 736.00,375.00 736.00,375.00 737.00,381.00 737.00,381.00 733.79,379.75 733.92,379.26 733.00,376.00 733.00,376.00 734.00,375.00 734.00,375.00 Z
           M 513.00,376.00
           C 517.88,378.11 520.16,379.42 519.00,385.00 519.00,385.00 517.00,385.00 517.00,385.00 517.00,385.00 513.00,376.00 513.00,376.00 Z
           M 701.00,379.00
           C 701.00,379.00 703.00,379.00 703.00,379.00 703.00,379.00 703.00,390.00 703.00,390.00 698.97,387.19 699.80,383.24 701.00,379.00 Z
           M 424.00,381.00
           C 425.52,381.87 426.69,382.16 427.22,384.14 427.98,387.02 421.62,397.56 419.47,399.69 417.81,401.33 417.07,401.36 415.00,402.00 415.25,394.26 419.87,387.35 424.00,381.00 Z
           M 422.00,408.00
           C 422.00,408.00 428.65,392.04 428.65,392.04 433.33,385.65 442.83,383.87 449.00,389.00 449.00,389.00 435.00,390.00 435.00,390.00 435.00,390.00 426.58,407.36 426.58,407.36 426.58,407.36 422.00,408.00 422.00,408.00 Z
           M 565.00,386.00
           C 565.00,386.00 570.00,390.00 570.00,390.00 570.00,390.00 565.00,391.00 565.00,391.00 565.00,391.00 565.00,386.00 565.00,386.00 Z
           M 677.00,386.00
           C 677.00,386.00 678.00,386.00 678.00,386.00 678.00,386.00 677.00,387.00 677.00,387.00 677.00,387.00 677.00,386.00 677.00,386.00 Z
           M 509.00,399.00
           C 509.00,399.00 518.28,395.65 518.28,395.65 522.86,395.01 525.77,401.19 525.79,405.00 525.86,414.18 517.03,422.25 517.00,435.00 517.00,435.00 515.71,457.89 515.71,457.89 515.27,459.67 514.97,459.68 514.00,461.00 512.09,454.47 510.92,433.44 512.41,427.00 513.46,422.50 515.83,418.29 519.00,415.00 513.46,411.41 515.78,408.57 519.00,404.00 519.00,404.00 509.00,401.00 509.00,401.00 509.00,401.00 509.00,399.00 509.00,399.00 Z
           M 549.00,395.00
           C 554.30,395.91 554.23,398.27 553.00,403.00 553.00,403.00 551.00,403.00 551.00,403.00 551.00,403.00 549.00,395.00 549.00,395.00 Z
           M 678.00,395.00
           C 678.00,395.00 680.00,395.00 680.00,395.00 680.00,395.00 682.29,410.00 682.29,410.00 684.04,418.36 686.64,421.71 684.00,431.00 684.00,431.00 682.00,431.00 682.00,431.00 680.24,425.23 679.93,413.74 677.27,410.22 674.85,407.03 668.22,405.82 670.17,402.16 671.48,399.97 675.08,401.47 677.00,402.16 677.00,402.16 678.00,395.00 678.00,395.00 Z
           M 491.00,397.00
           C 491.00,397.00 494.00,397.00 494.00,397.00 493.73,407.35 488.47,411.29 486.58,417.00 486.58,417.00 485.07,428.00 485.07,428.00 483.67,433.19 481.75,434.89 480.07,439.00 480.07,439.00 476.84,449.00 476.84,449.00 474.95,453.85 476.36,461.08 472.00,464.00 472.00,464.00 471.24,452.00 471.24,452.00 471.24,452.00 473.73,444.00 473.73,444.00 474.19,441.60 473.82,439.07 474.80,436.04 476.19,431.72 479.97,429.15 480.67,425.00 481.58,419.57 475.65,418.77 476.72,415.37 477.44,413.09 480.83,413.14 483.79,410.57 487.49,407.37 489.89,401.67 491.00,397.00 Z
           M 705.00,397.00
           C 708.11,400.38 708.13,401.62 707.00,406.00 707.00,406.00 705.00,406.00 705.00,406.00 703.11,401.69 703.11,401.31 705.00,397.00 Z
           M 405.00,399.00
           C 408.53,403.83 406.93,407.98 401.00,409.00 401.48,403.92 401.92,403.09 405.00,399.00 Z
           M 590.00,402.00
           C 592.12,399.37 593.09,399.47 596.00,401.00 596.00,401.00 590.00,402.00 590.00,402.00 Z
           M 461.00,402.00
           C 461.00,402.00 462.00,402.00 462.00,402.00 462.00,402.00 461.00,403.00 461.00,403.00 461.00,403.00 461.00,402.00 461.00,402.00 Z
           M 537.00,427.00
           C 534.18,422.64 534.45,414.98 535.68,410.00 536.20,407.92 537.65,403.78 540.39,404.72 544.40,405.92 540.74,410.32 540.39,412.17 539.19,415.15 540.78,417.11 540.39,420.00 540.07,422.58 538.37,424.87 537.00,427.00 Z
           M 426.00,418.00
           C 426.59,412.90 427.32,411.35 432.00,409.00 432.00,409.00 426.00,418.00 426.00,418.00 Z
           M 420.00,410.00
           C 420.96,411.08 421.71,411.50 422.06,413.11 422.81,416.61 418.88,424.14 416.00,426.00 416.07,418.43 417.29,416.94 420.00,410.00 Z
           M 503.00,427.00
           C 502.60,425.18 502.19,423.93 502.48,422.00 503.27,416.81 508.78,411.33 514.00,412.00 514.00,412.00 508.75,425.00 508.75,425.00 508.10,427.11 508.13,430.50 506.43,431.91 504.10,433.65 500.53,432.71 498.00,431.91 498.00,431.91 503.00,427.00 503.00,427.00 Z
           M 670.00,413.00
           C 674.28,414.50 674.04,415.89 673.00,420.00 673.00,420.00 671.00,420.00 671.00,420.00 671.00,420.00 670.00,413.00 670.00,413.00 Z
           M 408.00,414.00
           C 408.00,414.00 410.00,414.00 410.00,414.00 410.00,414.00 412.16,426.00 412.16,426.00 414.16,431.89 419.93,440.02 412.16,445.00 412.16,445.00 410.45,434.00 410.45,434.00 408.31,425.45 405.55,427.66 408.00,414.00 Z
           M 620.00,414.00
           C 624.06,415.43 624.71,415.86 626.00,420.00 621.82,418.73 621.27,418.18 620.00,414.00 Z
           M 704.00,416.00
           C 704.00,416.00 706.00,416.00 706.00,416.00 706.00,416.00 706.00,421.00 706.00,421.00 706.00,421.00 704.00,421.00 704.00,421.00 704.00,421.00 704.00,416.00 704.00,416.00 Z
           M 471.00,422.00
           C 471.00,422.00 475.00,421.00 475.00,421.00 475.00,421.00 475.00,426.00 475.00,426.00 471.99,424.92 472.19,424.96 471.00,422.00 Z
           M 397.00,428.00
           C 399.15,428.41 401.00,428.69 402.85,430.01 408.40,433.94 403.96,440.95 399.99,435.81 399.40,435.06 398.85,433.87 398.47,432.99 397.78,431.37 397.40,429.71 397.00,428.00 Z
           M 536.19,433.00
           C 541.81,439.11 534.28,440.12 536.19,450.00 537.25,454.02 540.14,457.42 539.47,460.94 538.93,463.77 537.37,464.21 535.00,465.00 534.96,451.51 526.51,446.46 536.19,433.00 Z
           M 453.00,435.00
           C 453.00,435.00 456.00,435.00 456.00,435.00 458.31,444.64 455.05,446.13 453.19,454.00 452.81,456.73 453.01,462.91 453.19,466.00 452.98,470.72 453.22,477.07 449.00,480.00 449.00,480.00 448.04,471.00 448.04,471.00 448.04,471.00 449.00,462.00 449.00,462.00 449.00,462.00 449.00,453.00 449.00,453.00 449.00,453.00 453.00,435.00 453.00,435.00 Z
           M 617.00,435.00
           C 620.42,436.20 620.38,436.46 621.00,440.00 617.67,438.80 617.78,438.39 617.00,435.00 Z
           M 704.00,435.00
           C 704.00,435.00 707.00,435.00 707.00,435.00 706.80,438.58 706.62,438.96 703.00,439.00 703.00,439.00 704.00,435.00 704.00,435.00 Z
           M 494.00,436.00
           C 494.00,436.00 498.00,436.00 498.00,436.00 498.00,436.00 496.00,446.00 496.00,446.00 493.59,442.28 494.01,440.27 494.00,436.00 Z
           M 484.00,439.00
           C 484.00,439.00 486.00,439.00 486.00,439.00 486.00,439.00 486.00,447.00 486.00,447.00 481.09,445.27 482.14,443.12 484.00,439.00 Z
           M 504.00,447.00
           C 504.06,445.17 504.63,437.78 508.39,440.17 510.13,441.26 509.19,443.67 508.39,445.00 505.94,449.04 502.53,451.27 498.00,452.00 499.29,447.96 499.86,447.69 504.00,447.00 Z
           M 406.00,510.00
           C 403.84,510.77 399.95,512.03 400.45,507.93 400.92,504.05 405.88,502.61 406.99,498.00 406.99,498.00 406.99,489.00 406.99,489.00 406.98,478.03 407.99,466.58 404.47,456.01 403.20,452.20 401.27,451.00 400.62,448.83 399.45,444.89 401.89,442.66 405.00,441.00 406.46,443.99 409.94,452.90 410.64,456.00 412.92,466.20 412.08,500.55 412.00,513.00 411.97,517.82 411.83,520.97 406.98,523.41 405.77,524.03 404.48,524.47 403.10,524.18 398.49,523.21 400.68,518.72 393.00,520.00 393.00,520.00 397.82,528.74 397.82,528.74 397.82,528.74 401.05,532.45 401.05,532.45 401.05,532.45 404.30,538.00 404.30,538.00 409.67,545.19 416.00,551.58 417.00,561.00 421.29,557.67 421.21,556.92 423.00,552.00 423.00,552.00 425.00,552.00 425.00,552.00 425.00,552.00 425.90,559.00 425.90,559.00 425.90,559.00 423.27,566.99 423.27,566.99 423.27,566.99 427.76,573.28 427.76,573.28 427.76,573.28 437.00,584.00 437.00,584.00 435.05,580.10 434.24,579.42 435.00,575.00 435.00,575.00 437.00,575.00 437.00,575.00 442.75,585.92 446.38,583.88 443.00,593.00 443.00,593.00 448.00,591.00 448.00,591.00 454.38,607.27 478.11,617.74 493.00,624.78 493.00,624.78 508.00,633.15 508.00,633.15 513.60,635.34 518.15,632.52 524.00,637.00 524.00,637.00 513.00,644.00 513.00,644.00 513.00,644.00 523.96,643.43 523.96,643.43 523.96,643.43 533.01,647.52 533.01,647.52 533.01,647.52 557.00,649.00 557.00,649.00 557.00,649.00 556.00,642.00 556.00,642.00 556.00,642.00 550.00,645.00 550.00,645.00 550.00,645.00 548.00,634.00 548.00,634.00 548.00,634.00 559.70,635.62 559.70,635.62 562.83,637.11 563.31,645.13 562.26,648.00 561.51,650.06 560.31,651.33 559.00,653.00 559.00,653.00 561.00,657.04 561.00,657.04 553.75,655.40 553.57,657.66 549.00,657.04 549.00,657.04 539.00,654.44 539.00,654.44 527.75,652.63 527.24,655.10 512.00,649.41 504.22,646.50 487.97,637.22 481.09,632.46 481.09,632.46 473.96,626.77 473.96,626.77 473.96,626.77 461.00,618.71 461.00,618.71 446.70,607.54 434.28,593.42 423.41,579.04 423.41,579.04 418.04,572.83 418.04,572.83 413.13,566.58 407.14,557.91 403.23,551.00 403.23,551.00 398.53,541.00 398.53,541.00 398.53,541.00 394.49,533.00 394.49,533.00 394.49,533.00 389.83,526.00 389.83,526.00 389.83,526.00 385.74,516.00 385.74,516.00 384.23,512.87 380.94,507.92 380.30,505.00 379.40,500.93 380.66,495.21 381.00,491.00 387.56,493.18 386.00,499.20 386.00,505.00 386.00,505.00 388.00,505.00 388.00,505.00 389.09,498.79 392.29,500.64 393.38,503.15 394.53,506.75 391.00,508.53 393.38,511.88 394.53,513.15 396.59,514.48 398.00,515.23 403.90,518.39 405.35,515.62 406.00,510.00 Z
           M 621.00,443.00
           C 621.00,443.00 628.00,447.00 628.00,447.00 628.00,447.00 620.00,446.00 620.00,446.00 620.00,446.00 620.00,444.00 620.00,444.00 620.00,444.00 621.00,443.00 621.00,443.00 Z
           M 701.00,444.00
           C 701.00,444.00 703.00,444.00 703.00,444.00 704.39,449.50 706.23,454.30 701.00,458.00 699.68,453.35 699.68,448.65 701.00,444.00 Z
           M 460.00,445.00
           C 461.25,445.44 462.02,445.37 462.98,446.59 462.98,446.59 468.54,462.91 468.54,462.91 468.54,462.91 471.04,467.28 471.04,467.28 472.48,470.36 471.96,475.54 472.00,479.00 472.10,486.21 480.07,507.57 483.93,514.00 487.90,520.62 498.13,527.18 497.00,535.00 490.88,532.08 491.95,530.58 487.83,527.47 484.55,524.99 482.43,526.18 480.43,524.90 477.86,523.27 477.53,516.95 477.00,514.00 477.00,514.00 472.00,516.00 472.00,516.00 472.00,516.00 473.42,509.00 473.42,509.00 473.42,509.00 470.16,493.00 470.16,493.00 470.16,493.00 467.55,486.00 467.55,486.00 467.55,486.00 466.35,476.00 466.35,476.00 466.35,476.00 463.00,469.00 463.00,469.00 462.20,466.68 462.65,465.17 462.20,463.00 460.70,455.67 457.63,458.24 460.00,445.00 Z
           M 612.00,448.00
           C 615.87,447.19 616.64,447.15 618.00,451.00 614.41,450.71 614.19,450.92 612.00,448.00 Z
           M 600.19,450.96
           C 605.30,451.18 603.55,455.01 600.98,455.44 598.62,455.83 596.32,453.51 600.19,450.96 Z
           M 492.00,451.00
           C 492.00,451.00 496.00,475.00 496.00,475.00 496.00,475.00 498.00,471.00 498.00,471.00 498.00,471.00 500.00,471.00 500.00,471.00 501.49,478.21 497.47,477.67 498.35,484.00 498.98,488.58 508.34,507.11 511.39,511.00 513.39,513.56 518.32,518.53 521.00,520.28 521.00,520.28 526.83,523.13 526.83,523.13 531.32,525.91 536.88,531.80 538.00,537.00 533.08,535.56 530.29,533.64 526.00,530.95 511.36,521.78 510.10,519.33 500.91,505.00 498.24,500.84 496.38,498.84 494.46,494.00 492.13,488.11 490.08,475.39 490.00,469.00 489.92,461.85 489.49,457.87 492.00,451.00 Z
           M 498.00,466.00
           C 497.16,460.82 498.35,459.66 502.72,456.79 504.08,455.90 505.85,454.59 507.44,455.82 509.42,457.36 509.00,462.67 509.00,465.00 509.00,465.00 498.00,466.00 498.00,466.00 Z
           M 698.00,458.00
           C 702.17,460.37 702.23,460.73 707.00,460.00 705.01,466.73 701.96,466.57 697.60,471.26 697.60,471.26 689.00,483.00 689.00,483.00 689.00,483.00 695.00,486.00 695.00,486.00 695.00,486.00 695.00,488.00 695.00,488.00 695.00,488.00 678.14,494.89 678.14,494.89 678.14,494.89 675.00,499.00 675.00,499.00 678.28,499.46 683.12,500.13 685.57,502.51 689.64,506.45 688.79,513.30 681.00,515.00 680.15,505.97 675.79,503.22 667.00,504.00 668.31,495.88 676.68,491.00 681.68,485.00 688.38,476.95 692.43,466.79 698.00,458.00 Z
           M 516.00,465.00
           C 516.00,465.00 520.00,465.00 520.00,465.00 521.45,471.86 524.28,476.88 527.51,482.99 528.44,484.75 531.42,489.17 531.10,490.92 530.60,493.66 527.22,495.04 525.00,496.00 525.00,496.00 522.00,488.00 522.00,488.00 522.00,488.00 520.00,488.00 520.00,488.00 520.00,488.00 519.00,492.00 519.00,492.00 513.27,489.52 512.22,488.16 512.00,482.00 512.00,482.00 506.00,485.00 506.00,485.00 503.71,476.65 508.44,473.70 511.63,475.73 513.80,477.11 514.59,480.74 520.00,485.00 520.00,485.00 516.00,465.00 516.00,465.00 Z
           M 540.00,467.00
           C 544.84,470.00 547.05,472.06 546.00,478.00 546.00,478.00 544.00,478.00 544.00,478.00 544.00,478.00 540.00,467.00 540.00,467.00 Z
           M 456.86,470.00
           C 456.86,470.00 459.00,470.00 459.00,470.00 461.90,475.32 466.32,488.06 462.83,493.73 461.23,496.32 455.78,498.85 453.00,500.00 451.58,491.62 457.98,493.14 459.26,487.91 459.94,485.15 457.66,482.79 456.86,480.00 455.55,476.55 456.04,473.40 456.86,470.00 Z
           M 447.00,481.00
           C 450.95,485.30 450.40,488.53 447.00,493.00 445.63,488.17 445.82,485.83 447.00,481.00 Z
           M 1120.00,486.00
           C 1120.00,486.00 1125.00,481.00 1125.00,481.00 1125.00,481.00 1125.00,486.00 1125.00,486.00 1125.00,486.00 1120.00,486.00 1120.00,486.00 Z
           M 600.00,493.00
           C 604.18,491.95 604.89,491.95 608.00,495.00 604.08,496.84 603.95,496.70 600.00,495.00 600.00,495.00 600.00,493.00 600.00,493.00 Z
           M 446.00,496.00
           C 450.89,499.36 449.61,505.77 450.29,511.00 451.08,517.05 454.13,530.66 459.13,534.27 461.69,536.11 465.92,536.58 469.00,537.00 466.00,530.42 463.41,521.65 471.00,517.00 471.08,522.90 476.19,540.61 483.00,529.00 487.31,530.49 492.44,539.24 496.04,543.00 504.91,552.27 513.32,560.29 525.00,565.96 525.00,565.96 542.41,574.64 542.41,574.64 543.58,575.90 543.52,576.54 544.00,578.00 534.30,579.61 517.78,565.52 509.00,563.84 506.65,563.19 505.27,563.58 503.00,563.84 502.46,561.74 502.36,559.04 501.24,557.00 498.20,551.49 489.27,546.57 485.00,536.00 479.22,538.32 478.95,537.27 473.00,537.00 476.74,547.94 484.94,544.29 481.00,554.00 481.00,554.00 479.00,554.00 479.00,554.00 479.00,554.00 464.00,542.00 464.00,542.00 464.00,542.00 461.00,542.00 461.00,542.00 461.09,545.84 465.11,552.53 469.09,553.43 470.77,553.82 473.38,552.58 475.00,552.00 476.07,556.57 475.40,557.66 474.00,562.00 487.93,568.84 483.34,574.24 493.00,572.00 493.00,572.00 498.59,581.37 498.59,581.37 501.65,584.77 508.62,588.08 513.00,589.24 514.57,589.65 517.24,590.79 518.74,590.45 521.05,589.93 520.65,587.95 526.00,586.00 526.00,586.00 527.00,587.00 527.00,587.00 527.00,587.00 527.00,589.00 527.00,589.00 527.00,589.00 524.37,591.31 524.37,591.31 519.94,596.84 527.92,595.25 530.00,601.00 527.31,600.99 524.64,601.08 522.00,600.47 517.47,599.43 514.90,597.40 511.00,595.37 511.00,595.37 505.00,592.60 505.00,592.60 499.17,589.38 488.90,580.71 484.00,575.99 484.00,575.99 466.21,560.00 466.21,560.00 458.01,550.49 455.52,545.44 451.24,534.00 450.06,530.83 449.17,529.58 448.47,526.00 448.47,526.00 446.91,510.00 446.91,510.00 446.91,510.00 446.00,496.00 446.00,496.00 Z
           M 530.00,518.00
           C 536.86,519.21 533.93,522.73 530.98,522.63 527.13,522.50 515.78,510.52 514.53,507.00 512.59,501.58 519.66,496.64 522.26,499.64 523.96,501.61 521.57,504.43 521.52,507.00 521.46,510.38 523.64,512.09 526.00,514.00 526.00,514.00 529.00,507.00 529.00,507.00 529.00,507.00 531.00,507.00 531.00,507.00 532.65,512.52 532.49,512.82 530.00,518.00 Z
           M 528.00,498.00
           C 534.34,499.06 536.46,500.38 537.00,507.00 531.02,506.02 529.65,503.59 528.00,498.00 Z
           M 459.00,500.00
           C 459.00,500.00 464.00,502.00 464.00,502.00 464.00,502.00 460.00,504.00 460.00,504.00 460.00,504.00 459.00,500.00 459.00,500.00 Z
           M 735.00,541.00
           C 735.91,534.33 746.04,515.52 749.78,509.00 752.93,503.51 750.92,501.78 756.00,500.00 757.11,505.72 755.64,508.84 753.22,514.00 749.50,521.93 741.81,535.84 735.00,541.00 Z
           M 453.00,503.00
           C 455.48,505.61 455.45,505.43 455.00,509.00 455.00,509.00 453.00,509.00 453.00,509.00 453.00,509.00 453.00,503.00 453.00,503.00 Z
           M 552.00,517.00
           C 549.37,515.57 541.06,508.90 548.15,506.88 552.42,505.66 558.73,513.04 562.00,515.45 568.56,520.27 577.02,521.96 585.00,522.00 585.00,522.00 617.00,520.93 617.00,520.93 617.00,520.93 627.95,520.93 627.95,520.93 631.22,519.87 631.62,518.04 634.26,516.93 634.26,516.93 640.00,515.41 640.00,515.41 640.00,515.41 650.00,509.59 650.00,509.59 650.00,509.59 660.94,503.87 660.94,503.87 663.28,503.37 664.80,504.64 663.83,507.02 662.25,510.92 655.76,512.83 653.37,515.52 650.66,518.57 652.80,520.02 656.02,520.07 656.02,520.07 660.00,520.07 660.00,520.07 659.29,523.31 656.87,529.03 652.37,526.87 650.59,526.02 648.96,522.89 646.90,521.57 643.66,519.50 640.75,521.35 641.51,525.17 641.51,525.17 643.00,531.00 643.00,531.00 637.70,532.13 633.03,535.27 632.15,541.00 631.53,544.95 633.31,551.14 628.77,553.26 628.77,553.26 611.00,556.07 611.00,556.07 603.04,556.81 591.86,557.86 584.00,556.70 584.00,556.70 572.00,553.33 572.00,553.33 572.00,553.33 562.00,552.47 562.00,552.47 555.83,551.06 551.47,547.49 547.06,543.16 545.62,541.75 543.01,539.59 544.17,537.29 545.64,534.34 549.09,535.95 551.00,537.29 555.18,540.26 562.27,547.08 567.96,546.48 575.07,545.73 570.58,537.49 571.41,535.32 572.12,533.43 574.53,533.00 575.82,534.59 577.17,536.25 576.63,539.05 576.79,541.00 576.79,541.00 576.79,547.00 576.79,547.00 578.67,545.92 580.24,544.89 581.71,543.53 582.96,542.38 586.09,539.14 586.33,537.48 586.91,533.26 574.96,529.65 572.00,528.08 572.00,528.08 560.43,520.65 560.43,520.65 557.41,520.33 556.49,523.82 556.00,526.00 556.00,526.00 560.00,522.00 560.00,522.00 560.00,522.00 558.00,529.00 558.00,529.00 570.17,526.98 565.96,533.02 566.00,541.00 558.07,540.34 560.45,537.58 555.82,534.77 554.16,533.76 550.33,533.59 548.00,533.00 548.00,533.00 553.00,527.00 553.00,527.00 549.38,523.21 550.51,521.64 552.00,517.00 Z
           M 464.00,506.00
           C 470.32,508.22 467.24,513.60 464.75,517.94 463.73,519.70 462.02,522.59 459.58,520.92 458.26,520.03 457.75,517.45 457.31,516.00 457.31,516.00 456.00,511.00 456.00,511.00 456.00,511.00 463.00,514.00 463.00,514.00 463.00,514.00 464.00,506.00 464.00,506.00 Z
           M 437.00,517.00
           C 437.00,517.00 437.00,524.00 437.00,524.00 437.00,524.00 437.00,517.00 437.00,517.00 Z
           M 375.00,522.00
           C 375.00,522.00 377.00,522.00 377.00,522.00 377.00,522.00 376.00,527.00 376.00,527.00 376.00,527.00 375.00,522.00 375.00,522.00 Z
           M 412.00,525.00
           C 412.00,525.00 414.00,525.00 414.00,525.00 414.00,525.00 415.54,530.91 415.54,530.91 415.54,530.91 418.14,535.28 418.14,535.28 421.02,540.25 422.86,545.27 423.00,551.00 417.00,549.03 413.96,541.86 413.00,536.00 413.00,536.00 405.00,537.00 405.00,537.00 405.00,537.00 412.00,525.00 412.00,525.00 Z
           M 480.00,564.00
           C 479.92,560.84 481.24,555.78 484.30,554.06 486.82,552.65 493.42,555.10 495.41,556.92 496.64,558.04 496.53,558.63 497.00,560.00 488.65,560.01 487.45,559.80 480.00,564.00 Z
           M 429.00,559.00
           C 429.00,559.00 431.00,559.00 431.00,559.00 431.00,559.00 432.00,574.00 432.00,574.00 425.60,568.87 425.19,565.91 429.00,559.00 Z
           M 491.00,565.00
           C 491.00,565.00 497.00,569.00 497.00,569.00 493.20,569.00 493.09,567.99 491.00,565.00 Z
           M 502.00,582.00
           C 499.36,574.76 499.41,567.75 508.00,565.00 509.87,572.82 506.79,575.01 504.00,582.00 504.00,582.00 502.00,582.00 502.00,582.00 Z
           M 513.21,571.00
           C 514.75,571.38 516.11,571.49 517.57,572.74 519.67,574.53 520.54,578.29 518.97,580.68 517.67,582.67 514.78,583.22 513.75,580.68 513.37,579.74 513.48,577.14 513.21,576.00 513.21,576.00 513.21,571.00 513.21,571.00 Z
           M 550.00,573.00
           C 555.91,575.01 556.41,577.15 560.00,578.55 563.40,579.60 566.65,578.26 570.00,578.55 575.71,579.44 575.60,582.26 587.00,581.99 597.16,581.74 596.98,577.47 607.00,578.04 612.78,578.37 615.08,580.36 616.00,586.00 616.00,586.00 604.00,584.55 604.00,584.55 604.00,584.55 596.00,586.93 596.00,586.93 596.00,586.93 573.00,586.93 573.00,586.93 574.02,589.79 575.21,593.09 571.77,594.92 568.67,596.58 565.92,593.65 562.00,593.39 562.00,593.39 544.00,595.00 544.00,595.00 545.94,588.60 551.04,587.60 557.00,586.00 557.00,586.00 557.00,584.00 557.00,584.00 549.62,581.16 546.39,581.72 550.00,573.00 Z
           M 523.00,579.00
           C 529.96,577.81 536.12,583.60 538.00,590.00 530.89,589.43 526.30,585.09 523.00,579.00 Z
           M 622.00,599.00
           C 628.08,596.47 635.67,596.20 642.00,598.00 642.00,598.00 642.00,600.00 642.00,600.00 636.80,601.48 626.46,602.28 622.00,599.00 Z
           M 1113.00,599.00
           C 1116.54,598.10 1116.99,597.83 1120.00,600.00 1116.47,600.81 1116.09,600.95 1113.00,599.00 Z
           M 356.00,603.00
           C 356.00,603.00 357.00,603.00 357.00,603.00 357.00,603.00 356.00,604.00 356.00,604.00 356.00,604.00 356.00,603.00 356.00,603.00 Z
           M 361.00,613.00
           C 361.00,613.00 367.00,612.00 367.00,612.00 365.80,615.33 365.39,615.22 362.00,616.00 362.00,616.00 361.00,613.00 361.00,613.00 Z
           M 698.00,630.00
           C 698.00,630.00 699.00,630.00 699.00,630.00 699.00,630.00 698.00,631.00 698.00,631.00 698.00,631.00 698.00,630.00 698.00,630.00 Z
           M 526.00,636.00
           C 530.42,634.75 535.14,633.72 538.00,638.00 532.66,638.96 530.18,640.12 526.00,636.00 Z
           M 577.00,652.00
           C 577.00,652.00 578.00,652.00 578.00,652.00 578.00,652.00 577.00,653.00 577.00,653.00 577.00,653.00 577.00,652.00 577.00,652.00 Z
           M 595.00,660.00
           C 588.92,661.73 579.41,662.08 573.00,662.00 570.97,661.97 565.59,662.10 565.59,659.00 565.59,656.18 570.07,656.03 572.00,656.10 577.22,656.30 590.98,657.40 595.00,660.00 Z" />
</svg>
