<?xml version="1.0" standalone="no"?>
<!DOCTYPE svg PUBLIC "-//W3C//DTD SVG 20010904//EN"
 "http://www.w3.org/TR/2001/REC-SVG-20010904/DTD/svg10.dtd">
<svg version="1.0" xmlns="http://www.w3.org/2000/svg"
 width="300.000000pt" height="86.000000pt" viewBox="0 0 300.000000 86.000000"
 preserveAspectRatio="xMidYMid meet">
<metadata>
Created by potrace 1.10, written by Peter Selinger 2001-2011
</metadata>
<g transform="translate(0.000000,86.000000) scale(0.100000,-0.100000)"
fill="#000000" stroke="none">

<path d="M1850 824 c-12 -29 -23 -82 -35 -164 -4 -25 -7 -99 -7 -165 0 -102 3 -132 25 -200 15 -43 24 -81 22 -83 -8 -8 -164 167 -213 240 -18 26 -60 75 -93 110 -34 35 -86 101 -117 148 -30 47 -58 88 -61 92 -3 4 -4 -43 -3 -105 5 -133 -11 -327 -38 -474 -20 -105 -26 -182 -14 -170 3 3 8 27 10 54 2 26 13 100 23 163 24 138 37 295 34 409 -1 46 2 80 6 75 4 -5 25 -36 46 -69 21 -33 48 -71 59 -84 41 -46 54 -59 62 -62 5 -2 29 -31 54 -64 97 -130 243 -292 285 -317 6 -4 -1 19 -16 50 -51 110 -62 176 -56 339 3 101 12 172 25 223 20 77 21 106 2 54z"/>

<path d="M116 584 c5 -2 9 -18 8 -34 l-2 -29 39 15 c31 13 47 14 86 4 83 -20 100 -20 43 -1 -48 16 -52 19 -31 26 15 4 26 3 31 -5 6 -9 13 -7 29 9 l22 22 -38 -8 c-21 -4 -50 -8 -65 -8 -14 0 -24 -3 -21 -7 6 -10 0 -10 -29 1 -26 9 -89 23 -72 15z m53 -23 c11 -7 9 -10 -8 -16 -25 -8 -36 -2 -26 14 8 13 15 14 34 2z"/>

<path d="M809 572 c11 -8 11 -10 0 -15 -8 -3 7 -6 33 -6 35 -1 48 -5 51 -18 4 -16 5 -16 6 0 1 16 7 18 41 12 26 -4 40 -3 40 4 0 6 -6 11 -12 11 -9 0 -8 4 2 11 11 8 7 9 -15 3 -39 -11 -104 -11 -135 -1 -16 6 -20 5 -11 -1z"/>
<path d="M2955 560 c-11 -5 -43 -9 -72 -9 -64 -1 -83 -8 -83 -31 0 -15 10 -19 66 -22 36 -1 68 0 70 3 6 10 -74 20 -102 13 -20 -5 -25 -3 -22 7 3 9 24 15 64 17 32 2 55 0 51 -4 -4 -4 1 -13 11 -20 16 -12 14 -16 -18 -51 -26 -27 -27 -31 -6 -13 27 24 86 102 86 114 0 8 -21 6 -45 -4z m19 -25 c-15 -23 -33 -37 -19 -15 3 6 1 10 -4 10 -21 0 -11 19 12 23 12 2 23 5 25 6 1 0 -5 -10 -14 -24z"/>
<path d="M2898 483 c-1 -5 -28 -30 -58 -58 -30 -27 -59 -56 -64 -65 -5 -8 23 14 62 49 77 67 89 81 73 81 -5 0 -11 -3 -13 -7z"/>

</g>
</svg>
