<?xml version="1.0" standalone="no"?>
<!DOCTYPE svg PUBLIC "-//W3C//DTD SVG 20010904//EN"
 "http://www.w3.org/TR/2001/REC-SVG-20010904/DTD/svg10.dtd">
<svg version="1.0" xmlns="http://www.w3.org/2000/svg"
 width="300.000000pt" height="239.000000pt" viewBox="0 0 300.000000 239.000000"
 preserveAspectRatio="xMidYMid meet">
<metadata>
Created by potrace 1.10, written by Peter Selinger 2001-2011
</metadata>
<g transform="translate(0.000000,239.000000) scale(0.100000,-0.100000)"
fill="#000000" stroke="none">
<path d="M1452 2229 c3 -9 52 -21 143 -36 77 -13 160 -29 185 -37 25 -7 72 -19 105 -26 33 -6 97 -25 142 -41 45 -16 122 -43 170 -60 48 -17 121 -49 163 -71 41 -23 94 -52 117 -64 71 -38 93 -54 223 -157 139 -111 174 -145 197 -197 33 -73 61 -217 64 -322 2 -131 -17 -364 -37 -448 -21 -87 -72 -248 -90 -283 -8 -16 -14 -37 -14 -47 0 -10 -4 -21 -9 -24 -4 -3 -6 -17 -3 -31 4 -25 -12 -35 -21 -12 -3 7 -6 5 -6 -5 -1 -10 -5 -18 -11 -18 -5 0 -10 -7 -10 -15 0 -8 7 -15 16 -15 8 0 12 -4 9 -10 -3 -5 -17 -10 -30 -10 -25 0 -35 -17 -35 -61 0 -19 5 -29 15 -29 10 0 15 10 15 29 0 23 5 30 23 33 18 2 22 9 21 36 -1 19 3 32 10 32 7 0 25 39 40 87 16 49 42 127 57 175 44 132 59 208 74 368 21 230 14 346 -33 535 -43 172 -75 280 -100 333 -13 28 -13 35 -2 42 11 7 8 22 -17 75 -21 46 -33 61 -36 48 -4 -17 -4 -17 -11 2 -4 11 -14 35 -22 53 -8 19 -10 32 -4 32 6 0 15 -10 20 -22 l9 -23 0 22 c1 16 -6 24 -24 29 -16 4 -25 13 -25 26 0 10 -4 17 -10 13 -5 -3 -17 6 -26 20 -9 14 -25 25 -35 25 -16 0 -12 -9 21 -52 22 -29 40 -59 40 -66 0 -7 9 -31 20 -53 12 -22 18 -48 15 -58 -3 -10 10 -46 30 -84 19 -36 35 -77 35 -91 0 -15 6 -26 13 -26 13 0 18 -12 52 -117 16 -48 3 -58 -19 -15 -8 15 -40 48 -73 74 -125 101 -219 175 -233 181 -8 4 -31 17 -50 28 -19 12 -62 35 -95 52 -33 16 -67 35 -75 42 -26 21 -323 125 -457 159 -147 38 -259 62 -323 70 -25 4 -60 9 -79 12 -26 5 -33 4 -29 -7z m1351 -276 c23 -45 30 -73 17 -73 -6 0 -14 10 -19 23 -13 35 -22 77 -16 77 2 0 11 -12 18 -27z"/>
<path d="M277 2183 c-19 -5 -53 -37 -74 -69 -21 -32 -79 -147 -92 -184 -7 -19 -17 -44 -21 -55 -8 -21 -34 -150 -44 -220 -16 -110 -8 -281 25 -495 30 -201 31 -205 87 -302 11 -20 26 -56 33 -80 21 -71 101 -170 121 -150 12 12 -4 33 -35 45 -10 4 -15 12 -12 18 4 6 -2 20 -12 32 -44 49 -72 154 -88 332 -2 17 -8 61 -13 100 -15 115 -7 281 17 349 74 207 160 326 351 480 144 117 278 175 423 183 110 7 154 -8 230 -80 45 -42 63 -69 91 -137 74 -177 70 -155 72 -405 2 -214 -3 -302 -27 -415 -6 -25 -16 -76 -24 -115 -48 -237 -159 -534 -197 -527 -10 2 -18 -2 -18 -8 0 -5 5 -10 10 -10 6 0 10 -9 10 -20 0 -21 -26 -28 -32 -8 -2 6 -10 8 -16 4 -9 -5 -9 -13 -2 -27 13 -24 5 -40 -16 -32 -9 3 -13 12 -10 22 4 11 2 10 -9 -3 -17 -22 -18 -35 -6 -54 17 -27 66 13 109 87 22 38 43 80 47 93 3 13 12 37 20 53 22 50 83 252 115 385 43 180 58 299 65 521 8 235 1 279 -67 444 -42 101 -58 128 -100 168 -70 67 -100 80 -196 85 -217 12 -444 -110 -664 -355 -72 -80 -151 -226 -184 -338 -22 -79 -25 -418 -4 -450 4 -5 10 -34 14 -63 4 -29 9 -59 12 -67 4 -8 2 -15 -4 -15 -52 0 -122 570 -93 760 15 102 32 171 48 195 7 11 13 31 13 45 0 14 20 58 45 98 25 40 45 76 45 81 0 5 6 14 14 21 8 6 12 18 9 26 -3 9 2 14 14 14 19 0 53 28 53 43 0 7 -5 7 -33 0z"/>
<path d="M1306 1279 c-4 -23 -5 -44 -2 -46 2 -2 7 14 11 37 4 23 5 43 2 46 -2 3 -7 -14 -11 -37z"/><path d="M1277 1163 c-8 -27 -20 -76 -27 -109 -12 -58 -46 -131 -118 -251 -49 -83 -135 -202 -146 -203 -4 0 -29 -22 -55 -50 -26 -27 -52 -50 -58 -50 -6 0 -14 -7 -17 -15 -3 -9 -21 -22 -39 -30 -19 -8 -53 -30 -75 -49 -23 -19 -60 -43 -82 -53 -22 -10 -40 -24 -40 -31 0 -14 -91 -60 -144 -72 -17 -4 -40 -11 -51 -15 -15 -5 -17 -4 -6 3 12 9 12 13 2 26 -14 17 -86 22 -95 8 -13 -21 8 -50 44 -62 75 -25 177 24 450 216 106 75 260 248 314 352 9 17 29 51 46 75 43 64 68 129 96 246 26 108 26 149 1 64z m-890 -916 c-5 -15 -29 -16 -34 -2 -2 6 6 11 18 12 12 1 19 -3 16 -10z"/>
<path d="M2906 1123 c-41 -56 -183 -194 -247 -240 -24 -17 -75 -59 -114 -93 -38 -33 -93 -74 -121 -90 -29 -17 -58 -37 -65 -46 -7 -9 -45 -36 -84 -61 -38 -25 -81 -53 -95 -64 -42 -31 -183 -106 -225 -119 -22 -7 -44 -16 -50 -20 -41 -33 -278 -76 -349 -65 -26 5 -37 4 -31 -3 17 -16 77 -32 89 -23 6 4 47 11 91 14 73 5 136 23 222 62 17 8 36 15 42 15 25 0 358 201 381 230 3 3 42 31 86 62 45 31 110 80 145 108 35 29 93 76 129 105 67 53 190 171 190 180 0 3 12 23 26 45 39 58 22 61 -20 3z"/>
<path d="M320 615 c-10 -12 -10 -15 4 -15 8 0 22 -13 30 -28 20 -39 95 -106 147 -132 52 -26 203 -40 222 -21 8 8 -4 10 -48 5 -48 -5 -72 -2 -117 16 -72 27 -152 86 -185 136 -36 55 -38 57 -53 39z"/>
</g>
</svg>
