<?xml version="1.0" encoding="UTF-8" standalone="no"?>
<!DOCTYPE svg PUBLIC "-//W3C//DTD SVG 20010904//EN"
              "http://www.w3.org/TR/2001/REC-SVG-20010904/DTD/svg10.dtd">

<svg xmlns="http://www.w3.org/2000/svg"
     width="12.5in" height="10.6222in"
     viewBox="0 0 1125 956">
  <path id="Selection #1"
        fill="none" stroke="black" stroke-width="1"
        d="M 0.00,0.00
           C 0.00,0.00 1125.00,0.00 1125.00,0.00
             1125.00,0.00 1125.00,956.00 1125.00,956.00
             1125.00,956.00 0.00,956.00 0.00,956.00
             0.00,956.00 0.00,0.00 0.00,0.00 Z
           M 723.00,349.00
           C 721.87,335.08 723.44,341.10 723.55,332.00
             723.77,330.00 723.99,324.72 723.55,323.09
             722.43,320.49 717.95,316.75 715.83,314.71
             707.08,306.30 705.13,305.17 696.00,298.00
             680.76,286.03 662.73,276.56 644.00,271.54
             644.00,271.54 633.00,269.50 633.00,269.50
             620.76,266.74 608.59,264.86 596.00,265.00
             596.00,265.00 583.00,266.53 583.00,266.53
             579.00,266.57 576.88,264.70 571.00,265.10
             571.00,265.10 563.00,266.35 563.00,266.35
             559.96,266.37 558.98,265.27 555.00,265.76
             555.00,265.76 546.00,267.56 546.00,267.56
             546.00,267.56 524.00,269.91 524.00,269.91
             518.14,270.31 501.57,270.81 497.00,272.70
             492.14,274.70 479.61,283.37 475.00,286.71
             469.80,290.47 462.45,294.95 458.00,299.09
             458.00,299.09 446.00,311.99 446.00,311.99
             446.00,311.99 427.30,327.09 427.30,327.09
             427.30,327.09 416.21,340.09 416.21,340.09
             416.21,340.09 411.30,349.00 411.30,349.00
             411.30,349.00 404.94,358.00 404.94,358.00
             396.96,370.42 392.33,382.92 388.29,397.00
             388.29,397.00 385.25,408.00 385.25,408.00
             385.25,408.00 382.12,417.00 382.12,417.00
             380.55,424.17 381.41,425.96 380.83,432.00
             380.83,432.00 378.00,462.00 378.00,462.00
             377.93,468.70 376.67,484.86 380.00,490.00
             380.00,490.00 382.00,470.00 382.00,470.00
             382.00,470.00 384.00,470.00 384.00,470.00
             387.67,479.79 383.29,493.35 394.70,484.97
             394.70,484.97 398.00,482.00 398.00,482.00
             398.61,489.18 395.95,490.62 391.00,495.00
             398.86,494.73 404.45,489.15 402.58,481.00
             401.91,478.07 399.70,474.50 398.00,472.00
             398.00,472.00 392.00,485.00 392.00,485.00
             385.28,479.26 389.54,476.58 387.44,470.00
             385.79,464.81 383.44,466.10 381.00,454.00
             391.03,455.77 393.05,452.97 391.00,462.00
             396.21,461.10 394.49,460.15 396.22,456.17
             396.89,454.62 398.00,453.34 399.00,452.00
             385.68,452.00 383.51,450.87 386.00,437.00
             386.00,437.00 391.00,440.00 391.00,440.00
             391.00,440.00 392.00,439.00 392.00,439.00
             392.00,439.00 392.00,437.00 392.00,437.00
             388.89,433.67 386.74,424.56 387.00,420.00
             387.00,420.00 390.00,421.00 390.00,421.00
             393.32,413.84 395.65,415.15 400.00,421.00
             400.00,421.00 395.00,423.00 395.00,423.00
             400.22,427.62 402.93,420.94 402.55,418.10
             402.17,415.21 397.27,412.43 395.00,410.00
             395.00,410.00 390.00,413.00 390.00,413.00
             390.66,409.33 393.85,397.68 396.30,395.31
             399.51,392.21 402.81,393.55 405.83,392.42
             408.71,391.34 408.87,389.77 414.00,388.00
             414.12,378.36 416.30,381.35 419.00,374.00
             411.03,377.02 412.10,376.93 409.00,370.00
             408.90,380.80 407.34,384.16 398.00,390.00
             395.61,379.04 406.83,368.47 410.28,359.00
             411.01,357.01 410.97,355.09 412.00,353.17
             412.00,353.17 416.16,347.91 416.16,347.91
             416.16,347.91 420.41,341.04 420.41,341.04
             420.41,341.04 438.52,324.83 438.52,324.83
             440.73,322.83 440.89,321.31 442.64,319.41
             442.64,319.41 447.41,315.51 447.41,315.51
             447.41,315.51 452.10,310.17 452.10,310.17
             452.10,310.17 464.58,300.55 464.58,300.55
             472.67,294.14 494.64,279.54 504.00,276.62
             508.34,275.27 513.49,275.01 518.00,275.09
             518.00,275.09 528.00,275.09 528.00,275.09
             533.96,275.81 538.99,278.39 545.00,276.00
             545.00,276.00 540.00,272.00 540.00,272.00
             549.77,270.41 549.84,280.85 550.00,288.00
             556.39,286.50 556.22,284.52 563.00,286.00
             563.00,286.00 564.00,279.00 564.00,279.00
             564.00,279.00 576.83,281.00 576.83,281.00
             576.83,281.00 576.83,277.00 576.83,277.00
             574.72,267.79 568.76,273.48 564.00,275.88
             561.93,277.14 556.74,279.16 555.60,275.88
             554.29,271.75 562.42,269.54 565.00,268.67
             575.87,265.01 573.61,266.48 584.00,269.98
             586.83,270.93 590.30,271.68 591.10,275.06
             591.84,278.14 589.63,281.57 588.00,284.00
             592.41,285.25 599.71,285.70 604.00,284.00
             604.00,284.00 595.00,282.00 595.00,282.00
             595.00,282.00 595.00,280.00 595.00,280.00
             607.85,275.19 602.99,281.95 617.00,282.00
             617.00,282.00 617.00,278.00 617.00,278.00
             617.00,278.00 603.00,275.33 603.00,275.33
             603.00,275.33 595.00,274.00 595.00,274.00
             600.11,267.76 602.85,270.12 610.00,271.13
             610.00,271.13 629.00,275.33 629.00,275.33
             629.00,275.33 639.00,276.34 639.00,276.34
             639.00,276.34 646.00,278.53 646.00,278.53
             649.83,279.47 658.88,280.62 661.09,284.36
             663.03,287.66 654.74,288.33 653.00,288.25
             648.31,288.03 645.52,282.78 641.04,282.45
             638.71,282.27 636.16,284.16 636.82,286.71
             637.41,288.98 641.09,289.39 643.00,289.89
             643.00,289.89 658.79,294.02 658.79,294.02
             661.23,295.38 662.10,298.12 665.10,298.48
             669.62,299.02 677.50,293.98 682.00,295.51
             690.80,298.50 696.21,304.92 703.00,310.70
             703.00,310.70 715.00,319.00 715.00,319.00
             715.00,319.00 713.00,322.00 713.00,322.00
             713.00,322.00 717.00,320.00 717.00,320.00
             718.11,328.39 720.54,332.94 715.00,340.00
             713.10,334.75 710.85,337.27 707.88,333.69
             702.18,326.82 705.39,314.71 696.00,318.00
             696.00,318.00 701.00,320.00 701.00,320.00
             700.46,322.14 699.48,324.81 699.86,327.00
             700.98,333.55 717.22,345.14 723.00,349.00 Z
           M 513.00,283.00
           C 511.51,278.74 509.59,278.41 506.00,281.00
             506.00,281.00 513.00,283.00 513.00,283.00 Z
           M 531.00,282.00
           C 528.96,279.00 528.45,279.27 525.00,280.00
             525.00,280.00 525.00,282.00 525.00,282.00
             525.00,282.00 526.00,283.00 526.00,283.00
             526.00,283.00 531.00,282.00 531.00,282.00 Z
           M 631.00,279.00
           C 631.00,279.00 623.00,281.00 623.00,281.00
             626.91,282.06 628.58,282.61 631.00,279.00 Z
           M 540.00,283.00
           C 540.00,283.00 535.00,285.00 535.00,285.00
             535.00,285.00 540.00,286.00 540.00,286.00
             540.00,286.00 540.00,283.00 540.00,283.00 Z
           M 524.00,287.00
           C 524.00,287.00 519.00,288.00 519.00,288.00
             519.00,288.00 524.00,287.00 524.00,287.00 Z
           M 493.00,288.00
           C 488.78,295.90 497.22,300.60 488.00,306.00
             488.00,306.00 488.00,309.00 488.00,309.00
             495.20,310.53 502.22,306.47 507.95,302.28
             512.87,298.60 513.28,294.60 507.95,291.00
             506.96,294.26 506.29,298.49 502.95,300.26
             498.87,302.41 494.71,296.28 493.58,293.00
             493.01,291.33 493.06,289.72 493.00,288.00 Z
           M 617.00,289.00
           C 617.00,289.00 587.00,290.00 587.00,290.00
             581.87,290.01 579.10,289.52 575.00,293.00
             575.00,293.00 588.00,294.00 588.00,294.00
             588.00,294.00 587.00,301.00 587.00,301.00
             590.49,301.64 594.96,302.13 597.96,304.01
             601.57,306.27 602.34,309.00 605.21,310.30
             608.52,311.72 612.59,310.34 616.00,310.30
             624.74,310.34 627.38,313.13 636.00,308.00
             632.20,305.77 630.27,306.24 627.00,304.55
             620.95,301.41 618.02,295.45 617.00,289.00 Z
           M 531.00,290.00
           C 531.00,290.00 527.00,293.00 527.00,293.00
             527.00,293.00 531.00,290.00 531.00,290.00 Z
           M 567.00,296.00
           C 562.32,293.28 557.26,294.00 552.00,294.00
             552.00,294.00 550.00,304.00 550.00,304.00
             550.00,304.00 557.00,305.00 557.00,305.00
             553.49,311.23 548.89,307.91 543.00,307.00
             541.02,312.48 539.00,312.62 534.00,315.00
             534.00,315.00 539.00,304.00 539.00,304.00
             532.32,307.16 519.77,320.98 514.58,327.00
             506.25,336.65 506.60,337.00 499.97,346.91
             499.97,346.91 495.99,352.17 495.99,352.17
             495.99,352.17 493.30,359.00 493.30,359.00
             493.30,359.00 483.59,373.00 483.59,373.00
             483.59,373.00 476.88,387.00 476.88,387.00
             476.88,387.00 467.50,403.00 467.50,403.00
             467.50,403.00 460.54,417.00 460.54,417.00
             460.54,417.00 459.22,423.00 459.22,423.00
             458.63,425.12 457.35,427.85 457.35,430.00
             457.35,433.22 461.95,440.27 464.60,442.01
             466.06,442.97 467.36,442.87 469.00,443.00
             469.00,443.00 465.00,436.00 465.00,436.00
             470.51,435.35 473.32,433.40 475.00,428.00
             469.41,429.64 468.40,432.09 466.05,432.38
             459.63,433.18 464.60,424.94 465.10,423.00
             465.89,419.97 464.54,418.38 466.61,415.00
             470.66,408.39 477.87,407.29 481.00,402.00
             479.19,402.15 476.37,402.64 476.32,399.84
             476.29,397.59 479.21,394.67 480.66,391.00
             483.64,383.45 485.42,367.80 496.00,368.00
             496.87,360.46 499.39,360.82 502.78,355.00
             504.34,352.31 504.53,350.63 505.60,348.00
             508.12,341.81 514.90,328.15 521.98,327.09
             527.54,326.26 526.15,331.25 534.00,334.00
             533.35,332.12 531.88,328.99 532.14,327.09
             533.00,320.62 544.63,315.81 550.00,314.00
             552.85,316.83 555.75,313.97 559.00,312.59
             561.59,311.49 567.63,308.79 570.00,308.34
             572.66,307.83 576.66,308.33 578.84,306.98
             583.50,304.08 579.67,299.42 573.00,298.00
             573.00,298.00 576.00,301.00 576.00,301.00
             572.19,308.31 569.47,303.45 563.00,300.00
             563.00,300.00 563.00,298.00 563.00,298.00
             563.00,298.00 567.00,296.00 567.00,296.00 Z
           M 703.00,353.00
           C 702.19,345.99 696.75,341.30 692.39,336.00
             680.87,322.04 664.75,307.67 648.00,300.64
             644.24,299.07 632.80,294.24 629.11,294.62
             627.57,294.78 627.19,295.27 626.00,296.00
             637.08,300.18 637.32,300.89 646.00,309.13
             650.42,303.98 653.65,306.33 659.00,309.13
             663.32,311.62 673.86,320.76 675.98,325.00
             677.01,327.06 676.92,328.80 677.00,331.00
             678.86,331.02 681.22,330.93 682.96,331.60
             690.01,334.31 695.50,348.81 703.00,353.00 Z
           M 524.00,295.00
           C 519.46,295.98 518.41,296.49 517.00,301.00
             517.00,301.00 524.00,295.00 524.00,295.00 Z
           M 688.00,307.00
           C 686.97,301.02 684.47,301.14 679.00,301.00
             680.66,306.01 683.18,306.01 688.00,307.00 Z
           M 676.00,306.00
           C 676.05,309.42 677.41,309.99 680.00,312.00
             680.00,312.00 676.00,306.00 676.00,306.00 Z
           M 483.00,317.00
           C 470.56,316.56 478.26,309.43 466.00,309.00
             466.00,309.00 471.00,317.00 471.00,317.00
             464.91,316.51 451.85,312.57 454.00,322.78
             457.76,321.42 470.25,316.18 472.40,322.78
             472.87,323.95 469.50,336.50 469.00,339.00
             475.35,335.64 473.74,332.51 476.61,327.00
             476.61,327.00 483.00,317.00 483.00,317.00 Z
           M 487.00,309.00
           C 487.00,309.00 477.00,311.00 477.00,311.00
             477.00,311.00 487.00,313.00 487.00,313.00
             487.00,313.00 487.00,309.00 487.00,309.00 Z
           M 693.00,310.00
           C 693.00,310.00 695.00,315.00 695.00,315.00
             695.00,315.00 693.00,310.00 693.00,310.00 Z
           M 656.08,318.00
           C 648.72,316.55 641.02,309.83 634.00,315.00
             646.10,319.11 648.29,321.85 658.00,330.29
             660.65,332.59 668.22,340.03 671.27,340.93
             675.27,342.12 676.38,337.89 677.00,335.00
             677.00,335.00 673.00,339.00 673.00,339.00
             673.00,339.00 656.08,321.83 656.08,321.83
             656.08,321.83 656.08,318.00 656.08,318.00 Z
           M 497.00,316.00
           C 497.00,316.00 494.00,320.00 494.00,320.00
             494.00,320.00 497.00,316.00 497.00,316.00 Z
           M 688.00,320.00
           C 688.00,320.00 685.00,317.00 685.00,317.00
             685.00,317.00 688.00,320.00 688.00,320.00 Z
           M 666.00,326.00
           C 664.01,321.94 663.34,321.29 659.00,320.00
             660.44,324.23 662.01,324.46 666.00,326.00 Z
           M 493.00,321.00
           C 493.00,321.00 488.00,325.00 488.00,325.00
             488.00,325.00 493.00,321.00 493.00,321.00 Z
           M 488.00,325.00
           C 488.00,325.00 487.00,325.00 487.00,325.00
             487.00,325.00 488.00,326.00 488.00,326.00
             488.00,326.00 488.00,325.00 488.00,325.00 Z
           M 448.00,326.00
           C 448.00,326.00 441.00,337.00 441.00,337.00
             445.48,339.08 449.97,340.79 452.00,335.00
             448.28,332.51 449.23,330.26 448.00,326.00 Z
           M 483.00,327.00
           C 483.00,327.00 479.00,327.00 479.00,327.00
             479.00,327.00 480.00,331.00 480.00,331.00
             480.00,331.00 482.00,331.00 482.00,331.00
             482.00,331.00 483.00,327.00 483.00,327.00 Z
           M 752.00,358.00
           C 751.41,352.40 747.69,344.40 743.62,340.46
             743.62,340.46 736.00,334.70 736.00,334.70
             731.93,331.23 731.16,328.91 726.00,327.00
             727.65,332.36 730.16,333.07 733.91,337.01
             733.91,337.01 748.52,356.41 748.52,356.41
             749.90,357.56 750.45,357.50 752.00,358.00 Z
           M 672.00,329.00
           C 672.00,329.00 668.00,329.00 668.00,329.00
             668.00,329.00 672.00,329.00 672.00,329.00 Z
           M 438.00,336.00
           C 428.96,334.53 423.18,344.07 433.00,349.00
             433.00,349.00 438.00,336.00 438.00,336.00 Z
           M 485.00,335.00
           C 484.89,338.83 486.84,341.09 490.00,343.00
             489.45,338.28 489.09,337.48 485.00,335.00 Z
           M 584.00,335.00
           C 584.00,335.00 564.00,337.83 564.00,337.83
             564.00,337.83 543.00,339.00 543.00,339.00
             546.26,344.43 552.34,343.03 558.00,343.00
             566.32,342.96 579.00,342.56 584.00,335.00 Z
           M 619.00,336.00
           C 610.65,334.90 602.30,332.84 601.00,344.00
             604.25,344.44 611.12,345.01 612.69,348.28
             613.95,350.88 611.82,352.13 615.00,359.00
             627.24,352.61 614.52,345.26 610.00,339.00
             610.00,339.00 619.00,336.00 619.00,336.00 Z
           M 531.00,336.00
           C 528.13,338.88 525.96,341.81 527.00,346.00
             529.78,341.62 530.58,341.27 531.00,336.00 Z
           M 728.00,338.00
           C 727.13,340.73 727.42,340.95 730.00,342.00
             730.00,342.00 728.00,338.00 728.00,338.00 Z
           M 447.00,383.00
           C 450.11,372.82 448.08,367.88 450.02,364.00
             451.91,360.22 463.31,350.47 464.22,344.02
             464.87,339.39 458.88,337.90 455.42,339.57
             453.02,340.73 452.56,343.69 452.00,346.00
             452.00,346.00 447.00,345.00 447.00,345.00
             447.00,345.00 441.00,360.00 441.00,360.00
             447.37,365.50 442.82,366.63 443.42,373.00
             443.70,375.97 445.57,380.35 447.00,383.00 Z
           M 519.00,345.00
           C 519.85,339.92 518.96,339.41 514.00,339.00
             514.69,343.14 514.96,343.71 519.00,345.00 Z
           M 629.00,340.00
           C 629.00,340.00 622.00,339.00 622.00,339.00
             624.26,342.23 625.88,342.20 629.00,340.00 Z
           M 679.00,340.00
           C 676.37,343.76 677.44,345.61 682.00,345.00
             682.00,345.00 679.00,340.00 679.00,340.00 Z
           M 597.00,348.00
           C 594.12,345.46 591.22,342.58 587.00,343.47
             580.09,344.94 577.75,351.37 582.00,357.00
             582.99,354.61 584.24,348.14 586.31,347.25
             593.05,344.33 589.50,356.89 597.00,356.89
             598.25,356.89 599.54,356.66 600.61,355.98
             601.52,355.40 602.04,354.73 602.64,353.85
             602.64,353.85 605.00,349.00 605.00,349.00
             600.73,349.93 600.27,350.27 598.00,354.00
             598.00,354.00 594.00,353.00 594.00,353.00
             594.00,353.00 597.00,348.00 597.00,348.00 Z
           M 665.00,371.00
           C 660.70,360.83 655.71,352.48 646.00,346.81
             637.05,341.59 631.12,340.80 626.00,351.00
             626.00,351.00 636.00,352.00 636.00,352.00
             636.00,352.00 634.00,347.00 634.00,347.00
             641.32,346.85 652.31,355.28 656.57,361.00
             660.29,365.99 658.24,368.89 665.00,371.00 Z
           M 732.00,344.00
           C 727.21,350.55 734.31,353.59 727.00,358.00
             727.50,363.53 728.99,368.99 734.10,372.00
             734.10,372.00 734.10,362.00 734.10,362.00
             735.18,354.99 738.06,354.95 732.00,344.00 Z
           M 568.00,358.00
           C 577.67,354.58 573.65,345.54 565.00,347.00
             565.00,347.00 565.00,349.00 565.00,349.00
             565.00,349.00 569.00,353.00 569.00,353.00
             562.09,353.00 556.08,351.46 552.00,358.00
             557.11,357.22 557.58,357.13 562.00,360.00
             556.12,361.76 552.94,362.13 550.00,368.00
             550.00,368.00 564.00,365.19 564.00,365.19
             564.00,365.19 581.00,363.00 581.00,363.00
             581.00,363.00 568.00,360.00 568.00,360.00
             568.00,360.00 568.00,358.00 568.00,358.00 Z
           M 690.00,349.00
           C 690.00,349.00 686.00,347.00 686.00,347.00
             686.00,347.00 690.00,349.00 690.00,349.00 Z
           M 425.00,353.00
           C 423.54,349.07 423.13,348.71 419.00,348.00
             420.85,351.60 421.13,351.83 425.00,353.00 Z
           M 523.00,349.00
           C 523.00,349.00 521.00,349.00 521.00,349.00
             521.00,349.00 516.00,357.00 516.00,357.00
             520.57,356.97 522.79,353.26 523.00,349.00 Z
           M 696.00,350.00
           C 696.00,350.00 693.00,353.00 693.00,353.00
             693.00,353.00 696.00,350.00 696.00,350.00 Z
           M 436.00,352.00
           C 434.26,352.02 433.86,351.65 432.10,352.71
             428.81,354.68 420.05,368.14 419.00,372.00
             433.48,370.65 432.86,362.86 436.00,352.00 Z
           M 537.00,355.00
           C 533.09,357.52 532.65,358.42 532.00,363.00
             535.71,360.77 536.16,359.13 537.00,355.00 Z
           M 695.00,364.00
           C 693.19,357.87 688.51,351.26 684.00,360.00
             684.00,360.00 695.00,364.00 695.00,364.00 Z
           M 652.00,364.00
           C 648.91,357.85 643.36,356.98 637.00,356.00
             637.00,356.00 636.00,359.00 636.00,359.00
             631.04,356.72 628.34,356.31 624.00,360.00
             624.00,360.00 631.00,362.06 631.00,362.06
             631.00,362.06 644.00,367.00 644.00,367.00
             644.00,367.00 644.00,361.00 644.00,361.00
             644.00,361.00 652.00,364.00 652.00,364.00 Z
           M 705.00,356.00
           C 705.00,356.00 704.00,356.00 704.00,356.00
             704.00,356.00 705.00,357.00 705.00,357.00
             705.00,357.00 705.00,356.00 705.00,356.00 Z
           M 706.00,358.00
           C 706.00,358.00 705.00,358.00 705.00,358.00
             705.00,358.00 706.00,359.00 706.00,359.00
             706.00,359.00 706.00,358.00 706.00,358.00 Z
           M 607.00,363.00
           C 602.42,361.49 600.79,361.06 596.00,362.00
             596.00,362.00 596.00,364.00 596.00,364.00
             600.39,365.07 603.17,365.82 607.00,363.00 Z
           M 754.00,361.00
           C 752.62,365.76 757.30,371.59 759.15,376.00
             759.15,376.00 764.04,390.00 764.04,390.00
             764.04,390.00 774.31,413.00 774.31,413.00
             774.31,413.00 775.61,423.00 775.61,423.00
             777.40,433.18 778.98,438.23 779.00,449.00
             779.02,461.06 781.88,460.68 782.00,471.00
             782.14,483.78 779.18,481.90 779.00,498.00
             778.88,508.22 776.48,509.36 775.41,514.00
             775.41,514.00 774.16,526.91 774.16,526.91
             773.55,528.90 772.74,529.62 771.94,531.28
             771.94,531.28 769.85,536.96 769.85,536.96
             769.85,536.96 765.39,543.17 765.39,543.17
             765.39,543.17 759.01,554.00 759.01,554.00
             754.71,561.28 747.99,575.96 742.79,582.00
             742.79,582.00 721.21,600.14 721.21,600.14
             716.69,604.13 717.25,606.82 712.90,610.20
             712.90,610.20 705.00,614.61 705.00,614.61
             705.00,614.61 695.00,621.75 695.00,621.75
             695.00,621.75 689.00,624.91 689.00,624.91
             685.39,627.10 683.50,629.92 676.00,634.40
             676.00,634.40 649.00,647.78 649.00,647.78
             649.00,647.78 640.00,652.63 640.00,652.63
             627.53,658.76 610.92,654.11 602.00,660.00
             602.00,660.00 626.00,662.00 626.00,662.00
             636.16,662.04 634.37,661.98 643.00,657.35
             643.00,657.35 654.00,651.86 654.00,651.86
             654.00,651.86 677.00,640.57 677.00,640.57
             677.00,640.57 693.00,629.56 693.00,629.56
             693.00,629.56 705.00,623.36 705.00,623.36
             705.00,623.36 728.00,602.59 728.00,602.59
             733.54,597.92 739.96,594.39 744.83,589.00
             748.93,584.46 751.96,579.07 755.33,574.00
             765.94,558.06 773.04,545.70 777.91,527.00
             777.91,527.00 779.52,518.00 779.52,518.00
             779.52,518.00 784.43,503.04 784.43,503.04
             785.25,498.13 782.00,497.51 782.13,491.00
             782.13,491.00 783.71,481.00 783.71,481.00
             783.71,481.00 784.95,462.00 784.95,462.00
             784.95,462.00 781.99,440.00 781.99,440.00
             781.99,440.00 781.99,432.00 781.99,432.00
             781.99,432.00 779.37,423.00 779.37,423.00
             779.37,423.00 777.71,412.00 777.71,412.00
             776.02,404.20 770.22,391.58 766.79,384.00
             761.90,373.19 762.31,371.28 754.00,361.00 Z
           M 629.00,366.00
           C 629.00,366.00 624.00,364.79 624.00,364.79
             620.37,363.51 613.99,358.76 611.00,368.00
             621.84,368.91 620.01,372.44 629.00,368.00
             629.00,368.00 629.00,366.00 629.00,366.00 Z
           M 740.85,362.00
           C 733.82,369.06 739.69,371.78 740.85,378.00
             741.36,381.98 739.34,383.83 739.87,388.00
             739.87,388.00 743.00,403.00 743.00,403.00
             743.00,403.00 745.30,393.00 745.30,393.00
             745.30,393.00 746.68,383.00 746.68,383.00
             746.68,383.00 740.85,362.00 740.85,362.00 Z
           M 531.00,365.00
           C 531.00,365.00 528.00,365.00 528.00,365.00
             528.00,365.00 524.00,375.00 524.00,375.00
             528.25,371.80 529.71,370.22 531.00,365.00 Z
           M 545.00,366.01
           C 542.57,365.31 538.85,364.27 536.60,366.01
             534.73,367.48 535.44,369.77 533.14,374.00
             529.79,380.14 520.28,385.47 521.40,391.78
             521.88,394.51 527.61,396.65 530.00,398.00
             530.00,398.00 529.45,393.00 529.45,393.00
             529.45,393.00 536.54,374.59 536.54,374.59
             536.54,374.59 545.00,366.01 545.00,366.01 Z
           M 511.00,374.00
           C 511.00,374.00 510.16,370.06 510.16,370.06
             508.06,363.45 503.21,368.49 507.43,372.28
             508.63,373.36 509.60,373.49 511.00,374.00 Z
           M 661.00,399.00
           C 653.80,393.37 655.79,392.53 651.07,386.00
             651.07,386.00 643.77,377.00 643.77,377.00
             639.45,371.68 639.27,368.84 632.00,368.00
             632.00,368.00 629.00,375.00 629.00,375.00
             636.10,377.12 637.82,379.53 642.91,385.00
             645.73,388.03 652.36,396.54 654.10,400.17
             656.17,404.52 659.97,417.12 660.36,422.00
             660.36,422.00 660.36,434.00 660.36,434.00
             660.07,438.23 659.08,436.96 659.00,445.00
             664.25,441.50 660.21,438.37 668.00,436.00
             668.00,436.00 668.00,446.00 668.00,446.00
             668.00,446.00 672.00,446.00 672.00,446.00
             672.36,443.84 674.50,438.47 676.53,443.20
             677.68,445.88 675.59,449.60 674.46,452.00
             671.82,457.57 666.17,470.97 661.00,474.06
             657.75,476.00 656.17,471.26 650.10,477.11
             645.80,481.26 642.17,489.38 634.00,492.43
             628.10,494.63 627.97,490.43 621.00,491.00
             621.00,491.00 626.00,500.00 626.00,500.00
             626.00,500.00 614.00,493.00 614.00,493.00
             614.00,493.00 617.00,499.00 617.00,499.00
             605.33,499.92 606.92,503.55 601.00,503.63
             591.68,503.75 586.96,494.34 581.00,489.00
             581.00,493.47 582.47,494.48 585.00,498.00
             579.52,497.66 564.12,493.30 560.14,489.70
             558.34,488.08 557.99,487.06 557.00,485.00
             557.00,485.00 568.00,484.00 568.00,484.00
             568.00,484.00 568.00,482.00 568.00,482.00
             562.88,476.94 564.34,474.58 557.00,473.00
             557.30,474.27 558.67,478.27 558.38,479.22
             558.18,479.89 557.63,480.39 556.92,480.47
             554.45,480.72 553.57,476.72 553.00,475.00
             541.63,480.71 550.46,490.32 557.00,495.78
             561.36,499.41 563.23,499.04 568.00,500.92
             568.00,500.92 576.00,504.45 576.00,504.45
             580.33,505.98 594.06,506.99 599.00,507.00
             608.84,507.02 608.31,507.25 618.00,505.37
             618.00,505.37 623.91,504.41 623.91,504.41
             626.32,503.49 627.46,501.75 630.09,500.27
             630.09,500.27 639.00,496.12 639.00,496.12
             639.00,496.12 650.99,487.46 650.99,487.46
             658.53,482.20 666.51,477.30 671.10,469.00
             671.10,469.00 674.23,462.00 674.23,462.00
             674.23,462.00 678.44,454.00 678.44,454.00
             682.32,443.66 682.83,428.77 670.00,425.00
             670.60,427.05 673.09,431.27 672.55,432.79
             671.45,435.88 665.23,433.93 666.30,428.00
             667.29,422.46 667.76,420.53 665.06,415.00
             663.67,412.15 660.96,409.32 660.76,406.00
             660.36,399.61 667.66,399.07 669.22,394.87
             670.64,391.05 667.44,385.98 664.56,388.07
             663.39,388.92 661.84,396.77 661.00,399.00 Z
           M 638.00,548.00
           C 642.59,547.32 642.30,546.63 646.00,545.54
             648.58,544.77 650.22,545.11 653.00,543.91
             653.00,543.91 662.00,538.34 662.00,538.34
             662.00,538.34 672.00,533.25 672.00,533.25
             678.05,530.22 687.00,526.51 691.39,521.56
             691.39,521.56 705.36,497.01 705.36,497.01
             709.13,491.59 710.74,491.64 713.47,488.39
             713.47,488.39 721.35,475.00 721.35,475.00
             721.35,475.00 722.52,469.00 722.52,469.00
             723.95,463.12 726.21,462.21 725.96,455.00
             725.75,449.17 723.49,446.29 723.74,443.00
             723.96,440.12 725.81,438.21 726.79,435.00
             727.16,432.61 727.03,425.78 726.79,423.00
             726.81,407.14 723.84,405.33 722.44,397.00
             721.41,390.88 722.92,388.36 720.69,382.00
             718.41,375.47 719.07,371.04 713.00,370.00
             714.94,384.70 711.46,379.71 710.19,393.00
             710.19,393.00 710.19,406.00 710.19,406.00
             710.19,406.00 711.54,412.00 711.54,412.00
             711.54,412.00 711.00,434.00 711.00,434.00
             711.00,434.00 711.82,444.00 711.82,444.00
             711.82,444.00 711.00,456.00 711.00,456.00
             711.00,456.00 711.00,489.00 711.00,489.00
             701.69,487.00 703.65,481.66 707.00,475.00
             702.07,473.76 699.76,474.66 698.54,480.00
             696.96,486.90 702.14,488.13 700.40,493.00
             699.13,496.55 695.15,498.50 693.92,500.45
             693.22,502.22 693.95,504.12 693.92,506.00
             693.07,510.84 687.60,517.75 684.00,520.86
             682.41,522.23 680.37,523.95 678.10,523.41
             674.07,522.45 672.54,515.45 672.00,512.00
             667.33,512.89 666.18,513.41 663.00,517.00
             663.00,517.00 672.00,529.00 672.00,529.00
             672.00,529.00 651.00,538.00 651.00,538.00
             651.00,538.00 650.00,530.00 650.00,530.00
             645.05,533.96 642.80,537.60 644.00,544.00
             644.00,544.00 638.00,548.00 638.00,548.00 Z
           M 494.00,393.00
           C 497.39,390.82 497.94,388.50 499.66,385.00
             502.55,379.13 505.31,374.91 498.00,371.00
             494.14,378.20 490.82,378.29 490.00,387.00
             493.21,388.93 493.21,389.39 494.00,393.00 Z
           M 657.00,374.00
           C 657.00,374.00 655.00,378.00 655.00,378.00
             655.00,378.00 661.00,378.00 661.00,378.00
             661.00,378.00 657.00,374.00 657.00,374.00 Z
           M 564.98,375.47
           C 564.98,375.47 553.00,379.48 553.00,379.48
             550.48,380.09 547.40,380.02 545.32,381.73
             538.93,387.01 552.21,391.00 555.00,390.72
             559.63,390.24 560.99,386.76 563.45,384.54
             565.13,383.02 574.95,376.98 564.98,375.47 Z
           M 735.00,375.00
           C 733.92,378.03 734.12,378.44 736.00,381.00
             736.00,381.00 735.00,375.00 735.00,375.00 Z
           M 514.00,377.00
           C 514.00,377.00 517.00,384.00 517.00,384.00
             517.00,384.00 519.00,384.00 519.00,384.00
             519.00,384.00 520.00,383.00 520.00,383.00
             520.00,383.00 520.00,381.00 520.00,381.00
             520.00,381.00 514.00,377.00 514.00,377.00 Z
           M 609.00,403.00
           C 610.53,402.79 619.13,401.94 616.83,398.58
             615.23,396.24 612.32,399.22 607.00,395.58
             604.46,393.85 603.13,391.96 600.00,390.73
             597.28,389.66 595.26,390.29 592.00,388.26
             588.55,386.11 585.99,382.29 583.72,380.58
             581.18,378.68 576.13,377.56 573.00,377.00
             571.85,383.86 575.86,383.22 582.00,385.00
             582.00,385.00 565.00,399.52 565.00,399.52
             560.69,402.18 558.41,400.23 555.72,403.32
             550.70,409.09 550.04,428.30 550.00,436.00
             550.00,436.00 547.63,455.00 547.63,455.00
             548.29,460.68 551.62,458.27 550.00,468.00
             551.98,468.14 553.06,468.13 555.00,468.81
             558.36,469.99 570.43,477.21 572.06,480.06
             573.35,482.31 573.09,484.54 573.00,487.00
             574.20,486.25 576.02,484.69 577.26,484.34
             581.92,483.03 587.81,487.51 592.00,488.57
             592.00,488.57 610.00,490.39 610.00,490.39
             615.26,490.39 621.01,485.60 626.00,483.32
             626.00,483.32 646.00,475.00 646.00,475.00
             646.00,475.00 641.00,473.00 641.00,473.00
             641.00,473.00 641.00,471.00 641.00,471.00
             648.84,467.29 649.43,462.83 655.04,458.22
             656.74,456.85 660.24,454.77 661.19,458.22
             661.84,460.53 659.37,463.43 659.00,470.00
             663.68,467.23 669.65,457.90 665.82,452.46
             664.49,450.56 657.38,448.35 655.00,448.00
             652.64,454.03 647.48,459.39 642.99,464.00
             634.69,472.50 625.69,480.86 614.00,484.23
             614.00,484.23 609.00,485.07 609.00,485.07
             609.00,485.07 604.00,486.39 604.00,486.39
             600.12,486.70 591.60,483.63 588.00,481.94
             583.72,479.93 575.59,475.60 572.22,472.53
             568.41,469.06 559.80,454.38 558.50,449.00
             555.77,437.68 556.23,425.12 562.36,415.00
             563.80,412.63 566.50,407.95 568.22,406.11
             573.73,400.20 578.41,402.34 576.00,392.00
             576.00,392.00 583.00,392.00 583.00,392.00
             583.00,392.00 579.00,398.00 579.00,398.00
             580.93,398.41 583.89,399.36 585.74,398.66
             587.53,397.98 588.54,395.94 590.26,395.11
             592.71,393.91 597.63,395.12 599.89,396.45
             604.79,399.32 601.85,402.00 603.26,406.00
             604.55,409.66 609.13,412.68 606.46,416.72
             601.66,423.99 588.34,428.55 585.56,431.55
             583.73,433.53 582.66,437.41 582.04,440.00
             579.31,451.33 581.15,457.09 588.95,466.00
             590.64,467.92 593.77,471.93 596.04,472.85
             598.32,473.78 601.60,472.51 604.00,472.02
             613.10,470.17 619.31,466.35 626.00,459.96
             628.64,457.44 633.18,453.10 634.86,450.00
             636.85,446.35 636.87,442.02 637.33,438.00
             639.09,425.92 640.09,421.12 637.33,409.00
             636.62,406.40 636.17,403.36 634.86,401.01
             633.11,397.87 627.85,393.65 625.00,391.07
             618.29,385.02 611.28,380.24 602.00,380.01
             597.90,379.91 595.40,379.49 592.00,382.00
             592.00,382.00 611.00,384.93 611.00,384.93
             619.83,388.76 631.82,404.17 632.00,414.00
             632.00,414.00 632.00,438.00 632.00,438.00
             631.93,443.33 631.18,449.00 625.96,451.83
             623.45,453.18 620.99,452.60 618.96,454.57
             616.83,456.64 613.99,463.95 608.00,464.85
             603.22,465.57 604.42,461.13 596.00,464.00
             596.00,464.00 593.29,456.00 593.29,456.00
             591.24,452.36 585.10,446.62 586.41,442.00
             586.92,440.20 588.68,438.37 590.02,437.13
             596.57,431.10 600.96,434.21 605.79,431.57
             608.27,430.21 610.34,426.33 612.19,424.00
             613.97,421.75 615.99,420.13 615.73,417.00
             615.39,412.89 610.80,406.75 609.00,403.00 Z
           M 702.00,379.00
           C 700.01,382.99 700.53,384.72 701.00,389.00
             701.00,389.00 703.00,389.00 703.00,389.00
             703.00,389.00 702.00,379.00 702.00,379.00 Z
           M 427.00,382.00
           C 420.61,384.09 415.11,395.54 416.00,402.00
             421.27,397.84 426.60,388.75 427.00,382.00 Z
           M 438.00,387.00
           C 428.85,388.95 428.43,393.54 425.68,401.00
             425.68,401.00 423.00,408.00 423.00,408.00
             429.08,406.96 429.53,400.22 432.18,395.01
             434.04,391.38 435.56,390.09 438.00,387.00 Z
           M 569.00,387.00
           C 569.00,387.00 565.00,387.00 565.00,387.00
             565.00,387.00 566.00,391.00 566.00,391.00
             566.00,391.00 568.00,391.00 568.00,391.00
             568.00,391.00 569.00,387.00 569.00,387.00 Z
           M 762.00,481.00
           C 762.94,477.14 762.98,475.93 763.00,472.00
             763.00,472.00 764.00,452.00 764.00,452.00
             764.00,452.00 763.00,439.00 763.00,439.00
             762.88,428.05 761.02,418.44 757.67,408.00
             756.54,404.49 752.85,390.78 751.02,388.59
             749.99,387.36 749.31,387.46 748.00,387.00
             748.20,396.32 750.10,400.73 754.00,409.00
             749.65,409.15 749.43,408.47 746.00,406.00
             743.95,413.25 747.12,420.33 750.00,427.00
             748.22,427.48 746.16,427.81 744.96,429.51
             743.91,431.29 744.66,434.01 744.96,436.00
             744.96,436.00 744.96,449.00 744.96,449.00
             744.99,455.71 742.61,469.76 740.49,476.00
             740.49,476.00 733.97,491.00 733.97,491.00
             731.72,495.91 727.82,503.93 724.33,507.82
             724.33,507.82 716.70,514.38 716.70,514.38
             714.59,516.88 713.92,522.00 702.96,532.96
             695.11,540.81 681.87,549.68 672.00,554.95
             672.00,554.95 665.09,557.98 665.09,557.98
             665.09,557.98 652.00,568.49 652.00,568.49
             647.20,571.79 633.62,577.82 628.00,578.85
             628.00,578.85 619.00,578.85 619.00,578.85
             621.40,582.59 623.88,582.14 628.00,581.98
             628.00,581.98 651.00,575.00 651.00,575.00
             649.71,581.04 643.42,588.76 637.00,589.76
             633.20,590.35 630.11,588.61 627.00,588.85
             622.71,589.19 620.20,592.48 617.09,592.58
             614.74,592.66 613.47,590.82 609.96,590.22
             604.60,589.30 600.73,590.78 596.00,593.00
             596.00,593.00 592.00,589.00 592.00,589.00
             592.00,589.00 588.00,594.00 588.00,594.00
             588.00,594.00 587.00,590.00 587.00,590.00
             581.18,592.16 581.18,594.77 576.00,597.59
             571.83,599.85 561.67,601.72 557.04,600.59
             557.04,600.59 551.00,598.00 551.00,598.00
             551.00,598.00 550.00,602.00 550.00,602.00
             555.83,604.70 558.79,603.99 565.00,604.00
             565.00,604.00 577.00,604.95 577.00,604.95
             577.00,604.95 593.00,604.95 593.00,604.95
             593.00,604.95 603.00,604.04 603.00,604.04
             603.00,604.04 620.00,604.04 620.00,604.04
             619.82,603.00 619.25,600.56 619.40,599.66
             619.84,596.97 624.43,593.39 627.00,592.97
             627.00,592.97 647.00,596.89 647.00,596.89
             653.16,597.39 660.00,593.99 667.00,592.90
             663.99,588.99 660.12,591.65 656.00,592.90
             650.61,594.11 649.35,593.94 644.00,592.90
             647.33,586.75 657.39,584.90 664.00,586.41
             669.34,587.63 671.66,590.92 677.00,587.00
             669.71,584.31 670.68,584.08 668.00,577.00
             662.40,578.61 661.80,578.91 656.00,578.00
             657.58,575.23 661.43,566.12 664.13,565.34
             667.00,564.50 669.15,567.84 671.28,569.42
             671.28,569.42 675.83,571.96 675.83,571.96
             679.96,574.69 682.64,579.38 684.00,584.00
             684.00,584.00 690.00,583.00 690.00,583.00
             688.81,579.40 688.54,579.31 685.00,578.00
             685.00,578.00 685.00,575.00 685.00,575.00
             694.70,570.85 694.88,565.91 700.75,559.30
             704.72,554.82 706.78,557.52 709.00,549.00
             701.14,548.04 699.23,555.76 695.37,561.00
             692.26,565.21 689.95,566.71 685.00,568.00
             684.54,563.30 684.44,555.97 687.51,552.13
             691.29,547.41 701.08,546.49 705.00,535.00
             705.00,535.00 709.00,536.00 709.00,536.00
             709.00,536.00 713.00,526.00 713.00,526.00
             713.00,526.00 715.84,528.22 715.84,528.22
             721.34,534.01 714.09,534.80 712.00,541.00
             721.55,541.25 723.70,545.20 717.47,552.96
             711.45,560.47 698.47,566.79 693.00,578.00
             699.93,575.64 708.67,566.26 714.00,561.00
             718.70,556.36 728.69,550.00 731.23,545.85
             734.28,541.43 730.15,540.21 731.23,535.99
             731.68,533.13 735.97,528.23 736.56,524.00
             737.00,520.80 734.86,517.31 734.00,514.00
             744.55,512.47 743.24,509.33 747.88,501.01
             750.97,495.50 753.50,494.37 749.00,491.00
             749.00,491.00 756.00,486.00 756.00,486.00
             756.05,490.67 755.69,492.41 759.00,496.00
             758.99,488.40 759.26,480.21 753.00,475.00
             750.29,481.74 747.11,483.82 745.70,488.00
             744.24,492.32 745.97,496.16 743.55,501.00
             740.35,507.39 730.64,512.99 730.82,519.00
             730.89,521.33 732.82,524.02 734.00,526.00
             734.00,526.00 723.00,537.00 723.00,537.00
             722.14,532.39 718.84,526.59 719.52,523.00
             720.08,520.10 729.72,507.86 732.08,504.00
             736.56,496.64 738.68,488.94 741.66,481.00
             741.66,481.00 746.79,471.00 746.79,471.00
             749.69,464.18 746.56,463.04 756.00,457.00
             756.00,457.00 756.00,455.00 756.00,455.00
             748.43,451.85 747.81,447.56 749.00,440.00
             749.00,440.00 751.00,440.00 751.00,440.00
             751.00,440.00 754.00,445.00 754.00,445.00
             756.33,434.27 748.77,437.19 755.00,429.00
             760.60,438.34 758.98,441.48 759.00,452.00
             759.00,452.00 760.00,469.00 760.00,469.00
             760.01,473.73 759.34,476.89 762.00,481.00 Z
           M 515.00,461.00
           C 515.00,461.00 516.00,450.00 516.00,450.00
             516.05,445.44 515.61,432.56 516.56,429.00
             518.50,421.77 524.84,413.33 525.52,406.00
             526.01,400.74 522.35,397.11 518.00,395.00
             515.17,397.86 515.05,398.13 511.00,398.00
             511.05,402.82 514.93,402.45 519.00,403.00
             517.35,407.63 513.82,411.83 520.00,414.00
             510.32,426.49 511.92,432.51 512.91,447.00
             513.29,452.54 512.30,455.71 515.00,461.00 Z
           M 552.00,395.00
           C 552.00,395.00 550.00,395.00 550.00,395.00
             549.32,399.00 549.46,399.87 553.00,402.00
             553.00,402.00 552.00,395.00 552.00,395.00 Z
           M 679.00,395.00
           C 679.00,395.00 677.00,403.00 677.00,403.00
             677.00,403.00 671.00,401.00 671.00,401.00
             670.04,408.41 675.51,404.99 678.57,411.06
             680.54,414.96 680.04,423.89 683.00,431.00
             687.73,423.69 682.86,416.42 681.47,409.00
             680.26,402.58 681.91,402.98 679.00,395.00 Z
           M 493.00,397.00
           C 493.00,397.00 485.40,409.86 485.40,409.86
             485.40,409.86 476.00,417.00 476.00,417.00
             477.19,417.77 478.68,418.59 479.68,419.61
             485.00,424.99 477.09,431.05 475.26,436.04
             473.76,440.14 474.67,442.22 474.18,445.00
             473.48,448.96 470.17,453.04 473.00,463.00
             476.46,457.66 474.01,455.28 475.69,450.00
             475.69,450.00 478.32,444.00 478.32,444.00
             478.32,444.00 480.07,438.00 480.07,438.00
             480.07,438.00 484.25,429.00 484.25,429.00
             486.54,422.07 485.59,419.01 486.56,416.17
             488.81,409.54 494.23,405.20 493.00,397.00 Z
           M 706.00,398.00
           C 703.42,401.59 704.02,402.97 707.00,406.00
             707.00,406.00 706.00,398.00 706.00,398.00 Z
           M 407.00,400.00
           C 407.00,400.00 404.00,400.00 404.00,400.00
             404.00,400.00 402.00,408.00 402.00,408.00
             406.59,406.43 406.57,404.53 407.00,400.00 Z
           M 595.00,400.00
           C 595.00,400.00 590.00,401.00 590.00,401.00
             590.00,401.00 595.00,400.00 595.00,400.00 Z
           M 541.00,404.00
           C 534.50,407.57 533.87,419.86 537.00,426.00
             538.18,424.01 539.34,422.38 539.63,420.00
             540.22,415.21 536.63,413.22 542.00,410.00
             542.00,410.00 541.00,404.00 541.00,404.00 Z
           M 421.00,411.00
           C 418.29,415.34 416.02,419.85 417.00,425.00
             419.75,420.97 422.04,415.86 421.00,411.00 Z
           M 512.00,411.00
           C 506.21,415.64 501.40,419.14 504.00,427.00
             504.00,427.00 499.00,429.00 499.00,429.00
             500.48,433.18 504.55,433.67 506.98,430.44
             507.96,429.14 508.20,425.80 508.73,424.00
             510.33,418.55 513.02,416.90 512.00,411.00 Z
           M 673.00,413.00
           C 673.00,413.00 671.00,413.00 671.00,413.00
             671.00,413.00 671.00,419.00 671.00,419.00
             671.00,419.00 673.00,419.00 673.00,419.00
             673.00,419.00 673.00,413.00 673.00,413.00 Z
           M 410.00,415.00
           C 405.06,421.48 408.97,426.58 410.60,433.00
             410.60,433.00 413.00,444.00 413.00,444.00
             418.35,435.87 413.06,431.58 411.56,426.00
             411.56,426.00 410.00,415.00 410.00,415.00 Z
           M 626.00,419.00
           C 626.00,419.00 620.00,415.00 620.00,415.00
             622.14,418.14 622.31,418.17 626.00,419.00 Z
           M 706.00,417.00
           C 706.00,417.00 704.00,417.00 704.00,417.00
             704.00,417.00 704.00,421.00 704.00,421.00
             704.00,421.00 706.00,417.00 706.00,417.00 Z
           M 474.00,421.00
           C 472.34,423.53 472.34,423.47 474.00,426.00
             474.00,426.00 474.00,421.00 474.00,421.00 Z
           M 404.00,438.00
           C 406.31,431.97 403.77,430.23 398.00,429.00
             399.12,433.72 399.55,435.63 404.00,438.00 Z
           M 538.00,434.00
           C 531.91,437.25 530.95,444.72 532.55,451.00
             532.55,451.00 535.15,458.00 535.15,458.00
             535.15,458.00 536.00,465.00 536.00,465.00
             542.69,458.22 535.03,453.62 535.20,446.00
             535.30,441.69 537.52,440.85 538.00,434.00 Z
           M 455.00,435.00
           C 452.46,438.43 452.93,440.99 451.80,445.00
             448.16,457.88 449.00,465.95 449.00,479.00
             454.57,474.67 452.01,462.20 452.49,456.00
             453.02,449.34 458.16,446.14 455.00,435.00 Z
           M 619.00,435.00
           C 619.00,435.00 620.00,440.00 620.00,440.00
             620.00,440.00 619.00,435.00 619.00,435.00 Z
           M 706.00,435.00
           C 706.00,435.00 704.00,439.00 704.00,439.00
             704.00,439.00 707.00,439.00 707.00,439.00
             707.00,439.00 706.00,435.00 706.00,435.00 Z
           M 497.00,436.00
           C 497.00,436.00 495.00,436.00 495.00,436.00
             494.05,439.98 494.14,441.35 496.00,445.00
             496.00,445.00 497.00,436.00 497.00,436.00 Z
           M 485.00,439.00
           C 482.85,442.35 482.63,443.73 485.00,447.00
             485.00,447.00 485.00,439.00 485.00,439.00 Z
           M 499.00,452.00
           C 503.60,450.19 513.29,443.42 506.00,439.00
             504.14,446.24 505.16,446.10 498.00,449.00
             498.00,449.00 498.00,451.00 498.00,451.00
             498.00,451.00 499.00,452.00 499.00,452.00 Z
           M 417.00,562.00
           C 415.29,551.07 409.52,546.27 403.42,538.00
             403.42,538.00 400.10,532.45 400.10,532.45
             398.31,529.98 392.62,523.95 394.29,520.49
             396.28,516.37 401.07,523.51 403.24,523.85
             404.55,524.05 405.88,523.45 406.98,522.81
             412.18,519.80 411.99,516.29 412.00,511.00
             412.00,511.00 412.00,489.00 412.00,489.00
             412.00,489.00 411.04,477.00 411.04,477.00
             411.04,477.00 411.04,465.00 411.04,465.00
             410.98,459.89 408.62,447.23 405.16,443.59
             404.02,442.39 403.38,442.47 402.00,442.00
             399.17,451.09 402.29,448.66 404.86,456.00
             406.92,461.89 407.99,468.79 408.00,475.00
             408.00,475.00 407.09,491.00 407.09,491.00
             407.22,493.03 408.21,496.83 407.83,498.42
             406.78,502.71 402.50,502.81 400.00,510.00
             400.00,510.00 407.00,509.00 407.00,509.00
             406.63,511.37 405.96,515.59 403.87,517.09
             401.38,518.89 394.19,514.10 392.87,511.91
             390.27,507.61 396.39,502.67 389.00,500.00
             389.00,500.00 386.00,505.00 386.00,505.00
             386.00,498.89 386.74,495.51 382.00,491.00
             381.42,494.20 380.08,501.01 380.64,504.00
             381.29,507.42 384.40,511.74 386.03,515.00
             386.03,515.00 390.44,526.00 390.44,526.00
             390.44,526.00 395.18,533.00 395.18,533.00
             395.18,533.00 399.67,542.00 399.67,542.00
             406.39,557.08 413.34,565.30 423.26,578.09
             433.08,590.75 446.64,606.41 459.00,616.54
             466.19,622.43 468.70,622.51 473.96,626.22
             485.61,634.41 499.53,644.62 513.00,649.32
             523.74,653.06 530.56,652.59 541.00,654.21
             545.63,654.93 546.86,657.00 551.99,656.52
             556.40,656.11 556.08,655.70 561.00,656.00
             561.00,656.00 561.93,646.00 561.93,646.00
             561.93,646.00 561.93,638.00 561.93,638.00
             561.93,638.00 549.00,637.00 549.00,637.00
             549.00,637.00 550.00,644.00 550.00,644.00
             550.00,644.00 557.00,642.00 557.00,642.00
             557.00,642.00 556.23,648.40 556.23,648.40
             556.23,648.40 550.00,649.83 550.00,649.83
             550.00,649.83 531.00,647.46 531.00,647.46
             531.00,647.46 523.00,644.14 523.00,644.14
             523.00,644.14 513.00,645.00 513.00,645.00
             515.97,638.89 518.11,639.57 523.00,636.00
             523.00,636.00 509.00,634.15 509.00,634.15
             509.00,634.15 494.00,625.78 494.00,625.78
             473.38,616.00 460.98,611.67 447.00,592.00
             447.00,592.00 443.00,594.00 443.00,594.00
             443.00,594.00 443.91,587.96 443.91,587.96
             443.59,584.74 437.47,577.35 435.00,575.00
             435.00,575.00 437.00,585.00 437.00,585.00
             434.80,582.78 423.52,570.19 422.92,567.96
             421.01,562.04 429.97,557.86 422.92,553.00
             421.92,558.04 420.97,558.81 417.00,562.00 Z
           M 627.00,447.00
           C 624.87,443.94 623.57,444.21 620.00,444.00
             622.80,446.76 623.12,446.68 627.00,447.00 Z
           M 702.00,444.00
           C 699.43,448.43 699.63,452.19 701.00,457.00
             701.00,457.00 703.00,457.00 703.00,457.00
             704.53,451.61 704.13,449.13 702.00,444.00 Z
           M 463.00,445.00
           C 463.00,445.00 461.00,445.00 461.00,445.00
             458.31,456.05 461.72,458.23 462.69,462.72
             463.23,465.20 462.30,466.18 463.41,469.01
             463.41,469.01 466.98,476.00 466.98,476.00
             468.31,479.87 467.70,482.75 468.39,486.00
             468.39,486.00 471.61,498.00 471.61,498.00
             473.67,508.19 475.83,504.00 473.00,515.00
             473.00,515.00 477.00,514.00 477.00,514.00
             477.00,514.00 480.02,523.60 480.02,523.60
             480.02,523.60 486.91,526.06 486.91,526.06
             486.91,526.06 497.00,534.00 497.00,534.00
             495.29,525.96 485.66,519.86 481.18,510.00
             481.18,510.00 472.14,485.00 472.14,485.00
             472.14,485.00 472.14,476.00 472.14,476.00
             471.98,465.47 470.48,469.09 467.87,462.91
             465.45,457.20 464.09,451.08 463.00,445.00 Z
           M 617.00,451.00
           C 615.87,448.29 615.87,448.55 613.00,448.00
             613.00,448.00 617.00,451.00 617.00,451.00 Z
           M 604.00,452.00
           C 600.13,451.19 599.36,451.15 598.00,455.00
             601.59,454.71 601.81,454.92 604.00,452.00 Z
           M 493.00,453.00
           C 488.87,458.60 490.69,467.55 491.00,474.00
             491.29,480.03 493.13,489.45 495.46,495.00
             497.71,500.33 509.91,517.89 514.04,521.91
             517.11,524.89 519.47,526.22 523.00,528.42
             528.07,531.59 532.04,534.79 538.00,536.00
             531.80,524.69 523.20,523.12 518.00,518.78
             512.27,513.99 506.37,504.77 503.11,498.00
             501.83,495.32 498.05,485.95 497.96,483.28
             497.65,477.67 503.02,475.53 497.96,472.00
             497.96,472.00 496.00,476.00 496.00,476.00
             493.39,469.03 493.00,460.43 493.00,453.00 Z
           M 508.00,455.00
           C 502.15,456.71 497.32,459.35 499.00,466.00
             499.00,466.00 501.00,466.00 501.00,466.00
             506.83,460.87 509.98,466.28 508.00,455.00 Z
           M 700.00,459.00
           C 700.00,459.00 697.00,459.00 697.00,459.00
             694.60,465.85 686.35,480.54 681.70,486.00
             676.87,491.67 670.22,496.18 667.00,503.00
             677.80,503.24 679.47,505.12 682.00,515.00
             686.60,512.32 689.37,506.79 684.69,502.56
             682.52,500.61 676.91,499.59 674.00,499.00
             678.76,492.53 679.26,493.58 686.00,491.05
             686.00,491.05 694.00,488.00 694.00,488.00
             694.00,488.00 689.00,484.00 689.00,484.00
             694.60,470.17 703.13,468.11 707.00,460.00
             703.29,461.19 703.01,461.76 700.00,459.00 Z
           M 403.00,461.00
           C 403.00,461.00 401.00,461.00 401.00,461.00
             401.00,461.00 400.00,471.00 400.00,471.00
             403.70,467.48 403.96,465.94 403.00,461.00 Z
           M 519.00,465.00
           C 519.00,465.00 517.00,465.00 517.00,465.00
             514.80,474.95 519.67,474.67 520.00,485.00
             515.19,482.50 514.13,479.78 512.00,475.00
             506.31,476.24 504.69,478.18 506.00,484.00
             506.00,484.00 512.00,481.00 512.00,481.00
             513.17,487.09 513.29,487.86 518.00,492.00
             518.00,492.00 520.00,488.00 520.00,488.00
             520.00,488.00 522.00,488.00 522.00,488.00
             522.00,488.00 525.00,496.00 525.00,496.00
             525.00,496.00 532.00,490.00 532.00,490.00
             525.66,482.86 522.05,473.93 519.00,465.00 Z
           M 541.00,468.00
           C 541.00,468.00 540.00,468.00 540.00,468.00
             540.00,468.00 541.00,469.00 541.00,469.00
             541.00,469.00 541.00,468.00 541.00,468.00 Z
           M 542.00,469.00
           C 541.06,472.93 542.71,475.02 546.00,477.00
             545.49,472.64 545.27,471.97 542.00,469.00 Z
           M 400.00,471.00
           C 400.00,471.00 399.00,471.00 399.00,471.00
             399.00,471.00 400.00,472.00 400.00,472.00
             400.00,472.00 400.00,471.00 400.00,471.00 Z
           M 459.00,471.00
           C 459.00,471.00 457.07,471.00 457.07,471.00
             456.17,474.47 455.64,476.56 457.07,480.00
             458.17,482.40 460.75,485.15 460.18,487.91
             459.17,492.73 453.75,490.80 453.00,500.00
             453.00,500.00 462.01,494.28 462.01,494.28
             465.34,489.88 461.19,475.62 459.00,471.00 Z
           M 448.00,482.00
           C 446.70,485.27 446.70,488.73 448.00,492.00
             448.00,492.00 448.00,482.00 448.00,482.00 Z
           M 607.00,493.00
           C 607.00,493.00 601.00,493.00 601.00,493.00
             602.99,495.97 603.51,495.71 607.00,496.00
             607.00,496.00 607.00,493.00 607.00,493.00 Z
           M 447.96,497.00
           C 445.81,502.53 447.49,509.25 447.96,515.00
             448.22,519.22 448.33,522.80 449.30,527.00
             452.03,538.80 460.79,554.27 469.17,562.91
             469.17,562.91 481.00,572.30 481.00,572.30
             481.00,572.30 494.00,584.08 494.00,584.08
             500.28,589.25 510.49,595.41 518.00,598.76
             522.25,600.28 525.91,601.52 530.00,598.76
             530.00,598.76 526.02,597.68 526.02,597.68
             518.33,594.61 524.61,590.93 527.00,587.00
             520.71,588.07 521.98,590.43 518.88,591.14
             517.40,591.48 509.48,589.19 508.00,588.43
             506.08,587.45 499.80,583.17 498.46,581.63
             494.95,577.57 496.23,572.20 487.00,575.00
             487.00,575.00 480.00,566.21 480.00,566.21
             480.00,566.21 474.81,560.79 474.81,560.79
             474.81,560.79 476.00,554.00 476.00,554.00
             476.00,554.00 475.00,553.00 475.00,553.00
             473.38,553.58 470.77,554.82 469.09,554.43
             466.49,553.85 461.41,547.54 460.89,545.00
             460.38,543.41 460.76,542.49 460.89,541.00
             467.63,544.99 473.77,546.97 479.00,553.00
             479.00,553.00 481.00,553.00 481.00,553.00
             482.72,544.72 477.31,548.62 472.00,537.00
             479.64,536.41 479.41,538.38 485.00,535.00
             487.57,540.67 489.74,543.50 494.04,548.00
             499.24,553.45 503.55,555.06 502.00,563.00
             514.00,562.00 523.05,571.12 534.00,575.08
             538.49,576.71 539.04,578.03 544.00,577.00
             539.94,572.68 537.95,573.25 533.17,570.78
             533.17,570.78 513.00,559.41 513.00,559.41
             505.12,554.04 495.42,543.42 489.22,536.00
             489.22,536.00 484.00,529.00 484.00,529.00
             483.21,530.18 482.45,531.58 481.39,532.55
             474.50,538.89 471.05,522.21 471.00,518.00
             463.26,523.02 466.54,530.70 470.00,537.00
             466.39,536.99 462.25,537.24 459.11,535.15
             455.68,532.86 454.53,528.68 453.22,525.00
             449.13,513.54 449.95,507.88 447.96,497.00 Z
           M 530.00,498.00
           C 528.86,502.77 531.82,505.43 536.00,507.00
             536.00,507.00 537.00,506.00 537.00,506.00
             535.33,501.23 534.15,500.66 530.00,498.00 Z
           M 523.00,499.00
           C 521.64,499.11 520.35,499.08 519.04,499.60
             509.43,503.40 518.16,511.10 521.99,515.00
             526.07,519.16 529.03,524.37 535.00,520.00
             535.00,520.00 529.00,516.00 529.00,516.00
             532.05,512.87 531.88,512.20 531.00,508.00
             531.00,508.00 529.00,508.00 529.00,508.00
             529.00,508.00 526.00,515.00 526.00,515.00
             518.00,506.70 520.85,508.17 523.00,499.00 Z
           M 463.00,503.00
           C 461.41,500.74 461.42,500.61 459.00,502.00
             459.00,502.00 463.00,503.00 463.00,503.00 Z
           M 755.00,500.00
           C 755.00,500.00 746.10,517.00 746.10,517.00
             746.10,517.00 736.00,539.00 736.00,539.00
             740.50,535.41 742.34,531.82 745.30,527.00
             749.88,519.51 757.50,509.10 755.00,500.00 Z
           M 455.00,504.00
           C 455.00,504.00 453.00,504.00 453.00,504.00
             453.00,504.00 453.00,508.00 453.00,508.00
             453.00,508.00 455.00,508.00 455.00,508.00
             455.00,508.00 455.00,504.00 455.00,504.00 Z
           M 665.00,504.00
           C 654.57,504.80 641.00,517.69 630.00,520.96
             624.75,522.52 616.66,522.00 611.00,522.00
             611.00,522.00 580.00,522.00 580.00,522.00
             572.19,521.90 564.90,518.94 559.00,513.82
             556.49,511.64 551.88,505.92 548.16,507.40
             541.93,509.87 550.69,515.75 553.00,517.00
             550.82,522.28 550.69,523.25 554.00,528.00
             554.00,528.00 549.00,533.00 549.00,533.00
             551.26,533.03 553.78,532.87 555.82,534.02
             560.49,536.67 559.16,540.86 566.00,540.00
             565.26,533.42 569.15,526.77 558.00,530.00
             558.00,530.00 560.00,523.00 560.00,523.00
             560.00,523.00 557.00,526.00 557.00,526.00
             557.00,526.00 554.00,525.00 554.00,525.00
             555.52,523.09 557.26,520.35 560.01,520.32
             562.25,520.30 565.23,522.84 567.00,524.12
             569.00,525.56 570.77,526.88 573.00,528.00
             576.14,529.58 584.41,532.22 586.12,535.49
             588.67,540.38 579.80,546.04 576.00,547.00
             576.00,547.00 576.00,534.00 576.00,534.00
             576.00,534.00 571.00,534.00 571.00,534.00
             571.00,534.00 572.57,541.00 572.57,541.00
             572.78,543.01 572.50,544.78 570.69,545.98
             565.69,549.29 557.59,543.11 554.00,540.05
             552.76,538.99 551.42,537.73 550.00,537.10
             548.44,536.00 545.40,534.85 544.49,537.10
             543.65,539.55 546.62,541.84 548.02,543.16
             553.18,548.03 556.00,550.44 563.00,552.24
             563.00,552.24 574.00,553.39 574.00,553.39
             574.00,553.39 582.00,555.79 582.00,555.79
             587.86,556.67 610.10,556.15 616.00,555.00
             616.00,555.00 628.72,552.42 628.72,552.42
             633.34,550.13 630.95,544.14 631.31,541.00
             631.96,535.35 636.89,532.09 642.00,531.00
             642.00,531.00 640.85,525.00 640.85,525.00
             640.46,521.01 643.29,518.72 646.95,520.79
             648.67,521.77 655.73,531.87 658.79,522.89
             658.79,522.89 658.79,520.00 658.79,520.00
             655.63,520.49 648.94,520.52 653.29,515.18
             657.60,509.89 662.06,512.41 665.00,504.00 Z
           M 466.00,506.00
           C 466.00,506.00 463.00,515.00 463.00,515.00
             463.00,515.00 457.00,511.00 457.00,511.00
             457.00,511.00 459.00,522.00 459.00,522.00
             465.48,519.94 467.67,512.10 466.00,506.00 Z
           M 414.00,526.00
           C 414.00,526.00 412.00,526.00 412.00,526.00
             412.00,526.00 405.00,537.00 405.00,537.00
             405.00,537.00 413.00,535.00 413.00,535.00
             414.50,540.46 417.06,547.84 422.00,551.00
             421.87,537.96 415.40,536.52 414.00,526.00 Z
           M 736.00,539.00
           C 736.00,539.00 735.00,539.00 735.00,539.00
             735.00,539.00 736.00,540.00 736.00,540.00
             736.00,540.00 736.00,539.00 736.00,539.00 Z
           M 497.00,558.00
           C 488.31,553.50 483.00,551.51 480.00,563.00
             480.00,563.00 497.00,558.00 497.00,558.00 Z
           M 432.00,573.00
           C 431.61,568.24 432.02,563.76 427.00,562.00
             427.13,567.20 427.17,570.18 432.00,573.00 Z
           M 493.00,565.00
           C 493.00,565.00 492.00,565.00 492.00,565.00
             492.00,565.00 493.00,566.00 493.00,566.00
             493.00,566.00 493.00,565.00 493.00,565.00 Z
           M 507.00,565.00
           C 500.26,570.40 500.60,574.15 502.00,582.00
             504.30,580.41 508.30,572.81 508.34,569.96
             508.36,568.04 507.67,566.71 507.00,565.00 Z
           M 494.00,566.00
           C 494.00,566.00 496.00,570.00 496.00,570.00
             496.00,570.00 494.00,566.00 494.00,566.00 Z
           M 513.00,581.00
           C 522.36,583.43 521.11,573.36 513.00,572.00
             513.00,572.00 513.00,581.00 513.00,581.00 Z
           M 616.00,585.00
           C 613.72,579.53 609.96,577.57 604.00,578.20
             598.72,578.76 592.90,583.47 584.00,582.82
             576.51,582.27 573.98,579.83 570.00,579.14
             566.05,578.63 563.17,580.10 560.00,579.14
             556.37,577.86 555.85,575.67 550.00,574.00
             550.00,574.00 548.00,580.00 548.00,580.00
             548.00,580.00 551.96,581.62 551.96,581.62
             560.76,586.31 548.39,589.13 546.59,590.84
             545.39,591.98 545.47,592.62 545.00,594.00
             545.00,594.00 563.00,593.21 563.00,593.21
             565.58,593.54 569.35,595.37 571.84,593.94
             574.47,592.20 572.97,589.24 571.84,587.00
             571.84,587.00 593.00,586.29 593.00,586.29
             593.00,586.29 604.00,584.25 604.00,584.25
             604.00,584.25 616.00,585.00 616.00,585.00 Z
           M 537.00,590.00
           C 535.11,583.58 530.56,579.92 524.00,579.00
             526.22,584.38 531.30,588.75 537.00,590.00 Z
           M 641.00,598.00
           C 634.31,596.37 629.46,596.64 623.00,599.00
             627.85,602.14 635.57,601.32 641.00,600.00
             641.00,600.00 641.00,598.00 641.00,598.00 Z
           M 538.00,637.00
           C 534.05,634.70 529.85,633.75 527.00,638.00
             527.00,638.00 538.00,637.00 538.00,637.00 Z
           M 593.00,659.00
           C 583.78,658.25 574.13,655.41 565.00,658.00
             565.00,658.00 565.00,660.00 565.00,660.00
             570.83,661.66 587.84,662.00 593.00,659.00 Z" />
</svg>
