<?xml version="1.0" standalone="no"?>
<!DOCTYPE svg PUBLIC "-//W3C//DTD SVG 20010904//EN"
 "http://www.w3.org/TR/2001/REC-SVG-20010904/DTD/svg10.dtd">
<svg version="1.0" xmlns="http://www.w3.org/2000/svg"
 width="192.000000pt" height="300.000000pt" viewBox="0 0 192.000000 300.000000"
 preserveAspectRatio="xMidYMid meet">
<metadata>
Created by potrace 1.10, written by Peter Selinger 2001-2011
</metadata>
<g transform="translate(0.000000,300.000000) scale(0.100000,-0.100000)"
fill="#000000" stroke="none">

<path d="M927 2851 c-15 -27 -34 -54 -42 -61 -8 -7 -15 -19 -15 -27 0 -7 -8 -26 -18 -41 -59 -87 -94 -143 -120 -192 -15 -30 -41 -75 -57 -100 -16 -25 -41 -67 -55 -95 -15 -27 -39 -71 -54 -97 -41 -71 -26 -82 18 -14 21 32 42 68 47 80 5 12 14 30 21 41 7 11 36 59 65 106 29 48 53 93 53 101 0 8 5 19 11 25 6 6 16 20 23 31 6 11 37 62 69 113 88 144 99 166 88 173 -4 3 -20 -16 -34 -43z"/>
<path d="M413 2513 c-12 -2 -27 -11 -33 -19 -7 -8 -19 -14 -26 -14 -8 0 -14 -5 -14 -10 0 -12 -33 -61 -67 -98 -26 -30 -98 -190 -89 -199 11 -11 22 8 46 75 13 34 27 65 31 68 5 3 9 14 9 25 0 11 7 19 16 19 16 0 44 23 44 37 1 21 68 84 97 89 31 6 31 6 42 -47 17 -83 30 -287 21 -319 -5 -16 -22 -46 -38 -67 -47 -59 -158 -265 -187 -345 -23 -66 -36 -96 -97 -224 -11 -22 -37 -60 -59 -83 -43 -48 -45 -51 -26 -51 14 0 87 92 87 110 0 5 7 10 15 10 8 0 15 6 15 13 0 15 46 115 62 134 6 7 12 30 14 50 1 21 16 63 32 93 72 135 102 189 136 244 20 33 36 63 36 68 0 4 4 8 9 8 4 0 11 -41 15 -92 13 -193 62 -287 235 -455 92 -88 161 -135 161 -110 0 8 -15 24 -34 35 -55 33 -146 116 -146 133 0 6 -26 38 -58 72 -91 96 -131 215 -138 412 -6 143 -5 124 -15 251 -9 111 -23 173 -43 186 -11 8 -17 8 -53 1z"/>
<path d="M1242 2078 c-7 -7 -12 -17 -12 -24 0 -18 39 -5 51 17 8 15 6 19 -9 19 -10 0 -23 -5 -30 -12z"/>
<path d="M1225 1922 c-5 -4 -12 -16 -13 -27 -5 -27 -11 -32 -21 -16 -13 21 -19 2 -25 -81 -3 -42 -11 -89 -16 -103 -15 -40 -13 -115 3 -115 17 0 127 72 127 83 0 13 -43 -4 -73 -29 -33 -27 -47 -30 -47 -9 0 33 53 222 71 253 26 46 24 66 -6 44z"/>
<path d="M1755 1513 c-9 -32 -32 -89 -51 -127 -19 -39 -34 -73 -34 -77 0 -5 -13 -28 -29 -51 -17 -24 -39 -68 -51 -97 -22 -57 -173 -365 -188 -384 -5 -7 -22 -45 -37 -84 -15 -40 -36 -80 -47 -89 -10 -10 -18 -24 -18 -32 0 -8 -15 -46 -34 -86 -19 -39 -46 -96 -59 -126 -14 -31 -41 -91 -61 -134 -39 -85 -44 -116 -21 -116 8 0 15 7 15 15 0 15 16 57 55 140 13 28 33 73 45 100 23 53 77 170 90 195 11 22 40 24 75 6 19 -11 50 -50 89 -114 96 -158 117 -185 164 -216 66 -43 172 -56 172 -21 0 8 -17 12 -56 11 -30 0 -58 4 -62 10 -4 6 -21 18 -38 27 -34 17 -68 58 -111 133 -59 103 -69 118 -101 154 -18 21 -46 43 -62 50 -35 15 -37 25 -11 77 11 21 63 128 116 238 53 110 117 241 142 290 25 50 57 115 73 145 43 87 60 129 60 153 1 21 1 21 15 3 8 -11 17 -17 20 -15 9 9 -18 79 -31 79 -7 0 -20 -26 -29 -57z"/>
<path d="M684 1125 c8 -33 25 -228 22 -270 -1 -40 28 -42 32 -2 2 18 13 32 31 42 39 20 87 154 61 170 -10 6 -73 -52 -97 -91 -10 -16 -12 -8 -13 51 -2 82 -10 117 -29 123 -11 4 -12 -2 -7 -23z m126 -115 c0 -22 -33 -89 -46 -94 -27 -10 -27 24 1 64 27 39 45 51 45 30z"/>
</g>
</svg>
