<?xml version="1.0" standalone="no"?>
<!DOCTYPE svg PUBLIC "-//W3C//DTD SVG 20010904//EN"
 "http://www.w3.org/TR/2001/REC-SVG-20010904/DTD/svg10.dtd">
<svg version="1.0" xmlns="http://www.w3.org/2000/svg"
 width="300.000000pt" height="255.000000pt" viewBox="0 0 300.000000 255.000000"
 preserveAspectRatio="xMidYMid meet">
<metadata>
Created by potrace 1.10, written by Peter Selinger 2001-2011
</metadata>
<g transform="translate(0.000000,255.000000) scale(0.100000,-0.100000)"
fill="#000000" stroke="none">
<path d="M2591 2534 c0 -11 3 -14 6 -6 3 7 2 16 -1 19 -3 4 -6 -2 -5 -13z"/>
<path d="M1610 1966 c0 -2 7 -6 15 -10 8 -3 15 -1 15 4 0 6 -7 10 -15 10 -8 0
-15 -2 -15 -4z"/>
<path d="M1470 1839 c-25 -4 -66 -8 -92 -8 -38 -1 -58 -9 -110 -44 -181 -124
-261 -279 -257 -496 1 -80 4 -92 42 -163 55 -105 132 -195 215 -251 85 -57
107 -66 174 -69 47 -3 53 -1 56 18 2 15 -3 23 -17 27 -14 3 -21 0 -21 -8 0 -8
8 -16 18 -18 27 -7 -42 -8 -77 -1 -25 5 -29 9 -20 20 9 11 7 14 -8 14 -43 0
-182 90 -190 123 -1 4 -7 15 -13 25 -10 15 -11 15 -5 -2 6 -20 6 -20 -15 -1
-14 13 -20 28 -17 43 3 16 1 20 -6 13 -7 -7 -21 6 -44 42 -35 55 -42 77 -18
57 28 -24 37 3 34 99 -3 57 -9 95 -17 103 -11 11 -12 8 -7 -14 5 -18 3 -28 -4
-28 -6 0 -11 7 -11 15 0 8 -7 15 -15 15 -8 0 -15 7 -15 15 0 8 5 15 10 15 7 0
7 7 0 20 -11 21 -6 40 12 40 5 0 8 -6 5 -14 -3 -8 0 -22 8 -32 12 -17 13 -15
10 16 -2 24 -8 36 -19 38 -11 2 -15 10 -12 19 3 8 6 19 6 24 0 5 8 9 19 9 10
0 26 11 34 24 14 21 14 25 2 30 -9 3 -15 0 -15 -8 0 -7 -7 -19 -15 -26 -24
-20 -18 4 16 65 53 95 238 248 259 215 7 -11 12 -10 25 4 13 12 26 15 47 10
21 -4 28 -3 24 5 -4 6 -2 11 3 11 6 0 11 -12 11 -26 0 -22 3 -24 23 -18 12 3
23 10 25 15 2 4 10 5 18 2 8 -3 14 0 14 5 0 16 -18 24 -25 12 -8 -12 -35 -13
-35 -1 0 13 51 20 78 10 15 -6 22 -15 18 -24 -4 -11 1 -15 17 -15 18 0 19 2 7
10 -13 8 -13 10 2 10 9 0 20 -5 23 -10 4 -6 11 -7 18 -3 6 4 -3 12 -24 19 -42
15 -11 18 41 4 19 -5 48 -11 64 -14 36 -7 59 -26 30 -26 -11 0 -25 5 -32 12
-9 9 -15 9 -23 1 -9 -9 -2 -13 25 -18 20 -4 39 -11 41 -16 3 -4 17 -4 30 1 15
6 27 6 30 0 4 -6 0 -10 -7 -10 -8 -1 -5 -7 7 -16 16 -12 17 -16 6 -23 -9 -6
-10 -11 -2 -15 6 -4 11 -2 11 3 0 6 5 11 10 11 6 0 10 -8 10 -18 0 -11 16 -33
35 -51 l35 -31 0 43 c0 31 -6 47 -21 60 -57 49 -120 87 -174 105 -66 22 -194
32 -265 21z m325 -59 c3 -5 1 -10 -4 -10 -6 0 -11 5 -11 10 0 6 2 10 4 10 3 0
8 -4 11 -10z m76 -54 c30 -26 54 -65 45 -73 -7 -8 -36 17 -36 30 0 6 -12 24
-27 39 -32 34 -19 37 18 4z m-826 -396 c-3 -5 -1 -10 5 -10 7 0 10 -16 7 -45
-2 -25 0 -45 4 -45 11 0 18 26 12 48 -2 11 0 23 7 27 15 9 11 -87 -4 -97 -8
-6 -7 -11 3 -17 17 -11 -1 -23 -22 -15 -9 3 -13 14 -10 27 4 16 2 18 -5 8 -7
-10 -12 -3 -17 28 -4 23 -4 45 -1 48 3 4 6 -3 6 -15 0 -12 4 -22 9 -22 10 0 2
48 -10 56 -15 9 -10 34 7 34 8 0 12 -4 9 -10z m300 -480 c3 -5 1 -10 -4 -10
-6 0 -11 5 -11 10 0 6 2 10 4 10 3 0 8 -4 11 -10z"/>
<path d="M1392 1795 c-9 -11 -9 -15 -1 -15 8 0 8 -4 -1 -15 -7 -9 -11 -17 -8
-20 2 -2 12 4 21 15 9 11 12 20 6 20 -8 0 -7 5 1 15 16 19 -1 19 -18 0z"/>
<path d="M1660 1800 c0 -5 5 -10 10 -10 6 0 10 5 10 10 0 6 -4 10 -10 10 -5 0
-10 -4 -10 -10z"/>
<path d="M1310 1762 c0 -15 -7 -26 -20 -29 -11 -3 -17 -10 -13 -17 3 -6 0 -6
-8 2 -16 14 -33 16 -24 2 3 -5 -3 -10 -14 -10 -12 0 -21 -5 -21 -10 0 -6 11
-8 26 -4 25 6 26 5 20 -27 -6 -32 -6 -33 7 -11 7 12 16 19 21 15 4 -4 4 0 1
10 -5 12 2 22 25 34 52 29 65 41 57 50 -5 4 -13 -1 -19 -11 -10 -18 -11 -18
-24 5 l-13 24 -1 -23z"/>
<path d="M1534 1772 c8 -13 -11 -35 -23 -28 -6 4 -9 12 -6 17 4 5 -3 9 -14 9
-12 0 -21 -7 -21 -15 0 -8 5 -15 11 -15 5 0 7 -5 4 -10 -4 -6 -11 -8 -16 -4
-5 3 -17 0 -26 -8 -15 -11 -16 -11 -9 7 11 29 -87 -70 -112 -113 -25 -44 -102
-198 -113 -227 -14 -36 -20 -105 -9 -105 5 0 10 17 11 38 0 35 17 92 18 65 1
-7 6 -13 11 -13 7 0 8 6 2 16 -12 22 -4 55 17 72 9 7 16 16 16 20 2 22 28 82
41 93 9 7 27 34 40 61 24 47 37 57 49 38 12 -20 26 -10 15 11 -7 11 -9 23 -6
27 3 3 6 1 6 -5 0 -5 28 -1 65 11 41 13 63 26 60 33 -2 7 0 15 5 18 6 4 10 2
10 -4 0 -15 60 -41 97 -41 18 0 33 -4 33 -10 0 -5 6 -10 13 -10 6 0 32 -16 56
-35 47 -37 64 -44 55 -21 -3 9 -12 12 -22 9 -11 -5 -14 -2 -9 10 3 8 -1 21 -9
27 -11 10 -14 10 -14 -1 0 -9 -4 -8 -12 3 -7 9 -31 24 -52 34 -21 10 -41 26
-44 36 -4 15 -15 18 -64 18 -32 0 -57 -4 -54 -8z m86 -12 c-20 -13 -43 -13
-35 0 3 6 16 10 28 10 18 0 19 -2 7 -10z m20 -20 c0 -5 -4 -10 -10 -10 -5 0
-10 5 -10 10 0 6 5 10 10 10 6 0 10 -4 10 -10z"/>
<path d="M1690 1751 c14 -11 30 -19 37 -16 13 5 135 -104 128 -114 -2 -4 5
-13 16 -19 19 -12 19 -11 9 8 -33 62 -126 138 -190 155 l-25 6 25 -20z"/>
<path d="M1309 1693 c-13 -16 -12 -17 4 -4 9 7 17 15 17 17 0 8 -8 3 -21 -13z"/>
<path d="M1187 1674 c-13 -13 -7 -36 7 -31 18 7 30 -23 15 -37 -9 -8 -10 -7
-6 7 4 9 2 17 -3 17 -6 0 -11 -6 -11 -12 -1 -7 -3 -27 -5 -45 -2 -18 1 -35 6
-38 6 -4 10 6 10 23 0 16 9 37 20 47 23 21 26 45 5 45 -7 0 -18 7 -23 15 -4 9
-11 12 -15 9z"/>
<path d="M1943 1662 c0 -11 4 -19 8 -16 11 7 45 -46 79 -122 50 -110 61 -257
29 -369 -19 -66 -77 -161 -114 -186 -19 -13 -35 -27 -35 -31 0 -10 -106 -80
-168 -111 -34 -17 -70 -27 -98 -27 -28 0 -43 -4 -39 -10 13 -22 84 -10 150 26
94 49 112 61 183 124 168 146 206 379 98 605 -45 94 -97 158 -93 117z"/>
<path d="M1143 1645 c-8 -22 6 -33 17 -15 13 20 12 30 0 30 -6 0 -13 -7 -17
-15z"/>
<path d="M1290 1651 c0 -5 5 -13 10 -16 6 -3 10 -2 10 4 0 5 -4 13 -10 16 -5
3 -10 2 -10 -4z"/>
<path d="M1493 1653 c-24 -2 -43 -9 -43 -15 0 -7 15 -8 42 -4 41 7 91 27 58
24 -8 -1 -34 -3 -57 -5z"/>
<path d="M1607 1653 c-12 -11 -8 -21 12 -26 14 -3 19 -12 17 -30 -3 -28 20
-45 38 -27 7 7 4 10 -8 10 -12 0 -16 5 -11 19 3 10 -1 24 -10 31 -13 11 -13
15 -3 21 9 6 7 9 -8 9 -11 0 -24 -3 -27 -7z"/>
<path d="M1370 1640 c0 -5 5 -10 10 -10 6 0 10 5 10 10 0 6 -4 10 -10 10 -5 0
-10 -4 -10 -10z"/>
<path d="M1392 1620 c-13 -16 -19 -30 -14 -30 4 0 16 14 25 30 10 17 16 30 14
30 -2 0 -13 -13 -25 -30z"/>
<path d="M1550 1625 c-7 -9 -10 -19 -6 -22 4 -4 12 -1 17 7 8 11 12 12 16 3 6
-16 33 -17 33 -2 0 5 -4 8 -9 5 -5 -3 -11 1 -15 9 -7 19 -20 19 -36 0z"/>
<path d="M1683 1633 c-24 -9 -14 -25 11 -19 20 5 30 -1 50 -26 14 -18 28 -30
31 -26 7 7 -61 79 -73 77 -4 0 -13 -3 -19 -6z"/>
<path d="M1510 1622 c0 -5 -8 -12 -18 -14 -10 -3 -18 -15 -19 -26 -2 -19 1
-21 18 -11 11 6 27 8 34 5 8 -3 17 -1 20 4 4 6 -1 10 -9 10 -9 0 -13 6 -10 14
3 8 1 17 -5 21 -6 3 -11 2 -11 -3z"/>
<path d="M1946 1604 c-4 -15 -2 -32 3 -37 8 -8 11 0 11 26 0 44 -5 47 -14 11z"/>
<path d="M1136 1591 c-11 -12 -16 -24 -12 -28 9 -9 39 22 34 37 -2 7 -10 4
-22 -9z"/>
<path d="M1412 1580 c-13 -16 -18 -30 -13 -30 5 0 12 7 15 16 4 9 9 14 13 11
3 -4 -2 -18 -11 -33 -17 -24 -18 -25 -31 -7 -20 25 -18 8 1 -23 10 -14 13 -24
8 -23 -5 1 -16 1 -24 0 -13 -1 -13 -2 0 -11 13 -9 12 -13 -7 -29 -13 -11 -23
-24 -23 -29 0 -6 -7 -17 -15 -26 -13 -12 -13 -19 -3 -35 9 -15 15 -17 25 -9 7
6 13 15 13 20 0 6 -7 5 -15 -2 -22 -18 -19 2 6 45 24 39 35 42 20 4 -5 -13 -5
-42 -1 -64 l8 -40 1 47 c0 26 5 57 10 70 5 13 14 41 21 63 7 22 20 48 28 58
13 15 14 20 3 26 -8 5 -10 14 -7 20 14 23 -1 10 -22 -19z"/>
<path d="M1824 1595 c22 -17 40 -20 32 -6 -3 5 -16 11 -28 14 -22 6 -22 5 -4
-8z"/>
<path d="M1670 1594 c0 -2 9 -8 19 -14 21 -11 54 -3 46 10 -5 8 -65 11 -65 4z"/>
<path d="M1590 1580 c0 -5 7 -10 15 -10 8 0 15 5 15 10 0 6 -7 10 -15 10 -8 0
-15 -4 -15 -10z"/>
<path d="M1332 1560 c-23 -22 -30 -60 -11 -60 6 0 9 7 5 15 -3 8 -1 15 4 15 6
0 10 7 10 16 0 8 5 12 10 9 6 -3 10 1 10 9 0 20 -2 20 -28 -4z"/>
<path d="M1970 1568 c0 -10 -5 -18 -11 -18 -5 0 -7 -5 -3 -11 4 -8 9 -7 16 2
7 10 8 8 3 -7 -3 -12 -2 -29 2 -39 6 -18 7 -18 13 0 6 17 8 15 12 -8 4 -18 1
-27 -8 -27 -10 0 -11 -6 -4 -25 5 -14 6 -25 2 -25 -4 0 -7 -24 -8 -53 -1 -53
-31 -136 -62 -170 -15 -17 -26 -87 -13 -85 24 2 20 -8 -19 -49 -36 -37 -39
-42 -14 -25 63 43 145 148 144 184 -1 7 -15 -13 -31 -46 -17 -32 -33 -56 -35
-53 -3 3 -1 14 5 25 6 11 8 22 5 25 -3 3 4 15 15 26 12 12 21 31 21 42 0 19 2
20 17 8 15 -12 16 -12 10 4 -4 10 -7 23 -7 28 0 25 -20 4 -30 -30 -5 -21 -17
-44 -25 -51 -8 -7 -15 -23 -15 -36 0 -12 -5 -26 -10 -29 -16 -10 -25 26 -11
44 33 45 77 159 76 194 -1 21 2 40 7 43 4 3 8 -24 8 -60 0 -36 5 -68 10 -71
16 -10 12 108 -6 180 -9 36 -20 65 -25 65 -5 0 -9 8 -9 18 0 9 -5 24 -10 32
-8 13 -10 12 -10 -2z m44 -134 c3 -8 2 -12 -4 -9 -6 3 -10 10 -10 16 0 14 7
11 14 -7z"/>
<path d="M1680 1562 c0 -5 13 -21 30 -37 34 -33 53 -81 49 -127 -4 -39 -50
-103 -90 -123 -82 -43 -178 12 -179 103 0 44 23 102 40 102 6 0 10 7 10 17 0
14 -2 14 -21 -3 -17 -15 -23 -16 -40 -6 -10 7 -19 8 -19 3 0 -5 4 -11 9 -13 4
-1 5 -32 0 -68 -8 -67 -3 -110 12 -110 5 0 9 -9 9 -19 0 -11 5 -23 11 -27 8
-4 9 1 4 17 -7 23 -7 23 11 8 25 -21 104 -58 104 -50 0 4 23 18 51 30 27 13
48 25 45 28 -5 5 30 43 41 43 4 0 7 -10 7 -22 0 -13 -5 -23 -11 -23 -6 0 -23
-12 -38 -27 -16 -16 -33 -24 -42 -21 -11 4 -14 3 -9 -6 5 -8 3 -11 -5 -10 -8
1 -27 -1 -42 -6 -21 -5 -33 -3 -49 11 -12 11 -18 13 -14 7 9 -16 7 -16 -32 -2
-17 6 -34 18 -36 27 -7 20 -46 47 -46 32 0 -5 4 -10 9 -10 5 0 11 -9 14 -19 9
-36 66 -61 137 -61 59 0 70 4 120 39 52 36 99 98 100 132 0 8 -7 24 -16 35
-13 16 -15 16 -10 2 3 -10 1 -18 -4 -18 -6 0 -10 -7 -10 -15 0 -9 6 -12 15 -8
14 5 14 1 3 -23 -17 -42 -31 -54 -23 -21 5 18 3 27 -5 27 -6 0 -9 4 -6 8 13
21 15 74 5 94 -10 18 -8 24 7 35 14 10 15 16 6 25 -9 9 -12 8 -12 -5 0 -27
-13 -20 -43 23 -26 37 -47 51 -47 32z"/>
<path d="M1900 1550 c0 -14 -6 -37 -14 -52 -12 -23 -12 -27 0 -32 17 -7 19
-37 2 -32 -7 1 -10 1 -5 -1 4 -3 7 -13 7 -23 0 -10 -3 -20 -7 -23 -5 -2 -3 -3
3 -1 6 1 11 -24 12 -67 0 -38 -3 -69 -9 -69 -5 0 -9 9 -9 21 0 12 -4 17 -11
13 -6 -3 -8 -16 -6 -28 5 -23 -31 -97 -50 -103 -6 -2 -14 6 -18 17 -5 16 -10
19 -18 11 -7 -7 -7 -15 2 -25 10 -12 8 -17 -9 -26 -11 -6 -25 -8 -31 -4 -10 6
-38 -22 -39 -38 0 -4 33 10 73 30 51 26 76 46 87 68 8 16 28 46 43 66 24 31
29 48 33 113 5 79 -9 182 -26 199 -7 7 -10 2 -10 -14z m20 -134 c-5 -21 -7 -7
-7 44 0 64 1 68 7 31 4 -24 4 -58 0 -75z m-3 -108 c-2 -13 -4 -3 -4 22 0 25 2
35 4 23 2 -13 2 -33 0 -45z"/>
<path d="M1473 1540 c-27 -11 -30 -30 -5 -30 18 1 52 22 52 34 0 8 -20 7 -47
-4z"/>
<path d="M1530 1540 c0 -5 4 -10 8 -10 4 0 8 -10 9 -21 2 -26 14 -39 20 -21 3
6 9 12 14 12 6 0 7 -4 4 -10 -3 -5 0 -7 8 -4 10 3 17 -4 21 -22 4 -14 6 -27 4
-28 -64 -44 -68 -49 -68 -75 0 -16 9 -40 20 -54 18 -22 24 -25 49 -16 15 6 40
23 55 38 23 24 28 38 29 86 1 54 -1 59 -36 91 -24 22 -46 34 -64 33 -27 0 -27
-1 7 -13 53 -19 81 -67 73 -124 -4 -35 -12 -52 -32 -67 -35 -27 -53 -26 -73 5
-24 34 -23 38 15 53 17 8 38 21 46 30 7 9 18 14 24 10 6 -3 7 -1 3 6 -4 6 -11
9 -16 6 -4 -3 -11 3 -15 12 -3 10 -1 19 5 21 13 5 -35 32 -56 32 -8 0 -14 4
-14 10 0 5 -9 14 -20 20 -14 7 -20 7 -20 0z"/>
<path d="M1865 1531 c-3 -5 -1 -12 5 -16 5 -3 10 1 10 9 0 18 -6 21 -15 7z"/>
<path d="M1116 1505 c-9 -14 -12 -25 -7 -25 12 0 35 39 28 46 -2 3 -12 -7 -21
-21z"/>
<path d="M1139 1494 c-5 -15 -7 -29 -5 -32 3 -3 10 7 15 21 5 14 18 27 28 30
14 4 13 5 -5 6 -16 1 -25 -7 -33 -25z"/>
<path d="M1796 1484 c-17 -12 -17 -14 -3 -20 10 -3 17 -17 17 -29 0 -13 5 -27
11 -30 7 -5 8 8 3 41 -3 27 -7 50 -8 51 0 1 -10 -5 -20 -13z"/>
<path d="M1292 1463 c-28 -32 -45 -63 -38 -70 3 -3 10 5 16 18 l11 24 -7 -25
c-3 -14 -8 -43 -9 -65 -2 -22 -1 -30 2 -17 2 13 15 53 29 90 13 36 22 67 21
68 -1 1 -12 -9 -25 -23z"/>
<path d="M1070 1469 c0 -5 5 -7 10 -4 6 3 10 8 10 11 0 2 -4 4 -10 4 -5 0 -10
-5 -10 -11z"/>
<path d="M1430 1440 c0 -16 2 -30 4 -30 2 0 6 14 8 30 3 17 1 30 -4 30 -4 0
-8 -13 -8 -30z"/>
<path d="M1113 1435 c-3 -9 -3 -18 -1 -21 3 -3 8 4 11 16 6 23 -1 27 -10 5z"/>
<path d="M1088 1435 c-3 -6 0 -26 8 -45 7 -21 12 -27 12 -15 0 31 -13 71 -20
60z"/>
<path d="M1422 1350 c3 -52 16 -52 15 0 -1 22 -6 40 -10 40 -4 0 -7 -18 -5
-40z"/>
<path d="M1640 1360 c-8 -5 -10 -10 -5 -10 6 0 17 5 25 10 8 5 11 10 5 10 -5
0 -17 -5 -25 -10z"/>
<path d="M1228 1355 c-3 -4 -2 -21 4 -38 11 -36 29 -105 32 -126 3 -17 57 -73
64 -66 2 2 -7 18 -21 35 -15 17 -31 50 -37 73 -28 107 -35 128 -42 122z"/>
<path d="M1862 1348 c3 -17 -29 -77 -57 -108 l-23 -25 24 -18 c21 -16 24 -16
24 -2 0 9 -7 18 -16 22 -14 5 -13 8 7 18 12 7 24 20 25 29 1 9 8 24 15 33 17
20 23 63 9 63 -6 0 -10 -6 -8 -12z"/>
<path d="M1595 1340 c3 -5 8 -10 11 -10 2 0 4 5 4 10 0 6 -5 10 -11 10 -5 0
-7 -4 -4 -10z"/>
<path d="M1312 1295 c-2 -40 4 -59 27 -94 28 -41 75 -81 96 -81 6 0 -1 9 -15
20 -23 18 -23 20 -5 20 13 0 16 3 8 8 -8 5 -9 13 -3 22 13 20 12 30 0 30 -5 0
-9 -3 -9 -7 3 -19 -2 -33 -12 -33 -6 0 -9 9 -6 20 5 21 -7 28 -18 9 -4 -5 1
-20 12 -31 13 -16 14 -20 3 -16 -22 7 -61 79 -57 105 2 12 1 20 -4 18 -4 -3
-10 9 -12 27 -3 24 -4 20 -5 -17z"/>
<path d="M1343 1333 c-18 -7 -16 -23 2 -23 8 0 15 7 15 15 0 8 -1 15 -2 14 -2
0 -9 -3 -15 -6z"/>
<path d="M1370 1304 c0 -3 5 -14 10 -25 7 -13 7 -19 0 -19 -18 0 -11 -17 9
-23 28 -7 30 -1 12 38 -14 30 -31 46 -31 29z"/>
<path d="M1224 1268 c4 -16 2 -28 -3 -28 -4 0 -8 -11 -8 -24 0 -19 2 -22 12
-13 9 9 10 14 1 19 -8 6 -8 8 2 8 15 0 16 29 1 50 -8 12 -9 9 -5 -12z"/>
<path d="M1350 1270 c0 -5 5 -10 10 -10 6 0 10 5 10 10 0 6 -4 10 -10 10 -5 0
-10 -4 -10 -10z"/>
<path d="M1191 1254 c0 -11 3 -14 6 -6 3 7 2 16 -1 19 -3 4 -6 -2 -5 -13z"/>
<path d="M2975 1260 c-3 -5 1 -10 9 -10 9 0 16 5 16 10 0 6 -4 10 -9 10 -6 0
-13 -4 -16 -10z"/>
<path d="M1191 1190 c-1 -50 31 -113 81 -160 46 -44 138 -97 138 -80 0 5 -4
10 -10 10 -5 0 -7 7 -4 15 5 12 10 13 20 4 8 -7 14 -7 14 -1 0 5 -6 15 -14 21
-11 10 -16 8 -21 -8 -5 -17 -10 -19 -32 -10 -14 5 -35 18 -47 29 -11 11 -29
26 -40 33 -17 12 -17 15 -2 30 14 14 14 17 2 24 -8 4 -14 15 -14 23 2 34 -3
51 -13 44 -6 -3 -8 -15 -6 -26 4 -14 1 -18 -11 -16 -11 2 -21 21 -28 53 -11
46 -12 47 -13 15z m68 -115 c-7 -7 -13 -5 -19 5 -15 24 -11 31 10 18 13 -9 16
-16 9 -23z"/>
<path d="M1725 1185 c-55 -33 -182 -36 -234 -4 -18 11 -36 17 -40 13 -3 -4 0
-9 7 -11 6 -3 12 -14 12 -25 0 -18 21 -48 34 -48 13 0 5 24 -11 36 -17 12 -17
13 -1 14 9 0 19 -4 22 -9 3 -5 45 -7 93 -5 79 3 86 2 69 -11 -24 -18 -36 -19
-36 -4 0 8 -5 8 -15 -1 -8 -7 -15 -18 -15 -25 0 -14 -45 -29 -60 -20 -6 4 -10
15 -10 26 0 10 -5 19 -11 19 -6 0 -8 -9 -4 -20 8 -25 -11 -26 -43 -4 -30 21
-38 13 -12 -11 23 -21 54 -27 139 -25 75 1 81 3 81 36 0 13 5 24 10 24 6 0 10
10 10 22 0 20 1 20 19 4 11 -10 22 -13 25 -8 3 6 0 13 -6 16 -9 3 -7 9 6 20
33 26 13 27 -29 1z m-45 -86 c0 -5 -6 -9 -12 -9 -7 0 -23 -3 -36 -6 -16 -5
-21 -3 -17 7 6 15 65 22 65 8z"/>
<path d="M1233 1184 c-15 -16 -16 -24 -4 -24 8 0 24 30 19 35 -2 2 -9 -3 -15
-11z"/>
<path d="M1094 1138 c-7 -9 -3 -20 13 -37 27 -28 28 -25 10 18 -10 24 -16 29
-23 19z"/>
<path d="M1871 1126 c-12 -13 -39 -32 -59 -42 -20 -11 -50 -29 -65 -41 -15
-12 -44 -25 -63 -29 -21 -4 -32 -10 -26 -16 5 -5 20 -5 36 2 39 14 51 13 36
-5 -11 -13 -8 -14 18 -9 17 4 32 1 36 -5 4 -6 12 -9 17 -6 12 8 -15 35 -36 35
-13 0 -14 4 -4 22 12 22 12 22 40 -10 30 -34 45 -41 36 -18 -3 7 8 26 24 42
16 15 29 33 29 38 0 6 -12 -1 -25 -16 -28 -32 -35 -34 -35 -12 0 9 17 32 38
49 20 18 34 36 31 39 -3 3 -16 -5 -28 -18z m-51 -82 c0 -14 -3 -14 -15 -4 -8
7 -15 14 -15 16 0 2 7 4 15 4 8 0 15 -7 15 -16z"/>
<path d="M1286 1133 c-3 -3 1 -12 9 -19 7 -8 22 -24 32 -36 21 -25 94 -68 115
-68 7 1 -8 12 -33 25 -25 13 -62 41 -81 63 -20 22 -39 38 -42 35z"/>
<path d="M1558 1128 c9 -9 9 -15 -1 -27 -6 -9 -2 -8 11 3 17 15 19 22 10 28
-20 12 -34 10 -20 -4z"/>
<path d="M1285 1061 c-3 -6 4 -9 15 -8 11 1 20 5 20 9 0 11 -28 10 -35 -1z"/>
<path d="M1337 1025 c-4 -8 -2 -17 3 -20 6 -4 10 -4 10 -1 0 2 3 11 6 20 3 9
2 16 -4 16 -5 0 -12 -7 -15 -15z"/>
<path d="M1370 1010 c0 -19 3 -21 12 -12 9 9 9 15 0 24 -9 9 -12 7 -12 -12z"/>
<path d="M1460 1010 c0 -5 5 -10 10 -10 6 0 10 -4 10 -10 0 -5 -7 -10 -15 -10
-8 0 -15 -3 -15 -8 0 -4 18 -7 40 -7 26 0 40 4 40 12 0 9 17 13 56 13 30 0 53
4 50 8 -3 5 -37 7 -75 6 -39 -1 -73 2 -76 7 -8 12 -25 12 -25 -1z"/>
<path d="M1554 964 c-13 -7 -38 -15 -56 -17 -18 -2 8 -5 58 -5 74 -2 93 1 98
13 3 8 13 15 23 15 15 0 16 -2 3 -10 -21 -13 -5 -23 18 -11 12 6 34 11 51 11
17 0 31 3 31 8 0 13 -199 9 -226 -4z m81 -4 c3 -6 -4 -10 -17 -10 -18 0 -20 2
-8 10 19 12 18 12 25 0z m-52 -7 c-7 -2 -19 -2 -25 0 -7 3 -2 5 12 5 14 0 19
-2 13 -5z"/>
<path d="M960 910 c0 -5 5 -10 10 -10 6 0 10 5 10 10 0 6 -4 10 -10 10 -5 0
-10 -4 -10 -10z"/>
<path d="M1408 848 c9 -9 15 -9 24 0 9 9 7 12 -12 12 -19 0 -21 -3 -12 -12z"/>
<path d="M1510 790 c0 -5 16 -10 35 -10 19 0 35 5 35 10 0 6 -16 10 -35 10
-19 0 -35 -4 -35 -10z"/>
<path d="M1865 661 c-3 -5 -1 -12 5 -16 5 -3 10 1 10 9 0 18 -6 21 -15 7z"/>
<path d="M1555 580 c3 -5 8 -10 11 -10 2 0 4 5 4 10 0 6 -5 10 -11 10 -5 0 -7
-4 -4 -10z"/>
</g>
</svg>
