<?xml version="1.0" standalone="no"?>
<!DOCTYPE svg PUBLIC "-//W3C//DTD SVG 20010904//EN"
 "http://www.w3.org/TR/2001/REC-SVG-20010904/DTD/svg10.dtd">
<svg version="1.0" xmlns="http://www.w3.org/2000/svg"
 width="300.000000pt" height="201.000000pt" viewBox="0 0 300.000000 201.000000"
 preserveAspectRatio="xMidYMid meet">
<metadata>
Created by potrace 1.10, written by Peter Selinger 2001-2011
</metadata>
<g transform="translate(0.000000,201.000000) scale(0.100000,-0.100000)"
fill="#000000" stroke="none">
<path d="M1194 1815 c-80 -115 -113 -153 -124 -149 -39 18 -76 15 -109 -8 -66 -44 -94 -122 -80 -223 7 -55 6 -60 -28 -111 -20 -30 -39 -54 -43 -54 -12 0 -70 140 -91 219 -15 56 -22 125 -27 266 -6 188 -19 214 -21 42 -2 -188 40 -394 104 -505 l24 -43 -116 -172 c-168 -248 -168 -248 -201 -236 -47 18 -146 12 -201 -12 -59 -25 -113 -81 -131 -134 -19 -56 -8 -236 17 -302 l20 -51 -70 -106 c-38 -59 -67 -109 -64 -112 3 -3 33 36 68 88 34 51 65 97 70 102 4 5 23 -4 43 -22 92 -81 186 -31 186 99 0 44 -6 65 -26 95 -33 48 -33 49 -39 42 -4 -3 5 -23 20 -43 19 -30 25 -50 25 -94 0 -67 -16 -102 -51 -115 -36 -12 -73 -1 -111 33 l-33 29 158 236 158 237 52 -28 c69 -38 210 -173 279 -269 31 -44 89 -139 128 -211 40 -73 76 -133 82 -133 14 0 -93 197 -169 313 -77 116 -194 239 -281 295 -35 22 -68 43 -75 45 -8 3 -5 12 9 28 11 13 74 103 139 199 65 96 120 177 122 179 2 3 11 -6 20 -20 69 -101 187 -153 261 -115 43 22 61 49 83 122 42 141 27 280 -41 388 l-30 47 110 155 c60 85 110 157 110 159 0 21 -31 -16 -126 -150z m-126 -174 c3 -8 0 -11 -5 -8 -5 3 -10 1 -10 -6 0 -7 -33 -61 -74 -120 l-74 -108 -8 33 c-20 74 13 176 67 209 35 22 97 22 104 0z m59 -68 c58 -110 65 -197 28 -348 -13 -54 -24 -76 -48 -97 -58 -52 -153 -31 -228 49 -66 72 -65 67 -23 125 38 51 39 52 42 25 2 -15 8 -27 14 -27 6 0 7 15 3 38 -6 36 -1 46 82 165 48 70 90 127 94 127 3 0 20 -26 36 -57z m-697 -742 c0 -4 10 -6 23 -4 61 10 53 -9 -104 -243 l-153 -229 -19 60 c-27 88 -28 235 0 296 27 61 87 105 168 122 36 8 85 7 85 -2z"/>
<path d="M2638 1713 c-172 -197 -433 -528 -530 -673 l-16 -25 -12 30 c-63 160 -49 368 40 600 52 137 56 150 42 141 -16 -10 -89 -203 -112 -298 -39 -161 -36 -304 9 -434 l20 -54 -241 -347 c-133 -191 -243 -356 -245 -368 -5 -24 -29 -57 207 283 102 147 209 300 237 340 l51 72 26 -44 c33 -56 104 -119 161 -143 l45 -18 -6 -50 c-8 -67 12 -223 36 -289 43 -112 105 -178 188 -197 49 -11 142 0 142 17 0 10 -8 10 -32 3 -102 -29 -199 17 -253 121 -39 77 -56 151 -62 273 l-6 118 25 -10 c14 -5 56 -12 94 -16 120 -12 214 22 312 110 75 69 118 134 149 233 32 101 30 227 -5 285 -52 83 -164 107 -254 54 -53 -31 -127 -109 -183 -193 -21 -32 -43 -63 -47 -69 -5 -5 5 31 22 80 42 125 145 330 230 458 39 60 70 111 67 113 -2 3 -47 -44 -99 -103z m-4 -35 c-4 -7 -24 -38 -43 -68 -117 -184 -235 -525 -266 -768 l-7 -52 -50 27 c-58 32 -125 96 -152 146 l-18 35 144 194 c186 250 437 560 392 486z m165 -248 c45 -13 87 -54 103 -99 28 -84 2 -247 -55 -341 -60 -100 -151 -178 -245 -209 -69 -24 -123 -26 -205 -10 -55 11 -57 13 -57 43 0 17 11 86 25 154 22 113 28 128 78 205 106 161 168 225 244 253 46 16 68 17 112 4z"/>

</g>
</svg>
