<?xml version="1.0" standalone="no"?>
<!DOCTYPE svg PUBLIC "-//W3C//DTD SVG 20010904//EN"
 "http://www.w3.org/TR/2001/REC-SVG-20010904/DTD/svg10.dtd">
<svg version="1.0" xmlns="http://www.w3.org/2000/svg"
 width="300.000000pt" height="357.000000pt" viewBox="0 0 300.000000 357.000000"
 preserveAspectRatio="xMidYMid meet">
<metadata>
Created by potrace 1.10, written by Peter Selinger 2001-2011
</metadata>
<g transform="translate(0.000000,357.000000) scale(0.100000,-0.100000)"
fill="#000000" stroke="none">

<path d="M1507 3167 c-30 -46 -62 -89 -71 -96 -9 -7 -16 -18 -16 -23 0 -4 -21 -37 -47 -71 -27 -34 -64 -85 -82 -112 -19 -28 -38 -52 -41 -55 -3 -3 -26 -36 -51 -75 -57 -91 -66 -104 -85 -139 l-16 -29 41 29 c22 16 41 36 41 45 0 9 7 22 15 29 8 7 15 17 15 23 0 5 9 19 21 31 11 12 47 62 80 111 32 50 72 108 88 130 17 22 46 63 65 90 19 28 46 61 60 74 13 13 22 29 19 37 -3 7 7 24 22 38 24 23 27 46 5 46 -5 0 -33 -37 -63 -83z"/>
<path d="M2127 2804 c-70 -18 -178 -41 -240 -50 -62 -9 -152 -29 -202 -44 -108 -33 -196 -56 -250 -65 -40 -6 -116 -30 -145 -45 -9 -4 -30 -11 -48 -14 -17 -4 -34 -12 -37 -17 -4 -5 -30 -9 -58 -9 -55 0 -57 -1 -98 -75 -9 -16 -26 -46 -37 -65 -12 -19 -46 -80 -77 -135 -30 -55 -60 -107 -65 -115 -6 -8 -17 -32 -25 -52 -9 -21 -20 -38 -25 -38 -6 0 -10 -6 -10 -14 0 -8 -10 -27 -23 -43 -13 -15 -37 -58 -55 -94 -17 -36 -38 -72 -47 -79 -8 -7 -15 -18 -15 -24 0 -6 -13 -27 -28 -46 -44 -53 -56 -80 -37 -80 8 0 35 28 60 63 25 34 49 67 55 74 5 7 10 15 10 18 0 3 22 40 49 83 27 42 58 91 69 108 10 17 22 43 26 57 3 15 11 27 17 27 6 0 8 4 5 9 -3 4 8 23 24 41 17 19 30 43 30 54 0 12 9 27 20 34 12 7 20 18 18 25 -2 12 64 140 106 204 11 18 29 33 38 33 18 0 92 -74 137 -137 43 -60 61 -148 66 -318 2 -86 -1 -169 -7 -195 -25 -106 -28 -424 -5 -511 20 -73 72 -185 91 -192 24 -10 29 25 7 53 -33 40 -48 82 -66 177 -15 80 -20 241 -9 328 6 55 14 110 19 140 2 17 5 56 6 88 1 31 6 57 11 57 4 0 8 5 8 10 0 6 -7 10 -15 10 -20 0 -19 9 3 33 9 11 12 17 6 14 -7 -4 -14 3 -18 16 -10 39 -7 67 9 67 9 0 15 9 15 23 0 17 -2 19 -10 7 -5 -8 -12 -11 -17 -7 -4 4 -2 17 5 27 7 12 8 20 2 20 -5 0 -10 12 -10 26 0 27 -48 144 -59 144 -3 0 -12 13 -19 29 -7 16 -31 41 -52 55 -22 14 -40 30 -40 34 0 19 386 123 495 133 76 6 111 15 230 54 28 9 66 20 85 25 19 5 78 20 130 34 52 14 107 27 123 31 15 3 27 12 27 20 0 19 0 19 -153 -21z m-262 -83 c-10 -8 -68 -24 -132 -36 -59 -12 -34 11 30 27 71 18 116 22 102 9z"/>
<path d="M2462 1882 c-68 -70 -148 -147 -178 -172 -30 -25 -67 -56 -83 -70 -63 -55 -118 -100 -148 -122 -42 -31 -114 -85 -135 -103 -9 -7 -19 -11 -22 -8 -3 4 -6 2 -6 -3 0 -5 -29 -32 -65 -59 -36 -27 -65 -52 -65 -57 0 -4 -6 -8 -14 -8 -7 0 -20 -7 -27 -17 -16 -18 -175 -146 -301 -240 -46 -34 -123 -98 -173 -142 -65 -58 -98 -80 -117 -81 -16 0 -28 -6 -28 -12 0 -7 -11 -18 -25 -25 -23 -10 -25 -9 -24 15 1 49 45 136 65 131 12 -4 114 97 114 111 0 6 12 22 26 35 22 20 24 25 10 25 -10 0 -37 -20 -62 -45 -24 -25 -52 -45 -63 -45 -23 0 -36 -16 -21 -25 18 -11 10 -26 -12 -23 -17 2 -27 -6 -43 -34 -14 -27 -25 -36 -37 -32 -13 4 -18 -3 -23 -33 -3 -21 -8 -47 -10 -59 -3 -11 2 -29 11 -40 15 -18 15 -18 9 3 -8 30 13 40 24 11 5 -15 5 -26 -3 -31 -24 -16 51 7 84 26 28 17 141 104 197 152 40 34 88 73 163 130 224 171 267 204 287 224 12 12 24 21 27 21 4 0 240 181 313 240 7 6 15 10 19 10 4 0 14 7 23 15 9 8 41 36 71 62 30 26 89 82 132 125 42 43 81 78 87 78 6 0 11 8 11 18 0 9 9 28 20 42 32 41 25 -2 -10 -57 -16 -26 -30 -51 -30 -55 0 -5 -26 -48 -58 -96 -32 -48 -61 -95 -65 -104 -3 -10 -13 -18 -22 -18 -8 0 -15 -5 -15 -10 0 -24 -101 -214 -160 -300 -58 -86 -125 -192 -140 -225 -8 -16 -34 -54 -57 -83 -24 -30 -43 -57 -43 -61 0 -4 -8 -16 -17 -27 -24 -27 -43 -61 -43 -77 0 -8 -9 -22 -19 -31 -40 -36 -90 -157 -101 -245 -6 -45 -9 -85 -7 -87 2 -2 21 12 42 32 21 20 55 46 76 59 20 13 50 35 65 49 48 42 52 45 57 40 5 -5 87 71 87 81 0 2 -7 1 -17 -2 -11 -4 -14 -3 -9 6 5 8 19 10 35 7 14 -3 20 -3 14 0 -21 9 -15 28 22 64 40 38 56 36 24 -3 -34 -44 -14 -31 50 32 33 33 81 74 105 91 25 18 47 39 50 46 3 8 10 14 16 14 6 0 31 19 55 41 88 83 117 106 131 106 8 0 14 -2 14 -4 0 -7 -22 -46 -32 -57 -7 -9 -68 -100 -103 -154 -18 -29 -24 -37 -52 -72 -34 -41 -76 -99 -88 -120 -5 -8 12 7 38 34 25 28 50 47 53 43 4 -4 0 -15 -9 -25 -10 -10 -17 -25 -17 -33 0 -8 -9 -20 -20 -27 -11 -7 -20 -19 -20 -27 0 -8 -3 -15 -7 -15 -5 0 -17 -19 -28 -43 -11 -23 -25 -45 -32 -50 -7 -4 -15 -24 -19 -45 -8 -39 -18 -54 -46 -65 -21 -7 -24 -33 -5 -40 6 -2 5 -3 -4 -2 -16 2 -53 -47 -43 -58 8 -7 -17 -87 -28 -87 -4 0 -8 -11 -8 -24 0 -19 -4 -22 -24 -19 -19 4 -25 -1 -34 -26 -14 -40 -55 -81 -82 -81 -11 0 -20 4 -20 10 0 5 -7 7 -15 4 -9 -4 -15 -1 -15 7 0 10 -3 10 -12 1 -15 -15 -32 -16 -23 -1 4 6 -3 21 -16 35 -12 13 -19 24 -15 24 5 0 4 6 -1 13 -27 34 9 147 60 190 38 31 102 109 125 154 19 34 -4 37 -24 3 -10 -16 -24 -30 -32 -30 -7 0 -10 -4 -7 -10 3 -5 -1 -10 -9 -10 -9 0 -16 -4 -16 -9 0 -5 -9 -13 -21 -16 -15 -5 -18 -10 -9 -20 9 -11 4 -15 -27 -18 -33 -3 -35 -5 -15 -12 34 -11 27 -28 -9 -21 -29 5 -31 4 -26 -16 4 -12 3 -27 -2 -32 -4 -6 -13 -37 -20 -68 -10 -47 -10 -64 2 -100 31 -90 37 -97 95 -115 51 -16 55 -16 67 0 6 9 15 14 19 10 8 -8 76 57 76 73 0 7 14 22 30 34 17 12 30 27 30 35 0 7 6 20 13 27 7 7 19 29 26 48 38 99 74 168 86 164 7 -3 19 14 30 43 10 26 23 55 30 63 7 8 22 33 33 55 11 22 38 75 61 118 23 42 41 86 41 98 0 11 5 17 10 14 6 -4 10 5 10 19 0 17 6 26 15 26 9 0 20 11 25 24 4 13 35 61 68 107 33 46 72 107 88 134 15 28 56 84 90 125 34 41 79 107 101 146 36 63 124 186 160 223 12 11 11 16 -3 32 -21 24 -26 20 -59 -45 -15 -29 -47 -76 -71 -104 -24 -28 -44 -53 -44 -56 0 -3 -8 -14 -17 -24 -79 -83 -194 -231 -206 -264 -4 -10 -11 -18 -17 -18 -5 0 -10 -9 -10 -20 0 -13 -7 -20 -20 -20 -11 0 -20 -4 -20 -10 0 -5 -8 -10 -17 -10 -10 0 -34 -15 -53 -33 -19 -18 -64 -55 -100 -82 -36 -27 -83 -65 -106 -84 -64 -56 -108 -91 -118 -91 -5 0 -51 -42 -102 -93 -92 -91 -247 -229 -265 -235 -5 -2 -9 2 -9 8 0 12 9 26 80 115 22 27 40 55 40 61 0 7 7 14 15 18 8 3 15 14 15 24 0 11 7 25 15 32 8 7 26 33 39 59 13 25 31 62 41 81 41 79 46 90 38 90 -4 0 1 7 11 15 11 8 15 15 8 15 -13 0 -60 -66 -92 -130 -12 -25 -28 -52 -35 -60 -7 -8 -25 -37 -39 -65 -40 -74 -105 -178 -123 -195 -28 -27 -7 46 32 114 83 144 183 296 195 296 5 0 10 9 10 19 0 11 9 22 20 26 11 4 23 20 28 38 5 20 18 37 36 45 20 10 26 19 23 33 -3 11 0 19 7 19 7 0 19 11 26 25 7 14 17 25 22 25 4 0 8 5 8 12 0 14 40 101 50 108 4 3 29 48 55 100 27 52 64 120 83 150 93 148 159 240 175 245 9 4 17 11 17 17 0 5 -7 8 -15 4 -22 -8 -19 5 10 44 14 19 25 42 25 52 0 10 7 21 15 24 27 11 70 94 48 94 -5 0 -63 -58 -131 -128z m213 -627 c-26 -30 -48 -55 -50 -55 -6 0 18 43 33 60 7 8 22 28 34 44 13 17 24 24 26 17 2 -6 -17 -36 -43 -66z m-117 -170 c-11 -24 -28 -34 -28 -16 0 21 13 41 26 41 11 0 11 -5 2 -25z"/>
<path d="M2042 1898 c-19 -19 -14 -38 9 -38 11 0 17 5 14 10 -3 6 1 10 10 10 20 0 15 24 -6 28 -8 1 -20 -3 -27 -10z"/><path d="M1847 1668 c-56 -64 -103 -148 -94 -171 9 -23 67 -23 67 -1 0 11 -6 15 -20 11 -11 -3 -20 -1 -20 4 0 14 75 122 107 153 15 15 28 34 29 42 4 28 -23 13 -69 -38z"/>
<path d="M1152 1427 c-12 -13 -22 -28 -22 -34 0 -16 -86 -101 -110 -108 -11 -4 -20 -10 -20 -15 0 -5 -15 -12 -32 -15 -36 -7 -111 -54 -112 -70 -1 -5 12 -11 27 -13 25 -3 27 -1 22 21 -8 28 19 45 41 26 11 -9 25 -6 60 12 25 13 50 32 55 41 10 19 68 38 117 38 40 0 40 -8 -1 -48 -36 -35 -61 -41 -71 -17 -3 8 -13 15 -23 15 -17 -1 -17 -1 0 -11 23 -14 22 -46 -3 -54 -11 -4 -31 -18 -44 -32 -30 -32 -55 -27 -75 14 -18 37 -31 42 -31 13 0 -11 5 -20 11 -20 6 0 8 -8 4 -19 -5 -16 1 -22 32 -30 52 -15 56 -14 80 12 34 36 74 67 87 67 6 0 38 27 71 60 l59 59 -30 11 c-17 7 -49 8 -78 5 -54 -8 -54 -8 -2 58 35 44 25 73 -12 34z"/>
</g>
</svg>
