<?xml version="1.0" standalone="no"?>
<!DOCTYPE svg PUBLIC "-//W3C//DTD SVG 20010904//EN"
 "http://www.w3.org/TR/2001/REC-SVG-20010904/DTD/svg10.dtd">
<svg version="1.0" xmlns="http://www.w3.org/2000/svg"
 width="900.000000pt" height="765.000000pt" viewBox="0 0 900.000000 765.000000"
 preserveAspectRatio="xMidYMid meet">
<metadata>
Created by potrace 1.10, written by Peter Selinger 2001-2011
</metadata>
<g transform="translate(0.000000,765.000000) scale(0.100000,-0.100000)"
fill="#000000" stroke="none">
<path d="M4690 5513 c-51 -5 -73 -19 -44 -29 67 -21 74 -27 74 -53 0 -15 -5 -32 -12 -39 -17 -17 3 -35 33 -30 18 2 25 10 27 31 3 21 9 27 27 27 13 0 27 5 30 10 3 6 -3 10 -14 10 -30 0 -51 11 -51 26 0 24 103 13 260 -26 19 -5 70 -15 113 -22 76 -12 147 -42 154 -64 2 -7 -14 -14 -41 -18 -39 -6 -49 -3 -91 26 -45 32 -47 33 -61 13 -20 -26 -14 -38 27 -48 19 -5 39 -13 44 -17 6 -5 29 -11 52 -13 26 -3 52 -15 68 -30 l27 -24 62 21 63 22 34 -22 c19 -13 38 -23 43 -23 4 -1 36 -26 69 -57 33 -31 70 -60 81 -65 31 -15 64 -68 72 -118 8 -47 -2 -61 -43 -61 -20 0 -35 -20 -15 -20 4 0 24 -16 45 -36 21 -20 41 -33 44 -30 6 6 11 60 14 161 1 41 -3 52 -23 68 -12 10 -48 42 -78 70 -72 69 -157 133 -250 188 -97 57 -196 104 -240 113 -14 2 -43 9 -65 15 -157 39 -318 56 -435 44z m669 -187 c9 -10 9 -16 1 -21 -17 -11 -40 3 -34 20 8 19 18 19 33 1z" /> 
<path d="M4362 5503 l-33 -4 24 -29 c14 -16 28 -49 31 -75 8 -47 28 -67 49 -46 6 6 21 11 33 11 13 0 31 12 42 27 18 25 22 26 55 16 51 -15 63 5 29 47 -18 22 -19 22 -50 6 -18 -9 -32 -21 -32 -26 0 -6 -18 -10 -41 -10 -36 0 -40 2 -37 23 2 14 13 25 34 32 17 6 32 15 33 20 1 10 -81 15 -137 8z" /> 
<path d="M4155 5480 c-124 -8 -197 -23 -216 -47 -6 -7 -17 -13 -24 -13 -7 0 -39 -19 -72 -42 -32 -24 -83 -60 -114 -80 -56 -38 -196 -164 -303 -273 -76 -77 -99 -104 -116 -137 -21 -44 -4 -44 22 0 13 22 46 58 74 80 28 22 64 54 80 71 60 66 160 161 194 185 131 93 199 135 315 195 40 20 193 27 262 11 35 -7 59 -8 65 -2 13 13 -12 62 -31 60 -9 0 -70 -4 -136 -8z" /> 
<path d="M4850 5406 c0 -18 38 -28 62 -15 27 14 13 29 -28 29 -22 0 -34 -5 -34 -14z" /> 
<path d="M4683 5323 c-67 -4 -82 -17 -33 -26 21 -5 30 -12 30 -27 0 -22 30 -45 73 -55 15 -4 38 -20 51 -36 25 -29 25 -29 140 -29 96 0 116 3 116 15 0 8 -17 22 -37 30 -45 19 -71 45 -85 88 -6 17 -16 35 -22 39 -11 8 -109 8 -233 1z m172 -33 c7 -12 -36 -30 -71 -30 -23 0 -32 18 -17 33 10 11 81 8 88 -3z m50 -69 c0 -8 -8 -19 -17 -25 -22 -13 -44 5 -34 29 7 20 51 16 51 -4z" /> 
<path d="M3929 5290 c-1 -14 -2 -34 -3 -45 -3 -42 -28 -75 -58 -75 -31 0 -36 -11 -12 -31 13 -11 17 -10 25 4 6 10 22 17 39 17 16 0 32 5 35 10 3 6 13 10 21 10 20 0 101 58 109 78 7 19 -19 47 -34 38 -6 -4 -11 -16 -11 -27 0 -11 -11 -24 -25 -31 -29 -13 -51 1 -71 47 -13 30 -13 30 -15 5z" /> 
<path d="M4406 5274 c-11 -28 -6 -57 11 -69 26 -19 6 -37 -33 -29 -30 5 -40 2 -64 -21 -31 -30 -46 -21 -30 19 9 24 8 25 -11 13 -28 -16 -143 -130 -193 -189 -59 -71 -136 -187 -136 -206 0 -9 -14 -32 -30 -51 -17 -18 -30 -40 -30 -47 0 -7 -6 -17 -12 -21 -7 -4 -21 -26 -32 -48 -10 -22 -22 -47 -27 -55 -5 -8 -14 -24 -19 -35 -6 -11 -19 -33 -29 -50 -31 -48 -88 -166 -105 -215 -18 -51 -21 -110 -6 -110 5 0 16 -13 25 -30 14 -28 55 -43 55 -21 0 14 -24 57 -43 76 -16 16 -16 19 -2 34 8 10 15 36 15 59 0 37 5 45 51 83 40 34 49 48 45 65 -4 14 4 41 19 69 13 26 27 62 31 81 3 18 12 38 20 45 8 6 14 18 14 25 0 15 35 54 49 54 11 0 72 100 110 182 17 37 35 69 41 73 5 3 10 14 10 23 0 9 16 25 36 35 39 19 65 12 84 -24 15 -27 30 -15 30 24 0 49 73 107 134 107 27 0 158 49 175 65 2 3 -10 18 -28 34 -17 16 -31 38 -31 50 0 18 -6 21 -44 21 -31 0 -46 -5 -50 -16z" /> 
<path d="M4137 5263 c-12 -11 -8 -23 8 -23 8 0 15 7 15 15 0 16 -12 20 -23 8z" /> 
<path d="M5050 5259 c0 -6 9 -13 20 -16 11 -3 20 -9 20 -13 0 -5 16 -18 35 -30 27 -16 38 -19 54 -11 13 7 22 8 26 1 8 -13 55 -13 55 0 0 6 -8 13 -17 17 -10 3 -46 18 -81 34 -64 30 -112 37 -112 18z" /> 
<path d="M4590 5232 c0 -10 -5 -23 -12 -30 -14 -14 10 -26 39 -20 27 5 24 49 -4 59 -18 7 -23 5 -23 -9z" /> 
<path d="M5426 5231 c-9 -14 31 -43 54 -39 l21 3 -21 23 c-21 23 -45 29 -54 13z" /> 
<path d="M5270 5171 c0 -4 12 -17 26 -27 14 -10 32 -25 39 -31 26 -25 34 -13 9 12 -14 14 -29 25 -34 25 -6 0 -10 4 -10 9 0 5 -7 11 -15 15 -8 3 -15 2 -15 -3z" /> 
<path d="M3730 5155 c22 -26 5 -47 -34 -40 -41 8 -76 -8 -76 -35 0 -23 15 -25 50 -5 33 19 74 19 91 -1 10 -13 10 -24 0 -57 -17 -59 -18 -69 -4 -74 6 -2 23 22 38 54 15 32 33 70 40 86 13 25 12 27 -10 27 -14 0 -34 12 -48 30 -14 17 -33 30 -43 30 -13 0 -14 -3 -4 -15z" /> 
<path d="M5087 5122 c12 -9 40 -28 62 -41 23 -14 55 -38 72 -53 16 -15 32 -28 35 -28 3 0 17 -13 31 -30 13 -16 29 -30 34 -30 17 0 9 27 -16 50 -27 26 -32 46 -12 53 10 4 10 7 0 18 -11 11 -13 10 -13 -4 0 -26 -25 -20 -38 8 -14 30 -103 75 -146 75 l-31 -1 22 -17z" /> 
<path d="M5393 5047 c23 -46 34 -57 60 -57 29 0 19 27 -20 57 -58 46 -62 45 -40 0z" /> 
<path d="M5595 5060 c-10 -32 4 -73 31 -93 31 -23 41 -16 21 15 -9 12 -19 40 -22 61 -8 41 -20 48 -30 17z" /> 
<path d="M3560 5008 c0 -6 -7 -19 -16 -29 -21 -24 -11 -49 20 -49 33 0 37 9 23 53 -11 35 -27 50 -27 25z" /> 
<path d="M5810 5002 c0 -4 15 -21 33 -38 40 -39 61 -65 100 -126 34 -54 64 -66 52 -21 -9 39 -57 106 -84 119 -12 6 -37 26 -55 43 -32 31 -46 38 -46 23z" /> 
<path d="M5480 4984 c0 -3 14 -23 30 -44 17 -21 30 -42 30 -48 0 -5 7 -12 15 -16 8 -3 15 -12 15 -21 0 -8 7 -15 15 -15 27 0 16 27 -35 81 -27 29 -50 57 -50 61 0 4 -4 8 -10 8 -5 0 -10 -3 -10 -6z" /> 
<path d="M3870 4954 c1 -15 29 -48 36 -41 3 3 -3 16 -15 28 -12 13 -21 19 -21 13z" /> 
<path d="M4586 4953 c-4 -5 -60 -10 -124 -13 -119 -5 -150 -18 -99 -41 19 -8 55 -9 131 -2 94 9 109 13 132 36 l27 27 -30 0 c-16 0 -33 -3 -37 -7z" /> 
<path d="M4822 4944 c-41 -29 -24 -64 32 -64 23 0 52 -43 41 -60 -3 -5 2 -21 11 -36 l17 -26 13 24 c21 37 17 65 -15 87 -38 27 -45 57 -18 76 21 14 20 15 -19 15 -22 0 -50 -7 -62 -16z" /> 
<path d="M3430 4932 c-18 -14 -22 -25 -16 -45 10 -42 43 -36 55 10 15 55 1 67 -39 35z" /> 
<path d="M5342 4928 c3 -7 17 -14 32 -16 20 -3 27 0 24 10 -3 7 -17 14 -32 16 -20 3 -27 0 -24 -10z" /> 
<path d="M3620 4906 c-5 -14 -19 -26 -32 -28 -13 -2 -24 -11 -26 -23 -2 -11 -11 -35 -19 -53 -13 -27 -13 -37 -3 -63 10 -23 10 -33 1 -42 -17 -17 -13 -51 8 -75 10 -12 21 -22 23 -22 3 0 8 32 10 72 4 50 10 75 22 83 9 7 16 14 16 17 0 2 20 26 45 52 25 27 45 56 45 65 0 25 -20 41 -52 41 -21 0 -31 -6 -38 -24z m30 -48 c-1 -25 -32 -68 -49 -68 -16 0 -13 24 7 59 20 36 42 41 42 9z" /> 
<path d="M4106 4914 c-7 -19 1 -34 19 -34 21 0 28 19 15 35 -16 19 -26 19 -34 -1z" /> 
<path d="M5412 4898 c6 -18 28 -21 28 -4 0 9 -7 16 -16 16 -9 0 -14 -5 -12 -12z" /> 
<path d="M4680 4892 c0 -5 11 -19 25 -32 14 -13 25 -34 25 -47 0 -22 13 -28 50 -23 24 3 43 27 36 46 -6 15 -8 16 -24 0 -25 -22 -32 -20 -32 8 0 18 -9 29 -32 40 -35 18 -48 20 -48 8z" /> 
<path d="M5045 4888 c-41 -23 -48 -58 -11 -58 14 0 31 9 39 20 14 20 14 20 51 -5 20 -14 40 -25 44 -25 8 0 68 -56 88 -82 7 -8 14 -23 15 -33 4 -20 29 -34 29 -16 0 5 -13 30 -30 54 -16 25 -30 48 -30 52 0 12 -44 55 -56 55 -6 0 -17 7 -24 15 -7 8 -23 15 -36 15 -12 0 -26 5 -29 10 -8 13 -25 12 -50 -2z" /> 
<path d="M4529 4873 c-1 -4 -2 -17 -3 -28 -1 -16 -9 -21 -41 -23 -51 -4 -65 -17 -40 -36 19 -14 19 -15 1 -35 -11 -12 -25 -21 -33 -21 -15 0 -18 -26 -4 -35 5 -3 27 1 48 9 21 8 59 17 85 21 55 7 69 20 33 29 -29 7 -32 18 -10 36 22 19 18 53 -10 73 -14 10 -26 14 -26 10z" /> 
<path d="M4655 4872 c-28 -20 -37 -42 -25 -57 19 -23 27 -18 35 21 7 39 5 47 -10 36z" /> 
<path d="M5839 4853 c-1 -10 -1 -25 0 -34 1 -9 -5 -22 -14 -29 -8 -7 -15 -24 -15 -37 0 -33 31 -84 49 -81 12 2 15 21 14 89 0 48 -4 92 -7 98 -11 17 -26 13 -27 -6z" /> 
<path d="M3352 4838 c6 -18 28 -21 28 -4 0 9 -7 16 -16 16 -9 0 -14 -5 -12 -12z" /> 
<path d="M3433 4805 c-10 -14 -33 -46 -50 -70 -18 -24 -33 -49 -33 -54 0 -24 49 -9 83 26 30 29 37 44 37 74 0 48 -14 57 -37 24z" /> 
<path d="M3253 4796 c-24 -23 -96 -156 -119 -220 -17 -47 -40 -123 -55 -181 -5 -21 -14 -44 -19 -51 -6 -6 -15 -57 -21 -114 -5 -57 -12 -107 -15 -111 -8 -14 -6 -357 2 -371 10 -16 22 20 23 74 1 38 14 57 27 37 3 -6 6 -36 6 -65 0 -51 1 -54 24 -54 27 0 33 24 9 34 -10 4 -15 20 -15 52 0 35 -7 56 -25 80 -14 19 -25 46 -25 64 0 26 4 31 30 37 33 6 51 23 26 23 -39 0 -44 93 -6 103 15 4 17 10 10 38 -4 19 -13 47 -21 62 -12 26 -11 30 17 52 42 35 62 32 66 -7 4 -40 19 -43 32 -5 8 22 6 31 -9 47 -11 11 -31 21 -45 23 -27 4 -30 26 -15 92 11 44 23 55 64 55 26 0 45 8 69 31 17 16 32 35 32 42 0 7 7 24 14 40 12 22 12 27 1 27 -7 0 -20 3 -29 6 -11 4 -20 -5 -32 -35 -17 -42 -59 -85 -75 -75 -5 3 -9 17 -9 31 0 25 6 40 49 118 36 65 63 125 59 134 -2 4 -13 -1 -25 -13z" /> 
<path d="M4135 4811 c-6 -11 9 -23 19 -14 9 9 7 23 -3 23 -6 0 -12 -4 -16 -9z" /> 
<path d="M5483 4793 c-23 -8 -14 -28 18 -42 35 -15 45 -10 30 17 -12 22 -30 31 -48 25z" /> 
<path d="M4253 4775 c-3 -9 -3 -18 0 -21 9 -9 27 6 27 22 0 19 -19 18 -27 -1z" /> 
<path d="M5006 4782 c-13 -12 -4 -19 55 -47 50 -24 63 -27 79 -17 11 7 29 12 40 12 28 0 25 14 -7 35 -26 18 -154 31 -167 17z" /> 
<path d="M4770 4746 c0 -10 9 -16 25 -16 14 0 25 5 25 10 0 6 -4 10 -9 10 -5 0 -16 3 -25 6 -11 4 -16 1 -16 -10z" /> 
<path d="M4898 4729 c-10 -5 -18 -14 -18 -18 0 -12 98 -43 110 -36 19 12 10 35 -20 50 -34 17 -48 18 -72 4z" /> 
<path d="M5899 4708 c-9 -21 -8 -33 6 -62 15 -31 16 -44 7 -74 -9 -29 -9 -41 3 -59 8 -12 15 -34 15 -48 0 -31 23 -30 28 1 7 37 21 36 28 -2 4 -22 14 -49 22 -61 12 -20 12 -23 -1 -29 -9 -3 -20 -3 -25 0 -33 20 -37 -73 -6 -118 12 -17 10 -22 -12 -42 -20 -19 -23 -29 -17 -51 12 -45 7 -142 -11 -226 -25 -117 2 -143 39 -38 8 23 24 54 35 69 21 26 21 26 2 42 -11 8 -23 29 -27 47 -5 26 -2 34 14 43 22 11 28 44 11 55 -17 11 -11 32 11 38 30 8 35 -17 42 -183 6 -146 11 -180 29 -180 6 0 8 72 6 198 -4 184 -7 204 -37 312 -17 63 -34 126 -37 140 -4 14 -18 35 -32 47 -18 15 -28 36 -33 70 -7 48 -29 117 -42 129 -3 4 -11 -5 -18 -18z m121 -398 c0 -11 -4 -20 -10 -20 -5 0 -10 9 -10 20 0 11 5 20 10 20 6 0 10 -9 10 -20z" /> 
<path d="M4266 4668 c-13 -29 -42 -70 -65 -92 -45 -42 -53 -79 -22 -96 11 -5 23 -10 28 -10 9 0 31 57 40 102 3 15 11 33 19 39 8 6 14 16 14 21 0 6 14 23 30 38 37 34 38 50 5 50 -21 0 -30 -9 -49 -52z" /> 
<path d="M4042 4698 c-8 -8 -8 -17 -1 -30 12 -22 29 -15 29 12 0 24 -13 33 -28 18z" /> 
<path d="M4194 4685 c-8 -21 6 -41 17 -24 12 19 11 39 -1 39 -6 0 -13 -7 -16 -15z" /> 
<path d="M5048 4689 c-24 -13 -23 -46 1 -54 22 -7 102 -91 143 -151 51 -74 78 -172 78 -284 0 -101 7 -121 28 -75 16 36 32 31 32 -9 0 -43 14 -53 33 -25 12 17 19 19 35 10 31 -17 42 -13 42 13 0 39 -20 84 -45 100 -27 18 -44 4 -25 -19 14 -17 5 -35 -18 -35 -23 0 -47 39 -33 53 24 24 5 102 -36 149 -22 25 -12 60 24 83 41 25 52 59 27 86 -17 19 -19 19 -31 3 -7 -10 -13 -31 -13 -47 0 -42 -35 -33 -63 18 -12 22 -32 51 -44 65 -13 13 -40 48 -60 77 -40 55 -47 59 -75 42z" /> 
<path d="M6050 4671 c0 -10 7 -32 15 -47 8 -16 15 -36 15 -45 0 -9 12 -38 26 -65 15 -27 38 -78 51 -114 14 -36 28 -69 33 -75 4 -5 11 -41 13 -80 12 -156 27 -292 35 -320 l9 -30 12 29 c8 21 9 57 1 135 -10 103 -16 137 -47 271 -15 66 -66 199 -90 235 -7 11 -13 29 -13 42 0 12 -5 25 -11 28 -5 4 -14 18 -19 31 -11 29 -30 32 -30 5z" /> 
<path d="M5700 4673 c-4 -75 -12 -129 -20 -137 -5 -5 -10 -22 -10 -37 0 -14 -9 -38 -21 -53 l-21 -27 26 -24 c14 -13 26 -32 26 -42 1 -44 2 -437 1 -520 -1 -91 -1 -93 -25 -93 -29 0 -36 16 -29 69 7 50 -14 56 -40 12 -21 -36 -22 -59 -1 -82 22 -24 11 -66 -21 -81 -21 -9 -25 -18 -25 -53 0 -26 -6 -48 -15 -55 -8 -7 -15 -18 -15 -25 0 -13 -74 -85 -88 -85 -15 0 -28 16 -46 58 -20 45 -26 48 -57 32 -26 -14 -24 -29 10 -70 l29 -34 -24 -23 c-14 -13 -29 -23 -33 -23 -5 0 -14 -6 -20 -14 -7 -8 -24 -17 -38 -21 -21 -5 -31 -1 -44 16 -22 29 -45 19 -54 -23 -4 -18 -15 -41 -24 -51 -15 -18 -14 -19 34 -12 31 5 70 20 102 41 28 19 55 34 60 34 17 1 149 72 183 99 23 18 52 62 83 125 29 58 66 113 93 140 24 24 44 51 44 60 0 8 6 19 13 23 44 28 70 171 52 283 -6 36 -4 49 9 59 21 18 23 186 2 234 -7 18 -17 68 -20 110 -4 42 -12 77 -17 77 -13 0 -11 -122 2 -189 9 -44 8 -73 -2 -131 -8 -42 -18 -73 -24 -70 -6 3 -11 50 -12 105 -1 55 -4 137 -8 181 -7 75 -6 83 14 103 25 25 27 53 4 92 -16 27 -33 38 -33 22z m48 -650 c17 -110 -10 -212 -31 -116 -9 42 0 183 12 183 5 0 13 -30 19 -67z" /> 
<path d="M3947 4626 c-31 -39 -34 -77 -11 -101 13 -12 19 -13 30 -4 12 10 12 14 -2 30 -14 15 -14 19 -3 23 49 15 50 16 47 48 -4 45 -29 47 -61 4z" /> 
<path d="M4465 4626 c-16 -7 -50 -20 -75 -27 -59 -18 -61 -46 -7 -73 32 -15 42 -16 68 -5 17 6 35 22 39 35 5 12 19 24 32 26 17 2 23 10 23 28 0 30 -33 37 -80 16z" /> 
<path d="M5240 4625 c0 -9 5 -15 11 -13 6 2 11 8 11 13 0 5 -5 11 -11 13 -6 2 -11 -4 -11 -13z" /> 
<path d="M4582 4608 c-15 -15 3 -38 30 -38 15 0 18 -5 13 -20 -4 -12 -2 -26 3 -33 6 -7 12 -23 14 -37 4 -33 42 -40 58 -10 9 18 17 20 43 14 54 -12 75 -31 74 -69 -1 -19 6 -42 16 -53 30 -33 21 -57 -38 -101 -30 -22 -60 -41 -67 -41 -43 -1 -89 -80 -91 -154 -1 -60 23 -111 83 -174 37 -40 43 -42 78 -37 55 9 112 35 157 71 104 84 135 129 135 196 0 23 4 69 10 102 6 37 6 73 0 100 -5 22 -12 54 -15 70 -7 35 -108 137 -164 166 -23 11 -41 18 -41 14 0 -3 24 -28 54 -55 31 -28 68 -75 85 -109 29 -55 31 -66 31 -162 -1 -57 -5 -122 -9 -146 -10 -51 -45 -92 -78 -92 -13 0 -23 -4 -23 -10 0 -5 -14 -25 -31 -45 -31 -35 -80 -48 -94 -25 -3 6 -16 8 -29 4 -17 -4 -25 1 -35 23 -7 15 -28 52 -47 80 -27 40 -33 57 -25 70 16 31 45 51 91 63 25 6 52 13 61 16 9 2 32 28 52 57 37 54 41 93 11 118 -25 21 -17 54 17 66 40 15 29 33 -20 33 -28 0 -44 7 -66 30 -21 22 -38 30 -62 30 -33 0 -50 12 -88 61 -22 29 -76 44 -93 27z" /> 
<path d="M4753 4604 c-29 -13 -9 -24 42 -24 30 0 55 5 55 10 0 6 -6 10 -14 10 -7 0 -26 2 -42 5 -16 2 -35 2 -41 -1z" /> 
<path d="M3366 4555 c-9 -13 -16 -28 -16 -33 0 -5 -7 -15 -15 -22 -17 -14 -21 -74 -4 -68 6 2 22 23 35 48 13 24 28 48 34 54 15 15 12 46 -4 46 -7 0 -21 -11 -30 -25z" /> 
<path d="M3427 4502 c-10 -10 -17 -27 -17 -38 0 -10 -7 -28 -15 -38 -18 -24 -20 -59 -2 -54 6 3 14 13 16 24 1 10 9 26 16 34 7 8 15 24 17 35 3 11 9 28 13 38 9 22 -7 22 -28 -1z" /> 
<path d="M4550 4475 c-36 -36 -52 -45 -80 -45 -33 0 -36 -3 -52 -53 -9 -28 -19 -95 -23 -147 -3 -52 -11 -128 -17 -167 -8 -57 -8 -76 2 -88 7 -8 16 -30 19 -47 5 -23 14 -34 31 -38 22 -5 25 -11 25 -50 0 -46 -19 -65 -30 -30 -5 15 -14 20 -28 18 -17 -2 -23 -11 -25 -39 -3 -33 3 -43 47 -87 27 -27 62 -53 78 -56 15 -4 49 -18 75 -31 48 -24 90 -27 379 -25 14 0 36 11 49 25 13 14 28 25 34 25 40 0 267 167 308 226 15 21 34 56 42 76 9 20 20 39 26 43 5 3 10 24 10 46 0 24 -4 38 -10 34 -12 -7 -50 -92 -50 -112 0 -7 -7 -16 -15 -19 -8 -4 -15 -11 -15 -18 0 -6 -14 -26 -30 -45 -23 -24 -36 -32 -53 -27 -26 6 -48 -11 -99 -74 -46 -58 -102 -89 -129 -72 -10 7 -26 12 -34 12 -20 0 -19 -26 2 -34 12 -5 13 -10 5 -18 -9 -9 -18 -8 -38 1 -19 8 -30 9 -38 1 -5 -5 -17 -10 -25 -10 -8 0 -22 -6 -30 -14 -33 -29 -110 -24 -150 10 -25 21 -34 24 -45 14 -11 -9 -21 -8 -45 4 -16 9 -39 16 -49 16 -11 0 -41 9 -66 21 -52 23 -59 49 -16 59 25 6 31 27 16 61 -14 32 45 9 66 -26 13 -22 24 -31 36 -28 10 2 39 -5 64 -16 26 -11 64 -23 85 -27 21 -4 43 -14 50 -23 9 -13 14 -14 24 -3 7 6 25 12 40 12 15 0 32 7 39 15 7 8 18 15 25 15 7 0 18 6 24 14 7 8 26 18 43 21 16 4 55 18 85 32 44 20 54 29 50 45 -4 13 11 36 51 78 31 33 61 60 68 60 18 0 37 -27 24 -35 -14 -9 -13 -65 3 -65 14 1 47 67 47 96 0 28 -12 41 -44 54 -36 13 -57 7 -76 -25 -19 -31 -134 -149 -177 -182 -49 -38 -104 -63 -136 -63 -16 0 -42 -7 -57 -17 -26 -15 -30 -15 -63 0 -19 10 -41 17 -49 17 -8 0 -23 7 -34 15 -10 8 -24 15 -31 15 -33 1 -107 70 -155 145 l-52 80 0 120 c0 118 0 121 32 173 17 29 32 57 32 62 0 4 17 19 38 31 20 13 40 28 44 33 10 14 10 76 1 76 -5 -1 -28 -21 -53 -45z" /> 
<path d="M4135 4471 c-3 -6 -17 -11 -30 -11 -36 0 -40 -19 -7 -31 29 -10 30 -12 30 -77 0 -46 -6 -77 -20 -103 -17 -33 -18 -49 -12 -138 4 -56 10 -104 14 -106 4 -2 10 50 13 117 4 88 10 125 22 138 8 9 15 25 15 36 0 10 7 28 15 38 24 32 19 99 -9 125 -15 14 -26 19 -31 12z" /> 
<path d="M5381 4431 c-37 -10 -36 -29 2 -47 31 -15 36 -22 41 -65 8 -59 25 -109 37 -109 12 0 12 77 0 84 -5 3 -12 37 -16 76 -7 74 -10 76 -64 61z" /> 
<path d="M3203 4404 c-8 -22 15 -43 27 -24 5 8 10 21 10 28 0 17 -30 15 -37 -4z" /> 
<path d="M3885 4374 c-9 -14 -30 -30 -46 -36 -32 -11 -38 -38 -13 -59 20 -16 13 -58 -16 -97 -11 -15 -22 -45 -25 -67 -3 -22 -8 -59 -11 -83 -3 -23 -3 -50 0 -59 11 -27 26 4 26 53 0 25 6 47 15 54 8 7 15 25 15 40 0 15 6 33 14 39 8 6 16 26 19 44 13 76 28 129 42 150 17 24 20 47 6 47 -5 0 -16 -12 -26 -26z" /> 
<path d="M4286 4388 c-8 -24 -14 -113 -9 -125 3 -7 12 -13 20 -13 12 0 15 9 11 44 -3 25 0 53 8 67 7 13 10 27 8 31 -8 13 -34 9 -38 -4z" /> 
<path d="M4042 4307 c-20 -21 -32 -43 -32 -60 0 -15 -4 -27 -10 -27 -5 0 -10 -9 -10 -20 0 -13 7 -20 19 -20 24 0 34 14 51 70 7 25 20 52 27 61 35 42 -4 39 -45 -4z" /> 
<path d="M3326 4295 c-3 -9 -2 -24 3 -32 7 -14 10 -13 16 6 8 27 -9 51 -19 26z" /> 
<path d="M3260 4258 c0 -61 33 -163 50 -153 15 9 12 61 -4 74 -8 7 -18 37 -22 67 -8 64 -24 72 -24 12z" /> 
<path d="M3751 4196 c-16 -17 -19 -26 -10 -31 7 -5 19 2 30 16 33 43 18 55 -20 15z" /> 
<path d="M3180 4192 c0 -23 29 -64 41 -57 19 12 9 52 -16 63 -22 10 -25 9 -25 -6z" /> 
<path d="M3628 4144 c-5 -4 -8 -17 -8 -29 0 -13 -7 -28 -15 -35 -12 -10 -15 -37 -15 -121 0 -59 4 -110 9 -113 14 -9 21 32 21 125 0 47 5 90 11 96 6 6 9 27 7 48 -2 20 -6 33 -10 29z" /> 
<path d="M4254 4136 c-10 -25 1 -129 14 -134 9 -3 12 14 12 60 0 36 5 69 12 76 9 9 7 12 -10 12 -13 0 -25 -6 -28 -14z" /> 
<path d="M4035 4100 c-8 -16 -22 -33 -31 -38 -9 -5 -15 -15 -12 -22 2 -8 12 -3 28 14 14 14 31 26 38 26 6 0 12 11 12 25 0 34 -16 32 -35 -5z" /> 
<path d="M3200 4073 c0 -16 7 -37 15 -47 22 -29 19 -73 -5 -86 -11 -6 -20 -17 -20 -25 0 -21 36 -19 45 3 16 41 25 -22 22 -148 -4 -125 -5 -131 -30 -158 -32 -33 -34 -48 -8 -62 27 -14 16 -50 -15 -50 -29 0 -30 -7 -5 -39 15 -20 21 -22 39 -12 48 26 52 43 52 246 0 203 -9 281 -42 358 -23 52 -48 63 -48 20z" /> 
<path d="M3677 4053 c-17 -16 3 -123 34 -184 10 -20 21 -62 25 -95 4 -32 10 -63 14 -69 5 -5 11 -31 15 -58 4 -26 12 -50 17 -53 5 -3 6 -19 3 -35 -5 -21 -2 -31 9 -35 9 -3 21 -24 26 -45 9 -34 14 -39 40 -39 21 0 36 -9 52 -30 21 -29 48 -40 48 -20 0 6 -9 19 -20 30 -42 42 -110 143 -110 164 0 11 -7 30 -15 40 -8 11 -15 31 -15 45 0 14 -7 35 -15 45 -10 13 -15 44 -15 91 0 42 -5 79 -13 90 -15 22 -42 94 -51 138 -6 26 -16 34 -29 20z" /> 
<path d="M5598 4043 c-6 -27 2 -55 15 -50 15 5 16 59 1 64 -6 2 -13 -4 -16 -14z" /> 
<path d="M3137 4024 c-3 -3 -3 -12 -1 -19 3 -7 1 -16 -5 -20 -18 -10 -12 -25 9 -25 16 0 20 7 20 35 0 33 -8 43 -23 29z" /> 
<path d="M4790 4021 c0 -17 18 -21 24 -6 3 9 0 15 -9 15 -8 0 -15 -4 -15 -9z" /> 
<path d="M4003 3975 c-13 -9 -23 -25 -23 -37 0 -18 4 -20 31 -14 17 3 36 6 41 6 15 0 4 55 -12 58 -8 1 -25 -5 -37 -13z" /> 
<path d="M4280 3960 c0 -21 4 -30 13 -27 6 2 12 14 12 27 0 13 -6 25 -12 28 -9 2 -13 -7 -13 -28z" /> 
<path d="M3926 3965 c-3 -9 -6 -56 -6 -103 1 -94 18 -159 60 -227 14 -22 27 -45 30 -51 3 -6 15 -24 27 -40 13 -16 32 -42 44 -57 20 -26 132 -107 148 -107 5 0 14 -7 21 -15 9 -11 16 -13 24 -5 12 12 -54 79 -105 105 -19 10 -47 32 -62 49 -36 39 -97 139 -97 158 0 7 -7 24 -16 36 -19 28 -22 105 -4 127 11 13 9 15 -11 13 -22 -3 -24 1 -31 61 -8 69 -12 81 -22 56z" /> 
<path d="M5558 3938 c-7 -13 -17 -31 -23 -40 -5 -9 -22 -40 -38 -68 -32 -58 -54 -86 -119 -149 -27 -25 -48 -48 -48 -52 0 -4 15 -10 33 -13 34 -6 69 -36 80 -68 9 -25 34 -22 41 5 10 42 -4 65 -50 83 -24 9 -44 22 -44 29 0 13 68 45 94 45 7 0 21 9 31 20 14 16 16 23 7 32 -22 22 -12 45 48 111 57 61 59 67 41 76 -29 16 -39 14 -53 -11z" /> 
<path d="M4127 3895 c-8 -19 2 -73 14 -81 5 -3 9 -14 9 -26 0 -14 -5 -18 -16 -14 -9 3 -19 6 -24 6 -5 0 -10 10 -12 23 -4 29 -53 37 -60 10 -7 -28 2 -43 26 -43 15 0 27 -9 34 -25 9 -19 19 -25 42 -25 19 0 34 -7 42 -20 17 -27 36 -25 44 3 3 16 -5 43 -27 83 -18 32 -35 72 -38 88 -7 33 -26 45 -34 21z" /> 
<path d="M4316 3882 c-3 -5 6 -20 19 -32 14 -13 25 -18 25 -11 0 17 -37 54 -44 43z" /> 
<path d="M3645 3850 c-10 -16 5 -71 21 -77 24 -9 16 -42 -18 -72 -26 -23 -30 -32 -21 -42 9 -9 15 -8 27 4 9 8 20 17 26 19 17 5 29 73 17 94 -6 10 -13 32 -16 48 -7 31 -25 44 -36 26z" /> 
<path d="M3156 3815 c-20 -30 -20 -41 -1 -49 8 -3 15 -15 15 -26 0 -11 -7 -23 -15 -26 -19 -8 -20 -34 -2 -34 18 0 41 27 56 66 11 27 10 37 -3 63 -20 37 -29 39 -50 6z" /> 
<path d="M5901 3798 c-5 -14 -15 -29 -20 -33 -6 -3 -11 -17 -11 -29 0 -13 -7 -29 -15 -36 -8 -7 -15 -19 -15 -27 0 -24 -32 -75 -70 -110 -19 -18 -37 -33 -40 -33 -3 0 -14 -17 -25 -37 -11 -21 -26 -45 -35 -54 -8 -9 -31 -34 -51 -55 -42 -45 -68 -67 -129 -110 -69 -47 -137 -84 -154 -84 -9 0 -26 -12 -39 -26 -12 -14 -47 -42 -77 -62 -30 -20 -56 -40 -58 -44 -2 -5 -16 -8 -32 -8 -15 0 -33 -7 -40 -15 -7 -9 -30 -15 -54 -16 -22 -1 -52 -4 -66 -8 l-25 -7 23 -13 c25 -13 85 -6 117 14 11 7 39 16 63 20 51 8 55 -5 15 -58 -30 -38 -43 -42 -126 -38 -34 2 -54 -2 -67 -14 -24 -22 -65 -22 -88 -2 -18 17 -47 15 -91 -6 -19 -10 -25 -8 -37 7 -13 18 -14 18 -20 2 -5 -14 -14 -16 -39 -12 -24 5 -38 2 -51 -11 -44 -45 -67 -53 -156 -53 -68 0 -88 -3 -88 -14 0 -15 145 -26 312 -23 99 2 121 8 100 29 -19 19 -14 32 19 47 27 12 32 11 50 -5 18 -16 18 -18 3 -35 -15 -17 -15 -19 -1 -25 29 -11 62 0 62 21 0 30 36 65 67 65 37 0 45 -17 14 -32 -40 -17 -31 -28 23 -28 31 0 53 5 61 15 9 10 32 15 74 15 66 0 104 14 73 26 -10 3 -31 4 -47 0 -69 -13 -82 24 -15 42 55 15 125 16 125 2 0 -5 16 -10 35 -10 36 0 47 16 20 27 -9 3 -23 19 -31 35 -13 25 -20 29 -43 25 -46 -10 -57 5 -36 50 29 60 44 67 80 34 17 -16 37 -31 46 -34 9 -3 29 -26 45 -51 20 -31 36 -45 52 -46 26 0 28 8 6 39 -16 22 -15 24 27 69 24 25 65 67 92 93 47 47 57 71 35 85 -11 7 -77 -61 -78 -81 -1 -15 -43 -61 -62 -68 -47 -17 -50 90 -3 130 14 13 32 23 39 23 13 0 103 93 138 142 14 20 19 21 37 11 30 -18 31 -17 31 26 0 28 8 47 30 72 16 19 30 38 30 43 0 4 13 25 28 45 15 20 36 56 46 81 10 25 24 60 32 78 10 22 11 39 5 50 -8 15 -11 14 -20 -10z m-451 -673 c0 -41 -20 -47 -44 -13 -24 34 -20 48 14 48 28 0 30 -3 30 -35z m-712 -267 c-3 -7 -23 -14 -46 -16 -33 -2 -42 0 -42 12 0 12 11 16 46 16 32 0 44 -4 42 -12z" /> 
<path d="M5985 3784 c-16 -21 -29 -53 -32 -77 -8 -74 -13 -88 -48 -123 -40 -39 -44 -54 -15 -54 25 0 60 37 67 73 3 15 9 27 13 27 12 0 31 53 28 80 -3 22 1 25 25 22 26 -3 27 -1 27 43 0 37 -3 45 -19 45 -10 0 -31 -16 -46 -36z" /> 
<path d="M6236 3768 c-3 -13 -8 -54 -11 -93 -4 -38 -13 -89 -21 -113 -8 -23 -14 -64 -14 -91 0 -31 -5 -53 -15 -61 -8 -7 -15 -23 -15 -35 0 -13 -10 -36 -23 -52 -13 -15 -27 -35 -30 -43 -4 -8 -16 -28 -26 -45 -11 -16 -30 -50 -42 -75 -76 -151 -111 -193 -234 -285 -37 -27 -73 -62 -81 -77 -13 -25 -112 -98 -196 -145 -21 -12 -54 -35 -73 -51 -18 -17 -117 -71 -219 -121 l-186 -91 -92 0 c-88 0 -131 -10 -115 -26 4 -4 51 -12 105 -17 l98 -10 80 38 c261 125 293 142 378 207 27 20 61 39 74 43 26 6 92 58 176 139 28 26 78 69 111 94 91 71 126 115 231 292 60 100 104 200 104 233 0 13 4 27 9 32 5 6 13 35 19 65 6 30 18 75 27 100 13 35 14 53 6 85 -6 23 -8 57 -5 77 7 39 -12 64 -20 26z" /> 
<path d="M3564 3756 c-4 -10 -2 -22 4 -28 8 -8 13 -7 18 6 4 10 2 22 -4 28 -8 8 -13 7 -18 -6z" /> 
<path d="M4640 3696 c0 -9 7 -16 16 -16 9 0 14 5 12 12 -6 18 -28 21 -28 4z" /> 
<path d="M3052 3687 c-26 -30 -25 -75 0 -119 14 -24 33 -65 43 -93 10 -27 26 -59 36 -70 9 -11 36 -59 59 -107 101 -211 372 -525 563 -654 49 -32 103 -67 120 -78 18 -10 44 -27 59 -37 15 -11 33 -19 39 -19 6 0 17 -6 23 -14 18 -23 146 -68 221 -78 39 -5 93 -14 120 -20 81 -16 115 -9 137 31 12 20 18 48 16 70 -3 36 -3 36 -55 39 -39 2 -53 0 -53 -10 0 -20 21 -38 42 -38 19 0 35 -26 24 -38 -4 -3 -50 -5 -102 -4 -73 3 -105 8 -135 23 -26 14 -48 19 -68 14 -40 -8 -49 11 -17 36 36 28 33 39 -12 39 -23 0 -57 10 -83 25 -24 13 -69 36 -99 51 -112 54 -136 66 -181 92 -64 37 -114 80 -145 124 -14 21 -35 40 -45 43 -13 4 -19 16 -19 34 0 15 -9 36 -20 46 -11 10 -20 24 -20 32 0 19 -17 16 -30 -4 -9 -17 -12 -16 -28 5 -9 13 -29 37 -44 53 -32 34 -34 52 -13 93 20 38 11 45 -24 18 l-29 -21 -23 47 c-20 43 -64 107 -96 140 -7 7 -13 20 -13 27 0 8 -6 18 -12 22 -17 11 -48 67 -48 87 0 8 8 20 18 25 16 10 15 12 -7 29 -20 16 -23 25 -17 55 7 38 -6 56 -28 38 -17 -14 -26 -4 -26 28 0 38 -14 56 -28 38z m986 -1166 c3 -8 -4 -12 -19 -9 -13 1 -25 11 -27 20 -3 15 1 16 19 9 13 -4 25 -13 27 -20z" /> 
<path d="M4122 3627 c-27 -29 -27 -28 2 -62 27 -31 33 -27 37 34 5 52 -8 61 -39 28z" /> 
<path d="M4227 3644 c-9 -9 23 -54 39 -54 20 0 17 24 -4 43 -20 19 -26 20 -35 11z" /> 
<path d="M3569 3623 c0 -10 -2 -29 -4 -43 -4 -29 23 -185 35 -209 5 -9 19 -38 31 -66 27 -60 92 -147 144 -192 20 -18 39 -33 41 -33 2 0 22 -18 46 -41 78 -73 152 -127 223 -163 68 -35 125 -46 125 -26 0 6 -4 10 -10 10 -5 0 -18 8 -28 18 -21 21 -84 52 -105 52 -28 0 -85 44 -107 83 -17 29 -27 37 -50 37 -41 0 -126 90 -122 129 3 25 1 27 -25 24 -22 -4 -34 2 -56 26 -26 30 -37 71 -17 71 12 0 80 -38 101 -56 8 -8 23 -14 32 -14 29 0 28 18 -3 40 -44 31 -57 60 -35 76 17 12 17 15 -4 58 -11 25 -21 55 -21 67 0 21 -1 21 -20 -4 -21 -27 -27 -72 -10 -82 6 -3 10 -13 10 -21 0 -12 -10 -14 -41 -12 -44 3 -39 -2 -93 106 -10 21 -16 59 -16 102 0 38 -4 72 -10 75 -5 3 -10 -2 -11 -12z" /> 
<path d="M5992 3566 c-17 -30 -32 -59 -32 -64 0 -6 -6 -17 -12 -24 -15 -15 -38 -77 -38 -99 1 -24 49 45 90 131 12 25 26 53 31 62 11 21 12 48 1 48 -4 0 -22 -24 -40 -54z" /> 
<path d="M5230 3579 c-30 -17 -71 -40 -90 -52 -93 -57 -95 -57 -349 -57 -193 0 -241 3 -257 15 -10 8 -24 15 -31 15 -7 0 -34 20 -60 45 -54 50 -69 55 -78 24 -5 -14 0 -28 14 -43 17 -18 22 -36 22 -84 1 -57 3 -63 25 -68 13 -3 26 -14 29 -24 7 -22 43 -36 57 -22 5 5 8 25 6 43 -2 28 -8 35 -29 37 -33 4 -61 48 -39 62 20 13 47 3 90 -30 19 -15 52 -33 72 -40 21 -6 49 -25 63 -42 24 -29 25 -31 8 -44 -10 -7 -15 -14 -10 -14 12 0 87 52 87 61 0 5 -22 18 -50 30 -27 12 -50 28 -50 35 0 19 90 19 116 -1 21 -16 94 -21 94 -6 0 17 35 22 111 15 70 -6 77 -8 67 -23 -14 -24 -92 -64 -114 -59 -10 2 -21 14 -24 28 -3 14 -12 25 -20 25 -16 0 -61 -65 -76 -110 -8 -24 -16 -31 -44 -33 -19 -2 -39 -9 -44 -17 -17 -20 -53 -24 -73 -9 -17 13 -17 15 1 29 11 8 16 18 12 22 -4 5 -14 -1 -22 -11 -18 -26 -35 -10 -43 41 -4 26 -12 39 -25 41 -15 3 -17 0 -11 -14 30 -70 -12 -102 -87 -65 -25 11 -55 32 -68 46 -24 26 -70 34 -70 13 0 -6 21 -31 48 -55 45 -42 90 -61 157 -68 16 -2 54 -8 84 -14 66 -14 166 -14 290 -1 94 10 121 20 121 46 0 19 -77 18 -110 -1 -14 -8 -39 -14 -57 -15 -33 0 -51 14 -33 25 5 3 10 16 10 29 0 29 10 39 26 25 9 -7 29 -7 66 0 73 13 105 27 117 49 6 11 22 23 36 26 23 6 25 11 24 44 -5 69 23 76 73 18 22 -26 30 -29 45 -20 30 18 28 42 -4 46 -47 5 -41 34 16 69 32 20 51 39 51 50 0 24 -5 24 -70 -12z" /> 
<path d="M3710 3562 c0 -10 -12 -22 -30 -29 -33 -12 -39 -33 -15 -53 19 -15 45 3 45 31 0 10 5 21 10 24 6 3 10 15 10 26 0 10 -4 19 -10 19 -5 0 -10 -8 -10 -18z" /> 
<path d="M4206 3545 c-28 -22 -29 -26 -16 -49 8 -16 22 -26 36 -26 29 0 38 14 19 30 -11 9 -12 16 -2 31 20 32 -4 41 -37 14z" /> 
<path d="M5847 3513 c-4 -3 -7 -32 -7 -63 0 -46 -4 -60 -23 -79 -21 -19 -25 -20 -37 -6 -17 20 -30 19 -64 -9 -30 -25 -28 -46 3 -46 27 0 43 -24 36 -53 -7 -27 -56 -87 -71 -87 -5 0 -17 -8 -25 -17 -9 -10 -32 -32 -52 -50 -21 -17 -37 -35 -37 -39 0 -4 -7 -12 -17 -19 -10 -8 -12 -14 -5 -19 6 -3 53 34 105 84 52 49 100 90 107 90 6 0 29 18 51 41 38 40 49 72 29 84 -13 8 -3 43 16 63 8 7 14 21 14 31 0 9 4 21 10 27 6 6 6 21 -2 42 -12 32 -19 38 -31 25z" /> 
<path d="M3257 3386 c-17 -26 -13 -36 14 -36 12 0 27 -16 40 -42 24 -48 47 -73 56 -64 16 16 -58 166 -82 166 -7 0 -20 -11 -28 -24z" /> 
<path d="M3843 3383 c-23 -9 -14 -33 12 -33 18 0 28 -7 35 -24 5 -13 33 -49 64 -80 30 -31 56 -66 58 -78 2 -16 12 -24 33 -28 17 -4 39 -12 50 -18 11 -6 27 -13 35 -16 8 -4 33 -17 55 -31 22 -13 50 -24 61 -25 12 0 24 -7 28 -15 3 -8 17 -15 31 -15 16 0 25 6 25 15 0 8 -7 15 -16 15 -8 0 -39 14 -69 30 -30 17 -61 30 -69 30 -9 0 -16 4 -16 9 0 5 -20 19 -44 30 -42 21 -216 192 -229 225 -6 16 -21 19 -44 9z" /> 
<path d="M3854 3185 c-9 -14 -14 -28 -12 -31 6 -6 87 11 96 20 9 9 -9 23 -40 30 -22 5 -31 1 -44 -19z" /> 
<path d="M3412 3108 c4 -46 28 -49 28 -4 0 26 -4 36 -16 36 -11 0 -14 -8 -12 -32z" /> 
<path d="M4015 3087 c-17 -24 -19 -55 -6 -76 11 -17 31 -5 31 19 0 10 5 22 10 25 15 9 12 42 -5 49 -8 3 -21 -4 -30 -17z" /> 
<path d="M4107 3054 c-4 -4 -7 -20 -7 -36 0 -21 5 -28 20 -28 29 0 36 28 13 51 -10 11 -22 16 -26 13z" /> 
<path d="M4390 3030 c-23 -23 -18 -36 15 -42 14 -2 20 -11 20 -28 0 -20 -6 -26 -30 -30 -22 -4 -31 -11 -33 -29 -4 -22 -1 -23 30 -17 77 16 116 18 122 7 4 -6 18 -11 32 -11 19 0 26 6 31 30 3 17 10 33 15 36 14 9 247 18 293 12 33 -5 30 29 -4 46 -37 20 -65 20 -94 2 -33 -21 -125 -29 -177 -15 -25 6 -68 12 -97 13 -39 1 -57 7 -76 24 l-25 24 -22 -22z" /> 
<path d="M4196 3003 c-14 -14 -4 -34 31 -57 36 -25 53 -26 53 -3 0 15 -75 69 -84 60z" /> 
<path d="M4230 2550 c0 -5 9 -10 20 -10 11 0 20 5 20 10 0 6 -9 10 -20 10 -11 0 -20 -4 -20 -10z" /> 
<path d="M4526 2381 c-13 -21 5 -31 57 -31 51 0 88 13 75 25 -13 13 -125 18 -132 6z" /> 
</g>
</svg>
