<?xml version="1.0" standalone="no"?>
<!DOCTYPE svg PUBLIC "-//W3C//DTD SVG 20010904//EN"
 "http://www.w3.org/TR/2001/REC-SVG-20010904/DTD/svg10.dtd">
<svg version="1.0" xmlns="http://www.w3.org/2000/svg"
 width="300.000000pt" height="248.000000pt" viewBox="0 0 300.000000 248.000000"
 preserveAspectRatio="xMidYMid meet">
<metadata>
Created by potrace 1.10, written by Peter Selinger 2001-2011
</metadata>
<g transform="translate(0.000000,248.000000) scale(0.100000,-0.100000)"
fill="#000000" stroke="none">
<path d="M1000 2330 c0 -5 4 -10 9 -10 18 0 34 -102 27 -174 -11 -132 -63 -256 -143 -342 -42 -46 -139 -131 -110 -98 18 22 22 34 10 34 -5 0 -19 -16 -32 -36 -47 -68 -196 -160 -278 -171 -47 -6 -48 -5 -31 13 43 49 106 216 122 323 14 99 -46 333 -97 378 -20 18 -20 18 -2 -9 17 -28 17 -28 -5 -28 -16 0 -64 -41 -161 -138 -182 -183 -312 -378 -308 -462 0 -14 19 21 24 46 11 46 125 226 190 299 66 73 200 206 227 226 14 10 33 16 41 13 19 -7 47 -86 47 -133 0 -23 3 -31 9 -23 9 16 21 -54 21 -128 0 -107 -90 -345 -148 -390 -28 -23 -24 -37 6 -21 12 6 32 11 45 11 64 0 204 79 345 193 118 95 181 187 223 322 25 83 28 239 4 284 -15 30 -35 42 -35 21z"/>
<path d="M400 2282 c-51 -27 -80 -46 -80 -54 0 -4 22 7 49 24 76 46 122 47 203 5 90 -47 163 -70 199 -63 32 6 114 55 106 63 -3 2 -23 -7 -44 -21 -23 -16 -51 -26 -74 -26 -41 0 -127 26 -149 46 -24 21 -98 44 -139 44 -20 0 -52 -8 -71 -18z"/>
<path d="M1060 1803 c-8 -2 -24 -8 -35 -13 -11 -5 -40 -17 -65 -28 -95 -40 -223 -190 -251 -295 -13 -50 -5 -112 20 -154 27 -43 102 -68 179 -58 95 12 272 89 331 144 19 18 35 30 38 28 2 -2 -34 -40 -80 -84 -90 -87 -190 -151 -277 -178 -58 -19 -85 -35 -58 -35 31 0 157 58 225 102 155 103 283 279 302 418 4 34 4 63 0 66 -9 5 -15 -18 -22 -83 -7 -64 -53 -146 -113 -203 -53 -50 -142 -98 -250 -136 -61 -22 -191 -25 -227 -5 -35 18 -59 73 -59 131 0 88 117 258 217 315 22 13 66 31 98 41 31 10 57 21 57 26 0 9 -7 9 -30 1z"/>
<path d="M1790 1469 c-66 -4 -111 -15 -200 -48 -194 -73 -249 -104 -338 -195 -69 -70 -83 -90 -100 -146 -12 -36 -24 -82 -28 -103 -7 -41 4 -167 14 -167 4 0 7 46 7 102 0 89 4 113 28 174 18 46 41 84 67 109 l41 40 -12 -33 c-7 -19 -9 -53 -5 -80 8 -64 65 -202 82 -202 12 0 12 4 -1 23 -31 49 -66 153 -66 203 -2 101 43 142 167 151 102 8 236 -21 335 -73 17 -8 36 -13 42 -11 7 2 -7 12 -30 22 -24 9 -43 21 -43 25 0 4 -12 10 -27 12 -16 3 -64 15 -108 28 -79 22 -162 23 -235 4 -50 -13 -5 14 81 50 208 85 331 111 495 104 52 -2 91 -1 86 3 -10 11 -152 15 -252 8z"/>
<path d="M1604 1201 c-73 -31 -154 -198 -154 -318 0 -61 28 -143 62 -183 61 -72 327 -131 390 -87 35 25 50 39 84 79 36 41 79 158 69 188 -9 28 -23 25 -18 -4 7 -35 -22 -113 -61 -167 -36 -48 -122 -99 -167 -99 -45 1 -189 38 -217 56 l-27 18 35 9 c170 43 260 104 319 216 14 26 17 77 6 110 -12 40 -21 21 -17 -39 5 -66 -2 -81 -66 -152 -43 -47 -102 -79 -204 -109 l-77 -22 -29 24 c-20 16 -38 46 -53 90 -20 60 -21 71 -11 125 33 166 145 290 227 252 21 -9 29 -9 40 3 12 12 6 14 -48 16 -34 1 -71 -2 -83 -6z"/>
<path d="M2220 677 c-103 -31 -196 -85 -258 -151 -63 -67 -82 -108 -82 -178 0 -78 29 -129 101 -177 68 -45 129 -61 236 -61 57 0 88 5 120 21 46 22 102 84 128 140 16 33 16 33 10 4 -9 -41 -80 -149 -113 -172 -69 -46 -105 -56 -207 -57 -97 -1 -102 0 -172 37 -91 48 -162 124 -211 226 -32 66 -37 87 -39 156 -3 97 -2 95 -13 69 -4 -11 -4 -59 1 -107 7 -68 16 -100 39 -142 16 -30 30 -61 30 -69 0 -8 36 -44 81 -79 97 -78 175 -107 289 -107 133 0 220 49 292 167 38 61 53 127 50 216 -3 68 -28 107 -87 138 -11 5 -5 -3 13 -19 17 -16 32 -34 32 -40 0 -7 5 -12 11 -12 7 0 10 -12 7 -30 -3 -16 -1 -30 4 -30 11 0 10 -37 -2 -81 -16 -56 -85 -155 -129 -184 -98 -66 -311 -34 -404 59 -34 33 -57 96 -57 151 0 34 26 94 53 123 28 30 108 71 172 88 68 19 212 18 248 -1 15 -8 25 -9 21 -4 -19 32 137 -28 178 -68 15 -15 31 -24 35 -20 9 9 -14 57 -28 57 -6 0 -25 7 -42 14 -54 25 -148 46 -235 53 -94 7 -169 -7 -247 -45 -45 -22 -48 -23 -32 -4 19 21 125 77 180 94 60 19 107 26 100 15 -4 -6 0 -8 11 -4 10 4 24 7 32 7 8 0 14 7 14 15 0 21 -40 18 -130 -8z"/>
</g>
</svg>
