<?xml version="1.0" standalone="no"?>
<!DOCTYPE svg PUBLIC "-//W3C//DTD SVG 20010904//EN"
 "http://www.w3.org/TR/2001/REC-SVG-20010904/DTD/svg10.dtd">
<svg version="1.0" xmlns="http://www.w3.org/2000/svg"
 width="300.000000pt" height="349.000000pt" viewBox="0 0 300.000000 349.000000"
 preserveAspectRatio="xMidYMid meet">
<metadata>
Created by potrace 1.10, written by Peter Selinger 2001-2011
</metadata>
<g transform="translate(0.000000,349.000000) scale(0.100000,-0.100000)"
fill="#000000" stroke="none">
<path d="M2125 2477 c-22 -12 -45 -29 -52 -37 -11 -13 -12 -13 -13 3 0 9 -4 17 -10 17 -6 0 -5 -10 2 -26 9 -19 9 -27 0 -33 -6 -3 -21 -29 -33 -55 -18 -42 -20 -60 -15 -120 12 -122 91 -260 181 -316 48 -30 121 -43 163 -29 77 25 173 146 186 233 4 27 10 55 14 64 3 10 1 13 -6 8 -7 -4 -13 10 -17 41 -8 62 -23 100 -52 141 -33 45 -15 40 39 -10 25 -24 65 -60 89 -82 45 -40 60 -59 104 -136 14 -25 37 -60 50 -79 14 -19 25 -42 25 -52 0 -11 5 -19 10 -19 20 0 9 28 -35 96 -25 37 -45 72 -45 77 0 36 -162 194 -285 278 l-80 55 -90 2 c-77 2 -96 -1 -130 -21z m219 -11 c96 -40 159 -145 170 -281 7 -76 5 -83 -24 -142 -43 -87 -127 -153 -192 -153 -128 1 -264 169 -275 340 -5 71 -4 78 26 125 17 27 31 53 31 58 0 16 28 37 49 37 12 0 20 3 20 8 -1 4 -1 10 0 15 2 13 160 8 195 -7z"/>
<path d="M1946 2303 c-11 -26 -43 -71 -72 -101 -53 -53 -53 -53 -101 -47 -26 4 -53 13 -59 21 -6 8 -16 14 -22 14 -6 0 -12 3 -14 8 -7 15 -88 64 -100 60 -7 -3 8 -16 32 -31 25 -14 61 -43 81 -64 36 -37 111 -159 122 -198 12 -38 17 -240 9 -317 -4 -43 -5 -78 -1 -78 11 0 19 42 19 108 0 35 5 72 10 82 7 14 6 49 -5 120 -11 80 -22 115 -50 165 -20 35 -42 69 -50 75 -26 21 -17 27 38 22 51 -4 53 -3 101 45 27 26 59 72 72 101 26 58 27 62 17 62 -5 0 -17 -21 -27 -47z"/>
<path d="M1322 2195 c-88 -16 -134 -34 -226 -87 -117 -68 -263 -191 -297 -250 -18 -32 -1 -19 73 55 92 92 161 143 268 199 96 50 175 71 272 71 56 0 79 -6 134 -33 54 -26 74 -44 115 -99 94 -126 130 -227 125 -346 -3 -62 -22 -95 -56 -96 -14 0 -34 -4 -45 -8 -19 -8 -115 17 -115 29 0 4 -10 18 -23 32 -13 14 -34 58 -47 99 -21 69 -22 81 -13 169 6 52 9 97 7 99 -8 9 -25 -57 -31 -124 -8 -104 22 -205 82 -270 44 -48 97 -65 165 -51 49 10 57 15 71 46 26 54 38 100 28 100 -5 0 -9 18 -9 39 0 22 -9 67 -19 101 -21 66 -109 207 -158 251 -56 51 -94 67 -203 84 -14 2 -58 -3 -98 -10z"/>
<path d="M1088 1768 c-44 -16 -32 -26 17 -15 35 8 58 7 110 -8 37 -10 69 -24 72 -32 3 -7 18 -20 33 -28 38 -20 115 -100 145 -151 38 -65 58 -156 58 -264 -1 -80 -5 -106 -28 -160 -31 -75 -86 -137 -156 -175 -45 -24 -56 -26 -117 -20 -142 14 -215 56 -301 175 -49 68 -122 200 -136 248 -3 12 -10 20 -14 17 -11 -6 -1 -56 14 -75 7 -8 27 -42 44 -75 59 -113 155 -230 215 -262 43 -22 113 -40 186 -48 62 -6 68 -4 125 30 83 50 111 79 145 152 50 105 56 267 15 388 -33 94 -114 197 -181 227 -32 15 -31 30 1 18 40 -15 107 -51 138 -74 48 -35 134 -152 159 -216 12 -33 26 -60 30 -60 29 0 -53 156 -121 231 -69 76 -118 104 -262 153 -110 37 -145 42 -191 24z"/>
<path d="M385 1296 c-58 -14 -115 -42 -115 -56 0 -14 7 -13 35 6 31 20 120 44 167 44 48 0 135 -23 184 -49 56 -29 191 -164 247 -246 26 -39 58 -102 72 -140 29 -79 55 -239 55 -335 l0 -65 -32 40 c-47 58 -73 80 -168 148 -165 118 -269 161 -420 173 -87 7 -159 -3 -253 -33 -38 -12 -51 -12 -62 -3 -20 16 -20 4 1 -68 53 -189 118 -304 233 -419 136 -134 259 -190 439 -200 73 -4 102 -3 102 6 0 7 -27 11 -83 11 -98 0 -171 17 -274 65 -61 29 -94 54 -173 133 -88 88 -102 107 -153 212 -31 63 -60 135 -65 160 -5 25 -12 52 -16 60 -11 26 135 55 269 55 117 -1 158 -10 279 -66 130 -59 314 -204 368 -288 15 -25 28 -41 29 -35 4 39 -5 188 -17 279 -26 190 -83 302 -229 454 -140 145 -271 194 -420 157z"/>
<path d="M230 1190 c0 -5 6 -10 14 -10 19 0 52 -43 67 -87 23 -70 -31 -137 -128 -157 -43 -10 -109 -59 -128 -95 -23 -45 -20 -146 6 -182 32 -45 39 -34 12 19 -19 36 -23 57 -19 90 11 86 50 124 158 156 126 36 160 164 67 257 -20 20 -49 26 -49 9z"/>
</g>
</svg>
