<?xml version="1.0" standalone="no"?>
<!DOCTYPE svg PUBLIC "-//W3C//DTD SVG 20010904//EN"
 "http://www.w3.org/TR/2001/REC-SVG-20010904/DTD/svg10.dtd">
<svg version="1.0" xmlns="http://www.w3.org/2000/svg"
 width="300.000000pt" height="399.000000pt" viewBox="0 0 300.000000 399.000000"
 preserveAspectRatio="xMidYMid meet">
<metadata>
Created by potrace 1.10, written by Peter Selinger 2001-2011
</metadata>
<g transform="translate(0.000000,399.000000) scale(0.100000,-0.100000)"
fill="#000000" stroke="none">
<path d=""/>
<path/>
<path d=""/>
<path d="M2925 3388 c-135 -59 -281 -185 -441 -378 -128 -155 -251 -360 -238 -395 8 -21 34 0 34 27 0 62 231 381 377 520 100 95 205 172 277 203 36 15 66 34 66 42 0 16 8 18 -75 -19z"/>
<path d=""/>
<path/>
<path d="M667 3166 c-95 -34 -108 -45 -144 -117 -51 -104 -58 -135 -58 -259 1 -232 50 -305 235 -345 352 -76 398 -93 480 -181 63 -67 80 -98 99 -177 17 -75 14 -137 -11 -187 -56 -109 -226 -154 -327 -87 -20 13 -47 27 -60 32 -36 11 -141 89 -196 144 -49 51 -50 52 -48 111 1 46 -2 58 -13 53 -9 -3 -14 -21 -14 -54 0 -61 27 -107 102 -173 67 -59 229 -152 288 -165 75 -17 185 15 253 74 63 56 78 163 41 295 -26 89 -126 201 -220 245 -54 26 -216 68 -301 80 -29 4 -53 11 -53 16 0 5 -19 9 -43 9 -100 0 -159 71 -183 221 -13 77 -14 108 -4 169 12 77 65 203 98 233 25 23 122 57 160 57 63 0 159 -102 177 -187 6 -32 18 -42 29 -24 12 19 -29 112 -68 157 -72 81 -121 95 -219 60z"/>
<path d="M1975 3088 c11 -54 15 -490 5 -556 -15 -93 -21 -155 -26 -303 -5 -125 -4 -141 16 -187 12 -28 28 -53 36 -56 19 -7 18 7 -6 48 -17 28 -21 51 -21 128 1 128 1 127 19 273 19 159 23 610 6 668 -3 9 -12 17 -21 17 -12 0 -14 -7 -8 -32z"/>
<path d=""/>
<path d="M2426 2609 c-14 -11 -26 -29 -26 -39 0 -10 -13 -31 -30 -46 -16 -16 -32 -41 -35 -56 -7 -31 -44 -41 -41 -12 0 9 -5 19 -11 21 -15 5 -18 -23 -3 -32 13 -8 13 -81 -1 -125 -20 -65 -28 -331 -11 -353 5 -7 17 -33 27 -59 10 -27 23 -48 29 -48 7 0 27 -11 46 -25 58 -43 130 -31 200 32 47 42 87 102 152 224 15 28 32 57 39 65 6 8 9 14 5 14 -3 0 14 41 40 91 25 50 43 94 40 97 -10 9 -33 -27 -87 -138 -77 -159 -169 -308 -211 -341 -25 -20 -53 -32 -85 -36 -43 -5 -54 -2 -96 27 -33 22 -47 38 -47 54 0 13 -7 29 -15 36 -9 7 -14 19 -11 26 3 7 1 14 -4 16 -13 4 -15 151 -3 173 7 12 28 20 69 26 77 10 102 31 148 121 44 88 56 173 36 257 -12 50 -13 51 -50 51 -23 0 -48 -8 -64 -21z m85 -20 c6 -13 9 -53 7 -103 -3 -67 -10 -93 -39 -151 -38 -77 -64 -100 -126 -113 l-42 -10 3 87 c2 80 6 92 47 170 24 46 51 86 59 89 8 3 25 16 37 29 27 29 39 29 54 2z m-207 -351 c-4 -6 -10 -5 -15 3 -14 22 -10 33 6 19 8 -7 12 -17 9 -22z"/>
<path d="M1573 2470 c-74 -45 -142 -213 -157 -385 -6 -78 53 -185 104 -185 40 0 93 24 126 58 41 42 57 70 79 139 9 26 20 57 25 68 32 75 34 181 4 206 -8 6 -14 16 -14 22 0 5 -19 29 -42 53 -48 50 -75 55 -125 24z m95 -27 c31 -18 78 -99 85 -148 3 -16 -1 -45 -8 -65 -8 -19 -23 -66 -35 -105 -32 -110 -105 -195 -166 -195 -50 0 -74 21 -90 79 -15 50 -15 63 0 151 18 112 46 186 94 253 38 53 67 60 120 30z"/>
<path d=""/>
<path d=""/>
<path d=""/>
<path d=""/>
<path d="M2417 1666 c-31 -7 -60 -23 -85 -46 -20 -20 -49 -44 -65 -53 -33 -21 -71 -79 -87 -133 -26 -87 39 -185 185 -279 33 -21 72 -47 88 -57 15 -10 44 -30 65 -44 20 -13 58 -50 83 -80 69 -82 84 -177 53 -317 -20 -86 -74 -184 -140 -249 -39 -39 -44 -49 -30 -54 27 -10 101 82 164 204 18 35 31 69 29 75 -2 7 0 23 5 37 13 34 11 184 -3 230 -25 82 -96 152 -259 255 -86 54 -104 68 -156 119 -63 62 -74 106 -48 185 9 28 19 51 23 51 4 0 37 27 74 60 37 32 82 63 101 68 46 13 116 -5 116 -30 0 -10 11 -24 25 -30 14 -6 32 -22 40 -35 9 -13 27 -28 41 -33 14 -6 24 -18 24 -29 0 -11 5 -23 11 -26 5 -4 15 -17 20 -28 6 -12 21 -40 34 -62 14 -22 27 -47 31 -55 3 -8 21 -48 40 -88 19 -40 34 -77 34 -81 0 -5 6 -14 14 -20 24 -20 27 4 6 45 -11 22 -43 86 -70 144 -52 111 -97 196 -117 220 -60 73 -77 90 -88 90 -7 0 -15 5 -17 11 -2 6 -24 19 -48 28 -37 14 -54 15 -93 7z"/>
<path d=""/>
<path d="M1795 1621 c-16 -10 -62 -52 -102 -92 -65 -66 -74 -81 -89 -139 -23 -89 -16 -244 12 -265 10 -7 16 -17 12 -21 -12 -11 128 -84 163 -84 32 0 10 28 -27 35 -50 9 -96 37 -120 73 -30 44 -39 153 -19 241 15 66 19 71 104 155 97 94 121 104 164 64 13 -13 32 -42 42 -66 16 -38 17 -50 6 -110 -7 -37 -22 -90 -34 -118 -28 -64 -97 -144 -125 -144 -15 0 -20 5 -16 14 5 13 2 13 -20 3 -30 -14 -33 -29 -10 -48 14 -11 23 -9 62 11 87 48 172 213 172 336 0 116 -99 204 -175 155z"/>
<path d="M1006 1553 c-4 -9 -2 -20 5 -23 8 -5 6 -34 -6 -106 -24 -142 -22 -316 4 -299 5 2 6 35 4 72 -3 38 2 120 11 183 20 143 21 190 2 190 -8 0 -17 -8 -20 -17z"/>
<path d="M1320 1544 c0 -3 5 -14 10 -25 6 -11 11 -72 11 -137 0 -108 -7 -175 -31 -322 -5 -30 -14 -118 -20 -195 -6 -77 -18 -177 -27 -223 -15 -78 -13 -107 6 -86 12 12 39 193 51 344 6 69 15 152 20 185 40 256 37 465 -6 465 -8 0 -14 -3 -14 -6z"/>
<path d="M967 961 c-37 -80 -242 -321 -274 -321 -7 0 -13 -6 -13 -13 0 -14 -196 -202 -298 -287 -160 -133 -279 -210 -322 -210 -14 0 -18 -5 -13 -16 7 -19 47 -12 83 16 14 11 45 31 70 46 25 15 47 30 50 34 3 3 25 20 50 38 25 17 57 41 71 54 15 13 49 42 75 65 150 128 393 370 465 463 51 65 100 150 93 161 -10 16 -19 9 -37 -30z"/>
<path d=""/>
<path d=""/>
<path d=""/>
<path d=""/>
<path d="M2137 520 c-64 -19 -79 -63 -47 -138 47 -109 178 -151 296 -96 21 10 41 21 44 24 3 4 13 9 23 13 27 10 20 27 -13 27 -16 0 -30 -5 -30 -11 0 -14 -56 -35 -116 -43 -93 -12 -172 44 -181 127 -5 40 -2 49 21 72 18 17 34 25 47 22 10 -3 22 -1 25 4 6 11 -31 10 -69 -1z"/>
<path d=""/>
<path d=""/>
<path d=""/>
<path d=""/>
</g>
</svg>
