<?xml version="1.0" standalone="no"?>
<!DOCTYPE svg PUBLIC "-//W3C//DTD SVG 20010904//EN"
 "http://www.w3.org/TR/2001/REC-SVG-20010904/DTD/svg10.dtd">
<svg version="1.0" xmlns="http://www.w3.org/2000/svg"
 width="442.000000pt" height="311.000000pt" viewBox="0 0 442.000000 311.000000"
 preserveAspectRatio="xMidYMid meet">

<g transform="translate(0.000000,311.000000) scale(0.100000,-0.100000)"
fill="#000000" stroke="none">
<path d="M55 3090 c-5 -15 -12 -19 -31 -14 -19 5 -24 2 -24 -13 0 -18 10 -20
133 -27 72 -4 184 -10 247 -12 87 -3 118 -8 126 -19 9 -12 17 -13 44 -4 35 13
58 12 665 -20 215 -12 428 -26 475 -31 47 -6 128 -15 180 -20 52 -6 163 -20
245 -32 157 -23 184 -25 225 -15 14 4 43 11 65 16 22 5 81 15 130 21 50 6 108
15 130 20 98 22 150 30 198 31 75 2 113 12 108 30 -2 8 -3 35 -2 62 l2 47
-596 0 -595 0 5 -23 c5 -20 -2 -29 -47 -60 -51 -35 -98 -48 -98 -27 0 6 3 10
8 10 12 0 78 64 85 83 11 28 -25 21 -92 -18 -32 -19 -66 -35 -73 -35 -8 0 -19
-5 -26 -12 -9 -9 -12 -9 -12 2 0 8 17 29 37 47 l37 33 -351 0 c-307 -1 -353
-3 -373 -17 -22 -16 -23 -15 -17 1 6 16 -7 17 -216 12 -122 -2 -232 -5 -244
-5 -12 -1 -25 -6 -28 -11 -3 -6 -17 -10 -31 -10 -14 0 -22 -4 -19 -10 4 -6 -7
-10 -25 -10 -19 0 -29 4 -25 10 4 6 11 8 16 5 14 -9 11 5 -5 21 -14 13 -46 10
-46 -5 0 -4 -6 -8 -12 -8 -7 0 -31 -3 -53 -7 -31 -6 -36 -5 -22 4 31 20 18 30
-37 30 -46 0 -56 -3 -61 -20z"/>
<path d="M3502 3079 l-24 -29 40 0 c21 0 106 6 188 14 82 8 214 20 294 26 80
6 156 12 170 14 14 2 -126 3 -310 4 l-335 1 -23 -30z"/>
<path d="M3368 3043 c7 -3 16 -2 19 1 4 3 -2 6 -13 5 -11 0 -14 -3 -6 -6z"/>
<path d="M3080 3019 c0 -5 21 -9 47 -9 25 0 44 2 42 4 -9 9 -89 13 -89 5z"/>
<path d="M3208 3023 c6 -2 18 -2 25 0 6 3 1 5 -13 5 -14 0 -19 -2 -12 -5z"/>
<path d="M463 2959 c-13 -4 -23 -17 -23 -28 0 -10 -13 -33 -29 -50 -32 -34
-46 -83 -31 -112 14 -26 39 -24 49 4 5 12 17 31 28 43 25 27 43 61 43 78 0 8
6 19 13 23 6 4 19 17 27 27 14 18 14 19 -8 7 -20 -10 -26 -10 -35 2 -9 11 -18
13 -34 6z"/>
<path d="M3735 2929 c-73 -28 -197 -90 -221 -111 -11 -10 -45 -31 -75 -46 -74
-39 -116 -63 -170 -101 -26 -17 -49 -31 -52 -31 -27 0 -247 -197 -247 -221 0
-10 27 11 68 54 24 25 52 46 161 119 14 10 27 15 29 13 2 -2 25 11 51 28 26
18 74 50 107 72 32 22 74 52 91 67 18 15 63 41 100 58 110 51 192 58 243 22
18 -13 38 -17 73 -14 55 5 65 18 48 61 -22 51 -115 65 -206 30z"/>
<path d="M2015 2820 c-4 -6 8 -10 29 -10 20 0 36 5 36 10 0 6 -13 10 -29 10
-17 0 -33 -4 -36 -10z"/>
<path d="M1815 2800 c-16 -4 -59 -19 -94 -34 -36 -14 -70 -26 -76 -26 -7 0
-18 -7 -25 -15 -18 -22 6 -20 57 5 47 22 91 34 218 60 l90 18 -70 0 c-38 0
-83 -3 -100 -8z"/>
<path d="M348 2732 c-9 -20 -26 -75 -38 -122 -37 -140 -51 -192 -67 -245 -47
-154 -75 -289 -84 -415 -5 -74 -14 -182 -19 -240 -19 -201 -11 -320 34 -515 7
-33 18 -71 24 -85 5 -14 17 -61 27 -105 22 -100 33 -140 50 -185 7 -19 23 -73
36 -120 12 -47 26 -90 30 -96 5 -5 6 -26 3 -45 -5 -28 2 -51 29 -107 19 -39
37 -69 39 -66 15 14 98 -147 92 -179 -4 -20 -3 -20 4 -3 8 19 10 18 33 -8 39
-46 50 -56 61 -56 5 0 -4 18 -21 39 -17 21 -31 43 -31 49 0 5 -7 15 -15 22 -8
7 -15 21 -15 32 0 10 -8 33 -17 51 -28 52 -43 100 -37 122 5 21 -29 102 -68
164 -12 19 -23 53 -24 75 -1 32 -6 42 -21 44 -13 2 -26 23 -45 75 -33 90 -51
157 -44 165 8 7 46 -28 46 -44 0 -11 27 -36 124 -114 58 -47 66 -52 66 -44 0
5 -35 39 -78 75 -136 116 -168 169 -222 374 -29 112 -45 407 -29 570 6 66 11
143 10 170 -1 49 43 281 73 380 8 28 38 115 66 195 36 104 50 157 48 187 l-3
42 -17 -37z m50 -2207 c15 -33 15 -78 1 -73 -10 3 -38 70 -39 91 0 18 28 5 38
-18z"/>
<path d="M2889 2756 c-60 -18 -123 -91 -133 -152 -5 -27 -2 -33 17 -38 37 -10
39 -7 33 29 -5 27 -4 35 7 35 8 0 17 -7 21 -15 5 -13 9 -13 27 -3 51 30 82 66
80 95 -1 15 -2 36 -2 46 0 19 0 19 -50 3z"/>
<path d="M1410 2628 c-56 -29 -116 -65 -133 -81 l-32 -27 55 27 c30 14 57 30
60 34 6 8 78 51 128 74 28 13 41 25 28 25 -3 0 -50 -24 -106 -52z"/>
<path d="M2715 2515 c-15 -26 -25 -49 -22 -51 2 -3 17 16 32 41 15 26 25 49
22 51 -2 3 -17 -16 -32 -41z"/>
<path d="M2662 2418 c-6 -18 -13 -42 -16 -53 -4 -11 4 0 18 25 28 50 31 60 16
60 -5 0 -13 -15 -18 -32z"/>
<path d="M3980 2321 c0 -5 18 -24 40 -41 22 -17 43 -44 47 -58 3 -15 12 -37
20 -48 7 -12 29 -66 47 -120 25 -75 37 -98 49 -96 51 9 103 -244 141 -688 11
-131 13 -202 6 -280 -12 -134 -27 -234 -41 -285 -6 -22 -13 -52 -16 -68 -3
-15 -13 -33 -22 -40 -10 -6 -22 -37 -29 -68 -7 -38 -27 -80 -63 -135 -29 -43
-56 -80 -61 -82 -4 -2 -8 -12 -8 -23 0 -10 -9 -28 -19 -38 -18 -18 -19 -61 -1
-61 19 0 54 45 96 126 26 49 55 105 65 124 11 19 22 50 26 70 3 19 12 41 20
48 7 7 13 22 13 34 0 11 9 56 21 101 26 102 49 287 49 392 0 107 -35 470 -60
620 -18 106 -54 217 -91 275 -36 59 -67 132 -73 173 -6 36 -11 47 -22 43 -9
-3 -14 1 -14 12 0 10 -17 36 -37 59 -39 42 -83 71 -83 54z"/>
<path d="M684 2099 c-19 -22 -19 -22 4 -8 12 8 22 17 22 21 0 12 -6 9 -26 -13z"/>
<path d="M425 1880 c-3 -5 -1 -10 4 -10 6 0 11 5 11 10 0 6 -2 10 -4 10 -3 0
-8 -4 -11 -10z"/>
<path d="M4186 1820 c9 -143 11 -166 24 -309 11 -118 11 -162 0 -240 -22 -169
-86 -334 -192 -498 -46 -71 -304 -337 -318 -328 -4 3 -14 -2 -21 -11 -53 -65
-331 -221 -411 -232 -21 -2 -38 -8 -38 -11 0 -10 -111 -29 -210 -37 -75 -5
-171 4 -234 23 -10 3 -16 1 -13 -4 4 -6 36 -18 73 -28 129 -35 381 2 536 80
135 67 238 128 238 142 0 7 15 19 33 27 17 7 43 25 56 40 14 14 29 26 35 26 6
0 71 60 143 133 130 130 189 212 247 342 9 22 25 56 35 75 50 98 76 270 65
430 -5 69 -9 161 -9 205 0 44 -4 86 -8 93 -5 7 -15 45 -22 85 l-15 72 6 -75z"/>
<path d="M2521 1750 c-6 -28 -11 -61 -10 -73 0 -12 7 9 15 47 7 39 12 72 10
74 -2 2 -9 -20 -15 -48z"/>
<path d="M292 1747 c-18 -18 -32 -37 -32 -42 0 -5 16 8 35 29 32 36 40 46 32
46 -2 0 -17 -15 -35 -33z"/>
<path d="M223 1648 c-15 -20 -25 -38 -20 -38 3 0 12 11 21 25 17 26 16 35 -1
13z"/>
<path d="M2391 1113 c1 -123 4 -173 9 -143 12 69 12 318 0 325 -7 4 -10 -58
-9 -182z"/>
<path d="M2393 865 c0 -22 2 -30 4 -17 2 12 2 30 0 40 -3 9 -5 -1 -4 -23z"/>
<path d="M510 763 c0 -8 63 -53 85 -62 6 -2 -10 12 -33 32 -46 38 -52 42 -52
30z"/>
<path d="M715 600 c3 -5 11 -10 16 -10 6 0 7 5 4 10 -3 6 -11 10 -16 10 -6 0
-7 -4 -4 -10z"/>
<path d="M750 581 c0 -5 14 -14 32 -20 17 -6 39 -17 47 -25 9 -8 59 -36 111
-63 52 -27 113 -60 135 -74 22 -14 90 -42 150 -64 61 -21 151 -54 200 -73 50
-19 106 -38 125 -43 44 -9 174 -44 220 -58 74 -23 402 -82 457 -82 4 0 9 4 11
9 2 6 -31 13 -75 17 -78 8 -218 35 -368 73 -44 11 -123 30 -175 42 -52 12
-135 36 -185 55 -49 18 -124 45 -165 60 -133 47 -181 68 -213 89 -18 12 -59
36 -92 53 -94 48 -157 83 -179 99 -23 16 -36 18 -36 5z"/>
<path d="M4020 195 c-7 -9 -11 -18 -8 -20 3 -3 11 1 18 10 7 9 11 18 8 20 -3
3 -11 -1 -18 -10z"/>
<path d="M3982 162 c-25 -8 -10 -21 23 -19 19 1 35 5 35 8 0 9 -42 17 -58 11z"/>
</g>
</svg>
